<?xml version="1.0" encoding="UTF-8"?><svg id="Layer_1" xmlns="http://www.w3.org/2000/svg" viewBox="0 0 24 24"><path d="M2,6c0-.55.2-1.02.59-1.41.39-.39.86-.59,1.41-.59h16c.55,0,1.02.2,1.41.59.39.39.59.86.59,1.41v2c0,.28-.1.52-.29.71-.19.19-.43.29-.71.29s-.52-.1-.71-.29c-.19-.19-.29-.43-.29-.71v-2H4v2c0,.28-.1.52-.29.71-.19.19-.43.29-.71.29s-.52-.1-.71-.29c-.19-.19-.29-.43-.29-.71v-2ZM4,20c-.55,0-1.02-.2-1.41-.59-.39-.39-.59-.86-.59-1.41v-2c0-.28.1-.52.29-.71.19-.19.43-.29.71-.29s.52.1.71.29c.19.19.29.43.29.71v2h16v-2c0-.28.1-.52.29-.71s.43-.29.71-.29.52.1.71.29.29.43.29.71v2c0,.55-.2,1.02-.59,1.41-.39.39-.86.59-1.41.59H4ZM10,17c.18,0,.36-.05.52-.14.17-.09.29-.23.38-.41l3.1-6.2,1.1,2.2c.08.18.21.32.38.41.17.09.34.14.52.14h5c.28,0,.52-.1.71-.29s.29-.43.29-.71-.1-.52-.29-.71-.43-.29-.71-.29h-4.38l-1.73-3.45c-.08-.18-.21-.31-.38-.39-.17-.07-.34-.11-.52-.11s-.36.04-.52.11c-.17.08-.29.2-.38.39l-3.1,6.2-1.1-2.2c-.08-.18-.21-.32-.38-.41-.17-.09-.34-.14-.52-.14H3c-.28,0-.52.1-.71.29-.19.19-.29.43-.29.71s.1.52.29.71c.19.19.43.29.71.29h4.38l1.73,3.45c.08.18.21.32.38.41.17.09.34.14.52.14Z"/></svg>