<?xml version="1.0" encoding="UTF-8"?><svg id="Layer_1" xmlns="http://www.w3.org/2000/svg" viewBox="0 0 24 24"><path d="M11,13v3c0,.28.1.52.29.71s.43.29.71.29.52-.1.71-.29.29-.43.29-.71v-3h3c.28,0,.52-.1.71-.29s.29-.43.29-.71-.1-.52-.29-.71-.43-.29-.71-.29h-3v-3c0-.28-.1-.52-.29-.71s-.43-.29-.71-.29-.52.1-.71.29-.29.43-.29.71v3h-3c-.28,0-.52.1-.71.29s-.29.43-.29.71.1.52.29.71.43.29.71.29h3ZM12,22c-1.38,0-2.68-.26-3.9-.79-1.22-.52-2.28-1.24-3.18-2.14-.9-.9-1.61-1.96-2.14-3.18-.52-1.22-.79-2.52-.79-3.9s.26-2.68.79-3.9c.52-1.22,1.24-2.28,2.14-3.18.9-.9,1.96-1.61,3.18-2.14,1.22-.52,2.52-.79,3.9-.79s2.68.26,3.9.79c1.22.53,2.27,1.24,3.18,2.14.9.9,1.61,1.96,2.14,3.18.52,1.22.79,2.52.79,3.9s-.26,2.68-.79,3.9c-.53,1.22-1.24,2.27-2.14,3.18-.9.9-1.96,1.61-3.18,2.14s-2.52.79-3.9.79Z"/></svg>