<?xml version="1.0" encoding="UTF-8"?><svg id="Layer_1" xmlns="http://www.w3.org/2000/svg" viewBox="0 0 24 24"><path d="M12,22c-.27,0-.52-.05-.76-.14-.24-.09-.45-.24-.64-.44l-7.98-8c-.18-.2-.33-.42-.45-.66-.12-.24-.17-.5-.17-.76s.06-.52.17-.76c.12-.24.27-.45.45-.64L10.6,2.6c.2-.2.42-.35.65-.45.23-.1.48-.15.75-.15s.52.05.77.15c.25.1.47.25.65.45l7.95,8c.18.2.33.42.45.65.12.23.17.48.17.75s-.05.52-.16.76c-.11.24-.26.46-.46.66l-7.95,8c-.18.18-.4.33-.65.43s-.51.15-.77.15ZM11,13v2c0,.28.1.52.29.71s.43.29.71.29.52-.1.71-.29.29-.43.29-.71v-2h2c.28,0,.52-.1.71-.29s.29-.43.29-.71-.1-.52-.29-.71-.43-.29-.71-.29h-2v-2c0-.28-.1-.52-.29-.71-.19-.19-.43-.29-.71-.29s-.52.1-.71.29c-.19.19-.29.43-.29.71v2h-2c-.28,0-.52.1-.71.29-.19.19-.29.43-.29.71s.1.52.29.71c.19.19.43.29.71.29h2Z"/></svg>