<?xml version="1.0" encoding="UTF-8"?><svg id="Layer_1" xmlns="http://www.w3.org/2000/svg" viewBox="0 0 24 24"><path d="M2.5,19.5l1-9.5,3-5.5h10l3,4,2,1.5.5,2-2,2,.5,4.5-2,2.5H4l-1.5-1.5Z" style="fill:#fff;"/><path d="M10.39,8.46c0,.62.39,1.13.89,1.14.5,0,.91-.49.91-1.11,0-.62-.39-1.13-.89-1.14-.5,0-.91.49-.91,1.11Z"/><path d="M15.35,8.26c0,.51.32.93.74.94.41,0,.75-.41.76-.92,0-.51-.32-.93-.74-.94-.41,0-.75.41-.76.92Z"/><path d="M7.74,3.61c-1.13-.94-4.01-.92-5.4.91-1.59,2.08-1.43,6.51.07,7.34-.31,2.2-.55,4.74-.64,7.11-.06,1.55,1.2,2.78,2.71,2.78h14c1.51,0,2.77-1.23,2.71-2.78-.05-1.42-.16-2.91-.31-4.34.98-.58,1.76-1.48,1.87-2.82v-.32c.01-1.06-.4-1.9-1.05-2.53-.21-.2-.69-.54-.69-.54.69-1.96-.36-4.57-2.18-5.13-2.22-.68-4.04-.05-4.43.05-.05.01-.09.04-.12.07-.88-.13-1.81-.18-2.78-.18h-.73c-1.06.04-2.08.14-3.01.36ZM11.48,4.75c1.91,0,3.48.2,4.64.76,1.11.53,1.9,1.4,2.26,2.9.02.07.03.13.05.22l.1.43.42.12c.71.21,1.3.51,1.69.88.37.36.6.81.6,1.44v.18c-.07.86-.6,1.44-1.49,1.86l-.49.23.06.53c.17,1.55.29,3.18.35,4.74.03.66-.51,1.22-1.21,1.22H4.47c-.7,0-1.23-.56-1.21-1.22.09-2.42.35-5.01.66-7.2,1.31-.49,2.05-1.98,2.53-3.86.52-2.02,1.48-1.82,1.71-2.92.77-.18,1.64-.27,2.62-.3h.7Z" style="fill-rule:evenodd;"/><path d="M15.84,10.9c0,.55.9,1.62,2.04,1.63,1.14.01,2.07-1.03,2.08-1.58,0-.55-.91-.94-2.05-.95-1.14-.01-2.06.35-2.07.9Z"/><path d="M10.39,8.46c0,.62.39,1.13.89,1.14.5,0,.91-.49.91-1.11,0-.62-.39-1.13-.89-1.14-.5,0-.91.49-.91,1.11Z"/><path d="M15.35,8.26c0,.51.32.93.74.94.41,0,.75-.41.76-.92,0-.51-.32-.93-.74-.94-.41,0-.75.41-.76.92Z"/><path d="M10.81,12.65c-.2-.2-.51-.2-.71,0-.2.2-.2.51,0,.71.91.91,2.13,1.27,3.22,1.37,1.1.1,2.13-.06,2.77-.24.27-.08.42-.35.34-.62-.08-.27-.35-.42-.62-.34-.53.15-1.44.29-2.41.21-.96-.09-1.92-.39-2.6-1.08Z"/></svg>