<?xml version="1.0" encoding="UTF-8"?><svg id="Layer_1" xmlns="http://www.w3.org/2000/svg" viewBox="0 0 24 24"><path d="M1.38,13.42c4.52,1.17,8.03,4.69,9.21,9.2.17.5.67.5.84,0,1.17-4.52,4.69-8.03,9.2-9.2.5-.17.5-.67,0-.84-4.52-1.17-8.03-4.69-9.2-9.21-.17-.5-.67-.5-.84,0-1.17,4.52-4.69,8.03-9.21,9.21-.5.17-.5.67,0,.84Z"/><path d="M15.15,5.17c1.81.47,3.21,1.87,3.68,3.68.07.2.27.2.33,0,.47-1.81,1.87-3.21,3.68-3.68.2-.07.2-.27,0-.33-1.81-.47-3.21-1.87-3.68-3.68-.07-.2-.27-.2-.33,0-.47,1.81-1.87,3.21-3.68,3.68-.2.07-.2.27,0,.33Z"/></svg>