<?xml version="1.0" encoding="UTF-8"?><svg id="Layer_1" xmlns="http://www.w3.org/2000/svg" viewBox="0 0 24 24"><path d="M8,16h8c.28,0,.52-.1.71-.29s.29-.43.29-.71-.1-.52-.29-.71-.43-.29-.71-.29h-8c-.28,0-.52.1-.71.29s-.29.43-.29.71.1.52.29.71.43.29.71.29ZM9.57,10.5c.33-.32.71-.56,1.12-.74.42-.18.85-.26,1.3-.26.67,0,1.27.18,1.82.55.55.37.97.85,1.25,1.45.08.18.22.31.41.38s.38.06.56-.02c.2-.08.34-.22.43-.4s.07-.37-.02-.55c-.43-.87-1.05-1.57-1.84-2.1-.79-.53-1.66-.8-2.61-.8-.65,0-1.28.12-1.89.38-.61.25-1.15.61-1.61,1.07v-.7c0-.22-.07-.4-.21-.54-.14-.14-.32-.21-.54-.21s-.4.07-.54.21c-.14.14-.21.32-.21.54v2.5c0,.22.07.4.21.54.14.14.32.21.54.21h2.5c.22,0,.4-.07.54-.21.14-.14.21-.32.21-.54s-.07-.4-.21-.54c-.14-.14-.32-.21-.54-.21h-.68ZM12,22c-1.38,0-2.68-.26-3.9-.79-1.22-.52-2.28-1.24-3.18-2.14-.9-.9-1.61-1.96-2.14-3.18-.52-1.22-.79-2.52-.79-3.9s.26-2.68.79-3.9c.52-1.22,1.24-2.28,2.14-3.18.9-.9,1.96-1.61,3.18-2.14,1.22-.52,2.52-.79,3.9-.79s2.68.26,3.9.79c1.22.53,2.27,1.24,3.18,2.14.9.9,1.61,1.96,2.14,3.18.52,1.22.79,2.52.79,3.9s-.26,2.68-.79,3.9c-.53,1.22-1.24,2.27-2.14,3.18-.9.9-1.96,1.61-3.18,2.14s-2.52.79-3.9.79ZM12,20c2.23,0,4.12-.77,5.67-2.33,1.55-1.55,2.33-3.44,2.33-5.67s-.77-4.12-2.33-5.68c-1.55-1.55-3.44-2.32-5.67-2.32s-4.12.78-5.68,2.32c-1.55,1.55-2.32,3.44-2.32,5.68s.78,4.12,2.32,5.67c1.55,1.55,3.44,2.33,5.68,2.33Z"/></svg>