<?xml version="1.0" encoding="UTF-8"?><svg id="Layer_1" xmlns="http://www.w3.org/2000/svg" viewBox="0 0 24 24"><path d="M12,23c-2.48,0-4.6-.35-6.36-1.06-1.76-.71-2.64-1.69-2.64-2.94,0-.53.17-1.01.5-1.44s.8-.8,1.4-1.14l1.62,1.45c-.4.13-.75.3-1.06.51-.31.21-.46.41-.46.61,0,.43.68.88,2.03,1.33,1.35.45,3.01.67,4.97.67s3.62-.23,4.98-.67c1.35-.45,2.02-.89,2.02-1.33,0-.2-.15-.4-.46-.61-.31-.21-.66-.38-1.06-.51l1.62-1.45c.6.33,1.07.71,1.4,1.14s.5.9.5,1.44c0,1.25-.88,2.23-2.64,2.94-1.76.71-3.88,1.06-6.36,1.06ZM12,19c-.37,0-.72-.06-1.06-.19-.34-.12-.65-.31-.94-.56l-6.3-5.57c-.22-.18-.39-.41-.51-.68s-.19-.54-.19-.82v-2c0-.28.05-.56.16-.82.11-.27.27-.49.49-.68L9.95,1.8c.28-.27.6-.47.95-.6.35-.13.72-.2,1.1-.2s.75.07,1.1.2c.35.13.67.33.95.6l6.3,5.88c.22.18.38.41.49.68.11.27.16.54.16.82v2c0,.28-.06.56-.19.82s-.3.49-.51.68l-6.3,5.57c-.28.25-.6.44-.94.56-.34.12-.7.19-1.06.19ZM11.9,14.3c.23,0,.45-.04.66-.11.21-.07.4-.2.59-.36l5.55-4.93-6-5.65c-.12-.08-.23-.15-.35-.19-.12-.04-.24-.06-.38-.06s-.26.02-.38.06c-.12.04-.22.1-.3.19l-6.1,5.75,5.45,4.82c.18.17.38.29.59.36.21.07.43.11.66.11ZM9,10.25c.35,0,.65-.12.89-.36.24-.24.36-.54.36-.89s-.12-.65-.36-.89c-.24-.24-.54-.36-.89-.36s-.65.12-.89.36c-.24.24-.36.54-.36.89s.12.65.36.89c.24.24.54.36.89.36ZM10.25,11.6c.72.35,1.47.46,2.26.34.79-.12,1.49-.45,2.09-.99.57-.48.94-1.09,1.11-1.82.18-.73.09-1.43-.26-2.07l-5.2,4.55ZM12,7.25c.35,0,.65-.12.89-.36.24-.24.36-.54.36-.89s-.12-.65-.36-.89c-.24-.24-.54-.36-.89-.36s-.65.12-.89.36c-.24.24-.36.54-.36.89s.12.65.36.89c.24.24.54.36.89.36Z"/></svg>