<?xml version="1.0" encoding="UTF-8"?><svg id="Layer_1" xmlns="http://www.w3.org/2000/svg" viewBox="0 0 24 24"><path d="M9,16.4l-3.87,3.9c-.2.2-.43.3-.7.3s-.5-.1-.7-.3c-.2-.2-.3-.44-.3-.71s.1-.51.3-.71l3.88-3.88h-1.6c-.28,0-.52-.1-.71-.29-.19-.19-.29-.43-.29-.71s.1-.52.29-.71c.19-.19.43-.29.71-.29h4c.28,0,.52.1.71.29.19.19.29.43.29.71v4c0,.28-.1.52-.29.71-.19.19-.43.29-.71.29s-.52-.1-.71-.29c-.19-.19-.29-.43-.29-.71v-1.6ZM16.4,9h1.6c.28,0,.52.1.71.29.19.19.29.43.29.71s-.1.52-.29.71c-.19.19-.43.29-.71.29h-4c-.28,0-.52-.1-.71-.29-.19-.19-.29-.43-.29-.71v-4c0-.28.1-.52.29-.71.19-.19.43-.29.71-.29s.52.1.71.29c.19.19.29.43.29.71v1.6l3.88-3.9c.2-.2.43-.3.7-.3s.5.1.7.3c.2.2.3.44.3.71s-.1.51-.3.71l-3.88,3.88Z"/></svg>