<?xml version="1.0" encoding="UTF-8"?><svg id="Layer_1" xmlns="http://www.w3.org/2000/svg" viewBox="0 0 24 24"><path d="M5,19V5v4.48-.48,10ZM8,13h3.52c.28,0,.52-.1.71-.29s.29-.43.29-.71-.1-.52-.29-.71-.43-.29-.71-.29h-3.52c-.28,0-.52.1-.71.29s-.29.43-.29.71.1.52.29.71.43.29.71.29ZM8,17h3.52c.28,0,.52-.1.71-.29s.29-.43.29-.71-.1-.52-.29-.71-.43-.29-.71-.29h-3.52c-.28,0-.52.1-.71.29s-.29.43-.29.71.1.52.29.71.43.29.71.29ZM8,9h8c.28,0,.52-.1.71-.29.19-.19.29-.43.29-.71s-.1-.52-.29-.71-.43-.29-.71-.29h-8c-.28,0-.52.1-.71.29s-.29.43-.29.71.1.52.29.71c.19.19.43.29.71.29ZM5,21c-.55,0-1.02-.2-1.41-.59-.39-.39-.59-.86-.59-1.41V5c0-.55.2-1.02.59-1.41s.86-.59,1.41-.59h14c.55,0,1.02.2,1.41.59.39.39.59.86.59,1.41v4.45c0,.28-.1.52-.29.71-.19.19-.43.29-.71.29s-.52-.1-.71-.29c-.19-.19-.29-.43-.29-.71v-4.45H5v14h4c.28,0,.52.1.71.29.19.19.29.43.29.71s-.1.52-.29.71c-.19.19-.43.29-.71.29h-4ZM17,16c-.7,0-1.29-.24-1.77-.73-.48-.48-.73-1.07-.73-1.77s.24-1.29.73-1.77c.48-.48,1.07-.73,1.77-.73s1.29.24,1.77.73c.48.48.73,1.07.73,1.77s-.24,1.29-.73,1.77c-.48.48-1.07.73-1.77.73ZM17,17c.65,0,1.3.06,1.94.19.64.12,1.26.31,1.86.56.38.15.68.4.89.74.21.34.31.71.31,1.11v.4c0,.28-.1.52-.29.71s-.43.29-.71.29h-8c-.28,0-.52-.1-.71-.29s-.29-.43-.29-.71v-.4c0-.4.1-.77.31-1.11.21-.34.5-.59.89-.74.6-.25,1.22-.44,1.86-.56.64-.12,1.29-.19,1.94-.19Z"/></svg>