<?xml version="1.0" encoding="UTF-8"?><svg id="Layer_1" xmlns="http://www.w3.org/2000/svg" viewBox="0 0 24 24"><path d="M20.41,3.59c-.39-.39-.86-.59-1.41-.59h-4.2c-.22-.6-.58-1.08-1.09-1.45-.51-.37-1.08-.55-1.71-.55s-1.2.18-1.71.55c-.51.37-.87.85-1.09,1.45h-4.2c-.55,0-1.02.2-1.41.59-.39.39-.59.86-.59,1.41v14c0,.55.2,1.02.59,1.41.39.39.86.59,1.41.59h14c.55,0,1.02-.2,1.41-.59.39-.39.59-.86.59-1.41V5c0-.55-.2-1.02-.59-1.41ZM11.46,2.96c.14-.14.32-.21.54-.21s.4.07.54.21c.14.14.21.32.21.54s-.07.4-.21.54c-.14.14-.32.21-.54.21s-.4-.07-.54-.21c-.14-.14-.21-.32-.21-.54s.07-.4.21-.54ZM19,19H5V5h14v14Z"/><path d="M9.29,15.71c.39.39,1.02.39,1.41,0l6-6c.39-.39.39-1.02,0-1.41-.39-.39-1.02-.39-1.41,0l-5.29,5.29-1.29-1.29-.08-.07c-.39-.32-.97-.3-1.34.07-.39.39-.39,1.02,0,1.41l2,2Z"/></svg>