<?xml version="1.0" encoding="UTF-8"?><svg id="Layer_1" xmlns="http://www.w3.org/2000/svg" viewBox="0 0 24 24"><path d="M20.41,3.59c-.39-.39-.86-.59-1.41-.59h-4.2c-.22-.6-.58-1.08-1.09-1.45-.51-.37-1.08-.55-1.71-.55s-1.2.18-1.71.55c-.51.37-.87.85-1.09,1.45h-4.2c-.55,0-1.02.2-1.41.59-.39.39-.59.86-.59,1.41v14c0,.55.2,1.02.59,1.41.39.39.86.59,1.41.59h14c.55,0,1.02-.2,1.41-.59.39-.39.59-.86.59-1.41V5c0-.55-.2-1.02-.59-1.41ZM11.46,2.96c.14-.14.32-.21.54-.21s.4.07.54.21c.14.14.21.32.21.54s-.07.4-.21.54c-.14.14-.32.21-.54.21s-.4-.07-.54-.21c-.14-.14-.21-.32-.21-.54s.07-.4.21-.54ZM19,19H5V5h14v14Z"/><path d="M16.67,9.74l.03-.03c.39-.39.39-1.02,0-1.41-.39-.39-1.02-.39-1.41,0l-.03.03c-.39.39-.39,1.02,0,1.41.39.39,1.02.39,1.41,0Z"/><path d="M14.67,11.74l.06-.06c.39-.39.39-1.02,0-1.41-.39-.39-1.02-.39-1.41,0l-.06.06c-.39.39-.39,1.02,0,1.41.39.39,1.02.39,1.41,0Z"/><path d="M12.67,13.74l.06-.06c.39-.39.39-1.02,0-1.41s-1.02-.39-1.41,0l-.06.06c-.39.39-.39,1.02,0,1.41.39.39,1.02.39,1.41,0Z"/><path d="M7.33,13.74c.39.39,1.02.39,1.41,0,.37-.37.39-.95.07-1.34l-.07-.08-.03-.03-.08-.07c-.39-.32-.97-.3-1.34.07-.39.39-.39,1.02,0,1.41l.03.03Z"/><path d="M9.19,15.6l.07.08.03.03c.39.39,1.02.39,1.41,0l.03-.03c.39-.39.39-1.02,0-1.41-.2-.2-.47-.3-.74-.29-.27,0-.54.09-.74.29-.37.37-.39.95-.07,1.34Z"/></svg>