<?xml version="1.0" encoding="UTF-8"?><svg id="Layer_1" xmlns="http://www.w3.org/2000/svg" viewBox="0 0 24 24"><path d="M15.5,17.12l4.95-4.95c.18-.18.42-.28.7-.28s.52.09.7.28.27.42.27.7-.09.52-.27.7l-5.65,5.65c-.2.2-.43.3-.7.3s-.5-.1-.7-.3l-2.85-2.85c-.18-.18-.27-.42-.27-.7s.09-.52.27-.7.42-.28.7-.28.52.09.7.28l2.15,2.15ZM5,21c-.55,0-1.02-.2-1.41-.59-.39-.39-.59-.86-.59-1.41V5c0-.55.2-1.02.59-1.41s.86-.59,1.41-.59h4.18c.18-.58.54-1.06,1.07-1.44.53-.38,1.12-.56,1.75-.56.67,0,1.26.19,1.79.56.52.38.88.85,1.06,1.44h4.15c.55,0,1.02.2,1.41.59.39.39.59.86.59,1.41v4c0,.28-.1.52-.29.71-.19.19-.43.29-.71.29s-.52-.1-.71-.29c-.19-.19-.29-.43-.29-.71v-4h-2v2c0,.28-.1.52-.29.71s-.43.29-.71.29h-8c-.28,0-.52-.1-.71-.29s-.29-.43-.29-.71v-2h-2v14h5c.28,0,.52.1.71.29s.29.43.29.71-.1.52-.29.71-.43.29-.71.29h-5ZM12,5c.28,0,.52-.1.71-.29s.29-.43.29-.71-.1-.52-.29-.71c-.19-.19-.43-.29-.71-.29s-.52.1-.71.29c-.19.19-.29.43-.29.71s.1.52.29.71.43.29.71.29Z"/></svg>