<?xml version="1.0" encoding="UTF-8"?><svg id="Layer_1" xmlns="http://www.w3.org/2000/svg" viewBox="0 0 24 24"><path d="M12,19.55c-.18,0-.36-.02-.54-.07-.17-.05-.34-.12-.49-.2-.68-.42-1.4-.73-2.15-.95-.75-.22-1.52-.33-2.32-.33-.7,0-1.39.09-2.06.27-.67.18-1.32.44-1.94.77-.35.18-.69.18-1.01-.02-.32-.2-.49-.49-.49-.88V6.1c0-.18.05-.36.14-.53.09-.17.23-.29.41-.38.77-.4,1.57-.7,2.4-.9.83-.2,1.68-.3,2.55-.3.97,0,1.91.12,2.84.38.93.25,1.81.62,2.66,1.12v12.1c.85-.53,1.74-.93,2.68-1.2.93-.27,1.87-.4,2.82-.4.6,0,1.19.05,1.76.15.57.1,1.15.25,1.74.45V4.6c.25.08.5.17.74.26.24.09.48.2.71.34.18.08.32.21.41.38.09.17.14.34.14.53v12.05c0,.38-.16.68-.49.88-.33.2-.66.21-1.01.02-.62-.33-1.26-.59-1.94-.77-.67-.18-1.36-.27-2.06-.27-.8,0-1.57.11-2.32.33-.75.22-1.47.53-2.15.95-.15.08-.31.15-.49.2-.18.05-.35.07-.54.07ZM14.82,14.25c-.17.15-.35.18-.54.09-.19-.09-.29-.25-.29-.46V5.7c0-.07.01-.13.04-.19.02-.06.06-.11.11-.16l4-4c.17-.17.35-.21.55-.12.2.08.3.24.3.47v8.57c0,.08-.02.15-.05.21-.03.06-.08.11-.12.16l-4,3.6ZM10,16.62V6.73c-.55-.23-1.12-.41-1.71-.54-.59-.12-1.19-.19-1.79-.19s-1.22.06-1.8.18c-.58.12-1.15.29-1.7.52v9.92c.58-.22,1.16-.38,1.74-.48.57-.1,1.16-.15,1.76-.15s1.19.05,1.76.15c.57.1,1.15.26,1.74.48Z"/></svg>