<?xml version="1.0" encoding="UTF-8"?><svg id="Layer_1" xmlns="http://www.w3.org/2000/svg" viewBox="0 0 24 24"><path d="M12.8,23c-1.37,0-2.65-.31-3.85-.94-1.2-.62-2.18-1.5-2.95-2.61L1.57,12.95c-.12-.17-.16-.35-.14-.54.02-.19.1-.35.24-.49.33-.35.75-.55,1.24-.6.49-.05.94.07,1.34.35l2.75,1.9V4c0-.28.1-.52.29-.71.19-.19.43-.29.71-.29s.52.1.71.29c.19.19.29.43.29.71v8h2V2c0-.28.1-.52.29-.71.19-.19.43-.29.71-.29s.52.1.71.29c.19.19.29.43.29.71v10h2V3c0-.28.1-.52.29-.71.19-.19.43-.29.71-.29s.52.1.71.29c.19.19.29.43.29.71v9h2v-7c0-.28.1-.52.29-.71s.43-.29.71-.29.52.1.71.29c.19.19.29.43.29.71v9.8c0,2.28-.8,4.22-2.39,5.81-1.59,1.59-3.53,2.39-5.81,2.39Z"/></svg>