<?xml version="1.0" encoding="UTF-8"?><svg id="Layer_1" xmlns="http://www.w3.org/2000/svg" viewBox="0 0 24 24"><path d="M7.5,12c-.83,0-1.5.67-1.5,1.5v5c0,.83.67,1.5,1.5,1.5h9c.83,0,1.5-.67,1.5-1.5v-5c0-.83-.67-1.5-1.5-1.5H7.5ZM16.5,18c0,.28-.22.5-.5.5h-8c-.28,0-.5-.22-.5-.5v-4c0-.28.22-.5.5-.5h8c.28,0,.5.22.5.5v4Z"/><path d="M15.5,14.5h-7c-.28,0-.5.22-.5.5s.22.5.5.5h7c.28,0,.5-.22.5-.5s-.22-.5-.5-.5Z"/><path d="M9.6,10.29h4.79c.33,0,.6-.27.6-.6v-2.93c0-.42-.34-.75-.76-.75-.23,0-.43.1-.57.26l-1.68,1.68-1.68-1.68c-.14-.16-.34-.26-.57-.26-.42,0-.76.34-.76.75v2.93c0,.33.27.6.6.6Z"/><path d="M20.5,12.82v-3.82c0-3.21-2.52-5.82-5.68-5.98-.41-1.17-1.51-2.02-2.82-2.02s-2.41.85-2.82,2.02c-3.16.17-5.68,2.78-5.68,5.98v3.82c-1.42.24-2.5,1.46-2.5,2.95v3c0,1.1.9,2,2,2h.61c.34,1.28,1.5,2.23,2.89,2.23h11c1.39,0,2.55-.95,2.89-2.23h.61c1.1,0,2-.9,2-2v-3c0-1.49-1.08-2.71-2.5-2.95ZM2.5,15.77c0-.65.42-1.2,1-1.41v1.64h-1v-.23ZM2.5,18.77v-1.77h1v2.27h-.5c-.28,0-.5-.22-.5-.5ZM12,2.5c.44,0,.84.2,1.11.5h-2.22c.27-.3.67-.5,1.11-.5ZM18.5,20c0,.55-.45,1-1,1H6.5c-.55,0-1-.45-1-1v-11c0-2.21,1.79-4,4-4h5c2.21,0,4,1.79,4,4v11ZM21.5,18.77c0,.28-.22.5-.5.5h-.5v-2.27h1v1.77ZM21.5,16h-1v-1.64c.58.21,1,.76,1,1.41v.23Z"/></svg>