<?xml version="1.0" encoding="UTF-8"?><svg id="Layer_1" xmlns="http://www.w3.org/2000/svg" viewBox="0 0 24 24"><path d="M7.5,14c-.83,0-1.5.67-1.5,1.5v5c0,.83.67,1.5,1.5,1.5h9c.83,0,1.5-.67,1.5-1.5v-5c0-.83-.67-1.5-1.5-1.5H7.5ZM16.5,20c0,.28-.22.5-.5.5h-8c-.28,0-.5-.22-.5-.5v-4c0-.28.22-.5.5-.5h8c.28,0,.5.22.5.5v4Z"/><path d="M15.5,16.5h-7c-.28,0-.5.22-.5.5s.22.5.5.5h7c.28,0,.5-.22.5-.5s-.22-.5-.5-.5Z"/><path d="M9.6,13.29h4.79c.33,0,.6-.27.6-.6v-2.93c0-.42-.34-.75-.76-.75-.23,0-.43.1-.57.26l-1.68,1.68-1.68-1.68c-.14-.16-.34-.26-.57-.26-.42,0-.76.34-.76.75v2.93c0,.33.27.6.6.6Z"/><path d="M20.5,12.82v-3.82c0-3.21-2.52-5.82-5.68-5.98-.41-1.17-1.51-2.02-2.82-2.02s-2.41.85-2.82,2.02c-3.16.17-5.68,2.78-5.68,5.98v3.82c-1.42.24-2.5,1.46-2.5,2.95v3c0,1.1.9,2,2,2h.61c.34,1.28,1.5,2.23,2.89,2.23h11c1.39,0,2.55-.95,2.89-2.23h.61c1.1,0,2-.9,2-2v-3c0-1.49-1.08-2.71-2.5-2.95ZM3.5,19.27h-.5c-.28,0-.5-.22-.5-.5v-1.77h1v2.27ZM3.5,16h-1v-.23c0-.65.42-1.2,1-1.41v1.64ZM18.28,7.26c-.29-.26-.62-.46-.96-.65l-.49-1.34c.67.49,1.18,1.18,1.45,1.99ZM15.55,4.65l.54,1.48c-.28-.07-.58-.1-.88-.12l-.55-1.51c.31.01.6.06.89.14ZM11.4,6l-.55-1.5h.84l.55,1.5h-.84ZM13.3,6l-.55-1.5h.84l.55,1.5h-.84ZM12,2.5c.44,0,.84.2,1.11.5h-2.22c.27-.3.67-.5,1.11-.5ZM9.5,4.5h.29l.55,1.5h-.84l-.53-1.46c.17-.02.35-.04.53-.04ZM7.67,6.2l-.37-1.02c.22-.15.45-.27.7-.37l.45,1.24c-.27.03-.53.08-.78.15ZM6.5,5.9l.25.68c-.37.19-.72.41-1.03.68.17-.51.44-.96.78-1.36ZM18.5,20c0,.55-.45,1-1,1H6.5c-.55,0-1-.45-1-1v-9c0-1.93,1.57-3.5,3.5-3.5h6c1.93,0,3.5,1.57,3.5,3.5v9ZM21.5,18.77c0,.28-.22.5-.5.5h-.5v-2.27h1v1.77ZM21.5,16h-1v-1.64c.58.21,1,.76,1,1.41v.23Z"/></svg>