<?xml version="1.0" encoding="UTF-8"?><svg id="Layer_1" xmlns="http://www.w3.org/2000/svg" viewBox="0 0 24 24"><path d="M12.8,23c-1.37,0-2.65-.31-3.85-.94-1.2-.62-2.18-1.5-2.95-2.61L1.57,12.95c-.12-.17-.16-.35-.14-.54.02-.19.1-.35.24-.49.33-.35.75-.55,1.24-.6.49-.05.94.07,1.34.35l2.75,1.9V4c0-.28.1-.52.29-.71.19-.19.43-.29.71-.29s.52.1.71.29c.19.19.29.43.29.71v11.5c0,.4-.18.7-.54.89-.36.19-.7.17-1.04-.06l-2.12-1.48,2.38,3.45c.58.85,1.32,1.51,2.23,1.99.9.48,1.87.71,2.9.71,1.72,0,3.18-.6,4.39-1.81,1.21-1.21,1.81-2.67,1.81-4.39V5c0-.28.1-.52.29-.71s.43-.29.71-.29.52.1.71.29c.19.19.29.43.29.71v9.8c0,2.28-.8,4.22-2.39,5.81-1.59,1.59-3.53,2.39-5.81,2.39ZM12,1c.28,0,.52.1.71.29.19.19.29.43.29.71v9c0,.28-.1.52-.29.71-.19.19-.43.29-.71.29s-.52-.1-.71-.29c-.19-.19-.29-.43-.29-.71V2c0-.28.1-.52.29-.71.19-.19.43-.29.71-.29ZM16,2c.28,0,.52.1.71.29.19.19.29.43.29.71v8c0,.28-.1.52-.29.71-.19.19-.43.29-.71.29s-.52-.1-.71-.29c-.19-.19-.29-.43-.29-.71V3c0-.28.1-.52.29-.71.19-.19.43-.29.71-.29Z"/></svg>