<?xml version="1.0" encoding="UTF-8"?><svg id="Layer_1" xmlns="http://www.w3.org/2000/svg" viewBox="0 0 24 24"><path d="M12,22.5c-.22,0-.43-.03-.62-.1s-.39-.17-.57-.3l-6-4.5c-.25-.18-.45-.42-.59-.7-.14-.28-.21-.58-.21-.9V4c0-.55.2-1.02.59-1.41.39-.39.86-.59,1.41-.59h12c.55,0,1.02.2,1.41.59.39.39.59.86.59,1.41v12c0,.32-.07.62-.21.9-.14.28-.34.52-.59.7l-6,4.5c-.18.13-.38.23-.57.3s-.41.1-.62.1ZM10.95,12.15l-1.4-1.4c-.2-.2-.43-.3-.7-.29-.27,0-.5.1-.7.29-.2.2-.3.44-.31.71,0,.28.09.51.29.71l2.12,2.12c.2.2.43.3.7.3s.5-.1.7-.3l4.25-4.25c.2-.2.3-.43.29-.7,0-.27-.1-.5-.29-.7-.2-.2-.44-.3-.71-.31-.27,0-.51.09-.71.29l-3.53,3.52Z"/></svg>