<?xml version="1.0" encoding="UTF-8"?><svg id="Layer_1" xmlns="http://www.w3.org/2000/svg" viewBox="0 0 24 24"><path d="M12,22c-1.38,0-2.68-.26-3.9-.79-1.22-.52-2.28-1.24-3.18-2.14-.9-.9-1.61-1.96-2.14-3.18-.52-1.22-.79-2.52-.79-3.9s.26-2.68.79-3.9c.53-1.22,1.24-2.28,2.14-3.18.9-.9,1.96-1.61,3.18-2.14,1.22-.52,2.52-.79,3.9-.79s2.68.26,3.9.79c1.22.53,2.27,1.24,3.18,2.14.9.9,1.61,1.96,2.14,3.18.52,1.22.79,2.52.79,3.9s-.26,2.68-.79,3.9-1.24,2.27-2.14,3.18c-.9.9-1.96,1.61-3.18,2.14s-2.52.79-3.9.79ZM12,20c.9,0,1.77-.15,2.6-.44.83-.29,1.6-.71,2.3-1.26L5.7,7.1c-.55.7-.97,1.47-1.26,2.3-.29.83-.44,1.7-.44,2.6,0,2.23.78,4.12,2.32,5.67,1.55,1.55,3.44,2.33,5.68,2.33ZM18.3,16.9c.55-.7.97-1.47,1.26-2.3.29-.83.44-1.7.44-2.6,0-2.23-.77-4.12-2.33-5.68-1.55-1.55-3.44-2.32-5.67-2.32-.9,0-1.77.15-2.6.44-.83.29-1.6.71-2.3,1.26l11.2,11.2Z"/></svg>