<?xml version="1.0" encoding="UTF-8"?><svg id="Layer_1" xmlns="http://www.w3.org/2000/svg" viewBox="0 0 24 24"><path d="M10.95,11.18l-.72-.73c-.2-.18-.43-.27-.7-.27s-.5.1-.7.3c-.2.2-.3.43-.3.7s.1.5.3.7l1.4,1.43c.2.2.44.3.71.3s.51-.1.71-.3l3.53-3.55c.2-.2.3-.43.3-.7s-.1-.5-.3-.7c-.2-.2-.43-.3-.7-.3s-.5.1-.7.3l-2.82,2.82ZM12,18l-4.2,1.8c-.67.28-1.3.23-1.9-.16-.6-.39-.9-.95-.9-1.66V5c0-.55.2-1.02.59-1.41.39-.39.86-.59,1.41-.59h10c.55,0,1.02.2,1.41.59.39.39.59.86.59,1.41v12.98c0,.72-.3,1.27-.9,1.66-.6.39-1.23.45-1.9.16l-4.2-1.8ZM12,15.8l5,2.15V5H7v12.95l5-2.15Z"/></svg>