<?xml version="1.0" encoding="UTF-8"?><svg id="Layer_1" xmlns="http://www.w3.org/2000/svg" viewBox="0 0 24 24"><path d="M19,13h-2c-.28,0-.52-.1-.71-.29-.19-.19-.29-.43-.29-.71s.1-.52.29-.71c.19-.19.43-.29.71-.29h2c.28,0,.52.1.71.29.19.19.29.43.29.71s-.1.52-.29.71c-.19.19-.43.29-.71.29ZM14.6,16.8c.17-.23.38-.37.65-.4.27-.03.52.03.75.2l1.6,1.2c.23.17.37.38.4.65.03.27-.03.52-.2.75-.17.23-.38.37-.65.4-.27.03-.52-.03-.75-.2l-1.6-1.2c-.23-.17-.37-.38-.4-.65-.03-.27.03-.52.2-.75ZM17.6,6.2l-1.6,1.2c-.23.17-.48.23-.75.2-.27-.03-.48-.17-.65-.4-.17-.23-.23-.48-.2-.75.03-.27.17-.48.4-.65l1.6-1.2c.23-.17.48-.23.75-.2.27.03.48.17.65.4.17.23.23.48.2.75-.03.27-.17.48-.4.65ZM7,15h-3c-.28,0-.52-.1-.71-.29-.19-.19-.29-.43-.29-.71v-4c0-.28.1-.52.29-.71.19-.19.43-.29.71-.29h3l3.3-3.3c.32-.32.68-.39,1.09-.21.41.18.61.49.61.94v11.15c0,.45-.2.76-.61.94-.41.17-.77.1-1.09-.21l-3.3-3.3ZM10,8.85l-2.15,2.15h-2.85v2h2.85l2.15,2.15v-6.3Z"/></svg>