<?xml version="1.0" encoding="UTF-8"?><svg id="Layer_1" xmlns="http://www.w3.org/2000/svg" viewBox="0 0 24 24"><path d="M5,21c-.55,0-1.02-.2-1.41-.59-.39-.39-.59-.86-.59-1.41V5c0-.55.2-1.02.59-1.41s.86-.59,1.41-.59h14c.55,0,1.02.2,1.41.59.39.39.59.86.59,1.41v14c0,.55-.2,1.02-.59,1.41-.39.39-.86.59-1.41.59H5ZM6,12.57l3.3-3.3c.2-.2.43-.3.7-.3s.5.1.7.3l3.3,3.3,3.3-3.3c.2-.2.43-.3.7-.3s.5.1.7.3l.3.3v-4.57H5v6.57l1,1ZM5,19h14v-6.6l-1-1-3.3,3.3c-.2.2-.43.3-.7.3s-.5-.1-.7-.3l-3.3-3.3-3.3,3.3c-.2.2-.43.3-.7.3s-.5-.1-.7-.3l-.3-.3v4.6ZM5,19v-6.6,2V5v14Z"/></svg>