<?xml version="1.0" encoding="UTF-8"?><svg id="Layer_1" xmlns="http://www.w3.org/2000/svg" viewBox="0 0 24 24"><path d="M14.5,21c-.83,0-1.54-.29-2.12-.88s-.88-1.29-.88-2.12.29-1.54.88-2.12,1.29-.88,2.12-.88,1.54.29,2.12.88.88,1.29.88,2.12-.29,1.54-.88,2.12-1.29.88-2.12.88ZM16.5,14c-1.53,0-2.83-.53-3.9-1.6s-1.6-2.37-1.6-3.9.53-2.83,1.6-3.9,2.37-1.6,3.9-1.6,2.83.53,3.9,1.6,1.6,2.37,1.6,3.9-.53,2.83-1.6,3.9-2.37,1.6-3.9,1.6ZM7,18c-1.1,0-2.04-.39-2.82-1.17-.78-.78-1.18-1.73-1.18-2.83s.39-2.04,1.18-2.82c.78-.78,1.72-1.18,2.82-1.18s2.04.39,2.82,1.18c.78.78,1.18,1.72,1.18,2.82s-.39,2.04-1.18,2.83c-.78.78-1.72,1.17-2.82,1.17Z"/></svg>