<?xml version="1.0" encoding="UTF-8"?><svg id="Layer_1" xmlns="http://www.w3.org/2000/svg" viewBox="0 0 24 24"><path d="M4,21c-.55,0-1.02-.2-1.41-.59-.39-.39-.59-.86-.59-1.41v-11c0-.55.2-1.02.59-1.41.39-.39.86-.59,1.41-.59h4v-2c0-.55.2-1.02.59-1.41.39-.39.86-.59,1.41-.59h4c.55,0,1.02.2,1.41.59.39.39.59.86.59,1.41v2h4c.55,0,1.02.2,1.41.59.39.39.59.86.59,1.41v11c0,.55-.2,1.02-.59,1.41-.39.39-.86.59-1.41.59H4ZM10,6h4v-2h-4v2ZM20,15h-5v1c0,.28-.1.52-.29.71s-.43.29-.71.29h-4c-.28,0-.52-.1-.71-.29-.19-.19-.29-.43-.29-.71v-1h-5v4h16v-4ZM11,15h2v-2h-2v2ZM4,13h5v-1c0-.28.1-.52.29-.71.19-.19.43-.29.71-.29h4c.28,0,.52.1.71.29s.29.43.29.71v1h5v-5H4v5Z"/></svg>