<?xml version="1.0" encoding="UTF-8"?><svg id="Layer_1" xmlns="http://www.w3.org/2000/svg" viewBox="0 0 24 24"><path d="M8,16v1.25c0,.22.07.4.21.54.14.14.32.21.54.21s.4-.07.54-.21c.14-.14.21-.32.21-.54v-1.25h1.25c.22,0,.4-.07.54-.21.14-.14.21-.32.21-.54s-.07-.4-.21-.54c-.14-.14-.32-.21-.54-.21h-1.25v-1.25c0-.22-.07-.4-.21-.54-.14-.14-.32-.21-.54-.21s-.4.07-.54.21c-.14.14-.21.32-.21.54v1.25h-1.25c-.22,0-.4.07-.54.21-.14.14-.21.32-.21.54s.07.4.21.54c.14.14.32.21.54.21h1.25ZM13.75,17.25h3.5c.22,0,.4-.07.54-.21.14-.14.21-.32.21-.54s-.07-.4-.21-.54c-.14-.14-.32-.21-.54-.21h-3.5c-.22,0-.4.07-.54.21-.14.14-.21.32-.21.54s.07.4.21.54c.14.14.32.21.54.21ZM13.75,14.75h3.5c.22,0,.4-.07.54-.21.14-.14.21-.32.21-.54s-.07-.4-.21-.54c-.14-.14-.32-.21-.54-.21h-3.5c-.22,0-.4.07-.54.21-.14.14-.21.32-.21.54s.07.4.21.54c.14.14.32.21.54.21ZM7,9.2h3.5c.22,0,.4-.07.54-.21.14-.14.21-.32.21-.54s-.07-.4-.21-.54c-.14-.14-.32-.21-.54-.21h-3.5c-.22,0-.4.07-.54.21-.14.14-.21.32-.21.54s.07.4.21.54c.14.14.32.21.54.21ZM5,21c-.55,0-1.02-.2-1.41-.59-.39-.39-.59-.86-.59-1.41V5c0-.55.2-1.02.59-1.41s.86-.59,1.41-.59h14c.55,0,1.02.2,1.41.59.39.39.59.86.59,1.41v14c0,.55-.2,1.02-.59,1.41-.39.39-.86.59-1.41.59H5ZM5,19h14V5H5v14ZM15.5,9.55l.88.88c.15.15.33.22.52.22s.38-.07.52-.22c.13-.13.2-.3.21-.51,0-.21-.05-.39-.19-.54l-.9-.93.88-.88c.15-.15.23-.32.23-.52s-.07-.38-.23-.53c-.15-.15-.32-.22-.52-.22s-.38.07-.52.22l-.88.88-.88-.88c-.15-.15-.32-.22-.52-.22s-.38.07-.53.22c-.15.15-.22.32-.22.53s.07.38.22.52l.88.88-.9.93c-.13.15-.2.32-.2.52s.07.38.22.53c.15.15.32.22.53.22s.38-.07.52-.22l.88-.88Z"/></svg>