<?xml version="1.0" encoding="UTF-8"?><svg id="Layer_1" xmlns="http://www.w3.org/2000/svg" viewBox="0 0 24 24"><path d="M19,22h-3c-.28,0-.52-.1-.71-.29s-.29-.43-.29-.71.1-.52.29-.71.43-.29.71-.29h3v-10H5v3c0,.28-.1.52-.29.71s-.43.29-.71.29-.52-.1-.71-.29c-.19-.19-.29-.43-.29-.71v-7c0-.55.2-1.02.59-1.41.39-.39.86-.59,1.41-.59h1v-1c0-.28.1-.52.29-.71.19-.19.43-.29.71-.29s.52.1.71.29c.19.19.29.43.29.71v1h8v-1c0-.28.1-.52.29-.71.19-.19.43-.29.71-.29s.52.1.71.29c.19.19.29.43.29.71v1h1c.55,0,1.02.2,1.41.59.39.39.59.86.59,1.41v14c0,.55-.2,1.02-.59,1.41-.39.39-.86.59-1.41.59ZM9.18,20H2c-.28,0-.52-.1-.71-.29-.19-.19-.29-.43-.29-.71s.1-.52.29-.71c.19-.19.43-.29.71-.29h7.18l-1.88-1.9c-.18-.18-.28-.41-.29-.69,0-.28.09-.51.29-.71.18-.18.42-.27.7-.27s.52.09.7.27l3.6,3.6c.2.2.3.43.3.7s-.1.5-.3.7l-3.6,3.6c-.18.18-.41.28-.69.29-.27,0-.51-.09-.71-.29-.18-.18-.28-.42-.28-.7s.09-.52.28-.7l1.88-1.9ZM5,8h14v-2H5v2Z"/></svg>