<?xml version="1.0" encoding="UTF-8"?><svg id="Layer_1" xmlns="http://www.w3.org/2000/svg" viewBox="0 0 24 24"><path d="M10.95,15.45l3.48-3.47c.2-.2.44-.3.72-.3s.53.1.73.3c.2.2.3.44.3.72s-.1.53-.3.73l-4.23,4.22c-.2.2-.43.3-.7.3s-.5-.1-.7-.3l-2.12-2.12c-.2-.2-.3-.44-.3-.72s.1-.53.3-.73.44-.3.73-.3.52.1.72.3l1.38,1.38ZM5,22c-.55,0-1.02-.2-1.41-.59-.39-.39-.59-.86-.59-1.41V6c0-.55.2-1.02.59-1.41.39-.39.86-.59,1.41-.59h1v-1c0-.28.1-.52.29-.71.19-.19.43-.29.71-.29s.52.1.71.29c.19.19.29.43.29.71v1h8v-1c0-.28.1-.52.29-.71.19-.19.43-.29.71-.29s.52.1.71.29c.19.19.29.43.29.71v1h1c.55,0,1.02.2,1.41.59.39.39.59.86.59,1.41v14c0,.55-.2,1.02-.59,1.41-.39.39-.86.59-1.41.59H5ZM5,20h14v-10H5v10ZM5,8h14v-2H5v2Z"/></svg>