<?xml version="1.0" encoding="UTF-8"?><svg id="Layer_1" xmlns="http://www.w3.org/2000/svg" viewBox="0 0 24 24"><path d="M12,16.4l-1.6,1.6c-.18.18-.42.27-.7.27s-.52-.09-.7-.27-.27-.42-.27-.7.09-.52.27-.7l1.6-1.6-1.6-1.6c-.18-.18-.27-.42-.27-.7s.09-.52.27-.7.42-.27.7-.27.52.09.7.27l1.6,1.6,1.6-1.6c.18-.18.42-.27.7-.27s.52.09.7.27.27.42.27.7-.09.52-.27.7l-1.6,1.6,1.6,1.6c.18.18.27.42.27.7s-.09.52-.27.7-.42.27-.7.27-.52-.09-.7-.27l-1.6-1.6ZM5,22c-.55,0-1.02-.2-1.41-.59-.39-.39-.59-.86-.59-1.41V6c0-.55.2-1.02.59-1.41.39-.39.86-.59,1.41-.59h1v-1c0-.28.1-.52.29-.71.19-.19.43-.29.71-.29s.52.1.71.29c.19.19.29.43.29.71v1h8v-1c0-.28.1-.52.29-.71.19-.19.43-.29.71-.29s.52.1.71.29c.19.19.29.43.29.71v1h1c.55,0,1.02.2,1.41.59.39.39.59.86.59,1.41v14c0,.55-.2,1.02-.59,1.41-.39.39-.86.59-1.41.59H5ZM5,20h14v-10H5v10ZM5,8h14v-2H5v2Z"/></svg>