<?xml version="1.0" encoding="UTF-8"?><svg id="Layer_1" xmlns="http://www.w3.org/2000/svg" viewBox="0 0 24 24"><path d="M12,5.1c.57-.67,1.24-1.18,2.02-1.55.78-.37,1.61-.55,2.48-.55,1.47,0,2.71.47,3.74,1.4,1.03.93,1.6,2.13,1.74,3.6.02.28-.07.52-.26.71-.19.19-.43.3-.71.31-.28.02-.52-.07-.71-.26-.19-.19-.3-.43-.31-.71-.1-.9-.47-1.63-1.11-2.2-.64-.57-1.43-.85-2.36-.85-.67,0-1.3.17-1.89.5-.59.33-1.05.77-1.39,1.3-.15.23-.34.41-.56.52-.23.12-.45.18-.69.18s-.46-.06-.68-.18c-.22-.12-.39-.29-.53-.52-.33-.53-.8-.97-1.39-1.3s-1.22-.5-1.89-.5c-.93,0-1.72.28-2.36.85-.64.57-1.01,1.3-1.11,2.2-.02.28-.12.52-.31.71-.19.19-.43.28-.71.26-.28-.02-.52-.12-.71-.31-.19-.19-.28-.43-.26-.71.13-1.47.71-2.67,1.74-3.6,1.02-.93,2.27-1.4,3.74-1.4.87,0,1.69.18,2.48.55.78.37,1.46.88,2.02,1.55ZM12,20.67c-.23,0-.47-.04-.7-.12-.23-.08-.44-.22-.62-.4-.72-.63-1.38-1.24-1.99-1.81-.61-.57-1.18-1.12-1.71-1.64-.23-.23-.34-.48-.31-.74.02-.26.13-.48.31-.66s.4-.29.66-.31c.26-.03.5.07.74.29.5.48,1.05,1,1.64,1.56.59.56,1.25,1.16,1.99,1.81.73-.65,1.4-1.25,1.99-1.81.59-.56,1.14-1.08,1.64-1.56.23-.23.48-.33.74-.29.26.04.48.15.66.34s.28.41.3.68c.02.27-.09.52-.33.75-.53.5-1.1,1.03-1.71,1.6-.61.57-1.26,1.17-1.96,1.8-.18.18-.39.32-.62.4-.23.08-.47.12-.7.12ZM11.05,16c.22,0,.4-.06.56-.19.16-.12.27-.29.34-.49l1.35-4.07.88,1.3c.08.13.2.24.35.32.15.08.31.12.48.12h7c.28,0,.52-.1.71-.29s.29-.43.29-.71-.1-.52-.29-.71-.43-.29-.71-.29h-6.43l-1.72-2.55c-.1-.15-.23-.26-.39-.34-.16-.07-.33-.11-.51-.11-.22,0-.4.06-.56.19-.16.12-.27.29-.34.49l-1.35,4.05-.85-1.28c-.08-.13-.2-.24-.35-.32s-.31-.12-.48-.12H2c-.28,0-.52.1-.71.29-.19.19-.29.43-.29.71s.1.52.29.71c.19.19.43.29.71.29h6.43l1.72,2.55c.1.15.23.26.39.34.16.07.33.11.51.11Z"/></svg>