<?xml version="1.0" encoding="UTF-8"?><svg id="Layer_1" xmlns="http://www.w3.org/2000/svg" viewBox="0 0 24 24"><path d="M5.7,21.88c-.55.08-1.05-.05-1.49-.39-.44-.34-.7-.79-.76-1.34l-1.32-10.92c-.07-.55.07-1.04.4-1.48.33-.43.78-.68,1.33-.75l1.15-.15v8.15c0,1.1.39,2.04,1.17,2.83.78.78,1.73,1.17,2.82,1.17h9.3c-.1.4-.3.75-.6,1.04s-.67.46-1.1.51l-10.9,1.33ZM9,17c-.55,0-1.02-.2-1.41-.59-.39-.39-.59-.86-.59-1.41V4c0-.55.2-1.02.59-1.41.39-.39.86-.59,1.41-.59h11c.55,0,1.02.2,1.41.59.39.39.59.86.59,1.41v11c0,.55-.2,1.02-.59,1.41-.39.39-.86.59-1.41.59h-11ZM12.73,12.2l1.78-1.07,1.78,1.07c.1.07.2.07.29,0,.09-.07.12-.16.09-.27l-.48-2.03,1.55-1.35c.08-.08.11-.17.09-.26-.02-.09-.1-.15-.21-.16l-2.05-.18-.83-1.9c-.03-.1-.11-.15-.22-.15s-.19.05-.23.15l-.82,1.9-2.05.18c-.12.02-.19.07-.21.16-.03.09,0,.18.09.26l1.55,1.35-.48,2.03c-.03.12,0,.21.09.27.09.07.19.07.29,0Z"/></svg>