<?xml version="1.0" encoding="UTF-8"?><svg id="Layer_1" xmlns="http://www.w3.org/2000/svg" viewBox="0 0 24 24"><path d="M7.43,9.48l3.72-6.08c.1-.17.23-.29.38-.36.15-.08.31-.11.48-.11s.32.04.48.11c.15.08.27.2.38.36l3.73,6.08c.1.17.15.34.15.52s-.04.35-.12.5-.2.27-.35.36c-.15.09-.32.14-.52.14h-7.45c-.2,0-.37-.05-.52-.14-.15-.09-.27-.21-.35-.36-.08-.15-.12-.32-.12-.5s.05-.36.15-.52ZM17.5,22c-1.25,0-2.31-.44-3.19-1.31s-1.31-1.94-1.31-3.19.44-2.31,1.31-3.19,1.94-1.31,3.19-1.31,2.31.44,3.19,1.31,1.31,1.94,1.31,3.19-.44,2.31-1.31,3.19-1.94,1.31-3.19,1.31ZM3,20.5v-6c0-.28.1-.52.29-.71.19-.19.43-.29.71-.29h6c.28,0,.52.1.71.29.19.19.29.43.29.71v6c0,.28-.1.52-.29.71-.19.19-.43.29-.71.29h-6c-.28,0-.52-.1-.71-.29-.19-.19-.29-.43-.29-.71Z"/></svg>