<?xml version="1.0" encoding="UTF-8"?><svg id="Layer_1" xmlns="http://www.w3.org/2000/svg" viewBox="0 0 24 24"><path d="M5.3,18.7l7.05-2.5-4.55-4.55-2.5,7.05ZM23.02,7.03c-.15.15-.32.22-.52.22s-.38-.08-.52-.22l-.08-.08c-.23-.23-.52-.35-.88-.35s-.64.12-.88.35l-5.07,5.08c-.15.15-.32.22-.52.22s-.38-.07-.53-.22c-.15-.15-.22-.33-.22-.53s.07-.38.22-.52l5.08-5.07c.53-.53,1.17-.8,1.92-.8s1.39.27,1.93.8l.07.07c.15.15.23.32.23.53s-.08.38-.23.53ZM9.97,4.03c.15-.15.33-.23.53-.23s.38.08.52.23l.12.12c.53.53.8,1.17.8,1.9s-.27,1.37-.8,1.9l-.07.08c-.15.15-.32.22-.52.22s-.38-.07-.53-.22c-.15-.15-.23-.33-.23-.53s.08-.38.23-.53l.08-.07c.23-.23.35-.52.35-.85s-.12-.62-.35-.85l-.13-.12c-.15-.15-.22-.32-.22-.53s.07-.38.22-.52ZM14.02,2.03c.15-.15.33-.22.53-.22s.38.07.52.22l1.07,1.08c.53.53.8,1.18.8,1.93s-.27,1.39-.8,1.92l-3.07,3.07c-.15.15-.32.23-.52.23s-.38-.07-.53-.23c-.15-.15-.22-.32-.22-.52s.07-.38.22-.52l3.08-3.07c.23-.23.35-.53.35-.88s-.12-.64-.35-.88l-1.08-1.08c-.15-.15-.22-.33-.22-.53s.07-.38.22-.53ZM22.02,14.03c-.15.15-.32.22-.52.22s-.38-.07-.52-.22l-1.08-1.08c-.23-.23-.52-.35-.88-.35s-.64.12-.88.35l-1.07,1.08c-.15.15-.33.22-.53.22s-.38-.07-.52-.22c-.15-.15-.22-.33-.22-.53s.07-.38.22-.52l1.08-1.07c.53-.53,1.17-.8,1.92-.8s1.39.27,1.93.8l1.07,1.07c.15.15.23.32.23.52s-.08.38-.23.53ZM2.7,20l3.77-10.5c.08-.22.21-.38.39-.5.17-.12.36-.17.56-.17.13,0,.26.02.38.07.12.05.22.12.33.22l6.75,6.75c.1.1.18.21.23.32.05.12.07.24.07.38,0,.2-.06.39-.18.56s-.28.3-.5.39l-10.5,3.77c-.2.08-.39.1-.58.04-.18-.06-.34-.15-.47-.29-.13-.13-.23-.29-.29-.48-.06-.18-.05-.38.04-.58Z"/></svg>