<?xml version="1.0" encoding="UTF-8"?><svg id="Layer_1" xmlns="http://www.w3.org/2000/svg" viewBox="0 0 24 24"><path d="M12,7c.28,0,.52-.1.71-.29s.29-.43.29-.71-.1-.52-.29-.71-.43-.29-.71-.29-.52.1-.71.29-.29.43-.29.71.1.52.29.71.43.29.71.29ZM12,15c.28,0,.52-.1.71-.29s.29-.43.29-.71v-4c0-.28-.1-.52-.29-.71-.19-.19-.43-.29-.71-.29s-.52.1-.71.29c-.19.19-.29.43-.29.71v4c0,.28.1.52.29.71s.43.29.71.29ZM6,18l-2.3,2.3c-.32.32-.68.39-1.09.21-.41-.18-.61-.49-.61-.94V4c0-.55.2-1.02.59-1.41s.86-.59,1.41-.59h16c.55,0,1.02.2,1.41.59.39.39.59.86.59,1.41v12c0,.55-.2,1.02-.59,1.41-.39.39-.86.59-1.41.59H6ZM5.15,16h14.85V4H4v13.12l1.15-1.12Z"/></svg>