<?xml version="1.0" encoding="UTF-8"?><svg id="Layer_1" xmlns="http://www.w3.org/2000/svg" viewBox="0 0 24 24"><path d="M9.44,15.47c.29-.03.59.07.81.29.39.39.39,1.02,0,1.41l-.04.04c-.39.39-1.02.39-1.41,0l-.03-.03-.07-.08c-.32-.39-.3-.97.07-1.34.19-.19.43-.28.67-.29ZM6.76,13.76c.37-.37.95-.39,1.34-.07l.08.07.06.06.07.08c.32.39.3.97-.07,1.34-.37.37-.95.39-1.34.07l-.08-.07-.06-.06-.07-.08c-.32-.39-.3-.97.07-1.34ZM11.08,13.51c.39-.39,1.02-.39,1.41,0s.39,1.02,0,1.41l-.07.07c-.39.39-1.02.39-1.41,0-.39-.39-.39-1.02,0-1.41l.07-.07ZM4.79,11.79c.37-.37.95-.39,1.34-.07l.08.07.03.03.07.08c.32.39.3.97-.07,1.34-.39.39-1.02.39-1.41,0l-.03-.03c-.39-.39-.39-1.02,0-1.41ZM13.33,11.26c.39-.39,1.02-.39,1.41,0s.39,1.02,0,1.41l-.07.07c-.39.39-1.02.39-1.41,0-.39-.39-.39-1.02,0-1.41l.07-.07ZM15.58,9.01c.39-.39,1.02-.39,1.41,0,.39.39.39,1.02,0,1.41l-.07.07c-.39.39-1.02.39-1.41,0-.39-.39-.39-1.02,0-1.41l.07-.07ZM17.79,6.79c.39-.39,1.02-.39,1.41,0,.39.39.39,1.02,0,1.41l-.04.04c-.39.39-1.02.39-1.41,0-.39-.39-.39-1.02,0-1.41l.04-.04Z"/></svg>