<?xml version="1.0" encoding="UTF-8"?><svg id="Layer_1" xmlns="http://www.w3.org/2000/svg" viewBox="0 0 24 24"><path d="M16.35,16.17l3.55-3.55c.2-.2.43-.3.7-.29.27,0,.5.11.7.31.18.2.28.43.28.7s-.09.5-.28.7l-4.22,4.25c-.2.2-.43.3-.7.3s-.5-.1-.7-.3l-2.15-2.15c-.18-.18-.27-.42-.27-.7s.09-.52.27-.7c.18-.18.42-.27.7-.27s.52.09.7.27l1.43,1.42ZM16.35,8.18l3.55-3.55c.2-.2.43-.3.7-.29.27,0,.5.11.7.31.18.2.28.43.28.7s-.09.5-.28.7l-4.22,4.25c-.2.2-.43.3-.7.3s-.5-.1-.7-.3l-2.15-2.15c-.18-.18-.27-.42-.27-.7s.09-.52.27-.7c.18-.18.42-.28.7-.28s.52.09.7.28l1.43,1.43ZM3,17c-.28,0-.52-.1-.71-.29-.19-.19-.29-.43-.29-.71s.1-.52.29-.71c.19-.19.43-.29.71-.29h7c.28,0,.52.1.71.29.19.19.29.43.29.71s-.1.52-.29.71c-.19.19-.43.29-.71.29H3ZM3,9c-.28,0-.52-.1-.71-.29-.19-.19-.29-.43-.29-.71s.1-.52.29-.71c.19-.19.43-.29.71-.29h7c.28,0,.52.1.71.29.19.19.29.43.29.71s-.1.52-.29.71c-.19.19-.43.29-.71.29H3Z"/></svg>