<?xml version="1.0" encoding="UTF-8"?><svg id="Layer_1" xmlns="http://www.w3.org/2000/svg" viewBox="0 0 24 24"><path d="M7.22,21c-.48,0-.91-.15-1.28-.46-.37-.31-.59-.7-.67-1.19l-1.93-10.38c-.62.12-1.16-.03-1.64-.43-.48-.4-.71-.92-.71-1.55,0-.55.2-1.02.59-1.41.39-.39.86-.59,1.41-.59s1.02.2,1.41.59c.39.39.59.86.59,1.41,0,.23-.03.45-.1.65-.07.2-.17.38-.3.55.37.22.74.4,1.11.54s.77.21,1.19.21c.73,0,1.41-.18,2.04-.55.62-.37,1.11-.87,1.46-1.5l.62-1.15c-.32-.18-.57-.43-.75-.72-.18-.3-.27-.64-.27-1.03,0-.55.2-1.02.59-1.41.39-.39.86-.59,1.41-.59s1.02.2,1.41.59c.39.39.59.86.59,1.41,0,.38-.09.72-.27,1.03-.18.3-.43.54-.75.72l.62,1.15c.35.63.84,1.13,1.46,1.5.62.37,1.3.55,2.04.55.42,0,.81-.07,1.19-.2s.75-.31,1.11-.52c-.13-.17-.23-.35-.3-.56-.07-.21-.1-.43-.1-.66,0-.55.2-1.02.59-1.41.39-.39.86-.59,1.41-.59s1.02.2,1.41.59c.39.39.59.86.59,1.41,0,.63-.24,1.15-.71,1.55-.48.4-1.02.54-1.64.43l-1.92,10.38c-.08.48-.31.88-.68,1.19-.37.31-.79.46-1.27.46H7.22ZM7.25,19h9.5l1.5-8.15c-.18.03-.38.06-.58.09-.2.02-.39.04-.57.04-1.05,0-2.03-.25-2.93-.75-.9-.5-1.62-1.2-2.18-2.1-.55.9-1.27,1.6-2.18,2.1-.9.5-1.88.75-2.92.75-.18,0-.38-.01-.58-.04-.2-.02-.39-.05-.57-.09l1.5,8.15Z"/></svg>