<?xml version="1.0" encoding="UTF-8"?><svg id="Layer_1" xmlns="http://www.w3.org/2000/svg" viewBox="0 0 24 24"><path d="M9.58,12l-3.88-3.9c-.18-.18-.28-.41-.29-.69s.09-.51.29-.71c.18-.18.42-.28.7-.28s.52.09.7.28l4.6,4.6c.1.1.17.21.21.32.04.12.06.24.06.38s-.02.26-.06.38c-.04.12-.11.23-.21.32l-4.6,4.6c-.18.18-.41.28-.69.29-.28,0-.51-.09-.71-.29-.18-.18-.28-.42-.28-.7s.09-.52.28-.7l3.88-3.9ZM16.18,12l-3.88-3.9c-.18-.18-.28-.41-.29-.69s.09-.51.29-.71c.18-.18.42-.28.7-.28s.52.09.7.28l4.6,4.6c.1.1.17.21.21.32.04.12.06.24.06.38s-.02.26-.06.38c-.04.12-.11.23-.21.32l-4.6,4.6c-.18.18-.41.28-.69.29-.27,0-.51-.09-.71-.29-.18-.18-.28-.42-.28-.7s.09-.52.28-.7l3.88-3.9Z"/></svg>