<?xml version="1.0" encoding="UTF-8"?><svg id="Layer_1" xmlns="http://www.w3.org/2000/svg" viewBox="0 0 24 24"><path d="M7,18c-.28,0-.52-.1-.71-.29s-.29-.43-.29-.71V7c0-.28.1-.52.29-.71s.43-.29.71-.29.52.1.71.29.29.43.29.71v10c0,.28-.1.52-.29.71s-.43.29-.71.29ZM13.8,12l3.9,3.9c.18.18.27.42.27.7s-.09.52-.27.7-.42.28-.7.28-.52-.09-.7-.28l-4.6-4.6c-.1-.1-.17-.21-.21-.32-.04-.12-.06-.24-.06-.38s.02-.26.06-.38c.04-.12.11-.23.21-.32l4.6-4.6c.18-.18.42-.27.7-.27s.52.09.7.27c.18.18.27.42.27.7s-.09.52-.27.7l-3.9,3.9Z"/></svg>