<?xml version="1.0" encoding="UTF-8"?><svg id="Layer_1" xmlns="http://www.w3.org/2000/svg" viewBox="0 0 24 24"><path d="M12,22c-1.38,0-2.68-.26-3.9-.79-1.22-.52-2.28-1.24-3.18-2.14-.9-.9-1.61-1.96-2.14-3.18-.52-1.22-.79-2.52-.79-3.9s.26-2.68.79-3.9c.52-1.22,1.24-2.28,2.14-3.18.9-.9,1.96-1.61,3.18-2.14,1.22-.52,2.52-.79,3.9-.79s2.68.26,3.9.79c1.22.53,2.27,1.24,3.18,2.14.9.9,1.61,1.96,2.14,3.18.52,1.22.79,2.52.79,3.9s-.26,2.68-.79,3.9c-.53,1.22-1.24,2.27-2.14,3.18-.9.9-1.96,1.61-3.18,2.14s-2.52.79-3.9.79ZM12,20c2.23,0,4.12-.77,5.67-2.33,1.55-1.55,2.33-3.44,2.33-5.67s-.77-4.12-2.33-5.68c-1.55-1.55-3.44-2.32-5.67-2.32s-4.12.78-5.68,2.32c-1.55,1.55-2.32,3.44-2.32,5.68s.78,4.12,2.32,5.67c1.55,1.55,3.44,2.33,5.68,2.33Z"/><path d="M3,14.5c-.13,0-.25-.05-.35-.15-.1-.1-.15-.22-.15-.35s.05-.25.15-.35c.1-.1.22-.15.35-.15s.25.05.35.15c.1.1.15.22.15.35s-.05.25-.15.35c-.1.1-.22.15-.35.15ZM3,10.5c-.13,0-.25-.05-.35-.15-.1-.1-.15-.22-.15-.35s.05-.25.15-.35c.1-.1.22-.15.35-.15s.25.05.35.15c.1.1.15.22.15.35s-.05.25-.15.35c-.1.1-.22.15-.35.15ZM6,19c-.28,0-.52-.1-.71-.29s-.29-.43-.29-.71.1-.52.29-.71.43-.29.71-.29.52.1.71.29.29.43.29.71-.1.52-.29.71-.43.29-.71.29ZM6,15c-.28,0-.52-.1-.71-.29s-.29-.43-.29-.71.1-.52.29-.71.43-.29.71-.29.52.1.71.29.29.43.29.71-.1.52-.29.71-.43.29-.71.29ZM6,11c-.28,0-.52-.1-.71-.29s-.29-.43-.29-.71.1-.52.29-.71c.19-.19.43-.29.71-.29s.52.1.71.29c.19.19.29.43.29.71s-.1.52-.29.71-.43.29-.71.29ZM6,7c-.28,0-.52-.1-.71-.29s-.29-.43-.29-.71.1-.52.29-.71.43-.29.71-.29.52.1.71.29.29.43.29.71-.1.52-.29.71-.43.29-.71.29ZM10,15.5c-.42,0-.77-.15-1.06-.44-.29-.29-.44-.65-.44-1.06s.15-.77.44-1.06c.29-.29.65-.44,1.06-.44s.77.15,1.06.44c.29.29.44.65.44,1.06s-.15.77-.44,1.06c-.29.29-.65.44-1.06.44ZM10,11.5c-.42,0-.77-.15-1.06-.44-.29-.29-.44-.65-.44-1.06s.15-.77.44-1.06c.29-.29.65-.44,1.06-.44s.77.15,1.06.44c.29.29.44.65.44,1.06s-.15.77-.44,1.06c-.29.29-.65.44-1.06.44ZM10,19c-.28,0-.52-.1-.71-.29-.19-.19-.29-.43-.29-.71s.1-.52.29-.71c.19-.19.43-.29.71-.29s.52.1.71.29.29.43.29.71-.1.52-.29.71-.43.29-.71.29ZM10,7c-.28,0-.52-.1-.71-.29-.19-.19-.29-.43-.29-.71s.1-.52.29-.71c.19-.19.43-.29.71-.29s.52.1.71.29.29.43.29.71-.1.52-.29.71-.43.29-.71.29ZM10,21.5c-.13,0-.25-.05-.35-.15-.1-.1-.15-.22-.15-.35s.05-.25.15-.35c.1-.1.22-.15.35-.15s.25.05.35.15c.1.1.15.22.15.35s-.05.25-.15.35c-.1.1-.22.15-.35.15ZM10,3.5c-.13,0-.25-.05-.35-.15-.1-.1-.15-.22-.15-.35s.05-.25.15-.35c.1-.1.22-.15.35-.15s.25.05.35.15c.1.1.15.22.15.35s-.05.25-.15.35c-.1.1-.22.15-.35.15ZM14,15.5c-.42,0-.77-.15-1.06-.44-.29-.29-.44-.65-.44-1.06s.15-.77.44-1.06c.29-.29.65-.44,1.06-.44s.77.15,1.06.44c.29.29.44.65.44,1.06s-.15.77-.44,1.06c-.29.29-.65.44-1.06.44ZM14,11.5c-.42,0-.77-.15-1.06-.44-.29-.29-.44-.65-.44-1.06s.15-.77.44-1.06c.29-.29.65-.44,1.06-.44s.77.15,1.06.44c.29.29.44.65.44,1.06s-.15.77-.44,1.06c-.29.29-.65.44-1.06.44ZM14,19c-.28,0-.52-.1-.71-.29s-.29-.43-.29-.71.1-.52.29-.71.43-.29.71-.29.52.1.71.29.29.43.29.71-.1.52-.29.71-.43.29-.71.29ZM14,7c-.28,0-.52-.1-.71-.29s-.29-.43-.29-.71.1-.52.29-.71.43-.29.71-.29.52.1.71.29.29.43.29.71-.1.52-.29.71-.43.29-.71.29ZM14,21.5c-.13,0-.25-.05-.35-.15-.1-.1-.15-.22-.15-.35s.05-.25.15-.35c.1-.1.22-.15.35-.15s.25.05.35.15c.1.1.15.22.15.35s-.05.25-.15.35c-.1.1-.22.15-.35.15ZM14,3.5c-.13,0-.25-.05-.35-.15-.1-.1-.15-.22-.15-.35s.05-.25.15-.35c.1-.1.22-.15.35-.15s.25.05.35.15c.1.1.15.22.15.35s-.05.25-.15.35c-.1.1-.22.15-.35.15ZM18,19c-.28,0-.52-.1-.71-.29s-.29-.43-.29-.71.1-.52.29-.71.43-.29.71-.29.52.1.71.29.29.43.29.71-.1.52-.29.71-.43.29-.71.29ZM18,15c-.28,0-.52-.1-.71-.29s-.29-.43-.29-.71.1-.52.29-.71.43-.29.71-.29.52.1.71.29.29.43.29.71-.1.52-.29.71-.43.29-.71.29ZM18,11c-.28,0-.52-.1-.71-.29s-.29-.43-.29-.71.1-.52.29-.71c.19-.19.43-.29.71-.29s.52.1.71.29c.19.19.29.43.29.71s-.1.52-.29.71-.43.29-.71.29ZM18,7c-.28,0-.52-.1-.71-.29s-.29-.43-.29-.71.1-.52.29-.71.43-.29.71-.29.52.1.71.29.29.43.29.71-.1.52-.29.71-.43.29-.71.29ZM21,14.5c-.13,0-.25-.05-.35-.15-.1-.1-.15-.22-.15-.35s.05-.25.15-.35c.1-.1.22-.15.35-.15s.25.05.35.15c.1.1.15.22.15.35s-.05.25-.15.35c-.1.1-.22.15-.35.15ZM21,10.5c-.13,0-.25-.05-.35-.15-.1-.1-.15-.22-.15-.35s.05-.25.15-.35c.1-.1.22-.15.35-.15s.25.05.35.15c.1.1.15.22.15.35s-.05.25-.15.35c-.1.1-.22.15-.35.15Z"/></svg>