<?xml version="1.0" encoding="UTF-8"?><svg id="Layer_1" xmlns="http://www.w3.org/2000/svg" viewBox="0 0 24 24"><path d="M12,2c1.38,0,2.68.26,3.9.79,1.22.52,2.27,1.24,3.17,2.14.9.9,1.61,1.96,2.14,3.17.52,1.22.79,2.52.79,3.9s-.26,2.68-.79,3.9c-.52,1.22-1.24,2.27-2.14,3.17-.9.9-1.96,1.61-3.17,2.14-1.22.52-2.52.79-3.9.79s-2.68-.26-3.9-.79c-1.22-.52-2.27-1.24-3.17-2.14-.9-.9-1.61-1.96-2.14-3.17-.53-1.22-.79-2.52-.79-3.9s.26-2.68.79-3.9c.52-1.22,1.24-2.27,2.14-3.17.9-.9,1.96-1.61,3.17-2.14,1.22-.53,2.52-.79,3.9-.79ZM12,6.3c-.83,0-1.61.15-2.34.46-.73.3-1.36.72-1.91,1.25-.54.53-.97,1.15-1.28,1.86-.31.71-.47,1.47-.47,2.28,0,.81.16,1.57.47,2.28.31.71.74,1.33,1.28,1.86.54.53,1.18.95,1.91,1.25.73.3,1.51.46,2.34.46s1.61-.15,2.34-.46c.73-.3,1.36-.72,1.91-1.25.54-.53.97-1.15,1.28-1.86.31-.71.47-1.47.47-2.28,0-.18-.06-.34-.19-.46-.13-.12-.29-.19-.48-.19-.19,0-.35.06-.47.19-.13.12-.19.28-.19.46,0,1.28-.45,2.36-1.35,3.23-.9.88-2.01,1.32-3.32,1.32s-2.42-.44-3.32-1.32c-.9-.88-1.35-1.96-1.35-3.23,0-1.28.45-2.36,1.35-3.23.9-.88,2.01-1.32,3.32-1.32.12,0,.24,0,.34.02.11.02.22.02.34.02.19,0,.35-.06.47-.19.13-.12.19-.28.19-.46,0-.18-.06-.34-.19-.46-.13-.12-.29-.19-.47-.19-.12-.02-.24-.03-.34-.04-.11,0-.22,0-.34,0ZM12,8.9c-.19,0-.35.06-.47.19-.13.12-.19.28-.19.46v2.58c0,.09.02.17.05.25.03.08.08.15.15.22l1.87,1.82c.12.12.28.18.47.18.19,0,.34-.06.47-.18.12-.12.18-.27.18-.46,0-.18-.06-.34-.18-.46l-1.67-1.62v-2.34c0-.18-.06-.34-.19-.46-.13-.12-.29-.19-.47-.19ZM17.33,5c-.19,0-.35.06-.47.19-.13.12-.19.28-.19.46v1.3h-1.33c-.19,0-.35.06-.47.19-.13.12-.19.28-.19.46,0,.18.06.34.19.46.13.12.29.19.47.19h1.33v1.3c0,.18.06.34.19.46.13.12.29.19.47.19.19,0,.35-.06.48-.19.13-.12.19-.28.19-.46v-1.3h1.33c.19,0,.35-.06.48-.19.13-.12.19-.28.19-.46,0-.18-.06-.34-.19-.46-.13-.12-.29-.19-.48-.19h-1.33v-1.3c0-.18-.06-.34-.19-.46-.13-.12-.29-.19-.48-.19Z"/></svg>