<?xml version="1.0" encoding="UTF-8"?><svg id="Layer_1" xmlns="http://www.w3.org/2000/svg" viewBox="0 0 24 24"><path d="M12,2c1.38,0,2.68.26,3.9.79,1.22.52,2.27,1.24,3.17,2.14.9.9,1.61,1.96,2.14,3.17.52,1.22.79,2.52.79,3.9s-.26,2.68-.79,3.9c-.52,1.22-1.24,2.27-2.14,3.17-.9.9-1.96,1.61-3.17,2.14-1.22.52-2.52.79-3.9.79s-2.68-.26-3.9-.79c-1.22-.52-2.27-1.24-3.17-2.14-.9-.9-1.61-1.96-2.14-3.17-.53-1.22-.79-2.52-.79-3.9s.26-2.68.79-3.9c.52-1.22,1.24-2.27,2.14-3.17.9-.9,1.96-1.61,3.17-2.14,1.22-.53,2.52-.79,3.9-.79ZM12,6c-.83,0-1.62.16-2.35.47-.73.32-1.37.74-1.91,1.28-.54.54-.97,1.17-1.29,1.9-.32.73-.48,1.51-.48,2.34s.16,1.61.48,2.34c.32.73.75,1.36,1.29,1.9.54.54,1.18.97,1.91,1.28.73.32,1.51.47,2.35.47,1.56,0,2.9-.51,4.02-1.53,1.12-1.02,1.77-2.28,1.94-3.78.03-.18-.02-.34-.16-.47-.14-.13-.31-.2-.51-.2-.19,0-.36.04-.51.15-.15.11-.24.25-.28.43-.14,1.12-.64,2.06-1.49,2.82-.85.76-1.85,1.14-3.02,1.14-1.26,0-2.33-.45-3.23-1.34-.89-.89-1.34-1.96-1.34-3.22s.45-2.32,1.34-3.22c.89-.89,1.97-1.34,3.23-1.34.69,0,1.33.14,1.92.41.59.27,1.09.65,1.5,1.14h-1.09c-.19,0-.34.06-.47.19-.13.13-.19.29-.19.47s.06.34.19.47c.13.13.29.19.47.19h2.92c.2,0,.38-.07.52-.21.14-.14.21-.31.21-.51v-2.91c0-.19-.06-.34-.19-.47-.13-.13-.29-.19-.47-.19-.19,0-.34.06-.47.19-.13.13-.19.28-.19.47v1.55c-.55-.69-1.23-1.24-2.03-1.64-.8-.4-1.68-.6-2.63-.6ZM12,8.65c-.18,0-.34.06-.47.19-.13.12-.19.28-.19.46v2.44c0,.1.02.19.06.28.04.09.09.17.16.24l1.68,1.67c.14.14.29.2.47.21.18,0,.34-.07.47-.21.14-.14.21-.29.21-.46,0-.17-.06-.32-.2-.46l-1.54-1.53v-2.17c0-.19-.06-.34-.19-.47-.13-.13-.28-.19-.47-.19Z"/></svg>