<?xml version="1.0" encoding="UTF-8"?><svg id="Layer_1" xmlns="http://www.w3.org/2000/svg" viewBox="0 0 24 24"><path d="M12,2c1.38,0,2.68.26,3.9.79,1.22.52,2.27,1.24,3.17,2.14.9.9,1.61,1.96,2.14,3.17.52,1.22.79,2.52.79,3.9s-.26,2.68-.79,3.9c-.52,1.22-1.24,2.27-2.14,3.17-.9.9-1.96,1.61-3.17,2.14-1.22.52-2.52.79-3.9.79s-2.68-.26-3.9-.79c-1.22-.52-2.27-1.24-3.17-2.14-.9-.9-1.61-1.96-2.14-3.17-.53-1.22-.79-2.52-.79-3.9s.26-2.68.79-3.9c.52-1.22,1.24-2.27,2.14-3.17.9-.9,1.96-1.61,3.17-2.14,1.22-.53,2.52-.79,3.9-.79ZM7.76,5.46c-.19,0-.36.07-.49.2-.13.14-.2.3-.2.49,0,.19.07.36.2.49.13.13.3.2.49.2h.31v1.95c0,.64.15,1.25.45,1.8.3.56.71,1.02,1.23,1.4-.53.37-.95.84-1.24,1.39-.3.56-.44,1.16-.44,1.81v1.95h-.31c-.19,0-.36.07-.49.2-.13.14-.2.3-.2.49,0,.19.07.36.2.49.14.13.3.2.49.2h8.48c.19,0,.36-.07.49-.2.13-.14.2-.3.2-.49,0-.19-.07-.36-.2-.49-.13-.13-.3-.2-.49-.2h-.31v-1.95c0-.64-.15-1.25-.44-1.81-.3-.56-.71-1.02-1.24-1.39.52-.37.93-.84,1.24-1.4.3-.56.45-1.16.45-1.8v-1.95h.31c.19,0,.36-.07.49-.2.13-.14.2-.3.2-.49s-.07-.36-.2-.49c-.14-.13-.3-.2-.49-.2H7.76ZM14.55,6.85v1.95c0,.71-.25,1.31-.74,1.81-.49.49-1.1.74-1.81.74s-1.31-.25-1.81-.74c-.49-.49-.74-1.1-.74-1.81v-1.95h5.1Z"/></svg>