<?xml version="1.0" encoding="UTF-8"?><svg id="Layer_1" xmlns="http://www.w3.org/2000/svg" viewBox="0 0 24 24"><path d="M21.85,9.25c-.57-2.39-1.87-4.51-3.69-6-1.82-1.5-4.05-2.29-6.33-2.24-2.28.04-4.49.92-6.26,2.48-1.77,1.56-3,3.73-3.49,6.14-.49,2.41-.22,4.93.77,7.16.79,1.76,1.99,3.25,3.47,4.34.65.48,1.51.15,1.86-.61.34-.76.04-1.68-.59-2.19-.92-.75-1.67-1.74-2.17-2.87-.71-1.6-.91-3.42-.55-5.16s1.24-3.29,2.52-4.42c1.27-1.13,2.86-1.75,4.51-1.79,1.64-.03,3.25.54,4.56,1.61,1.31,1.08,2.25,2.6,2.66,4.32s.28,3.54-.39,5.17c-.47,1.16-1.19,2.17-2.08,2.95-.61.54-.89,1.46-.52,2.21.37.75,1.24,1.04,1.87.54,1.45-1.14,2.6-2.68,3.33-4.47.92-2.26,1.11-4.79.54-7.18Z"/><path d="M17.55,13.87c.2-.63.9-1.2.9-1.89,0-.69-.71-1.26-.9-1.89-.2-.65.04-1.54-.34-2.08-.38-.55-1.27-.58-1.79-.97-.52-.39-.82-1.27-1.44-1.48-.6-.2-1.34.31-2,.31-.67,0-1.4-.52-2-.31-.62.21-.92,1.09-1.44,1.48-.52.4-1.41.43-1.79.97-.38.54-.13,1.43-.34,2.08-.19.63-.9,1.2-.9,1.89,0,.69.71,1.26.9,1.89.2.65-.04,1.54.34,2.08.38.55,1.27.58,1.79.98.52.39.82,1.27,1.44,1.48.6.2,1.34-.31,2-.31.67,0,1.4.52,2,.31.62-.21.92-1.09,1.44-1.48.52-.4,1.41-.43,1.79-.98.38-.54.13-1.43.34-2.08ZM14.99,11.77l-1.02,1,.19,1.35c.02.17-.06.33-.21.43-.09.06-.19.09-.3.09-.07,0-.15-.01-.21-.04l-1.35-.58-1.35.58c-.17.07-.36.05-.51-.04-.15-.1-.23-.26-.2-.43l.19-1.35-1.02-1c-.13-.12-.17-.3-.11-.46.06-.16.21-.28.39-.31l1.47-.26.72-1.19c.09-.15.26-.24.44-.24s.36.09.45.24l.72,1.2,1.47.26c.18.03.33.15.39.31.06.16.01.34-.11.46Z"/></svg>