<?xml version="1.0" encoding="UTF-8"?><svg id="Layer_1" xmlns="http://www.w3.org/2000/svg" viewBox="0 0 24 24"><path d="M6,20c-.28,0-.52-.1-.71-.29s-.29-.43-.29-.71.1-.52.29-.71.43-.29.71-.29h12c.28,0,.52.1.71.29s.29.43.29.71-.1.52-.29.71-.43.29-.71.29H6ZM6.7,16.5c-.48,0-.91-.16-1.29-.48s-.6-.72-.69-1.2l-1-6.35s-.07,0-.11.01c-.04,0-.08.01-.11.01-.42,0-.77-.15-1.06-.44-.29-.29-.44-.65-.44-1.06s.15-.77.44-1.06c.29-.29.65-.44,1.06-.44s.77.15,1.06.44c.29.29.44.65.44,1.06,0,.12-.01.22-.04.32-.03.1-.05.19-.09.28l3.12,1.4,3.12-4.28c-.18-.13-.33-.31-.45-.53-.12-.22-.18-.45-.18-.7,0-.42.15-.77.44-1.06.29-.29.65-.44,1.06-.44s.77.15,1.06.44c.29.29.44.65.44,1.06,0,.25-.06.48-.18.7-.12.22-.27.39-.45.53l3.12,4.28,3.12-1.4c-.03-.08-.06-.17-.09-.28-.02-.1-.04-.21-.04-.32,0-.42.15-.77.44-1.06.29-.29.65-.44,1.06-.44s.77.15,1.06.44c.29.29.44.65.44,1.06s-.15.77-.44,1.06c-.29.29-.65.44-1.06.44-.03,0-.07,0-.11-.01-.04,0-.08-.01-.11-.01l-1,6.35c-.08.48-.31.88-.69,1.2s-.8.48-1.29.48H6.7Z"/></svg>