<?xml version="1.0" encoding="UTF-8"?><svg id="Layer_1" xmlns="http://www.w3.org/2000/svg" viewBox="0 0 24 24"><path d="M5.75,15h2.25c.22,0,.4-.07.54-.21.14-.14.21-.32.21-.54s-.07-.4-.21-.54c-.14-.14-.32-.21-.54-.21h-1.75v-3h1.75c.22,0,.4-.07.54-.21.14-.14.21-.32.21-.54s-.07-.4-.21-.54c-.14-.14-.32-.21-.54-.21h-2.25c-.28,0-.52.1-.71.29-.19.19-.29.43-.29.71v4c0,.28.1.52.29.71s.43.29.71.29ZM10.4,15h2.25c.28,0,.52-.1.71-.29s.29-.43.29-.71v-1.5c0-.28-.1-.55-.29-.79-.19-.24-.43-.36-.71-.36h-1.5v-.85h1.75c.22,0,.4-.07.54-.21.14-.14.21-.32.21-.54s-.07-.4-.21-.54c-.14-.14-.32-.21-.54-.21h-2.25c-.28,0-.52.1-.71.29-.19.19-.29.43-.29.71v1.5c0,.28.1.54.29.76.19.23.43.34.71.34h1.5v.9h-1.75c-.22,0-.4.07-.54.21-.14.14-.21.32-.21.54s.07.4.21.54c.14.14.32.21.54.21ZM17,12.45l-.85-2.93c-.05-.15-.14-.27-.26-.38-.12-.1-.27-.15-.44-.15-.23,0-.42.1-.56.29-.14.19-.18.4-.11.64l1.33,4.55c.05.15.14.27.26.38.12.1.27.15.44.15h.4c.17,0,.31-.05.44-.15.12-.1.21-.23.26-.38l1.33-4.55c.07-.23.03-.45-.11-.64-.14-.19-.33-.29-.56-.29-.17,0-.31.05-.44.15-.12.1-.21.23-.26.38l-.85,2.93ZM4,20c-.55,0-1.02-.2-1.41-.59-.39-.39-.59-.86-.59-1.41V6c0-.55.2-1.02.59-1.41.39-.39.86-.59,1.41-.59h16c.55,0,1.02.2,1.41.59.39.39.59.86.59,1.41v12c0,.55-.2,1.02-.59,1.41-.39.39-.86.59-1.41.59H4ZM4,18h16V6H4v12Z"/></svg>