<?xml version="1.0" encoding="UTF-8"?><svg id="Layer_1" xmlns="http://www.w3.org/2000/svg" viewBox="0 0 24 24"><path d="M9.07,21c-.27,0-.52-.05-.76-.15s-.45-.24-.64-.43l-4.1-4.1c-.18-.18-.33-.4-.42-.64-.1-.24-.15-.5-.15-.76v-5.85c0-.27.05-.52.15-.76.1-.24.24-.45.42-.64L7.68,3.58c.18-.18.4-.33.64-.42.24-.1.5-.15.76-.15h5.85c.27,0,.52.05.76.15.24.1.45.24.64.42l4.1,4.1c.18.18.33.4.43.64s.15.5.15.76v5.85c0,.27-.05.52-.15.76s-.24.45-.43.64l-4.1,4.1c-.18.18-.4.33-.64.43s-.5.15-.76.15h-5.85ZM12,13.4l2.15,2.15c.18.18.42.27.7.27s.52-.09.7-.27.27-.42.27-.7-.09-.52-.27-.7l-2.15-2.15,2.15-2.15c.18-.18.27-.42.27-.7s-.09-.52-.27-.7c-.18-.18-.42-.27-.7-.27s-.52.09-.7.27l-2.15,2.15-2.15-2.15c-.18-.18-.42-.27-.7-.27s-.52.09-.7.27c-.18.18-.27.42-.27.7s.09.52.27.7l2.15,2.15-2.15,2.15c-.18.18-.27.42-.27.7s.09.52.27.7c.18.18.42.27.7.27s.52-.09.7-.27l2.15-2.15Z"/></svg>