<?xml version="1.0" encoding="UTF-8"?><svg id="Layer_1" xmlns="http://www.w3.org/2000/svg" viewBox="0 0 24 24"><path d="M4,11c-.28,0-.52-.1-.71-.29-.19-.19-.29-.43-.29-.71v-6c0-.28.1-.52.29-.71.19-.19.43-.29.71-.29h6c.28,0,.52.1.71.29.19.19.29.43.29.71v6c0,.28-.1.52-.29.71s-.43.29-.71.29h-6ZM14,11c-.28,0-.52-.1-.71-.29s-.29-.43-.29-.71v-6c0-.28.1-.52.29-.71.19-.19.43-.29.71-.29h6c.28,0,.52.1.71.29.19.19.29.43.29.71v6c0,.28-.1.52-.29.71s-.43.29-.71.29h-6ZM4,21c-.28,0-.52-.1-.71-.29-.19-.19-.29-.43-.29-.71v-6c0-.28.1-.52.29-.71.19-.19.43-.29.71-.29h6c.28,0,.52.1.71.29s.29.43.29.71v6c0,.28-.1.52-.29.71s-.43.29-.71.29h-6ZM17,21c-.28,0-.52-.1-.71-.29s-.29-.43-.29-.71v-2h-2.02c-.28,0-.52-.1-.7-.29s-.27-.43-.27-.71.1-.52.29-.71.43-.29.71-.29h2v-2.02c0-.28.1-.52.29-.7s.43-.27.71-.27.52.1.71.29.29.43.29.71v2h2.02c.28,0,.52.1.7.29s.27.43.27.71-.1.52-.29.71-.43.29-.71.29h-2v2.02c0,.28-.1.52-.29.7s-.43.27-.71.27ZM15,5v4h4v-4h-4ZM5,5v4h4v-4h-4ZM5,15v4h4v-4h-4Z"/></svg>