<?xml version="1.0" encoding="UTF-8"?><svg id="Layer_1" xmlns="http://www.w3.org/2000/svg" viewBox="0 0 24 24"><path d="M12,22c-1.38,0-2.68-.26-3.9-.79-1.22-.52-2.28-1.24-3.18-2.14-.9-.9-1.61-1.96-2.14-3.18-.52-1.22-.79-2.52-.79-3.9,0-2.17.62-4.12,1.88-5.85,1.25-1.73,2.91-2.94,4.98-3.62.48-.17.93-.11,1.34.17.41.28.61.67.61,1.15,0,.33-.1.64-.29.91-.19.28-.44.46-.74.56-1.43.45-2.59,1.29-3.46,2.51-.87,1.23-1.31,2.61-1.31,4.16,0,1.95.68,3.6,2.04,4.96,1.36,1.36,3.01,2.04,4.96,2.04.87,0,1.7-.15,2.51-.45.81-.3,1.53-.73,2.16-1.3.25-.23.55-.35.91-.35s.66.12.91.35c.38.35.58.75.6,1.19.02.44-.17.83-.55,1.16-.9.78-1.9,1.38-3.01,1.79-1.11.41-2.29.61-3.54.61ZM19,12c0-1.53-.44-2.91-1.33-4.14-.88-1.23-2.04-2.07-3.47-2.54-.3-.1-.55-.29-.74-.56-.19-.27-.29-.58-.29-.91,0-.48.2-.87.61-1.15.41-.28.85-.34,1.34-.17,2.08.7,3.75,1.92,5,3.65,1.25,1.73,1.88,3.67,1.88,5.83,0,.3-.01.6-.04.91-.03.31-.07.65-.14,1.01-.08.48-.33.83-.74,1.04-.41.21-.85.22-1.34.04-.32-.12-.56-.33-.74-.64-.18-.31-.23-.63-.16-.96.05-.28.09-.53.11-.75.02-.22.04-.43.04-.65Z"/></svg>