<?xml version="1.0" encoding="UTF-8"?><svg id="Layer_1" xmlns="http://www.w3.org/2000/svg" viewBox="0 0 24 24"><path d="M7,21c-.55,0-1.02-.2-1.41-.59-.39-.39-.59-.86-.59-1.41V6c-.28,0-.52-.1-.71-.29s-.29-.43-.29-.71.1-.52.29-.71.43-.29.71-.29h4c0-.28.1-.52.29-.71.19-.19.43-.29.71-.29h4c.28,0,.52.1.71.29.19.19.29.43.29.71h4c.28,0,.52.1.71.29s.29.43.29.71-.1.52-.29.71-.43.29-.71.29v13c0,.55-.2,1.02-.59,1.41-.39.39-.86.59-1.41.59H7ZM17,6H7v13h10V6ZM10,17c.28,0,.52-.1.71-.29s.29-.43.29-.71v-7c0-.28-.1-.52-.29-.71-.19-.19-.43-.29-.71-.29s-.52.1-.71.29c-.19.19-.29.43-.29.71v7c0,.28.1.52.29.71.19.19.43.29.71.29ZM14,17c.28,0,.52-.1.71-.29s.29-.43.29-.71v-7c0-.28-.1-.52-.29-.71-.19-.19-.43-.29-.71-.29s-.52.1-.71.29c-.19.19-.29.43-.29.71v7c0,.28.1.52.29.71s.43.29.71.29Z"/></svg>