<?xml version="1.0" encoding="UTF-8"?><svg id="Layer_1" xmlns="http://www.w3.org/2000/svg" viewBox="0 0 24 24"><path d="M12,2c5.52,0,10,4.48,10,10s-4.48,10-10,10S2,17.52,2,12,6.48,2,12,2ZM14.7,7c-.27,0-.5.17-.59.42l-2.42,7.03-2.11-6.13c-.09-.25-.32-.42-.59-.42-.27,0-.5.17-.59.42l-1.21,3.5h-2.07c-.35,0-.62.28-.62.62,0,.35.28.62.62.62h2.52c.27,0,.5-.17.59-.42l.76-2.21,2.11,6.13c.09.25.32.42.59.42s.5-.17.59-.42l2.42-7.03,1.07,3.11c.09.25.32.42.59.42h2.51c.34,0,.62-.28.62-.62,0-.34-.28-.62-.62-.62h-2.06l-1.52-4.41c-.09-.25-.32-.42-.59-.42Z"/></svg>