<?xml version="1.0" encoding="UTF-8"?><svg id="Layer_1" xmlns="http://www.w3.org/2000/svg" viewBox="0 0 24 24"><path d="M12,19.88c-.28,0-.56-.06-.82-.19s-.5-.3-.7-.54L2.83,10c-.15-.18-.26-.38-.34-.6-.08-.22-.11-.44-.11-.67,0-.15.01-.3.04-.46.02-.16.08-.3.16-.44l1.87-3.72c.18-.33.43-.6.74-.8.31-.2.65-.3,1.04-.3h11.55c.38,0,.73.1,1.04.3.31.2.55.47.74.8l1.88,3.72c.08.13.14.28.16.44.02.16.04.31.04.46,0,.23-.04.46-.11.67-.08.22-.19.42-.34.6l-7.65,9.15c-.2.23-.43.41-.7.54s-.54.19-.82.19ZM9.62,8h4.75l-1.5-3h-1.75l-1.5,3ZM11,16.67v-6.67h-5.55l5.55,6.67ZM13,16.67l5.55-6.67h-5.55v6.67ZM16.6,8h2.65l-1.5-3h-2.65l1.5,3ZM4.75,8h2.65l1.5-3h-2.65l-1.5,3Z"/></svg>