<?xml version="1.0" encoding="UTF-8"?><svg id="Layer_1" xmlns="http://www.w3.org/2000/svg" viewBox="0 0 24 24"><path d="M13.93,7.1c1.02-1.51,3.3-1.46,4.24.15l4.76,8.25c.96,1.67-.24,3.75-2.17,3.75H3.3c-1.87,0-2.92-2.14-1.78-3.62l2.45-3.18c.78-1.01,2.21-1.15,3.16-.4l1.47-2.32c.86-1.35,2.79-1.39,3.71-.13l.09.13h0s1.43-2.48,1.43-2.48l.09-.15ZM9.98,15.63c.45.58.55,1.26.41,1.87h4.04c.33-.05.52-.4.38-.7l-.03-.06-1.61-2.54c-.41.35-.98.53-1.6.36l-2.6-.71c-.22-.06-.41-.16-.57-.28l1.59,2.06ZM2.91,16.7c-.25.33-.02.8.4.8h4.97c.34-.06.53-.44.36-.74l-.04-.06-.69-.89c-.41.43-1.03.66-1.71.47l-1.49-.41c-.32-.09-.59-.25-.79-.47l-1,1.3ZM13.46,11.4l2.79,4.4c.35.55.42,1.15.29,1.71h4.21c.54,0,.89-.55.7-1.03l-.05-.09-2.4-4.16c-.4.32-.95.47-1.54.31l-3.33-.91c-.24-.06-.44-.17-.62-.31l-.05.09ZM5.92,13.35c-.2-.07-.43-.02-.56.16l-.39.51c-.1.14-.03.34.14.39.54.15.95.26,1.49.41.2.05.36-.14.3-.32-.09-.12-.39-.5-.8-1.04-.05-.05-.11-.09-.18-.11ZM10.74,10.49c-.22-.12-.51-.06-.66.17l-.87,1.37c-.08.14,0,.32.15.37l2.6.71c.19.05.35-.13.31-.3l-.03-.07-1.31-2.06s-.05-.07-.09-.1c-.03-.03-.07-.05-.1-.07ZM16.65,8.13c-.29-.5-1.01-.5-1.3,0l-.97,1.68c-.08.14,0,.32.15.36l3.33.91c.22.06.39-.17.28-.37l-1.49-2.59Z" style="fill-rule:evenodd; isolation:isolate; opacity:.3;"/><path d="M3.97,12.45c.87-1.13,2.56-1.17,3.48-.11l.09.11,2.45,3.18c1.14,1.48.08,3.62-1.78,3.62H3.3c-1.87,0-2.92-2.14-1.78-3.62l2.45-3.18Z" style="fill-rule:evenodd;"/><path d="M5.92,13.35c-.2-.07-.43-.02-.56.16l-.39.51c-.1.14-.03.34.14.39.54.15.95.26,1.49.41.2.05.36-.14.3-.32-.09-.12-.39-.5-.8-1.04-.05-.05-.11-.09-.18-.11Z" style="fill:#fff; fill-rule:evenodd;"/></svg>