<?xml version="1.0" encoding="UTF-8"?><svg id="Layer_1" xmlns="http://www.w3.org/2000/svg" viewBox="0 0 24 24"><path d="M14,9c-.28,0-.52-.1-.71-.29-.19-.19-.29-.43-.29-.71s.1-.52.29-.71.43-.29.71-.29h2v-3c0-.28.1-.52.29-.71.19-.19.43-.29.71-.29s.52.1.71.29c.19.19.29.43.29.71v3h2c.28,0,.52.1.71.29s.29.43.29.71-.1.52-.29.71c-.19.19-.43.29-.71.29h-6ZM17,21c-.28,0-.52-.1-.71-.29s-.29-.43-.29-.71v-8c0-.28.1-.52.29-.71s.43-.29.71-.29.52.1.71.29.29.43.29.71v8c0,.28-.1.52-.29.71s-.43.29-.71.29ZM7,21c-.28,0-.52-.1-.71-.29s-.29-.43-.29-.71v-3h-2c-.28,0-.52-.1-.71-.29-.19-.19-.29-.43-.29-.71s.1-.52.29-.71c.19-.19.43-.29.71-.29h6c.28,0,.52.1.71.29s.29.43.29.71-.1.52-.29.71-.43.29-.71.29h-2v3c0,.28-.1.52-.29.71s-.43.29-.71.29ZM7,13c-.28,0-.52-.1-.71-.29s-.29-.43-.29-.71V4c0-.28.1-.52.29-.71.19-.19.43-.29.71-.29s.52.1.71.29c.19.19.29.43.29.71v8c0,.28-.1.52-.29.71s-.43.29-.71.29Z"/></svg>