<?xml version="1.0" encoding="UTF-8"?><svg id="Layer_1" xmlns="http://www.w3.org/2000/svg" viewBox="0 0 24 24"><path d="M11,20h-5V4h7v4c0,.28.1.52.29.71s.43.29.71.29h4v1.25c0,.28.1.52.29.71s.43.29.71.29.52-.1.71-.29.29-.43.29-.71v-1.42c0-.27-.05-.52-.15-.76-.1-.24-.24-.45-.42-.64l-4.85-4.85c-.18-.18-.4-.33-.64-.43-.24-.1-.5-.15-.76-.15h-7.17c-.55,0-1.02.2-1.41.59-.39.39-.59.86-.59,1.41v16c0,.55.2,1.02.59,1.41.39.39.86.59,1.41.59h5c.28,0,.52-.1.71-.29s.29-.43.29-.71-.1-.52-.29-.71c-.19-.19-.43-.29-.71-.29Z"/><path d="M18,13c-2.76,0-5,2.24-5,5s2.24,5,5,5,5-2.24,5-5-2.24-5-5-5ZM18,21.25c-1.79,0-3.25-1.46-3.25-3.25s1.46-3.25,3.25-3.25,3.25,1.46,3.25,3.25-1.46,3.25-3.25,3.25Z"/></svg>