<?xml version="1.0" encoding="UTF-8"?><svg id="Layer_1" xmlns="http://www.w3.org/2000/svg" viewBox="0 0 24 24"><path d="M6,22c-.55,0-1.02-.2-1.41-.59-.39-.39-.59-.86-.59-1.41V4c0-.55.2-1.02.59-1.41.39-.39.86-.59,1.41-.59h7.18c.27,0,.52.05.76.15.24.1.45.24.64.42l4.85,4.85c.18.18.33.4.43.64.1.24.15.5.15.76v1.43c0,.28-.1.52-.29.71s-.43.29-.71.29-.52-.1-.71-.29-.29-.43-.29-.71v-1.25h-4c-.28,0-.52-.1-.71-.29-.19-.19-.29-.43-.29-.71v-4h-7v16h5c.28,0,.52.1.71.29s.29.43.29.71-.1.52-.29.71-.43.29-.71.29h-5Z"/><path d="M18,13c2.76,0,5,2.24,5,5s-2.24,5-5,5-5-2.24-5-5,2.24-5,5-5ZM20.93,15.97c-.29-.29-.77-.29-1.06,0l-2.97,2.97-.87-.87c-.29-.29-.77-.29-1.06,0-.29.29-.29.77,0,1.06l1.4,1.4c.29.29.77.29,1.06,0l3.5-3.5c.29-.29.29-.77,0-1.06Z"/></svg>