<?xml version="1.0" encoding="UTF-8"?><svg id="Layer_1" xmlns="http://www.w3.org/2000/svg" viewBox="0 0 24 24"><path d="M2,5v-2c0-.55.2-1.02.59-1.41s.86-.59,1.41-.59h2c.28,0,.52.1.71.29.19.19.29.43.29.71s-.1.52-.29.71c-.19.19-.43.29-.71.29h-2v2c0,.28-.1.52-.29.71-.19.19-.43.29-.71.29s-.52-.1-.71-.29c-.19-.19-.29-.43-.29-.71ZM20,5v-2h-2c-.28,0-.52-.1-.71-.29-.19-.19-.29-.43-.29-.71s.1-.52.29-.71c.19-.19.43-.29.71-.29h2c.55,0,1.02.2,1.41.59.39.39.59.86.59,1.41v2c0,.28-.1.52-.29.71s-.43.29-.71.29-.52-.1-.71-.29-.29-.43-.29-.71ZM2,21v-2c0-.28.1-.52.29-.71.19-.19.43-.29.71-.29s.52.1.71.29c.19.19.29.43.29.71v2h2c.28,0,.52.1.71.29s.29.43.29.71-.1.52-.29.71-.43.29-.71.29h-2c-.55,0-1.02-.2-1.41-.59-.39-.39-.59-.86-.59-1.41ZM20,23h-2c-.28,0-.52-.1-.71-.29s-.29-.43-.29-.71.1-.52.29-.71.43-.29.71-.29h2v-2c0-.28.1-.52.29-.71s.43-.29.71-.29.52.1.71.29.29.43.29.71v2c0,.55-.2,1.02-.59,1.41-.39.39-.86.59-1.41.59ZM7,18h10V6H7v12ZM7,20c-.55,0-1.02-.2-1.41-.59-.39-.39-.59-.86-.59-1.41V6c0-.55.2-1.02.59-1.41.39-.39.86-.59,1.41-.59h10c.55,0,1.02.2,1.41.59.39.39.59.86.59,1.41v12c0,.55-.2,1.02-.59,1.41-.39.39-.86.59-1.41.59H7ZM10,10h4c.28,0,.52-.1.71-.29.19-.19.29-.43.29-.71s-.1-.52-.29-.71c-.19-.19-.43-.29-.71-.29h-4c-.28,0-.52.1-.71.29-.19.19-.29.43-.29.71s.1.52.29.71c.19.19.43.29.71.29ZM10,13h4c.28,0,.52-.1.71-.29s.29-.43.29-.71-.1-.52-.29-.71-.43-.29-.71-.29h-4c-.28,0-.52.1-.71.29-.19.19-.29.43-.29.71s.1.52.29.71c.19.19.43.29.71.29ZM10,16h4c.28,0,.52-.1.71-.29s.29-.43.29-.71-.1-.52-.29-.71-.43-.29-.71-.29h-4c-.28,0-.52.1-.71.29-.19.19-.29.43-.29.71s.1.52.29.71c.19.19.43.29.71.29Z"/></svg>