<?xml version="1.0" encoding="UTF-8"?><svg id="Layer_1" xmlns="http://www.w3.org/2000/svg" viewBox="0 0 24 24"><path d="M9.52,18l10.6-10.6-1.42-1.4-9.2,9.18-4.22-4.25-1.43,1.43,5.67,5.65ZM8.1,19.4l-5.65-5.65c-.2-.2-.35-.42-.44-.66-.09-.24-.14-.49-.14-.74s.05-.5.14-.75.24-.48.44-.68l1.4-1.4c.2-.2.42-.35.66-.45.24-.1.5-.15.76-.15s.52.05.76.15c.24.1.46.25.66.45l2.82,2.83,7.75-7.78c.18-.2.4-.35.65-.44s.5-.14.75-.14.5.05.75.14.48.23.68.41l1.42,1.4c.2.2.35.42.45.66.1.24.15.5.15.76s-.05.52-.14.76c-.09.24-.24.46-.44.66l-10.6,10.6c-.2.2-.43.35-.68.45s-.5.15-.75.15-.5-.05-.75-.15-.47-.25-.67-.45Z"/></svg>