<?xml version="1.0" encoding="UTF-8"?><svg id="Layer_1" xmlns="http://www.w3.org/2000/svg" viewBox="0 0 24 24"><path d="M8,17h8c.28,0,.52-.1.71-.29s.29-.43.29-.71-.1-.52-.29-.71-.43-.29-.71-.29h-8c-.28,0-.52.1-.71.29s-.29.43-.29.71.1.52.29.71.43.29.71.29ZM11,10.15l-.9-.88c-.18-.18-.41-.27-.69-.27s-.51.1-.71.3c-.18.18-.27.42-.27.7s.09.52.27.7l2.6,2.6c.2.2.43.3.7.3s.5-.1.7-.3l2.6-2.6c.18-.18.28-.41.29-.69,0-.27-.09-.51-.29-.71-.18-.18-.41-.28-.69-.29-.28,0-.51.08-.71.26l-.9.88v-3.15c0-.28-.1-.52-.29-.71s-.43-.29-.71-.29-.52.1-.71.29-.29.43-.29.71v3.15ZM12,22c-1.38,0-2.68-.26-3.9-.79-1.22-.52-2.28-1.24-3.18-2.14-.9-.9-1.61-1.96-2.14-3.18-.52-1.22-.79-2.52-.79-3.9s.26-2.68.79-3.9c.53-1.22,1.24-2.28,2.14-3.18.9-.9,1.96-1.61,3.18-2.14,1.22-.52,2.52-.79,3.9-.79s2.68.26,3.9.79c1.22.53,2.27,1.24,3.18,2.14.9.9,1.61,1.96,2.14,3.18.52,1.22.79,2.52.79,3.9s-.26,2.68-.79,3.9-1.24,2.27-2.14,3.18c-.9.9-1.96,1.61-3.18,2.14s-2.52.79-3.9.79ZM12,20c2.23,0,4.12-.77,5.67-2.33,1.55-1.55,2.33-3.44,2.33-5.67s-.77-4.12-2.33-5.68c-1.55-1.55-3.44-2.32-5.67-2.32s-4.12.78-5.68,2.32c-1.55,1.55-2.32,3.44-2.32,5.68s.78,4.12,2.32,5.67c1.55,1.55,3.44,2.33,5.68,2.33Z"/></svg>