<?xml version="1.0" encoding="UTF-8"?><svg id="Layer_1" xmlns="http://www.w3.org/2000/svg" viewBox="0 0 24 24"><path d="M12,15.57c-.13,0-.26-.02-.38-.06-.12-.04-.23-.11-.32-.21l-3.6-3.6c-.2-.2-.3-.43-.29-.7s.1-.5.29-.7c.2-.2.44-.3.71-.31.27,0,.51.09.71.29l1.88,1.88v-7.15c0-.28.1-.52.29-.71s.43-.29.71-.29.52.1.71.29.29.43.29.71v7.15l1.88-1.88c.2-.2.44-.3.71-.29.28,0,.51.11.71.31.18.2.28.43.29.7,0,.27-.09.5-.29.7l-3.6,3.6c-.1.1-.21.17-.32.21-.12.04-.24.06-.38.06ZM6,20c-.55,0-1.02-.2-1.41-.59-.39-.39-.59-.86-.59-1.41v-2c0-.28.1-.52.29-.71s.43-.29.71-.29.52.1.71.29.29.43.29.71v2h12v-2c0-.28.1-.52.29-.71s.43-.29.71-.29.52.1.71.29.29.43.29.71v2c0,.55-.2,1.02-.59,1.41-.39.39-.86.59-1.41.59H6Z"/></svg>