<?xml version="1.0" encoding="UTF-8"?><svg id="Layer_1" xmlns="http://www.w3.org/2000/svg" viewBox="0 0 24 24"><path d="M5,21c-.28,0-.52-.1-.71-.29s-.29-.43-.29-.71v-2.42c0-.27.05-.52.15-.76s.24-.45.42-.64L17.17,3.6c.2-.2.43-.35.68-.45.25-.1.5-.15.75-.15.27,0,.52.05.76.15.24.1.45.25.64.45l1.4,1.4c.2.18.35.4.45.64.1.24.15.5.15.76,0,.25-.05.5-.15.75s-.25.47-.45.67l-12.57,12.6c-.18.18-.4.33-.64.43-.24.1-.5.15-.76.15h-2.43ZM6,19h1.4l9.83-9.8-.7-.72-.72-.7-9.8,9.83v1.4ZM16.52,8.48l-.72-.7,1.43,1.42-.7-.72ZM14,21c1.23,0,2.38-.31,3.42-.92,1.05-.62,1.58-1.48,1.58-2.58,0-.53-.13-1-.4-1.39-.27-.39-.62-.75-1.05-1.09-.23-.17-.48-.25-.75-.25s-.49.1-.67.3-.27.45-.27.74.12.52.35.69c.23.18.42.35.57.5s.23.32.23.5c0,.38-.3.73-.91,1.04-.61.31-1.3.46-2.09.46-.28,0-.52.1-.71.29s-.29.43-.29.71.1.52.29.71.43.29.71.29ZM9,6c0,.23-.15.45-.44.64-.29.19-.96.53-2.01,1.01-1.33.58-2.26,1.11-2.78,1.59-.52.47-.78,1.06-.78,1.76,0,.43.1.82.3,1.15.2.33.46.62.77.88.22.18.46.26.73.24.27-.02.49-.15.67-.36.18-.22.27-.46.25-.72-.02-.27-.13-.49-.35-.68-.12-.08-.21-.17-.28-.25s-.1-.17-.1-.25c0-.2.15-.4.45-.6.3-.2.93-.51,1.9-.92,1.47-.63,2.44-1.21,2.92-1.73.48-.52.73-1.1.73-1.75,0-.92-.37-1.65-1.1-2.19-.73-.54-1.7-.81-2.9-.81-.75,0-1.42.13-2.01.4s-1.05.59-1.36.97c-.18.22-.26.46-.22.72.03.27.16.48.38.65.22.18.46.26.72.22s.49-.14.68-.32c.23-.23.49-.4.77-.5s.63-.15,1.05-.15c.68,0,1.19.1,1.51.3.32.2.49.43.49.7Z"/></svg>