<?xml version="1.0" encoding="UTF-8"?><svg id="Layer_1" xmlns="http://www.w3.org/2000/svg" viewBox="0 0 24 24"><path d="M5,19h1.43l9.78-9.77-1.43-1.43-9.77,9.78v1.42ZM4,21c-.28,0-.52-.1-.71-.29-.19-.19-.29-.43-.29-.71v-2.42c0-.27.05-.52.15-.76.1-.24.24-.45.42-.64L16.2,3.58c.2-.18.42-.33.66-.42.24-.1.5-.15.76-.15s.52.05.77.15c.25.1.47.25.65.45l1.38,1.4c.2.18.35.4.44.65.09.25.14.5.14.75,0,.27-.05.52-.14.76-.09.24-.24.46-.44.66l-12.6,12.6c-.18.18-.4.33-.64.43-.24.1-.5.15-.76.15h-2.43ZM15.48,8.52l-.7-.72,1.43,1.43-.73-.7Z"/></svg>