<?xml version="1.0" encoding="UTF-8"?><svg id="Layer_1" xmlns="http://www.w3.org/2000/svg" viewBox="0 0 24 24"><path d="M5,21c-.55,0-1.02-.2-1.41-.59-.39-.39-.59-.86-.59-1.41V5c0-.55.2-1.02.59-1.41.39-.39.86-.59,1.41-.59h6.52c.33,0,.58.1.75.31.17.21.25.44.25.69s-.09.48-.26.69c-.18.21-.43.31-.76.31h-6.5v14h14v-6.52c0-.33.1-.58.31-.75.21-.17.44-.25.69-.25s.48.08.69.25c.21.17.31.42.31.75v6.52c0,.55-.2,1.02-.59,1.41-.39.39-.86.59-1.41.59H5ZM9,14v-2.43c0-.27.05-.52.15-.76.1-.24.24-.45.43-.64L18.17,1.57c.2-.2.43-.35.68-.45s.5-.15.75-.15c.27,0,.52.05.76.15.24.1.46.25.66.45l1.4,1.42c.18.2.33.42.43.66.1.24.15.49.15.74s-.05.5-.14.74c-.09.24-.24.46-.44.66l-8.6,8.6c-.18.18-.4.33-.64.44-.24.11-.5.16-.76.16h-2.43c-.28,0-.52-.1-.71-.29-.19-.19-.29-.43-.29-.71ZM11,13h1.4l5.8-5.8-.7-.7-.73-.7-5.77,5.78v1.43Z"/></svg>