<?xml version="1.0" encoding="UTF-8"?><svg id="Layer_1" xmlns="http://www.w3.org/2000/svg" viewBox="0 0 24 24"><path d="M12,21l-3.38,1.12c-.12.03-.23.06-.32.08-.1.02-.2.02-.3.02-.53,0-1-.19-1.4-.56s-.6-.85-.6-1.44v-5.45l-2.6-4.22c-.1-.17-.17-.34-.22-.51-.05-.18-.08-.35-.08-.54s.02-.36.08-.54c.05-.17.12-.35.22-.51l3.4-5.5c.18-.3.43-.53.73-.7.3-.17.62-.25.97-.25h7c.35,0,.68.08.97.25.3.17.54.4.73.7l3.4,5.5c.1.17.18.34.23.51.05.18.08.35.08.54s-.03.36-.08.54c-.05.17-.12.35-.23.51l-2.6,4.22v5.45c0,.58-.2,1.06-.6,1.44-.4.38-.87.56-1.4.56-.1,0-.2,0-.3-.02-.1-.02-.21-.04-.32-.08l-3.38-1.12ZM8.5,15h7l3.4-5.5-3.4-5.5h-7l-3.4,5.5,3.4,5.5ZM10.95,10.75l3.52-3.55c.18-.2.41-.3.69-.29.28,0,.51.1.71.29.2.2.3.44.31.71,0,.28-.09.51-.29.71l-4.25,4.25c-.2.2-.43.3-.7.3s-.5-.1-.7-.3l-2.12-2.12c-.2-.2-.3-.44-.3-.71s.1-.51.3-.71c.2-.2.44-.3.71-.3s.51.1.71.3l1.4,1.43Z"/></svg>