<?xml version="1.0" encoding="UTF-8"?><svg id="Layer_1" xmlns="http://www.w3.org/2000/svg" viewBox="0 0 24 24"><path d="M7.45,4.6l7.77,7.78c.23.23.5.33.8.3s.54-.17.73-.42l.62-.9c.33-.5.36-1.02.09-1.55-.27-.53-.72-.8-1.34-.8h-1.12l1.42-5c.13-.5.04-.96-.29-1.38-.32-.42-.75-.62-1.29-.62h-6.1c-.48,0-.89.17-1.23.5s-.5.71-.5,1.12c0,.18.03.35.1.51.07.16.17.31.33.46Z"/><path d="M20.5,20.5L3.53,3.5c-.2-.2-.44-.3-.71-.3s-.51.1-.71.3-.3.44-.31.71c0,.28.09.51.29.71l4.92,4.92v2.15c0,.55.2,1.02.59,1.41s.86.59,1.41.59h1v5.6c0,.17.05.32.14.45.09.13.22.22.39.28.17.05.33.05.49-.01.16-.06.28-.15.36-.29l2.38-3.42,5.32,5.3c.2.2.44.3.71.3s.51-.1.71-.3.3-.43.3-.7-.1-.5-.3-.7Z"/></svg>