<?xml version="1.0" encoding="UTF-8"?><svg id="Layer_1" xmlns="http://www.w3.org/2000/svg" viewBox="0 0 24 24"><path d="M16,21c-.55,0-1.02-.2-1.41-.59-.39-.39-.59-.86-.59-1.41v-4c0-.55.2-1.02.59-1.41.39-.39.86-.59,1.41-.59h4c.55,0,1.02.2,1.41.59.39.39.59.86.59,1.41v4c0,.55-.2,1.02-.59,1.41-.39.39-.86.59-1.41.59h-4ZM16,19h4v-4h-4v4ZM3,18c-.28,0-.52-.1-.71-.29-.19-.19-.29-.43-.29-.71s.1-.52.29-.71c.19-.19.43-.29.71-.29h7c.28,0,.52.1.71.29s.29.43.29.71-.1.52-.29.71-.43.29-.71.29H3ZM16,11c-.55,0-1.02-.2-1.41-.59-.39-.39-.59-.86-.59-1.41v-4c0-.55.2-1.02.59-1.41.39-.39.86-.59,1.41-.59h4c.55,0,1.02.2,1.41.59.39.39.59.86.59,1.41v4c0,.55-.2,1.02-.59,1.41-.39.39-.86.59-1.41.59h-4ZM16,9h4v-4h-4v4ZM3,8c-.28,0-.52-.1-.71-.29-.19-.19-.29-.43-.29-.71s.1-.52.29-.71c.19-.19.43-.29.71-.29h7c.28,0,.52.1.71.29s.29.43.29.71-.1.52-.29.71-.43.29-.71.29H3Z"/></svg>