<?xml version="1.0" encoding="UTF-8"?><svg id="Layer_1" xmlns="http://www.w3.org/2000/svg" viewBox="0 0 24 24"><path d="M9.75,23c-.85,0-1.6-.25-2.26-.76-.66-.51-1.1-1.16-1.34-1.96-.1-.38-.31-.69-.62-.92-.32-.23-.68-.35-1.08-.35-.27,0-.52.05-.75.15-.23.1-.43.25-.6.45-.08.12-.19.21-.31.27s-.27.1-.44.1c-.28,0-.52-.1-.71-.29-.19-.19-.29-.43-.29-.71,0-.13.02-.25.05-.35.03-.1.09-.19.17-.27.35-.43.78-.77,1.29-1,.51-.23,1.04-.35,1.59-.35.85,0,1.61.25,2.28.75.67.5,1.12,1.16,1.35,1.98.1.38.31.69.62.92.32.23.67.35,1.05.35.32,0,.6-.08.85-.25s.47-.38.65-.62l.02-.05-6.9-9.53c-.13-.18-.23-.38-.29-.57-.06-.2-.09-.4-.09-.6,0-.27.05-.52.15-.76.1-.24.25-.46.45-.66L11.1,1.58c.18-.18.4-.33.65-.43s.5-.15.75-.15.5.05.75.15.47.24.65.43l6.5,6.37c.2.2.35.42.45.66.1.24.15.5.15.76,0,.2-.03.4-.09.6-.06.2-.15.39-.29.57l-8.12,11.25c-.3.42-.7.72-1.2.91s-1.02.29-1.55.29Z"/></svg>