<?xml version="1.0" encoding="UTF-8"?><svg id="Layer_1" xmlns="http://www.w3.org/2000/svg" viewBox="0 0 24 24"><path d="M12,20.33c-.23,0-.47-.04-.71-.12-.24-.08-.45-.22-.64-.4l-1.72-1.57c-1.77-1.62-3.36-3.22-4.79-4.81-1.42-1.59-2.14-3.35-2.14-5.26,0-1.57.53-2.87,1.58-3.92,1.05-1.05,2.36-1.58,3.92-1.58.88,0,1.72.19,2.5.56.78.38,1.45.89,2,1.54.55-.65,1.22-1.16,2-1.54s1.62-.56,2.5-.56c1.57,0,2.88.53,3.92,1.58,1.05,1.05,1.58,2.36,1.58,3.92,0,1.92-.71,3.67-2.12,5.27-1.42,1.6-3.02,3.21-4.82,4.82l-1.7,1.55c-.18.18-.4.32-.64.4-.24.08-.48.12-.71.12Z"/></svg>