<?xml version="1.0" encoding="UTF-8"?><svg id="Layer_1" xmlns="http://www.w3.org/2000/svg" viewBox="0 0 24 24"><path d="M12,20.33c-.23,0-.47-.04-.71-.12-.24-.08-.45-.22-.64-.4l-1.72-1.57c-1.77-1.62-3.36-3.22-4.79-4.81-1.42-1.59-2.14-3.35-2.14-5.26,0-1.57.53-2.87,1.58-3.92,1.05-1.05,2.36-1.58,3.92-1.58.88,0,1.72.19,2.5.56.78.38,1.45.89,2,1.54.55-.65,1.22-1.16,2-1.54s1.62-.56,2.5-.56c1.57,0,2.88.53,3.92,1.58,1.05,1.05,1.58,2.36,1.58,3.92,0,1.92-.71,3.67-2.12,5.27-1.42,1.6-3.02,3.21-4.82,4.82l-1.7,1.55c-.18.18-.4.32-.64.4-.24.08-.48.12-.71.12ZM11.05,6.75c-.48-.68-1-1.2-1.55-1.56-.55-.36-1.22-.54-2-.54-1,0-1.83.33-2.5,1-.67.67-1,1.5-1,2.5,0,.87.31,1.79.93,2.76.62.97,1.35,1.92,2.21,2.84.86.92,1.74,1.77,2.65,2.58.91.8,1.65,1.46,2.21,1.97.57-.52,1.3-1.17,2.21-1.97.91-.8,1.79-1.66,2.65-2.58.86-.92,1.6-1.86,2.21-2.84.62-.97.92-1.9.92-2.76,0-1-.33-1.83-1-2.5-.67-.67-1.5-1-2.5-1-.78,0-1.45.18-2,.54-.55.36-1.07.88-1.55,1.56-.12.17-.26.29-.43.38-.17.08-.34.12-.52.12s-.36-.04-.52-.12c-.17-.08-.31-.21-.43-.38Z"/></svg>