<?xml version="1.0" encoding="UTF-8"?><svg id="Layer_1" xmlns="http://www.w3.org/2000/svg" viewBox="0 0 24 24"><path d="M4,20v-9c-.55,0-1.02-.2-1.41-.59-.39-.39-.59-.86-.59-1.41v-2c0-.55.2-1.02.59-1.41.39-.39.86-.59,1.41-.59h3.2c-.08-.15-.14-.31-.16-.47-.03-.17-.04-.34-.04-.53,0-.83.29-1.54.88-2.12.58-.58,1.29-.88,2.12-.88.38,0,.74.07,1.07.21.33.14.64.34.93.59.28-.27.59-.47.93-.6.33-.13.69-.2,1.07-.2.83,0,1.54.29,2.12.88.58.58.88,1.29.88,2.12,0,.18-.02.35-.05.51-.03.16-.08.32-.15.49h3.2c.55,0,1.02.2,1.41.59.39.39.59.86.59,1.41v2c0,.55-.2,1.02-.59,1.41-.39.39-.86.59-1.41.59v9c0,.55-.2,1.02-.59,1.41-.39.39-.86.59-1.41.59H6c-.55,0-1.02-.2-1.41-.59-.39-.39-.59-.86-.59-1.41ZM14,3c-.28,0-.52.1-.71.29-.19.19-.29.43-.29.71s.1.52.29.71.43.29.71.29.52-.1.71-.29.29-.43.29-.71-.1-.52-.29-.71c-.19-.19-.43-.29-.71-.29ZM9,4c0,.28.1.52.29.71.19.19.43.29.71.29s.52-.1.71-.29.29-.43.29-.71-.1-.52-.29-.71c-.19-.19-.43-.29-.71-.29s-.52.1-.71.29c-.19.19-.29.43-.29.71ZM4,7v2h7v-2h-7ZM11,20v-9h-5v9h5ZM13,20h5v-9h-5v9ZM20,9v-2h-7v2h7Z"/></svg>