<?xml version="1.0" encoding="UTF-8"?><svg id="Layer_1" xmlns="http://www.w3.org/2000/svg" viewBox="0 0 24 24"><path d="M7,14v6c0,.28-.1.52-.29.71s-.43.29-.71.29-.52-.1-.71-.29-.29-.43-.29-.71V5c0-.28.1-.52.29-.71s.43-.29.71-.29h7.18c.23,0,.44.07.62.22s.3.34.35.58l.25,1.2h4.6c.28,0,.52.1.71.29s.29.43.29.71v8c0,.28-.1.52-.29.71s-.43.29-.71.29h-5.18c-.23,0-.44-.07-.62-.23-.18-.15-.3-.34-.35-.57l-.25-1.2h-5.6ZM14.65,14h3.35v-6h-4.43c-.23,0-.44-.07-.62-.22s-.3-.34-.35-.58l-.25-1.2h-5.35v6h6.43c.23,0,.44.07.62.23.18.15.3.34.35.57l.25,1.2Z"/></svg>