<?xml version="1.0" encoding="UTF-8"?><svg id="Layer_1" xmlns="http://www.w3.org/2000/svg" viewBox="0 0 24 24"><path d="M9.5,13h2.5l.73,1.45c.08.18.21.32.38.41.17.09.34.14.52.14h3.38c.28,0,.52-.1.71-.29s.29-.43.29-.71v-4c0-.28-.1-.52-.29-.71-.19-.19-.43-.29-.71-.29h-2l-.73-1.45c-.08-.18-.21-.32-.38-.41-.17-.09-.34-.14-.52-.14h-4.38c-.28,0-.52.1-.71.29-.19.19-.29.43-.29.71v9.25c0,.22.07.4.21.54.14.14.32.21.54.21s.4-.07.54-.21c.14-.14.21-.32.21-.54v-4.25ZM12,22c-1.38,0-2.68-.26-3.9-.79-1.22-.52-2.28-1.24-3.18-2.14-.9-.9-1.61-1.96-2.14-3.18-.52-1.22-.79-2.52-.79-3.9s.26-2.68.79-3.9c.52-1.22,1.24-2.28,2.14-3.18.9-.9,1.96-1.61,3.18-2.14,1.22-.52,2.52-.79,3.9-.79s2.68.26,3.9.79c1.22.53,2.27,1.24,3.18,2.14.9.9,1.61,1.96,2.14,3.18.52,1.22.79,2.52.79,3.9s-.26,2.68-.79,3.9c-.53,1.22-1.24,2.27-2.14,3.18-.9.9-1.96,1.61-3.18,2.14s-2.52.79-3.9.79Z"/></svg>