<?xml version="1.0" encoding="UTF-8"?><svg id="Layer_1" xmlns="http://www.w3.org/2000/svg" viewBox="0 0 24 24"><path d="M1,21v-7c0-.28.1-.52.29-.71.19-.19.43-.29.71-.29h4c.28,0,.52.1.71.29s.29.43.29.71v7c0,.28-.1.52-.29.71s-.43.29-.71.29H2c-.28,0-.52-.1-.71-.29-.19-.19-.29-.43-.29-.71ZM9,21v-7c0-.28.1-.52.29-.71.19-.19.43-.29.71-.29h4c.28,0,.52.1.71.29s.29.43.29.71v7c0,.28-.1.52-.29.71s-.43.29-.71.29h-4c-.28,0-.52-.1-.71-.29-.19-.19-.29-.43-.29-.71ZM17,21v-7c0-.28.1-.52.29-.71s.43-.29.71-.29h4c.28,0,.52.1.71.29s.29.43.29.71v7c0,.28-.1.52-.29.71s-.43.29-.71.29h-4c-.28,0-.52-.1-.71-.29s-.29-.43-.29-.71ZM11,20h2v-5h-2v5ZM1,10V3c0-.28.1-.52.29-.71.19-.19.43-.29.71-.29h4c.28,0,.52.1.71.29.19.19.29.43.29.71v7c0,.28-.1.52-.29.71s-.43.29-.71.29H2c-.28,0-.52-.1-.71-.29-.19-.19-.29-.43-.29-.71ZM9,10V3c0-.28.1-.52.29-.71.19-.19.43-.29.71-.29h4c.28,0,.52.1.71.29.19.19.29.43.29.71v7c0,.28-.1.52-.29.71s-.43.29-.71.29h-4c-.28,0-.52-.1-.71-.29-.19-.19-.29-.43-.29-.71ZM17,10V3c0-.28.1-.52.29-.71.19-.19.43-.29.71-.29h4c.28,0,.52.1.71.29.19.19.29.43.29.71v7c0,.28-.1.52-.29.71s-.43.29-.71.29h-4c-.28,0-.52-.1-.71-.29s-.29-.43-.29-.71ZM3,9h2v-5h-2v5ZM19,9h2v-5h-2v5Z"/></svg>