<?xml version="1.0" encoding="UTF-8"?><svg id="Layer_1" xmlns="http://www.w3.org/2000/svg" viewBox="0 0 24 24"><path d="M18,19c.55,0,1.02-.2,1.41-.59.39-.39.59-.86.59-1.41s-.2-1.02-.59-1.41c-.39-.39-.86-.59-1.41-.59s-1.02.2-1.41.59c-.39.39-.59.86-.59,1.41s.2,1.02.59,1.41c.39.39.86.59,1.41.59ZM17.8,22c-.23,0-.44-.08-.61-.23s-.29-.34-.34-.57l-.15-.7c-.2-.08-.39-.17-.56-.26-.18-.09-.35-.2-.54-.34l-.73.23c-.22.07-.43.06-.64-.02-.21-.08-.37-.22-.49-.4l-.2-.35c-.12-.2-.16-.42-.12-.65.03-.23.14-.43.32-.58l.55-.48c-.03-.2-.05-.42-.05-.65s.02-.45.05-.65l-.55-.48c-.18-.15-.29-.34-.32-.56-.03-.23,0-.44.12-.64l.22-.38c.12-.18.28-.32.48-.4.2-.08.41-.09.62-.02l.73.23c.18-.13.36-.25.54-.34.17-.09.36-.18.56-.26l.15-.73c.05-.23.16-.42.34-.56.17-.14.38-.21.61-.21h.4c.23,0,.44.07.61.23.17.15.29.34.34.57l.15.7c.2.08.39.17.56.26.18.09.35.2.54.34l.73-.23c.22-.07.43-.06.64.02.21.08.37.22.49.4l.2.35c.12.2.16.42.12.65-.03.23-.14.43-.33.57l-.55.48c.03.2.05.42.05.65s-.02.45-.05.65l.55.48c.18.15.29.34.33.56.03.23,0,.44-.12.64l-.23.38c-.12.18-.27.32-.48.4s-.41.09-.62.02l-.73-.23c-.18.13-.36.25-.54.34-.17.09-.36.18-.56.26l-.15.73c-.05.23-.16.42-.34.56-.17.14-.38.21-.61.21h-.4ZM4,18V6v4.3-.3,8ZM4,20c-.55,0-1.02-.2-1.41-.59-.39-.39-.59-.86-.59-1.41V6c0-.55.2-1.02.59-1.41.39-.39.86-.59,1.41-.59h5.18c.27,0,.52.05.76.15.24.1.45.24.64.42l1.43,1.43h8c.55,0,1.02.2,1.41.59.39.39.59.86.59,1.41v2c0,.28-.1.52-.29.71s-.43.29-.71.29-.52-.1-.71-.29-.29-.43-.29-.71v-2h-8.82l-2-2h-5.18v12h7c.28,0,.52.1.71.29s.29.43.29.71-.1.52-.29.71-.43.29-.71.29h-7Z"/></svg>