<?xml version="1.0" encoding="UTF-8"?><svg id="Layer_1" xmlns="http://www.w3.org/2000/svg" viewBox="0 0 24 24"><path d="M6.5,1c1.42,0,2.52.63,3.31,1.89.79,1.26,1.19,2.63,1.19,4.11,0,.68-.07,1.33-.21,1.95-.14.62-.3,1.17-.49,1.65l-7.13,1.42c-.25-.48-.51-1.15-.77-2.01-.27-.86-.4-1.86-.4-3.01,0-1.72.42-3.15,1.28-4.29.85-1.14,1.92-1.71,3.22-1.71ZM7.88,18c-1.18,0-2.1-.41-2.76-1.24-.66-.83-1.03-1.78-1.11-2.86l6.45-1.3c.13.28.26.6.38.96s.18.73.18,1.11c0,.95-.3,1.74-.89,2.37-.59.63-1.34.95-2.24.95ZM17.5,6c1.3,0,2.38.57,3.23,1.71.85,1.14,1.27,2.57,1.27,4.29,0,1.15-.13,2.15-.4,3.01-.27.86-.52,1.53-.77,2.01l-7.13-1.42c-.18-.48-.35-1.03-.49-1.65-.14-.62-.21-1.27-.21-1.95,0-1.48.4-2.85,1.19-4.11.79-1.26,1.9-1.89,3.31-1.89ZM16.12,23c-.9,0-1.65-.32-2.24-.95-.59-.63-.89-1.42-.89-2.38,0-.38.06-.75.18-1.11s.24-.68.38-.96l6.43,1.3c-.08,1.08-.45,2.04-1.1,2.86-.65.82-1.57,1.24-2.75,1.24Z"/></svg>