<?xml version="1.0" encoding="UTF-8"?><svg id="Layer_1" xmlns="http://www.w3.org/2000/svg" viewBox="0 0 24 24"><path d="M6.5,3c-.75,0-1.35.42-1.81,1.25-.46.83-.69,1.75-.69,2.75,0,1.05.15,1.98.44,2.79.29.81.56,1.41.81,1.81l2.75-.55c.22-.53.44-1.14.66-1.82.22-.68.34-1.43.34-2.23,0-1-.23-1.92-.69-2.75-.46-.83-1.06-1.25-1.81-1.25ZM7.88,16c.32,0,.58-.12.8-.35.22-.23.32-.56.32-.97,0-.28-.07-.57-.2-.88-.13-.3-.27-.57-.4-.8l-2.4.5c0,.67.15,1.25.44,1.75s.77.75,1.44.75ZM17.5,8c-.75,0-1.35.42-1.81,1.25-.46.83-.69,1.75-.69,2.75,0,.8.11,1.54.34,2.21.23.68.45,1.29.66,1.84l2.75.55c.25-.4.52-1,.81-1.8s.44-1.73.44-2.8c0-1-.23-1.92-.69-2.75-.46-.83-1.06-1.25-1.81-1.25ZM16.12,21c.67,0,1.15-.25,1.44-.75s.44-1.08.44-1.75l-2.4-.5c-.13.23-.27.5-.4.8-.13.3-.2.59-.2.88,0,.33.1.64.31.91s.48.41.81.41ZM7.88,18c-1.28,0-2.26-.48-2.93-1.42-.67-.95-.98-2.02-.95-3.2l-.45-.68c-.18-.28-.49-.93-.91-1.93s-.64-2.26-.64-3.77c0-1.72.42-3.15,1.28-4.29.85-1.14,1.92-1.71,3.22-1.71,1.42,0,2.52.63,3.31,1.89.79,1.26,1.19,2.63,1.19,4.11,0,.97-.13,1.86-.4,2.68-.27.82-.5,1.47-.7,1.97l.2.33c.13.23.32.6.55,1.11.23.51.35,1.04.35,1.59,0,.95-.3,1.74-.89,2.37-.59.63-1.34.95-2.24.95ZM16.12,23c-.9,0-1.65-.32-2.24-.95-.59-.63-.89-1.42-.89-2.38,0-.55.12-1.08.35-1.59.23-.51.42-.88.55-1.11l.2-.33c-.2-.5-.43-1.16-.7-1.97-.27-.82-.4-1.71-.4-2.68,0-1.48.4-2.85,1.19-4.11.79-1.26,1.9-1.89,3.31-1.89,1.3,0,2.38.57,3.23,1.71.85,1.14,1.27,2.57,1.27,4.29,0,1.52-.21,2.77-.64,3.76-.42.99-.73,1.63-.91,1.91l-.45.7c.02,1.18-.3,2.25-.96,3.2-.66.95-1.63,1.42-2.91,1.42Z"/></svg>