<?xml version="1.0" encoding="UTF-8"?><svg id="Layer_1" xmlns="http://www.w3.org/2000/svg" viewBox="0 0 24 24"><path d="M4,24c-.55,0-1.02-.2-1.41-.59-.39-.39-.59-.86-.59-1.41s.2-1.02.59-1.41c.39-.39.86-.59,1.41-.59h16c.55,0,1.02.2,1.41.59.39.39.59.86.59,1.41s-.2,1.02-.59,1.41c-.39.39-.86.59-1.41.59H4ZM14.6,12l-2.6-2.6-4,4,2.57,2.6,4.03-4ZM13.43,8l2.57,2.57,4-3.97-2.6-2.6-3.97,4ZM11.32,7.28l5.4,5.4-4.73,4.75c-.4.4-.87.6-1.41.6s-1.01-.2-1.41-.6l-.12.1c-.18.15-.38.27-.6.35s-.44.12-.67.12h-3.05c-.23,0-.4-.1-.49-.3-.09-.2-.05-.38.11-.55l2.3-2.27c-.4-.4-.61-.88-.62-1.44-.02-.56.17-1.04.57-1.44l4.72-4.72ZM11.32,7.28l4.68-4.68c.4-.4.87-.6,1.41-.6s1.01.2,1.41.6l2.6,2.58c.4.4.6.87.6,1.41s-.2,1.01-.6,1.41l-4.7,4.68-5.4-5.4Z"/></svg>