<?xml version="1.0" encoding="UTF-8"?><svg id="Layer_1" xmlns="http://www.w3.org/2000/svg" viewBox="0 0 24 24"><path d="M19.17,11l-3.87-3.87c-.2-.2-.3-.44-.3-.71s.1-.51.3-.71c.2-.18.44-.28.71-.28s.5.09.69.28l4.6,4.6c.1.1.17.21.21.32.04.12.06.24.06.38s-.02.26-.06.38c-.04.12-.11.23-.21.32l-4.6,4.6c-.2.2-.43.3-.7.29-.27,0-.5-.1-.7-.29-.2-.2-.3-.43-.31-.7,0-.27.09-.5.29-.7l3.9-3.9ZM13.18,12h-6.18c-.83,0-1.54.29-2.12.88-.58.58-.88,1.29-.88,2.12v3c0,.28-.1.52-.29.71-.19.19-.43.29-.71.29s-.52-.1-.71-.29c-.19-.19-.29-.43-.29-.71v-3c0-1.38.49-2.56,1.46-3.54.97-.97,2.15-1.46,3.54-1.46h6.18l-2.88-2.87c-.2-.2-.3-.44-.3-.71s.1-.51.3-.71c.2-.18.44-.28.71-.28s.5.09.69.28l4.6,4.6c.1.1.17.21.21.32.04.12.06.24.06.38s-.02.26-.06.38c-.04.12-.11.23-.21.32l-4.6,4.6c-.2.2-.43.3-.7.29-.27,0-.5-.1-.7-.29-.2-.2-.3-.43-.31-.7,0-.27.09-.5.29-.7l2.9-2.9Z"/></svg>