<?xml version="1.0" encoding="UTF-8"?><svg id="Layer_1" xmlns="http://www.w3.org/2000/svg" viewBox="0 0 24 24"><path d="M15.04,12.75c2.02,1.64,3.75,3.33,4.06,7.09.01.16-.15.28-.31.22l-1.94-.76-1.9,2.5c-.14.18-.43.08-.44-.15-.07-2.24-.67-5.07-1.69-7.36h.54c.85-.1,1.53-.73,1.69-1.55Z"/><path d="M8.93,12.59c.1.97.92,1.72,1.91,1.72h.11c-1.02,2.28-1.62,5.11-1.69,7.36,0,.22-.31.32-.44.15l-1.9-2.5-1.94.76c-.16.06-.33-.06-.31-.22.31-3.89,2.16-5.56,4.26-7.25Z"/><path d="M11.88,2c.38,0,.69.31.69.69v1.15c0,.38-.31.69-.69.69s-.69-.31-.69-.69v-1.15c0-.38.31-.69.69-.69Z" style="fill-rule:evenodd;"/><path d="M9.19,4.63c-.24.3-.68.35-.97.11l-1.04-.83c-.3-.24-.35-.68-.11-.97.24-.3.68-.35.97-.11l1.04.83c.3.24.35.68.11.97Z" style="fill-rule:evenodd;"/><path d="M14.69,4.63c.24.3.68.35.97.11l1.04-.83c.3-.24.35-.68.11-.97-.24-.3-.68-.35-.97-.11l-1.04.83c-.3.24-.35.68-.11.97Z" style="fill-rule:evenodd;"/><path d="M10.85,13.31h2.31c.51,0,.92-.41.92-.92v-5.31c0-.51-.41-.92-.92-.92h-2.31c-.51,0-.92.41-.92.92v5.31c0,.51.41.92.92.92Z"/><path d="M8.92,11.92H.46c-.25,0-.46-.21-.46-.46v-3.23c0-.25.21-.46.46-.46h8.46v4.15Z"/><path d="M23.54,7.77c.25,0,.46.21.46.46v3.23c0,.25-.21.46-.46.46h-8.46v-4.15h8.46Z"/></svg>