<?xml version="1.0" encoding="UTF-8"?><svg id="Layer_1" xmlns="http://www.w3.org/2000/svg" viewBox="0 0 24 24"><path d="M12,22c-1.38,0-2.68-.26-3.9-.79-1.22-.52-2.28-1.24-3.18-2.14-.9-.9-1.61-1.96-2.14-3.18-.52-1.22-.79-2.52-.79-3.9s.26-2.68.79-3.9c.52-1.22,1.24-2.28,2.14-3.18.9-.9,1.96-1.61,3.18-2.14,1.22-.52,2.52-.79,3.9-.79,2.35,0,4.41.7,6.19,2.11,1.78,1.41,2.94,3.2,3.49,5.39.08.27.05.52-.09.75-.14.23-.35.39-.61.48-.27.08-.52.05-.75-.1-.23-.15-.39-.36-.48-.62-.32-1.22-.89-2.3-1.71-3.25-.83-.95-1.84-1.67-3.04-2.15v.4c0,.55-.2,1.02-.59,1.41-.39.39-.86.59-1.41.59h-2v2c0,.28-.1.52-.29.71-.19.19-.43.29-.71.29h-2v2h6c.25,0,.44.11.57.34.13.23.13.45,0,.69-.2.38-.35.78-.44,1.2-.09.42-.14.84-.14,1.27,0,.88.2,1.71.6,2.49.4.78.84,1.51,1.32,2.21.13.2.18.42.12.65-.05.23-.19.39-.42.48-.57.23-1.15.4-1.76.51-.61.11-1.23.16-1.86.16ZM11,19.95v-1.95c-.55,0-1.02-.2-1.41-.59-.39-.39-.59-.86-.59-1.41v-1l-4.8-4.8c-.05.3-.1.6-.14.9-.04.3-.06.6-.06.9,0,2.02.66,3.78,1.99,5.3,1.32,1.52,3,2.4,5.01,2.65ZM19.5,22c-.12,0-.22-.03-.3-.1-.08-.07-.14-.15-.18-.25-.18-.58-.44-1.12-.77-1.62s-.69-.99-1.08-1.48c-.35-.43-.63-.91-.85-1.42-.22-.52-.33-1.06-.33-1.62,0-.97.34-1.79,1.02-2.48s1.51-1.02,2.48-1.02,1.79.34,2.48,1.02,1.02,1.51,1.02,2.48c0,.57-.11,1.1-.34,1.61-.23.51-.5.99-.84,1.44-.38.48-.74.98-1.08,1.48s-.59,1.04-.77,1.62c-.03.1-.09.18-.18.25-.08.07-.18.1-.3.1ZM19.5,19.17c.17-.28.35-.55.55-.79.2-.24.39-.49.58-.74.23-.32.44-.65.61-1.01.18-.36.26-.74.26-1.14,0-.55-.2-1.02-.59-1.41-.39-.39-.86-.59-1.41-.59s-1.02.2-1.41.59c-.39.39-.59.86-.59,1.41,0,.4.09.78.26,1.14.17.36.38.7.61,1.01.2.25.4.5.59.74.19.24.37.5.54.79ZM19.5,16.75c-.35,0-.65-.12-.89-.36-.24-.24-.36-.54-.36-.89s.12-.65.36-.89c.24-.24.54-.36.89-.36s.65.12.89.36c.24.24.36.54.36.89s-.12.65-.36.89c-.24.24-.54.36-.89.36Z"/></svg>