<?xml version="1.0" encoding="UTF-8"?><svg id="Layer_1" xmlns="http://www.w3.org/2000/svg" viewBox="0 0 24 24"><path d="M5,21c-.55,0-1.02-.2-1.41-.59-.39-.39-.59-.86-.59-1.41V4c0-.28.1-.52.29-.71.19-.19.43-.29.71-.29s.52.1.71.29c.19.19.29.43.29.71v15h15c.28,0,.52.1.71.29s.29.43.29.71-.1.52-.29.71-.43.29-.71.29H5ZM7,18c-.28,0-.52-.1-.71-.29s-.29-.43-.29-.71v-7c0-.28.1-.52.29-.71.19-.19.43-.29.71-.29h2c.28,0,.52.1.71.29.19.19.29.43.29.71v7c0,.28-.1.52-.29.71-.19.19-.43.29-.71.29h-2ZM12,18c-.28,0-.52-.1-.71-.29s-.29-.43-.29-.71V5c0-.28.1-.52.29-.71s.43-.29.71-.29h2c.28,0,.52.1.71.29s.29.43.29.71v12c0,.28-.1.52-.29.71s-.43.29-.71.29h-2ZM17,18c-.28,0-.52-.1-.71-.29s-.29-.43-.29-.71v-3c0-.28.1-.52.29-.71s.43-.29.71-.29h2c.28,0,.52.1.71.29s.29.43.29.71v3c0,.28-.1.52-.29.71s-.43.29-.71.29h-2Z"/></svg>