<?xml version="1.0" encoding="UTF-8"?><svg id="Layer_1" xmlns="http://www.w3.org/2000/svg" viewBox="0 0 24 24"><path d="M12,22c-.83,0-1.54-.29-2.12-.88-.58-.58-.88-1.29-.88-2.12,0-.08,0-.17.01-.27,0-.1.02-.19.04-.27l-2.08-1.18c-.27.23-.57.41-.9.54-.33.12-.69.19-1.07.19-.83,0-1.54-.29-2.12-.88s-.88-1.29-.88-2.12.29-1.54.88-2.12,1.29-.88,2.12-.88c.4,0,.78.07,1.12.23.35.15.67.36.95.62l2.98-1.5c-.05-.38-.03-.76.06-1.12.09-.37.25-.71.49-1.03l-.85-1.3c-.12.03-.24.06-.36.07-.12.02-.25.03-.39.03-.83,0-1.54-.29-2.12-.88s-.88-1.29-.88-2.12.29-1.54.88-2.12,1.29-.88,2.12-.88,1.54.29,2.12.88.88,1.29.88,2.12c0,.33-.05.65-.16.96-.11.31-.25.59-.44.84l.88,1.3c.13-.03.26-.06.38-.08.12-.02.24-.02.38-.02.28,0,.55.03.8.1.25.07.49.17.73.3l1.65-1.35c-.07-.17-.12-.34-.15-.51-.03-.17-.05-.35-.05-.54,0-.83.29-1.54.88-2.12.58-.58,1.29-.88,2.12-.88s1.54.29,2.12.88c.58.58.88,1.29.88,2.12s-.29,1.54-.88,2.12-1.29.88-2.12.88c-.28,0-.55-.04-.8-.11s-.49-.18-.73-.31l-1.65,1.38c.07.17.12.34.15.51.03.18.05.35.05.54,0,.83-.29,1.54-.88,2.12-.58.58-1.29.88-2.12.88-.4,0-.78-.07-1.14-.23-.36-.15-.68-.36-.96-.62l-2.95,1.48c.03.15.05.3.04.45,0,.15-.03.3-.06.45l2.1,1.2c.27-.23.56-.41.89-.54.33-.12.68-.19,1.06-.19.83,0,1.54.29,2.12.88s.88,1.29.88,2.12-.29,1.54-.88,2.12-1.29.88-2.12.88ZM5,16c.28,0,.52-.1.71-.29s.29-.43.29-.71-.1-.52-.29-.71-.43-.29-.71-.29-.52.1-.71.29-.29.43-.29.71.1.52.29.71.43.29.71.29ZM9,6c.28,0,.52-.1.71-.29.19-.19.29-.43.29-.71s-.1-.52-.29-.71c-.19-.19-.43-.29-.71-.29s-.52.1-.71.29c-.19.19-.29.43-.29.71s.1.52.29.71c.19.19.43.29.71.29ZM12,20c.28,0,.52-.1.71-.29s.29-.43.29-.71-.1-.52-.29-.71-.43-.29-.71-.29-.52.1-.71.29-.29.43-.29.71.1.52.29.71.43.29.71.29ZM13,12c.28,0,.52-.1.71-.29s.29-.43.29-.71-.1-.52-.29-.71-.43-.29-.71-.29-.52.1-.71.29-.29.43-.29.71.1.52.29.71.43.29.71.29ZM19,7c.28,0,.52-.1.71-.29s.29-.43.29-.71-.1-.52-.29-.71-.43-.29-.71-.29-.52.1-.71.29-.29.43-.29.71.1.52.29.71.43.29.71.29Z"/></svg>