<?xml version="1.0" encoding="UTF-8"?><svg id="Layer_1" xmlns="http://www.w3.org/2000/svg" viewBox="0 0 24 24"><path d="M8,11.75v-4.25c0-.42.15-.77.44-1.06.29-.29.65-.44,1.06-.44s.77.15,1.06.44c.29.29.44.65.44,1.06v4.25c0,.42-.15.77-.44,1.06-.29.29-.65.44-1.06.44s-.77-.15-1.06-.44c-.29-.29-.44-.65-.44-1.06ZM13,11.52V3.5c0-.42.15-.77.44-1.06.29-.29.65-.44,1.06-.44s.77.15,1.06.44c.29.29.44.65.44,1.06v8.02c0,.5-.15.88-.46,1.12s-.65.38-1.04.38-.73-.12-1.04-.38-.46-.62-.46-1.12ZM3,14.98v-3.48c0-.42.15-.77.44-1.06.29-.29.65-.44,1.06-.44s.77.15,1.06.44c.29.29.44.65.44,1.06v3.48c0,.5-.15.88-.46,1.12s-.65.38-1.04.38-.73-.12-1.04-.38c-.31-.25-.46-.62-.46-1.12ZM5.4,21.05c-.43,0-.74-.2-.91-.61-.18-.41-.1-.77.21-1.09l4.1-4.1c.18-.18.4-.28.66-.3.26-.02.49.07.69.25l2.85,2.45,5.6-5.6h-.6c-.28,0-.52-.1-.71-.29s-.29-.43-.29-.71.1-.52.29-.71.43-.29.71-.29h3c.28,0,.52.1.71.29s.29.43.29.71v3c0,.28-.1.52-.29.71s-.43.29-.71.29-.52-.1-.71-.29-.29-.43-.29-.71v-.6l-6.25,6.25c-.18.18-.4.28-.66.3-.26.02-.49-.07-.69-.25l-2.85-2.45-3.45,3.45c-.08.08-.19.15-.31.21s-.25.09-.39.09Z"/></svg>