<?xml version="1.0" encoding="UTF-8"?><svg id="Layer_1" xmlns="http://www.w3.org/2000/svg" viewBox="0 0 24 24"><path d="M5,22c-.83,0-1.54-.29-2.12-.88s-.88-1.29-.88-2.12c0-.65.19-1.23.56-1.75s.85-.88,1.44-1.08v-2.17c0-.83.29-1.54.88-2.12s1.29-.88,2.12-.88h4v-3.18c-.58-.2-1.06-.56-1.44-1.07s-.56-1.1-.56-1.75c0-.83.29-1.54.88-2.12.58-.58,1.29-.88,2.12-.88s1.54.29,2.12.88.88,1.29.88,2.12c0,.65-.19,1.23-.56,1.75s-.85.88-1.44,1.07v3.18h4c.83,0,1.54.29,2.12.88s.88,1.29.88,2.12v2.17c.58.2,1.06.56,1.44,1.08s.56,1.1.56,1.75c0,.83-.29,1.54-.88,2.12s-1.29.88-2.12.88-1.54-.29-2.12-.88-.88-1.29-.88-2.12c0-.65.19-1.23.56-1.75s.85-.88,1.44-1.08v-2.17c0-.28-.1-.52-.29-.71s-.43-.29-.71-.29h-4v3.17c.58.2,1.06.56,1.44,1.08s.56,1.1.56,1.75c0,.83-.29,1.54-.88,2.12s-1.29.88-2.12.88-1.54-.29-2.12-.88c-.58-.58-.88-1.29-.88-2.12,0-.65.19-1.23.56-1.75s.85-.88,1.44-1.08v-3.17h-4c-.28,0-.52.1-.71.29s-.29.43-.29.71v2.17c.58.2,1.06.56,1.44,1.08s.56,1.1.56,1.75c0,.83-.29,1.54-.88,2.12s-1.29.88-2.12.88ZM5,20c.28,0,.52-.1.71-.29s.29-.43.29-.71-.1-.52-.29-.71-.43-.29-.71-.29-.52.1-.71.29-.29.43-.29.71.1.52.29.71.43.29.71.29ZM12,20c.28,0,.52-.1.71-.29s.29-.43.29-.71-.1-.52-.29-.71-.43-.29-.71-.29-.52.1-.71.29-.29.43-.29.71.1.52.29.71.43.29.71.29ZM19,20c.28,0,.52-.1.71-.29s.29-.43.29-.71-.1-.52-.29-.71-.43-.29-.71-.29-.52.1-.71.29-.29.43-.29.71.1.52.29.71.43.29.71.29ZM12,6c.28,0,.52-.1.71-.29s.29-.43.29-.71-.1-.52-.29-.71-.43-.29-.71-.29-.52.1-.71.29-.29.43-.29.71.1.52.29.71.43.29.71.29Z"/></svg>