<?xml version="1.0" encoding="UTF-8"?><svg id="Layer_1" xmlns="http://www.w3.org/2000/svg" viewBox="0 0 24 24"><path d="M5,11c-.55,0-1.02-.2-1.41-.59-.39-.39-.59-.86-.59-1.41v-4c0-.55.2-1.02.59-1.41s.86-.59,1.41-.59h4c.55,0,1.02.2,1.41.59.39.39.59.86.59,1.41v4c0,.55-.2,1.02-.59,1.41-.39.39-.86.59-1.41.59h-4ZM5,21c-.55,0-1.02-.2-1.41-.59-.39-.39-.59-.86-.59-1.41v-4c0-.55.2-1.02.59-1.41.39-.39.86-.59,1.41-.59h4c.55,0,1.02.2,1.41.59.39.39.59.86.59,1.41v4c0,.55-.2,1.02-.59,1.41-.39.39-.86.59-1.41.59h-4ZM15,11c-.55,0-1.02-.2-1.41-.59-.39-.39-.59-.86-.59-1.41v-4c0-.55.2-1.02.59-1.41.39-.39.86-.59,1.41-.59h4c.55,0,1.02.2,1.41.59.39.39.59.86.59,1.41v4c0,.55-.2,1.02-.59,1.41-.39.39-.86.59-1.41.59h-4ZM15,21c-.55,0-1.02-.2-1.41-.59-.39-.39-.59-.86-.59-1.41v-4c0-.55.2-1.02.59-1.41.39-.39.86-.59,1.41-.59h4c.55,0,1.02.2,1.41.59.39.39.59.86.59,1.41v4c0,.55-.2,1.02-.59,1.41-.39.39-.86.59-1.41.59h-4ZM5,9h4v-4h-4v4ZM15,9h4v-4h-4v4ZM15,19h4v-4h-4v4ZM5,19h4v-4h-4v4Z"/></svg>