<?xml version="1.0" encoding="UTF-8"?><svg id="Layer_1" xmlns="http://www.w3.org/2000/svg" viewBox="0 0 24 24"><path d="M5,21c-.55,0-1.02-.2-1.41-.59-.39-.39-.59-.86-.59-1.41V5c0-.55.2-1.02.59-1.41s.86-.59,1.41-.59h14c.55,0,1.02.2,1.41.59.39.39.59.86.59,1.41v14c0,.55-.2,1.02-.59,1.41-.39.39-.86.59-1.41.59H5ZM5,19h3.32v-3.32h-3.32v3.32ZM10.32,19h3.35v-3.32h-3.35v3.32ZM15.68,19h3.32v-3.32h-3.32v3.32ZM5,13.68h3.32v-3.35h-3.32v3.35ZM10.32,13.68h3.35v-3.35h-3.35v3.35ZM15.68,13.68h3.32v-3.35h-3.32v3.35ZM5,8.32h3.32v-3.32h-3.32v3.32ZM10.32,8.32h3.35v-3.32h-3.35v3.32ZM15.68,8.32h3.32v-3.32h-3.32v3.32Z"/></svg>