<?xml version="1.0" encoding="UTF-8"?><svg id="Layer_1" xmlns="http://www.w3.org/2000/svg" viewBox="0 0 24 24"><path d="M8,2c.28,0,.52.1.71.29.19.19.29.43.29.71v8c0,.28-.1.52-.29.71-.19.19-.43.29-.71.29s-.52-.1-.71-.29-.29-.43-.29-.71V3c0-.28.1-.52.29-.71.19-.19.43-.29.71-.29ZM12,1c.28,0,.52.1.71.29.19.19.29.43.29.71v9c0,.28-.1.52-.29.71s-.43.29-.71.29-.52-.1-.71-.29-.29-.43-.29-.71V2c0-.28.1-.52.29-.71.19-.19.43-.29.71-.29ZM15,16.08V4c0-.28.1-.52.29-.71.19-.19.43-.29.71-.29s.52.1.71.29c.19.19.29.43.29.71v10.9l-2,1.18ZM5,16v3c0,.55.2,1.02.59,1.41.39.39.86.59,1.41.59h6.68c.13,0,.26-.03.38-.09s.22-.13.32-.21l4.55-4.55-5.65,3.27c-.43.25-.9.33-1.4.23s-.9-.35-1.2-.75l-2.18-2.9h-3.5ZM7,23c-1.1,0-2.04-.39-2.82-1.17-.78-.78-1.18-1.73-1.18-2.83v-5h5.5c.32,0,.62.07.9.21.28.14.52.34.7.59l2.15,2.87,4.75-2.77,2.25-1.3c.35-.2.72-.29,1.11-.26.39.03.75.15,1.09.39.42.32.64.73.67,1.25.03.52-.13.96-.5,1.32l-5.82,5.83c-.28.28-.61.5-.98.65s-.75.23-1.15.23h-6.68ZM5,14h-2V5c0-.28.1-.52.29-.71.19-.19.43-.29.71-.29s.52.1.71.29.29.43.29.71v9Z"/></svg>