<?xml version="1.0" encoding="UTF-8"?><svg id="Layer_1" xmlns="http://www.w3.org/2000/svg" viewBox="0 0 24 24"><path d="M12.5,23c-2.37,0-4.38-.83-6.03-2.48s-2.47-3.66-2.47-6.02V5c0-.28.1-.52.29-.71s.43-.29.71-.29.52.1.71.29.29.43.29.71v6h2V3c0-.28.1-.52.29-.71.19-.19.43-.29.71-.29s.52.1.71.29c.19.19.29.43.29.71v8h2V2c0-.28.1-.52.29-.71.19-.19.43-.29.71-.29s.52.1.71.29c.19.19.29.43.29.71v9h2v-7c0-.28.1-.52.29-.71.19-.19.43-.29.71-.29s.52.1.71.29c.19.19.29.43.29.71v5.75c-.48.35-.85.79-1.11,1.32-.26.53-.39,1.09-.39,1.68v1.25h-1.25c-1.05,0-1.94.36-2.66,1.09-.72.73-1.09,1.61-1.09,2.66v1.25c0,.22.07.4.21.54.14.14.32.21.54.21s.4-.07.54-.21c.14-.14.21-.32.21-.54v-1.25c0-.63.22-1.17.65-1.6s.97-.65,1.6-.65h1.75c.28,0,.52-.1.71-.29s.29-.43.29-.71v-1.75c0-.63.22-1.17.65-1.6s.97-.65,1.6-.65c.22,0,.4.07.54.21.14.14.21.32.21.54v3.25c0,2.37-.83,4.38-2.48,6.02s-3.66,2.48-6.02,2.48Z"/></svg>