<?xml version="1.0" encoding="UTF-8"?><svg id="Layer_1" xmlns="http://www.w3.org/2000/svg" viewBox="0 0 24 24"><path d="M13,1c.28,0,.52.1.71.29.19.19.29.43.29.71v9c0,.28-.1.52-.29.71s-.43.29-.71.29-.52-.1-.71-.29-.29-.43-.29-.71V2c0-.28.1-.52.29-.71.19-.19.43-.29.71-.29ZM9,2c.28,0,.52.1.71.29.19.19.29.43.29.71v8c0,.28-.1.52-.29.71-.19.19-.43.29-.71.29s-.52-.1-.71-.29c-.19-.19-.29-.43-.29-.71V3c0-.28.1-.52.29-.71.19-.19.43-.29.71-.29ZM12.5,23c-2.37,0-4.38-.83-6.03-2.48s-2.47-3.66-2.47-6.02V5c0-.28.1-.52.29-.71s.43-.29.71-.29.52.1.71.29.29.43.29.71v9.5c0,1.82.63,3.35,1.89,4.61,1.26,1.26,2.8,1.89,4.61,1.89s3.35-.63,4.61-1.89c1.26-1.26,1.89-2.8,1.89-4.61v-3.5c-.28,0-.52.1-.71.29s-.29.43-.29.71v3c0,.28-.1.52-.29.71s-.43.29-.71.29h-2c-.55,0-1.02.2-1.41.59-.39.39-.59.86-.59,1.41v1c0,.28-.1.52-.29.71s-.43.29-.71.29-.52-.1-.71-.29-.29-.43-.29-.71v-1c0-1.1.39-2.04,1.18-2.82.78-.78,1.72-1.18,2.82-1.18h1V4c0-.28.1-.52.29-.71.19-.19.43-.29.71-.29s.52.1.71.29c.19.19.29.43.29.71v5.18c.17-.05.33-.09.49-.12.16-.03.33-.05.51-.05h1c.28,0,.52.1.71.29.19.19.29.43.29.71v4.5c0,2.37-.83,4.38-2.48,6.02s-3.66,2.48-6.02,2.48Z"/></svg>