<?xml version="1.0" encoding="UTF-8"?><svg id="Layer_1" xmlns="http://www.w3.org/2000/svg" viewBox="0 0 24 24"><path d="M7,23c-1.1,0-2.04-.39-2.82-1.17-.78-.78-1.18-1.73-1.18-2.83v-3h5.45l2.03,2.67c.37.48.85.75,1.45.8.6.05,1.12-.14,1.55-.58l4.55-4.55,1.23-.75c.33-.22.7-.31,1.1-.28.4.03.77.17,1.1.4.42.32.64.73.67,1.25.03.52-.13.96-.5,1.32l-5.82,5.83c-.28.28-.61.5-.98.65s-.75.23-1.15.23h-6.68ZM3,14V5c0-.28.1-.52.29-.71.19-.19.43-.29.71-.29s.52.1.71.29.29.43.29.71v7h2V3c0-.28.1-.52.29-.71.19-.19.43-.29.71-.29s.52.1.71.29c.19.19.29.43.29.71v9h2V2c0-.28.1-.52.29-.71.19-.19.43-.29.71-.29s.52.1.71.29c.19.19.29.43.29.71v10h2V4c0-.28.1-.52.29-.71.19-.19.43-.29.71-.29s.52.1.71.29c.19.19.29.43.29.71v8.57l-4.95,4.9-2-2.68c-.18-.25-.42-.45-.7-.59-.28-.14-.58-.21-.9-.21H3Z"/></svg>