<?xml version="1.0" encoding="UTF-8"?><svg id="Layer_1" xmlns="http://www.w3.org/2000/svg" viewBox="0 0 24 24"><path d="M12.02,20.35c-.23,0-.46-.04-.69-.12-.22-.08-.43-.21-.61-.38-1.82-1.6-3.29-2.95-4.43-4.04-1.13-1.09-2.02-2.05-2.66-2.88s-1.08-1.58-1.3-2.26c-.23-.68-.34-1.41-.34-2.18,0-1.53.53-2.83,1.6-3.9s2.37-1.6,3.9-1.6c1.1,0,2.07.21,2.9.64.83.42,1.13,1.04.9,1.84l-.93,3.25c-.08.33-.03.63.16.89.19.26.45.39.79.39h1.68l-.65,6.35c-.02.13.04.21.16.23.12.02.2-.03.24-.15l1.85-6.12c.1-.33.05-.63-.15-.9-.2-.27-.47-.4-.8-.4h-1.65l1.52-4.53c.18-.58.57-.97,1.15-1.17.58-.2,1.19-.3,1.82-.3,1.53,0,2.83.53,3.9,1.6s1.6,2.37,1.6,3.9c0,.73-.13,1.46-.4,2.18-.27.72-.73,1.51-1.39,2.38s-1.54,1.85-2.65,2.94c-1.11,1.09-2.51,2.38-4.21,3.86-.18.17-.39.29-.62.38-.23.08-.47.12-.7.12Z"/></svg>