<?xml version="1.0" encoding="UTF-8"?><svg id="Layer_1" xmlns="http://www.w3.org/2000/svg" viewBox="0 0 24 24"><path d="M11.95,18c.35,0,.65-.12.89-.36.24-.24.36-.54.36-.89s-.12-.65-.36-.89c-.24-.24-.54-.36-.89-.36s-.65.12-.89.36c-.24.24-.36.54-.36.89s.12.65.36.89c.24.24.54.36.89.36ZM12,22c-1.38,0-2.68-.26-3.9-.79-1.22-.52-2.28-1.24-3.18-2.14-.9-.9-1.61-1.96-2.14-3.18-.52-1.22-.79-2.52-.79-3.9s.26-2.68.79-3.9c.52-1.22,1.24-2.28,2.14-3.18.9-.9,1.96-1.61,3.18-2.14,1.22-.52,2.52-.79,3.9-.79s2.68.26,3.9.79c1.22.53,2.27,1.24,3.18,2.14.9.9,1.61,1.96,2.14,3.18.52,1.22.79,2.52.79,3.9s-.26,2.68-.79,3.9c-.53,1.22-1.24,2.27-2.14,3.18-.9.9-1.96,1.61-3.18,2.14s-2.52.79-3.9.79ZM12.1,7.7c.42,0,.78.13,1.09.4.31.27.46.6.46,1,0,.37-.11.69-.34.97-.22.28-.48.55-.76.8-.38.33-.72.7-1.01,1.1-.29.4-.44.85-.44,1.35,0,.23.09.43.26.59.18.16.38.24.61.24.25,0,.46-.08.64-.25.18-.17.29-.38.34-.62.07-.35.22-.66.45-.94.23-.27.48-.54.75-.79.38-.37.71-.77.99-1.2.28-.43.41-.92.41-1.45,0-.85-.35-1.55-1.04-2.09s-1.5-.81-2.41-.81c-.63,0-1.24.13-1.81.4-.58.27-1.01.67-1.31,1.22-.12.2-.15.41-.11.64.04.23.15.4.34.51.23.13.48.18.73.12.25-.05.46-.19.62-.42.18-.25.41-.44.69-.58.27-.13.56-.2.86-.2Z"/></svg>