<?xml version="1.0" encoding="UTF-8"?><svg id="Layer_1" xmlns="http://www.w3.org/2000/svg" viewBox="0 0 24 24"><path d="M11.75,19h-.25c-2.37,0-4.38-.83-6.03-2.48-1.65-1.65-2.47-3.66-2.47-6.02s.83-4.38,2.47-6.03c1.65-1.65,3.66-2.47,6.03-2.47,1.18,0,2.29.22,3.31.66,1.03.44,1.93,1.05,2.7,1.83.77.77,1.38,1.67,1.82,2.7.44,1.02.66,2.13.66,3.31,0,2.23-.63,4.31-1.89,6.23-1.26,1.92-2.85,3.42-4.76,4.5-.17.08-.33.13-.5.14-.17,0-.32-.03-.45-.11-.13-.08-.25-.19-.35-.33-.1-.13-.16-.29-.18-.47l-.12-1.45ZM11.48,15.98c.28,0,.52-.1.72-.3s.3-.44.3-.73-.1-.52-.3-.72c-.2-.2-.44-.3-.72-.3s-.53.1-.73.3c-.2.2-.3.44-.3.72s.1.53.3.73.44.3.73.3ZM9.3,8.38c.18.08.37.09.55.01.18-.07.33-.2.45-.36.15-.2.32-.35.52-.46s.43-.16.68-.16c.4,0,.73.11.98.34.25.22.38.51.38.86,0,.22-.06.43-.19.65s-.35.48-.66.8c-.42.37-.73.71-.93,1.04-.2.33-.3.65-.3.99,0,.2.07.37.21.51.14.14.31.21.51.21s.37-.07.5-.23c.13-.15.23-.32.3-.52.08-.28.23-.54.45-.78.22-.23.42-.44.6-.62.35-.35.61-.7.79-1.05.17-.35.26-.7.26-1.05,0-.77-.26-1.38-.79-1.85-.53-.47-1.23-.7-2.11-.7-.53,0-1.02.13-1.48.39-.45.26-.82.61-1.1,1.06-.1.18-.11.36-.04.54.07.18.21.3.41.39Z"/></svg>