<?xml version="1.0" encoding="UTF-8"?><svg id="Layer_1" xmlns="http://www.w3.org/2000/svg" viewBox="0 0 24 24"><path d="M4.93,21.9l1.58-1.55c.82.53,1.69.94,2.61,1.23.92.28,1.89.42,2.89.42,1.38,0,2.68-.26,3.9-.79,1.22-.52,2.28-1.24,3.18-2.14.9-.9,1.61-1.96,2.14-3.18.52-1.22.79-2.52.79-3.9,0-1-.14-1.96-.42-2.89s-.69-1.8-1.23-2.61l1.58-1.57c.2-.2.3-.44.3-.71s-.1-.51-.3-.71c-.2-.2-.44-.3-.71-.3s-.51.1-.71.3L3.5,20.5c-.2.2-.3.43-.3.7s.1.5.3.7c.2.2.44.3.71.3s.51-.1.71-.3ZM12,20c-.72,0-1.41-.09-2.09-.27-.67-.18-1.33-.46-1.96-.83l10.95-10.95c.37.63.64,1.29.82,1.96.18.67.27,1.37.27,2.09,0,2.22-.78,4.1-2.34,5.66s-3.45,2.34-5.66,2.34ZM12,4c.55,0,1.09.05,1.61.16.52.11,1.04.27,1.54.49.27.12.53.13.8.05.27-.08.47-.24.6-.47.13-.23.16-.48.09-.75s-.24-.46-.49-.57c-.65-.3-1.32-.53-2.01-.68-.69-.15-1.4-.22-2.14-.22-1.38,0-2.68.26-3.9.79-1.22.53-2.27,1.24-3.17,2.14s-1.61,1.96-2.14,3.18c-.53,1.22-.79,2.52-.79,3.9,0,.73.08,1.45.23,2.14.15.69.38,1.36.67,2.01.12.25.31.41.58.49.27.07.52.05.75-.09.23-.13.39-.33.47-.6.08-.27.07-.53-.05-.8-.22-.5-.38-1.01-.49-1.54-.11-.53-.16-1.06-.16-1.61,0-2.22.78-4.1,2.34-5.66,1.56-1.56,3.45-2.34,5.66-2.34Z"/></svg>