<?xml version="1.0" encoding="UTF-8"?><svg id="Layer_1" xmlns="http://www.w3.org/2000/svg" viewBox="0 0 24 24"><path d="M19.07,21.9l-1.57-1.55c-.82.53-1.69.94-2.61,1.23-.92.28-1.89.42-2.89.42-1.38,0-2.68-.26-3.9-.79-1.22-.52-2.28-1.24-3.18-2.14-.9-.9-1.61-1.96-2.14-3.18s-.79-2.52-.79-3.9c0-1,.14-1.96.43-2.89.28-.93.69-1.8,1.22-2.61l-1.58-1.57c-.2-.2-.3-.44-.3-.71s.1-.51.3-.71c.2-.2.44-.3.71-.3s.51.1.71.3l17,17c.2.2.3.43.3.7s-.1.5-.3.7-.44.3-.71.3-.51-.1-.71-.3ZM19.17,16.33L7.67,4.82c-.3-.3-.42-.66-.36-1.07.06-.42.28-.72.66-.9.63-.28,1.29-.5,1.96-.64s1.36-.21,2.06-.21c1.38,0,2.68.26,3.9.79,1.22.53,2.27,1.24,3.17,2.14.9.9,1.61,1.96,2.14,3.18.52,1.22.79,2.52.79,3.9,0,.7-.07,1.39-.21,2.06-.14.68-.35,1.33-.64,1.96-.18.38-.48.61-.89.68s-.77-.06-1.09-.38Z"/></svg>