<?xml version="1.0" encoding="UTF-8"?><svg id="Layer_1" xmlns="http://www.w3.org/2000/svg" viewBox="0 0 24 24"><path d="M10,21c-.55,0-1.02-.2-1.41-.59-.39-.39-.59-.86-.59-1.41v-1.25c-.95-.65-1.69-1.48-2.21-2.5-.53-1.02-.79-2.1-.79-3.25,0-1.95.68-3.6,2.04-4.96,1.36-1.36,3.01-2.04,4.96-2.04s3.6.68,4.96,2.04c1.36,1.36,2.04,3.01,2.04,4.96,0,1.15-.26,2.23-.79,3.24-.53,1.01-1.26,1.85-2.21,2.51v1.25c0,.55-.2,1.02-.59,1.41-.39.39-.86.59-1.41.59h-4ZM10,19h4v-1.77c0-.17.04-.33.11-.48.07-.15.18-.27.31-.35l.43-.3c.68-.47,1.21-1.06,1.59-1.79s.56-1.5.56-2.31c0-1.38-.49-2.56-1.46-3.54-.98-.97-2.15-1.46-3.54-1.46s-2.56.49-3.54,1.46c-.97.98-1.46,2.15-1.46,3.54,0,.82.19,1.59.56,2.31s.9,1.32,1.59,1.79l.43.3c.13.08.24.2.31.35.07.15.11.31.11.48v1.77ZM10,24c-.28,0-.52-.1-.71-.29-.19-.19-.29-.43-.29-.71s.1-.52.29-.71c.19-.19.43-.29.71-.29h4c.28,0,.52.1.71.29s.29.43.29.71-.1.52-.29.71-.43.29-.71.29h-4Z"/><path d="M11,1v1c0,.28.1.52.29.71.19.19.43.29.71.29s.52-.1.71-.29c.19-.19.29-.43.29-.71v-1c0-.28-.1-.52-.29-.71-.19-.19-.43-.29-.71-.29s-.52.1-.71.29c-.19.19-.29.43-.29.71ZM1,12h1c.28,0,.52-.1.71-.29.19-.19.29-.43.29-.71s-.1-.52-.29-.71c-.19-.19-.43-.29-.71-.29h-1c-.28,0-.52.1-.71.29-.19.19-.29.43-.29.71s.1.52.29.71c.19.19.43.29.71.29ZM22,12h1c.28,0,.52-.1.71-.29s.29-.43.29-.71-.1-.52-.29-.71-.43-.29-.71-.29h-1c-.28,0-.52.1-.71.29s-.29.43-.29.71.1.52.29.71.43.29.71.29Z"/><path d="M3.97,5.38l-.7-.7c-.18-.18-.28-.42-.28-.7s.09-.52.28-.7c.18-.18.42-.27.7-.27s.52.09.7.27l.7.7c.18.18.28.42.28.7s-.09.52-.28.7c-.18.18-.42.28-.7.28s-.52-.09-.7-.28Z"/><path d="M20.02,5.38l.7-.7c.18-.18.27-.42.27-.7s-.09-.52-.27-.7c-.18-.18-.42-.27-.7-.27s-.52.09-.7.27l-.7.7c-.18.18-.27.42-.27.7s.09.52.27.7c.18.18.42.28.7.28s.52-.09.7-.28Z"/></svg>