<?xml version="1.0" encoding="UTF-8"?><svg id="Layer_1" xmlns="http://www.w3.org/2000/svg" viewBox="0 0 24 24"><path d="M8,20c-.55,0-1.02-.2-1.41-.59-.39-.39-.59-.86-.59-1.41v-2c0-.28.1-.52.29-.71.19-.19.43-.29.71-.29h2v-2.25c-.5-.03-1-.14-1.49-.31-.49-.18-.92-.44-1.29-.79-.1-.1-.18-.21-.24-.34-.06-.12-.09-.25-.09-.39v-.68h-.72c-.13,0-.26-.02-.39-.07s-.24-.12-.34-.23l-2.25-2.25c-.2-.2-.3-.43-.3-.7s.1-.5.3-.7c.48-.48,1.13-.84,1.95-1.06.82-.23,1.57-.34,2.25-.34.45,0,.89.03,1.31.1.42.07.85.19,1.29.38,0-.38.13-.71.4-.97.27-.27.59-.4.97-.4h8.63c.55,0,1.02.2,1.41.59.39.39.59.86.59,1.41v11c0,.83-.29,1.54-.88,2.12-.58.58-1.29.88-2.12.88H8ZM11,15h5c.28,0,.52.1.71.29s.29.43.29.71v1c0,.28.1.52.29.71s.43.29.71.29.52-.1.71-.29.29-.43.29-.71V6h-8v.6l5.72,5.72c.15.15.24.32.28.51.03.19,0,.38-.08.56s-.2.33-.35.44c-.15.11-.34.16-.57.16-.13,0-.26-.03-.39-.09s-.23-.13-.31-.21l-2.55-2.55-.2.2c-.23.23-.48.44-.74.62s-.53.32-.81.42v2.6ZM5.6,8.25h1.3c.28,0,.52.1.71.29.19.19.29.43.29.71v1.15c.2.13.41.23.63.28.22.05.44.07.67.07.38,0,.73-.06,1.04-.18.31-.12.61-.32.91-.62l.2-.2-1.4-1.4c-.48-.48-1.02-.85-1.62-1.09-.6-.24-1.24-.36-1.92-.36-.33,0-.65.03-.95.07-.3.05-.6.12-.9.22l1.05,1.05ZM15,17h-7v1h7.15c-.05-.15-.09-.31-.11-.48-.03-.17-.04-.34-.04-.52Z"/></svg>