<?xml version="1.0" encoding="UTF-8"?><svg id="Layer_1" xmlns="http://www.w3.org/2000/svg" viewBox="0 0 24 24"><path d="M8.05,19h-2.12c-.37,0-.7-.09-1.01-.27-.31-.18-.55-.43-.74-.75l-1.12-2c-.18-.3-.28-.62-.28-.98s.09-.68.28-.98l1.15-2.02-1.15-2.02c-.18-.3-.28-.62-.28-.98s.09-.68.28-.98l1.12-2c.18-.32.43-.57.74-.75.31-.18.65-.28,1.01-.28h2.12l1.12-1.97c.18-.32.43-.57.74-.75.31-.18.65-.28,1.01-.28h2.15c.37,0,.7.09,1.01.28.31.18.55.43.74.75l1.12,1.97h2.12c.37,0,.7.09,1.01.28s.55.43.74.75l1.12,2c.18.3.27.62.27.98s-.09.68-.27.98l-1.15,2.02,1.15,2.02c.18.3.27.62.27.98s-.09.68-.27.98l-1.12,2c-.18.32-.43.57-.74.75s-.65.27-1.01.27h-2.12l-1.12,1.98c-.18.32-.43.57-.74.75s-.65.27-1.01.27h-2.15c-.37,0-.7-.09-1.01-.27-.31-.18-.55-.43-.74-.75l-1.12-1.98ZM15.95,11h2.15l1.1-2-1.1-2h-2.15l-1.12,2,1.12,2ZM10.95,14h2.1l1.12-2-1.12-2h-2.1l-1.12,2,1.12,2ZM10.95,8h2.1l1.15-2.03-1.12-1.97h-2.15l-1.12,1.97,1.15,2.03ZM9.17,9l-1.12-2h-2.12l-1.12,2,1.12,2h2.12l1.12-2ZM9.17,15l-1.12-2h-2.15l-1.1,2,1.12,2h2.12l1.12-2ZM10.95,16l-1.15,2.02,1.12,1.98h2.15l1.12-1.98-1.15-2.02h-2.1ZM15.95,17h2.12l1.12-2-1.12-2h-2.12l-1.12,2,1.12,2Z"/></svg>