<?xml version="1.0" encoding="UTF-8"?><svg id="Layer_1" xmlns="http://www.w3.org/2000/svg" viewBox="0 0 24 24"><path d="M4,19v-9c0-.32.07-.62.21-.9.14-.28.34-.52.59-.7l6-4.5c.35-.27.75-.4,1.2-.4s.85.13,1.2.4l6,4.5c.25.18.45.42.59.7.14.28.21.58.21.9v9c0,.55-.2,1.02-.59,1.41-.39.39-.86.59-1.41.59h-3c-.28,0-.52-.1-.71-.29s-.29-.43-.29-.71v-5c0-.28-.1-.52-.29-.71s-.43-.29-.71-.29h-2c-.28,0-.52.1-.71.29s-.29.43-.29.71v5c0,.28-.1.52-.29.71-.19.19-.43.29-.71.29h-3c-.55,0-1.02-.2-1.41-.59-.39-.39-.59-.86-.59-1.41Z"/></svg>