<?xml version="1.0" encoding="UTF-8"?><svg id="Layer_1" xmlns="http://www.w3.org/2000/svg" viewBox="0 0 24 24"><path d="M6,20c-.28,0-.52-.1-.71-.29s-.29-.43-.29-.71v-6h-1c-.28,0-.52-.1-.71-.29-.19-.19-.29-.43-.29-.71s.1-.52.29-.71c.19-.19.43-.29.71-.29h4c.28,0,.52.1.71.29.19.19.29.43.29.71s-.1.52-.29.71c-.19.19-.43.29-.71.29h-1v6c0,.28-.1.52-.29.71s-.43.29-.71.29ZM6,9c-.28,0-.52-.1-.71-.29-.19-.19-.29-.43-.29-.71v-3c0-.28.1-.52.29-.71s.43-.29.71-.29.52.1.71.29.29.43.29.71v3c0,.28-.1.52-.29.71-.19.19-.43.29-.71.29ZM10,9c-.28,0-.52-.1-.71-.29-.19-.19-.29-.43-.29-.71s.1-.52.29-.71c.19-.19.43-.29.71-.29h1v-2c0-.28.1-.52.29-.71s.43-.29.71-.29.52.1.71.29.29.43.29.71v2h1c.28,0,.52.1.71.29s.29.43.29.71-.1.52-.29.71c-.19.19-.43.29-.71.29h-4ZM12,20c-.28,0-.52-.1-.71-.29s-.29-.43-.29-.71v-7c0-.28.1-.52.29-.71s.43-.29.71-.29.52.1.71.29.29.43.29.71v7c0,.28-.1.52-.29.71s-.43.29-.71.29ZM18,20c-.28,0-.52-.1-.71-.29s-.29-.43-.29-.71v-2h-1c-.28,0-.52-.1-.71-.29s-.29-.43-.29-.71.1-.52.29-.71.43-.29.71-.29h4c.28,0,.52.1.71.29s.29.43.29.71-.1.52-.29.71-.43.29-.71.29h-1v2c0,.28-.1.52-.29.71s-.43.29-.71.29ZM18,13c-.28,0-.52-.1-.71-.29s-.29-.43-.29-.71v-7c0-.28.1-.52.29-.71s.43-.29.71-.29.52.1.71.29.29.43.29.71v7c0,.28-.1.52-.29.71s-.43.29-.71.29Z"/></svg>