<?xml version="1.0" encoding="UTF-8"?><svg id="Layer_1" xmlns="http://www.w3.org/2000/svg" viewBox="0 0 24 24"><path d="M7,14c-.55,0-1.02-.2-1.41-.59-.39-.39-.59-.86-.59-1.41s.2-1.02.59-1.41c.39-.39.86-.59,1.41-.59s1.02.2,1.41.59c.39.39.59.86.59,1.41s-.2,1.02-.59,1.41c-.39.39-.86.59-1.41.59ZM7,18c-1.67,0-3.08-.58-4.25-1.75-1.17-1.17-1.75-2.58-1.75-4.25s.58-3.08,1.75-4.25c1.17-1.17,2.58-1.75,4.25-1.75,1.12,0,2.13.28,3.04.82.91.55,1.63,1.28,2.16,2.18h8.38c.13,0,.26.02.39.07s.24.12.34.23l2,2c.1.1.17.21.21.32.04.12.06.24.06.38s-.02.26-.06.38c-.04.12-.11.23-.21.32l-3.17,3.18c-.08.08-.18.15-.3.2-.12.05-.23.08-.35.1-.12.02-.23,0-.35-.02s-.23-.09-.33-.17l-1.3-.98-1.42,1.08c-.08.07-.18.12-.28.15-.1.03-.2.05-.3.05s-.2-.02-.31-.05c-.11-.03-.2-.08-.29-.15l-1.52-1.08h-1.18c-.53.9-1.25,1.62-2.16,2.17-.91.55-1.92.83-3.04.83ZM7,16c.93,0,1.75-.28,2.46-.85.71-.57,1.18-1.28,1.41-2.15h3.12l1.45,1.02,2.05-1.52,1.77,1.38,1.88-1.88-1-1h-9.27c-.23-.87-.7-1.58-1.41-2.15-.71-.57-1.53-.85-2.46-.85-1.1,0-2.04.39-2.82,1.18-.78.78-1.18,1.72-1.18,2.82s.39,2.04,1.18,2.82c.78.78,1.72,1.18,2.82,1.18Z"/></svg>