<?xml version="1.0" encoding="UTF-8"?><svg id="Layer_1" xmlns="http://www.w3.org/2000/svg" viewBox="0 0 24 24"><path d="M18,17c0,1.67-.58,3.08-1.75,4.25s-2.58,1.75-4.25,1.75-3.08-.58-4.25-1.75-1.75-2.58-1.75-4.25c0-1.1.28-2.11.82-3.02.55-.92,1.28-1.64,2.18-2.18V3c0-.55.2-1.02.59-1.41.39-.39.86-.59,1.41-.59h2c.55,0,1.02.2,1.41.59.39.39.59.86.59,1.41h1c.55,0,1.02.2,1.41.59.39.39.59.86.59,1.41v2c0,.55-.2,1.02-.59,1.41-.39.39-.86.59-1.41.59h-1v2.8c.9.53,1.62,1.26,2.17,2.18.55.92.83,1.92.83,3.02ZM16,17c0-1.1-.34-1.98-1.01-2.65-.68-.67-1.34-1.07-1.99-1.2v-6.15h3v-2h-3v-2h-2v10.15c-.65.13-1.31.53-1.99,1.2-.68.67-1.01,1.55-1.01,2.65s.39,2.04,1.18,2.83c.78.78,1.72,1.17,2.82,1.17s2.04-.39,2.82-1.17c.78-.78,1.18-1.73,1.18-2.83ZM14,17c0-.55-.2-1.02-.59-1.41-.39-.39-.86-.59-1.41-.59s-1.02.2-1.41.59c-.39.39-.59.86-.59,1.41s.2,1.02.59,1.41c.39.39.86.59,1.41.59s1.02-.2,1.41-.59c.39-.39.59-.86.59-1.41Z"/></svg>