<?xml version="1.0" encoding="UTF-8"?><svg id="Layer_1" xmlns="http://www.w3.org/2000/svg" viewBox="0 0 24 24"><path d="M18,17c0,1.67-.58,3.08-1.75,4.25s-2.58,1.75-4.25,1.75-3.08-.58-4.25-1.75-1.75-2.58-1.75-4.25c0-1.35.38-2.53,1.14-3.54.76-1.01,1.71-1.71,2.86-2.11V3c0-.55.2-1.02.59-1.41.39-.39.86-.59,1.41-.59.6,0,1.08.21,1.45.62.37.42.55.88.55,1.38h2c.55,0,1.02.2,1.41.59.39.39.59.86.59,1.41s-.2,1.02-.59,1.41c-.39.39-.86.59-1.41.59h-2v4.35c1.15.4,2.1,1.1,2.86,2.11.76,1.01,1.14,2.19,1.14,3.54ZM14,17c0-.55-.2-1.02-.59-1.41-.39-.39-.86-.59-1.41-.59s-1.02.2-1.41.59c-.39.39-.59.86-.59,1.41s.2,1.02.59,1.41c.39.39.86.59,1.41.59s1.02-.2,1.41-.59c.39-.39.59-.86.59-1.41Z"/></svg>