<?xml version="1.0" encoding="UTF-8"?><svg id="Layer_1" xmlns="http://www.w3.org/2000/svg" viewBox="0 0 24 24"><path d="M7.62,6.4l2.8-3.62c.2-.27.44-.46.71-.59.28-.12.56-.19.86-.19s.59.06.86.19c.27.12.51.32.71.59l2.8,3.62,4.25,1.42c.43.13.77.38,1.02.74s.38.75.38,1.19c0,.2-.03.4-.09.6-.06.2-.15.39-.29.57l-2.75,3.9.1,4.1c.02.58-.17,1.08-.58,1.48-.4.4-.87.6-1.4.6-.03,0-.22-.02-.55-.08l-4.48-1.25-4.47,1.25c-.08.03-.18.05-.28.06-.1,0-.19.01-.28.01-.53,0-1-.2-1.4-.6-.4-.4-.59-.89-.57-1.48l.1-4.12-2.72-3.88c-.13-.18-.23-.38-.29-.57-.06-.2-.09-.4-.09-.6,0-.42.12-.8.36-1.16.24-.36.58-.61,1.01-.76l4.25-1.42ZM8.85,8.12l-4.85,1.6,3.1,4.47-.1,4.78,5-1.38,5,1.4-.1-4.8,3.1-4.43-4.85-1.65-3.15-4.12-3.15,4.12Z"/></svg>