<?xml version="1.0" encoding="UTF-8"?><svg id="Layer_1" xmlns="http://www.w3.org/2000/svg" viewBox="0 0 24 24"><path d="M9,17c-.28,0-.52-.1-.71-.29-.19-.19-.29-.43-.29-.71s.1-.52.29-.71c.19-.19.43-.29.71-.29h1c.28,0,.52.1.71.29s.29.43.29.71-.1.52-.29.71-.43.29-.71.29h-1ZM8,22c-1.38,0-2.56-.49-3.54-1.46-.98-.98-1.46-2.15-1.46-3.54v-9c-.55,0-1.02-.2-1.41-.59-.39-.39-.59-.86-.59-1.41v-2c0-.55.2-1.02.59-1.41s.86-.59,1.41-.59h10c.55,0,1.02.2,1.41.59.39.39.59.86.59,1.41v2c0,.55-.2,1.02-.59,1.41-.39.39-.86.59-1.41.59v3c0,.55-.2,1.02-.59,1.41-.39.39-.86.59-1.41.59h-2c-.28,0-.52-.1-.71-.29-.19-.19-.29-.43-.29-.71s.1-.52.29-.71c.19-.19.43-.29.71-.29h2v-3h-6v9c0,.83.29,1.54.88,2.12s1.29.88,2.12.88c.3,0,.59-.04.86-.12.27-.08.53-.2.76-.35.22-.13.45-.17.7-.1s.44.22.57.45c.15.23.19.49.12.76-.07.27-.22.49-.45.64-.38.23-.79.41-1.21.54-.43.12-.88.19-1.36.19ZM3,6h10v-2H3v2ZM16.5,19c.7,0,1.29-.24,1.77-.73.48-.48.73-1.07.73-1.77s-.24-1.29-.73-1.77c-.48-.48-1.07-.73-1.77-.73s-1.29.24-1.77.73c-.48.48-.73,1.07-.73,1.77s.24,1.29.73,1.77c.48.48,1.07.73,1.77.73ZM16.5,21c-1.25,0-2.31-.44-3.19-1.31s-1.31-1.94-1.31-3.19.44-2.31,1.31-3.19,1.94-1.31,3.19-1.31,2.31.44,3.19,1.31,1.31,1.94,1.31,3.19c0,.43-.06.85-.17,1.25-.12.4-.29.78-.53,1.15l2,2c.18.18.28.42.28.7s-.09.52-.28.7-.42.28-.7.28-.52-.09-.7-.28l-2-2c-.37.23-.75.41-1.15.53-.4.12-.82.17-1.25.17Z"/></svg>