<?xml version="1.0" encoding="UTF-8"?><svg id="Layer_1" xmlns="http://www.w3.org/2000/svg" viewBox="0 0 24 24"><path d="M12,22c-1.37,0-2.66-.26-3.88-.79s-2.28-1.24-3.19-2.15c-.91-.91-1.62-1.97-2.15-3.19-.52-1.22-.79-2.51-.79-3.88s.26-2.68.79-3.89c.52-1.21,1.24-2.27,2.15-3.18.91-.91,1.97-1.62,3.19-2.15,1.22-.52,2.51-.79,3.88-.79s2.68.26,3.89.79c1.21.53,2.27,1.24,3.17,2.15.91.91,1.62,1.97,2.15,3.18.52,1.21.79,2.5.79,3.89s-.26,2.66-.79,3.88c-.53,1.22-1.24,2.28-2.15,3.19-.91.91-1.97,1.62-3.17,2.15-1.21.52-2.5.79-3.89.79ZM12,19.95c.43-.6.81-1.23,1.12-1.88.32-.65.57-1.34.77-2.08h-3.8c.2.73.46,1.42.77,2.08.32.65.69,1.27,1.12,1.88ZM9.4,19.55c-.3-.55-.56-1.12-.79-1.71-.23-.59-.41-1.2-.56-1.84h-2.95c.48.83,1.09,1.56,1.81,2.17.72.62,1.55,1.08,2.49,1.38ZM14.6,19.55c.93-.3,1.76-.76,2.49-1.38.72-.62,1.33-1.34,1.81-2.17h-2.95c-.15.63-.34,1.25-.56,1.84-.22.59-.49,1.16-.79,1.71ZM4.25,14h3.4c-.05-.33-.09-.66-.11-.99-.03-.32-.04-.66-.04-1.01s.01-.69.04-1.01c.02-.32.06-.65.11-.99h-3.4c-.08.33-.15.66-.19.99-.04.32-.06.66-.06,1.01s.02.69.06,1.01c.04.32.1.65.19.99ZM9.65,14h4.7c.05-.33.09-.66.11-.99.03-.32.04-.66.04-1.01s-.01-.69-.04-1.01c-.03-.32-.06-.65-.11-.99h-4.7c-.05.33-.09.66-.11.99-.03.32-.04.66-.04,1.01s.01.69.04,1.01c.02.32.06.65.11.99ZM16.35,14h3.4c.08-.33.15-.66.19-.99.04-.32.06-.66.06-1.01s-.02-.69-.06-1.01c-.04-.32-.1-.65-.19-.99h-3.4c.05.33.09.66.11.99.02.32.04.66.04,1.01s-.01.69-.04,1.01c-.03.32-.06.65-.11.99ZM15.95,8h2.95c-.48-.83-1.09-1.56-1.81-2.18-.73-.62-1.55-1.07-2.49-1.38.3.55.56,1.12.79,1.71.23.59.41,1.2.56,1.84ZM10.1,8h3.8c-.2-.73-.46-1.43-.77-2.07-.32-.65-.69-1.28-1.12-1.88-.43.6-.81,1.22-1.12,1.88-.32.65-.57,1.34-.77,2.07ZM5.1,8h2.95c.15-.63.34-1.25.56-1.84.22-.59.49-1.16.79-1.71-.93.3-1.76.76-2.49,1.38-.73.62-1.33,1.34-1.81,2.18Z"/></svg>