<?xml version="1.0" encoding="UTF-8"?><svg id="Layer_1" xmlns="http://www.w3.org/2000/svg" viewBox="0 0 24 24"><path d="M6.5,16c.78,0,1.55.09,2.29.26.74.17,1.48.44,2.21.79V7.2c-.68-.4-1.41-.7-2.18-.9-.77-.2-1.54-.3-2.32-.3-.6,0-1.2.06-1.79.18-.59.12-1.16.29-1.71.52v9.9c.58-.2,1.16-.35,1.74-.45.57-.1,1.16-.15,1.76-.15ZM13,17.05c.73-.35,1.47-.61,2.21-.79.74-.18,1.5-.26,2.29-.26.6,0,1.19.05,1.76.15.57.1,1.15.25,1.74.45V6.7c-.55-.23-1.12-.41-1.71-.52-.59-.12-1.19-.18-1.79-.18-.78,0-1.56.1-2.32.3-.77.2-1.49.5-2.18.9v9.85ZM12,19.48c-.23,0-.45-.03-.66-.09-.21-.06-.4-.14-.59-.24-.65-.38-1.33-.67-2.05-.86s-1.45-.29-2.2-.29c-.7,0-1.39.09-2.06.27-.67.18-1.32.44-1.94.77-.35.18-.69.18-1.01-.02-.32-.2-.49-.49-.49-.88V6.1c0-.18.05-.36.14-.53.09-.17.23-.29.41-.38.77-.4,1.57-.7,2.4-.9.83-.2,1.68-.3,2.55-.3.97,0,1.91.12,2.84.38.93.25,1.81.62,2.66,1.12.85-.5,1.74-.88,2.66-1.12.92-.25,1.87-.38,2.84-.38.87,0,1.72.1,2.55.3.83.2,1.63.5,2.4.9.18.08.32.21.41.38.09.17.14.34.14.53v12.05c0,.38-.16.68-.49.88-.33.2-.66.21-1.01.02-.62-.33-1.26-.59-1.94-.77s-1.36-.27-2.06-.27c-.75,0-1.48.1-2.2.29s-1.4.48-2.05.86c-.18.1-.38.18-.59.24-.21.06-.43.09-.66.09Z"/></svg>