<?xml version="1.0" encoding="UTF-8"?><svg id="Layer_1" xmlns="http://www.w3.org/2000/svg" viewBox="0 0 24 24"><path d="M11,14h2c.28,0,.52-.1.71-.29s.29-.43.29-.71-.1-.52-.29-.71-.43-.29-.71-.29h-2c-.28,0-.52.1-.71.29s-.29.43-.29.71.1.52.29.71.43.29.71.29ZM11,11h6c.28,0,.52-.1.71-.29s.29-.43.29-.71-.1-.52-.29-.71c-.19-.19-.43-.29-.71-.29h-6c-.28,0-.52.1-.71.29-.19.19-.29.43-.29.71s.1.52.29.71.43.29.71.29ZM11,8h6c.28,0,.52-.1.71-.29s.29-.43.29-.71-.1-.52-.29-.71-.43-.29-.71-.29h-6c-.28,0-.52.1-.71.29s-.29.43-.29.71.1.52.29.71.43.29.71.29ZM8,18c-.55,0-1.02-.2-1.41-.59-.39-.39-.59-.86-.59-1.41V4c0-.55.2-1.02.59-1.41.39-.39.86-.59,1.41-.59h12c.55,0,1.02.2,1.41.59.39.39.59.86.59,1.41v12c0,.55-.2,1.02-.59,1.41-.39.39-.86.59-1.41.59h-12ZM8,16h12V4h-12v12ZM4,22c-.55,0-1.02-.2-1.41-.59-.39-.39-.59-.86-.59-1.41V7c0-.28.1-.52.29-.71.19-.19.43-.29.71-.29s.52.1.71.29c.19.19.29.43.29.71v13h13c.28,0,.52.1.71.29s.29.43.29.71-.1.52-.29.71-.43.29-.71.29H4Z"/></svg>