<?xml version="1.0" encoding="UTF-8"?><svg id="Layer_1" xmlns="http://www.w3.org/2000/svg" viewBox="0 0 24 24"><path d="M6.7,21c-.48,0-.91-.16-1.29-.48s-.6-.72-.69-1.2l-1.53-9.15c-.05-.3.02-.57.21-.81.19-.24.45-.36.76-.36h15.65c.32,0,.57.12.76.36.19.24.26.51.21.81l-1.52,9.15c-.08.48-.31.88-.69,1.2s-.8.48-1.29.48H6.7ZM5.4,11l1.27,8h10.65l1.27-8H5.4ZM10,15h4c.28,0,.52-.1.71-.29s.29-.43.29-.71-.1-.52-.29-.71-.43-.29-.71-.29h-4c-.28,0-.52.1-.71.29-.19.19-.29.43-.29.71s.1.52.29.71c.19.19.43.29.71.29ZM6,8c-.28,0-.52-.1-.71-.29-.19-.19-.29-.43-.29-.71s.1-.52.29-.71c.19-.19.43-.29.71-.29h12c.28,0,.52.1.71.29s.29.43.29.71-.1.52-.29.71-.43.29-.71.29H6ZM8,5c-.28,0-.52-.1-.71-.29-.19-.19-.29-.43-.29-.71s.1-.52.29-.71c.19-.19.43-.29.71-.29h8c.28,0,.52.1.71.29.19.19.29.43.29.71s-.1.52-.29.71-.43.29-.71.29h-8Z"/></svg>