<?xml version="1.0" encoding="UTF-8"?><svg id="Layer_1" xmlns="http://www.w3.org/2000/svg" viewBox="0 0 24 24"><path d="M10,18c-.55,0-1.02-.2-1.41-.59-.39-.39-.59-.86-.59-1.41v-1.25c-.95-.65-1.69-1.48-2.21-2.5-.53-1.02-.79-2.1-.79-3.25,0-1.95.68-3.6,2.04-4.96,1.36-1.36,3.01-2.04,4.96-2.04s3.6.68,4.96,2.04c1.36,1.36,2.04,3.01,2.04,4.96,0,1.15-.26,2.23-.79,3.24-.53,1.01-1.26,1.85-2.21,2.51v1.25c0,.55-.2,1.02-.59,1.41-.39.39-.86.59-1.41.59h-4ZM10,22c-.28,0-.52-.1-.71-.29-.19-.19-.29-.43-.29-.71s.1-.52.29-.71c.19-.19.43-.29.71-.29h4c.28,0,.52.1.71.29s.29.43.29.71-.1.52-.29.71-.43.29-.71.29h-4Z"/></svg>