<?xml version="1.0" encoding="UTF-8"?><svg id="Layer_1" xmlns="http://www.w3.org/2000/svg" viewBox="0 0 24 24"><path d="M21,8c.53,0,1,.2,1.4.6.4.4.6.87.6,1.4v2c0,.12-.02.24-.05.38-.03.13-.07.26-.1.38l-3,7.05c-.15.33-.4.62-.75.85-.35.23-.72.35-1.1.35H7V8l6-5.95c.25-.25.55-.4.89-.44.34-.04.67.02.99.19.32.17.55.4.7.7.15.3.18.61.1.92l-1.12,4.58h6.45ZM9,8.85v10.15h8.34c.4,0,.76-.24.92-.61l2.58-6.02c.11-.25.16-.52.16-.79v-.59c0-.55-.45-1-1-1h-6.65c-.67,0-1.15-.65-.96-1.29l1.29-4.24c.08-.25-.24-.44-.42-.24l-4.26,4.62ZM4,21c-.55,0-1.02-.2-1.41-.59-.39-.39-.59-.86-.59-1.41v-9c0-.55.2-1.02.59-1.41.39-.39.86-.59,1.41-.59h3v2h-3v9h3v2h-3Z"/></svg>