<?xml version="1.0" encoding="UTF-8"?><svg id="Layer_1" xmlns="http://www.w3.org/2000/svg" viewBox="0 0 24 24"><path d="M3,16c-.53,0-1-.2-1.4-.6-.4-.4-.6-.87-.6-1.4v-2c0-.12.01-.24.04-.38.02-.13.06-.26.11-.38l3-7.05c.15-.33.4-.62.75-.85s.72-.35,1.1-.35h8c.55,0,1.02.2,1.41.59.39.39.59.86.59,1.41v10.18c0,.27-.05.52-.16.76-.11.24-.25.45-.44.64l-5.42,5.4c-.25.23-.55.38-.89.42-.34.05-.67,0-.99-.17-.32-.17-.55-.4-.69-.7-.14-.3-.17-.61-.09-.92l1.12-4.6H3ZM20,3c.55,0,1.02.2,1.41.59.39.39.59.86.59,1.41v9c0,.55-.2,1.02-.59,1.41-.39.39-.86.59-1.41.59s-1.02-.2-1.41-.59c-.39-.39-.59-.86-.59-1.41V5c0-.55.2-1.02.59-1.41.39-.39.86-.59,1.41-.59Z"/></svg>