<?xml version="1.0" encoding="UTF-8"?><svg id="Layer_1" xmlns="http://www.w3.org/2000/svg" viewBox="0 0 24 24"><path d="M3,16c-.53,0-1-.2-1.4-.6-.4-.4-.6-.87-.6-1.4v-2c0-.12.02-.24.05-.38.03-.13.07-.26.1-.38l3-7.05c.15-.33.4-.62.75-.85s.72-.35,1.1-.35h11v13l-6,5.95c-.25.25-.55.4-.89.44-.34.04-.67-.02-.99-.19-.32-.17-.55-.4-.7-.7-.15-.3-.18-.61-.1-.92l1.12-4.58H3ZM15,15.15V5H6.66c-.4,0-.76.24-.92.61l-2.58,6.02c-.11.25-.16.52-.16.79v.59c0,.55.45,1,1,1h6.67c.66,0,1.14.64.96,1.28l-1.22,4.26c-.07.25.25.43.43.24l4.16-4.62ZM20,3c.55,0,1.02.2,1.41.59.39.39.59.86.59,1.41v9c0,.55-.2,1.02-.59,1.41-.39.39-.86.59-1.41.59h-3v-2h3V5h-3v-2h3Z"/></svg>