<?xml version="1.0" encoding="UTF-8"?><svg id="Layer_1" xmlns="http://www.w3.org/2000/svg" viewBox="0 0 24 24"><path d="M7,16c-.28,0-.52-.1-.71-.29s-.29-.43-.29-.71.1-.52.29-.71.43-.29.71-.29h2c.28,0,.52.1.71.29.19.19.29.43.29.71s-.1.52-.29.71c-.19.19-.43.29-.71.29h-2ZM7,12c-.28,0-.52-.1-.71-.29s-.29-.43-.29-.71.1-.52.29-.71.43-.29.71-.29h11c.28,0,.52.1.71.29s.29.43.29.71-.1.52-.29.71-.43.29-.71.29H7ZM7,8c-.28,0-.52-.1-.71-.29s-.29-.43-.29-.71.1-.52.29-.71.43-.29.71-.29h11c.28,0,.52.1.71.29s.29.43.29.71-.1.52-.29.71-.43.29-.71.29H7ZM15.95,19.58c-.13,0-.26-.02-.38-.06-.12-.04-.22-.11-.32-.21l-2.85-2.85c-.2-.2-.3-.44-.29-.71s.11-.51.31-.71c.2-.2.44-.3.71-.3s.51.1.71.3l2.1,2.12,4.93-4.92c.2-.2.44-.3.71-.29s.51.11.71.31c.18.2.28.43.29.7,0,.27-.09.5-.29.7l-5.65,5.65c-.1.1-.21.17-.32.21-.12.04-.24.06-.38.06ZM3,8c-.28,0-.52-.1-.71-.29-.19-.19-.29-.43-.29-.71s.1-.52.29-.71c.19-.19.43-.29.71-.29s.52.1.71.29c.19.19.29.43.29.71s-.1.52-.29.71c-.19.19-.43.29-.71.29ZM3,12c-.28,0-.52-.1-.71-.29-.19-.19-.29-.43-.29-.71s.1-.52.29-.71c.19-.19.43-.29.71-.29s.52.1.71.29c.19.19.29.43.29.71s-.1.52-.29.71c-.19.19-.43.29-.71.29ZM3,16c-.28,0-.52-.1-.71-.29-.19-.19-.29-.43-.29-.71s.1-.52.29-.71c.19-.19.43-.29.71-.29s.52.1.71.29c.19.19.29.43.29.71s-.1.52-.29.71c-.19.19-.43.29-.71.29Z"/></svg>