<?xml version="1.0" encoding="UTF-8"?><svg id="Layer_1" xmlns="http://www.w3.org/2000/svg" viewBox="0 0 24 24"><path d="M5,21c-.55,0-1.02-.2-1.41-.59-.39-.39-.59-.86-.59-1.41V5c0-.55.2-1.02.59-1.41s.86-.59,1.41-.59h14c.55,0,1.02.2,1.41.59.39.39.59.86.59,1.41v7c0,.28-.1.52-.29.71s-.43.29-.71.29-.52-.1-.71-.29-.29-.43-.29-.71v-7H5v14h6c.28,0,.52.1.71.29s.29.43.29.71-.1.52-.29.71-.43.29-.71.29h-6ZM17.35,19.17l3.52-3.55c.2-.2.44-.3.71-.3s.51.1.71.3c.2.2.3.44.3.71s-.1.51-.3.71l-4.25,4.25c-.2.2-.44.3-.71.3s-.51-.1-.71-.3l-2.12-2.12c-.18-.2-.27-.44-.27-.71s.1-.51.3-.71c.2-.2.43-.3.7-.3s.5.1.7.3l1.43,1.42ZM8,13c.28,0,.52-.1.71-.29.19-.19.29-.43.29-.71s-.1-.52-.29-.71c-.19-.19-.43-.29-.71-.29s-.52.1-.71.29-.29.43-.29.71.1.52.29.71.43.29.71.29ZM8,9c.28,0,.52-.1.71-.29.19-.19.29-.43.29-.71s-.1-.52-.29-.71c-.19-.19-.43-.29-.71-.29s-.52.1-.71.29-.29.43-.29.71.1.52.29.71c.19.19.43.29.71.29ZM16,13c.28,0,.52-.1.71-.29s.29-.43.29-.71-.1-.52-.29-.71-.43-.29-.71-.29h-4c-.28,0-.52.1-.71.29s-.29.43-.29.71.1.52.29.71.43.29.71.29h4ZM16,9c.28,0,.52-.1.71-.29.19-.19.29-.43.29-.71s-.1-.52-.29-.71-.43-.29-.71-.29h-4c-.28,0-.52.1-.71.29s-.29.43-.29.71.1.52.29.71c.19.19.43.29.71.29h4Z"/></svg>