<?xml version="1.0" encoding="UTF-8"?><svg id="Layer_1" xmlns="http://www.w3.org/2000/svg" viewBox="0 0 24 24"><path d="M6,22c-.55,0-1.02-.2-1.41-.59-.39-.39-.59-.86-.59-1.41v-10c0-.55.2-1.02.59-1.41.39-.39.86-.59,1.41-.59h9v-2c0-.83-.29-1.54-.88-2.12-.58-.58-1.29-.88-2.12-.88-.7,0-1.31.21-1.84.64-.53.42-.88.95-1.06,1.59-.07.23-.2.42-.41.56-.21.14-.44.21-.69.21-.28,0-.52-.09-.71-.28s-.26-.4-.21-.65c.23-1.15.81-2.12,1.73-2.9.92-.78,1.98-1.17,3.2-1.17,1.38,0,2.56.49,3.54,1.46.98.97,1.46,2.15,1.46,3.54v2h1c.55,0,1.02.2,1.41.59.39.39.59.86.59,1.41v10c0,.55-.2,1.02-.59,1.41-.39.39-.86.59-1.41.59H6ZM6,20h12v-10H6v10ZM12,17c.55,0,1.02-.2,1.41-.59.39-.39.59-.86.59-1.41s-.2-1.02-.59-1.41c-.39-.39-.86-.59-1.41-.59s-1.02.2-1.41.59c-.39.39-.59.86-.59,1.41s.2,1.02.59,1.41c.39.39.86.59,1.41.59Z"/></svg>