<?xml version="1.0" encoding="UTF-8"?><svg id="Layer_1" xmlns="http://www.w3.org/2000/svg" viewBox="0 0 24 24"><path d="M6,22c-.55,0-1.02-.2-1.41-.59-.39-.39-.59-.86-.59-1.41v-10c0-.55.2-1.02.59-1.41.39-.39.86-.59,1.41-.59h1v-2c0-1.38.49-2.56,1.46-3.54.97-.98,2.15-1.46,3.54-1.46s2.56.49,3.54,1.46c.98.97,1.46,2.15,1.46,3.54v2h1c.55,0,1.02.2,1.41.59.39.39.59.86.59,1.41v10c0,.55-.2,1.02-.59,1.41-.39.39-.86.59-1.41.59H6ZM12,17c.55,0,1.02-.2,1.41-.59.39-.39.59-.86.59-1.41s-.2-1.02-.59-1.41c-.39-.39-.86-.59-1.41-.59s-1.02.2-1.41.59c-.39.39-.59.86-.59,1.41s.2,1.02.59,1.41c.39.39.86.59,1.41.59ZM9,8h6v-2c0-.83-.29-1.54-.88-2.12-.58-.58-1.29-.88-2.12-.88s-1.54.29-2.12.88c-.58.58-.88,1.29-.88,2.12v2Z"/></svg>