<?xml version="1.0" encoding="UTF-8"?><svg id="Layer_1" xmlns="http://www.w3.org/2000/svg" viewBox="0 0 24 24"><path d="M5,21c-.55,0-1.02-.2-1.41-.59-.39-.39-.59-.86-.59-1.41V5c0-.55.2-1.02.59-1.41s.86-.59,1.41-.59h6c.28,0,.52.1.71.29.19.19.29.43.29.71s-.1.52-.29.71-.43.29-.71.29h-6v14h6c.28,0,.52.1.71.29s.29.43.29.71-.1.52-.29.71-.43.29-.71.29h-6ZM17.17,13h-7.17c-.28,0-.52-.1-.71-.29-.19-.19-.29-.43-.29-.71s.1-.52.29-.71c.19-.19.43-.29.71-.29h7.17l-1.87-1.88c-.18-.18-.28-.41-.28-.68s.09-.5.28-.7.42-.3.7-.31.52.09.73.29l3.57,3.58c.2.2.3.43.3.7s-.1.5-.3.7l-3.57,3.57c-.2.2-.44.3-.71.29-.28,0-.51-.11-.71-.31-.18-.2-.27-.44-.26-.71,0-.28.1-.5.29-.69l1.85-1.85Z"/></svg>