<?xml version="1.0" encoding="UTF-8"?><svg id="Layer_1" xmlns="http://www.w3.org/2000/svg" viewBox="0 0 24 24"><path d="M13.02,1.6l8.02,4.8c.3.18.53.43.7.75s.25.65.25,1v10.85c0,.55-.2,1.02-.59,1.41-.39.39-.86.59-1.41.59H4c-.55,0-1.02-.2-1.41-.59-.39-.39-.59-.86-.59-1.41v-10.85c0-.35.08-.68.25-1s.4-.57.7-.75L10.98,1.6c.32-.18.66-.27,1.02-.27s.71.09,1.02.27ZM12,12.65l7.8-4.65-7.8-4.65-7.8,4.65,7.8,4.65ZM10.98,14.38l-6.98-4.18v8.8h16v-8.8l-6.98,4.18c-.32.18-.66.27-1.02.27s-.71-.09-1.02-.27Z"/></svg>