<?xml version="1.0" encoding="UTF-8"?><svg id="Layer_1" xmlns="http://www.w3.org/2000/svg" viewBox="0 0 24 24"><path d="M12,1c.67,0,1.28.36,1.61.94l2.61,4.7,5.3,1.01c.66.13,1.19.6,1.4,1.23.21.63.05,1.33-.41,1.81l-3.69,3.92.67,5.33c.08.66-.2,1.31-.74,1.7l-.12.08c-.29.18-.62.27-.96.27-.26,0-.53-.06-.78-.17l-4.89-2.28-4.89,2.28-.12.05c-.58.22-1.23.14-1.74-.22-.54-.39-.82-1.04-.74-1.7l.67-5.33-3.69-3.92c-.43-.45-.59-1.09-.44-1.69l.03-.12c.21-.63.74-1.1,1.4-1.23l5.3-1.01,2.61-4.7c.32-.58.94-.94,1.61-.94ZM9.08,8.44l-5.91,1.13,4.11,4.37-.75,5.95,5.46-2.55,5.46,2.55-.75-5.95,4.11-4.37-5.91-1.13-2.92-5.26-2.92,5.26Z"/></svg>