<?xml version="1.0" encoding="UTF-8"?><svg id="Layer_1" xmlns="http://www.w3.org/2000/svg" viewBox="0 0 24 24"><path d="M19.95,16.98l-6.2-4.15c-.15-.1-.26-.22-.34-.36-.07-.14-.11-.3-.11-.46s.04-.32.11-.46c.07-.14.19-.26.34-.36l6.2-4.15c.08-.07.17-.11.27-.12.1-.02.19-.03.27-.03.27,0,.5.09.7.28.2.18.3.42.3.72v8.25c0,.3-.1.54-.3.73-.2.18-.43.27-.7.27-.08,0-.17,0-.27-.02-.1-.02-.19-.06-.27-.12ZM9.95,16.98l-6.2-4.15c-.15-.1-.26-.22-.34-.36-.08-.14-.11-.3-.11-.46s.04-.32.11-.46c.07-.14.19-.26.34-.36l6.2-4.15c.08-.07.18-.11.28-.12.1-.02.19-.03.27-.03.27,0,.5.09.7.28.2.18.3.42.3.72v8.25c0,.3-.1.54-.3.73-.2.18-.43.27-.7.27-.08,0-.18,0-.27-.02-.1-.02-.19-.06-.28-.12Z"/></svg>