<?xml version="1.0" encoding="UTF-8"?><svg id="Layer_1" xmlns="http://www.w3.org/2000/svg" viewBox="0 0 24 24"><path d="M16.5,17V7c0-.28.1-.52.29-.71s.43-.29.71-.29.52.1.71.29.29.43.29.71v10c0,.28-.1.52-.29.71s-.43.29-.71.29-.52-.1-.71-.29-.29-.43-.29-.71ZM5.5,16.12V7.88c0-.3.1-.54.3-.72.2-.18.43-.28.7-.28.08,0,.18,0,.28.03.1.02.19.06.28.12l6.2,4.15c.15.1.26.22.34.36.08.14.11.3.11.46s-.04.32-.11.46c-.07.14-.19.26-.34.36l-6.2,4.15c-.08.07-.18.11-.28.12-.1.02-.19.02-.28.02-.27,0-.5-.09-.7-.27-.2-.18-.3-.43-.3-.73Z"/></svg>