<?xml version="1.0" encoding="UTF-8"?><svg id="Layer_1" xmlns="http://www.w3.org/2000/svg" viewBox="0 0 24 24"><path d="M2.5,16.12V7.88c0-.3.1-.54.3-.72s.43-.28.7-.28c.08,0,.17,0,.28.03.1.02.19.06.28.12l6.2,4.15c.15.1.26.22.34.36.08.14.11.3.11.46s-.04.32-.11.46c-.07.14-.19.26-.34.36l-6.2,4.15c-.08.07-.18.11-.28.12-.1.02-.19.02-.28.02-.27,0-.5-.09-.7-.27s-.3-.43-.3-.73ZM12.5,16.12V7.88c0-.3.1-.54.3-.72s.43-.28.7-.28c.08,0,.18,0,.27.03.1.02.19.06.28.12l6.2,4.15c.15.1.26.22.34.36.08.14.11.3.11.46s-.04.32-.11.46c-.07.14-.19.26-.34.36l-6.2,4.15c-.08.07-.18.11-.28.12-.1.02-.19.02-.27.02-.27,0-.5-.09-.7-.27s-.3-.43-.3-.73Z"/></svg>