<?xml version="1.0" encoding="UTF-8"?><svg id="Layer_1" xmlns="http://www.w3.org/2000/svg" viewBox="0 0 24 24"><path d="M16,19c-.55,0-1.02-.2-1.41-.59-.39-.39-.59-.86-.59-1.41V7c0-.55.2-1.02.59-1.41.39-.39.86-.59,1.41-.59s1.02.2,1.41.59c.39.39.59.86.59,1.41v10c0,.55-.2,1.02-.59,1.41-.39.39-.86.59-1.41.59ZM8,19c-.55,0-1.02-.2-1.41-.59-.39-.39-.59-.86-.59-1.41V7c0-.55.2-1.02.59-1.41.39-.39.86-.59,1.41-.59s1.02.2,1.41.59c.39.39.59.86.59,1.41v10c0,.55-.2,1.02-.59,1.41-.39.39-.86.59-1.41.59Z"/></svg>