<?xml version="1.0" encoding="UTF-8"?><svg id="Layer_1" xmlns="http://www.w3.org/2000/svg" viewBox="0 0 24 24"><path d="M5,4.85v14.3c-.28-.28-.55-.58-.8-.9-.25-.32-.48-.64-.7-.98V6.72c.22-.33.45-.66.7-.97.25-.32.52-.62.8-.9ZM9,2.45v19.1c-.35-.12-.69-.25-1.03-.39-.33-.14-.66-.3-.97-.49V3.33c.32-.18.64-.35.97-.49s.67-.27,1.03-.39ZM16,21.17V2.83c1.77.78,3.21,1.99,4.33,3.62,1.12,1.63,1.67,3.48,1.67,5.55s-.56,3.92-1.67,5.55c-1.12,1.63-2.56,2.84-4.33,3.62ZM12,22c-.17,0-.33,0-.5-.01-.17,0-.33-.02-.5-.04V2.05c.17-.02.33-.03.5-.04.17,0,.33-.01.5-.01.33,0,.67.02,1,.05s.67.08,1,.15v19.6c-.33.07-.67.12-1,.15-.33.03-.67.05-1,.05Z"/></svg>