<?xml version="1.0" encoding="UTF-8"?><svg id="Layer_1" xmlns="http://www.w3.org/2000/svg" viewBox="0 0 24 24"><path d="M8.7,12.93l1.38.93,1.48-.75c.13-.08.28-.12.45-.12s.32.04.45.12l1.48.75,1.32-.88-1-1.98h-4.6l-.95,1.93ZM5.22,20h13.53l-2.6-5.23-1.6,1.08c-.15.1-.31.15-.49.16-.18,0-.35-.03-.51-.11l-1.55-.77-1.55.77c-.17.08-.34.12-.51.1-.18-.02-.34-.07-.49-.18l-1.65-1.07-2.57,5.25ZM3.6,22c-.38,0-.67-.16-.86-.48-.19-.32-.2-.64-.04-.98l5.15-10.42c.17-.33.41-.6.74-.81s.68-.31,1.06-.31h1.35V3c0-.28.1-.52.29-.71.19-.19.43-.29.71-.29h5.2c.18,0,.32.08.42.24s.11.32.02.49l-.55,1.05c-.03.08-.05.16-.05.22s.02.14.05.22l.55,1.05c.08.17.08.33-.02.49s-.24.24-.42.24h-4.2v3h1.25c.38,0,.73.1,1.05.3.32.2.57.47.75.8l5.22,10.45c.17.33.15.66-.04.98-.19.32-.48.48-.86.48H3.6Z"/></svg>