<?xml version="1.0" encoding="UTF-8"?><svg id="Layer_1" xmlns="http://www.w3.org/2000/svg" viewBox="0 0 24 24"><path d="M18,13.4l-1.9,1.9c-.18.18-.42.27-.7.27s-.52-.09-.7-.27c-.18-.18-.27-.42-.27-.7s.09-.52.27-.7l1.9-1.9-1.9-1.9c-.18-.18-.27-.42-.27-.7s.09-.52.27-.7c.18-.18.42-.27.7-.27s.52.09.7.27l1.9,1.9,1.9-1.9c.18-.18.42-.27.7-.27s.52.09.7.27c.18.18.28.42.28.7s-.09.52-.28.7l-1.9,1.9,1.9,1.9c.18.18.28.42.28.7s-.09.52-.28.7c-.18.18-.42.27-.7.27s-.52-.09-.7-.27l-1.9-1.9ZM7,15h-3c-.28,0-.52-.1-.71-.29-.19-.19-.29-.43-.29-.71v-4c0-.28.1-.52.29-.71.19-.19.43-.29.71-.29h3l3.3-3.3c.32-.32.68-.39,1.09-.21.41.17.61.49.61.94v11.15c0,.45-.2.76-.61.94-.41.17-.77.1-1.09-.21l-3.3-3.3ZM10,8.85l-2.15,2.15h-2.85v2h2.85l2.15,2.15v-6.3Z"/></svg>