<?xml version="1.0" encoding="UTF-8"?><svg id="Layer_1" xmlns="http://www.w3.org/2000/svg" viewBox="0 0 24 24"><path d="M11.3,15.7l-3-3c-.2-.2-.3-.43-.3-.7s.1-.5.3-.7l3-3c.2-.2.43-.3.7-.3s.5.1.7.3l3,3c.2.2.3.43.3.7s-.1.5-.3.7l-3,3c-.2.2-.43.3-.7.3s-.5-.1-.7-.3ZM13.4,21.38c-.18.18-.4.33-.65.42-.25.1-.5.15-.75.15s-.5-.05-.75-.15c-.25-.1-.47-.24-.65-.42l-7.98-7.98c-.18-.18-.33-.4-.42-.65s-.15-.5-.15-.75.05-.5.15-.75.24-.47.42-.65l7.95-7.95c.2-.2.42-.35.66-.45.24-.1.5-.15.76-.15s.52.05.76.15c.24.1.46.25.66.45l7.95,7.95c.18.18.33.4.43.65.1.25.15.5.15.75s-.05.5-.15.75c-.1.25-.24.47-.43.65l-7.97,7.98ZM12,19.2l7.2-7.2-7.2-7.2-7.2,7.2,7.2,7.2Z"/></svg>