<?xml version="1.0" encoding="UTF-8"?><svg id="Layer_1" xmlns="http://www.w3.org/2000/svg" viewBox="0 0 24 24"><path d="M3,20c-.55,0-1.02-.2-1.41-.59-.39-.39-.59-.86-.59-1.41V6c0-.55.2-1.02.59-1.41.39-.39.86-.59,1.41-.59h18c.55,0,1.02.2,1.41.59.39.39.59.86.59,1.41v12c0,.55-.2,1.02-.59,1.41-.39.39-.86.59-1.41.59H3ZM4.75,11.5l2.38,3.25c.05.08.12.15.2.19.08.04.18.06.28.06h.3c.17,0,.31-.06.42-.18.12-.12.18-.26.18-.43v-4.77c0-.18-.06-.33-.18-.45-.12-.12-.27-.18-.45-.18s-.33.06-.45.18c-.12.12-.18.27-.18.45v2.88l-2.32-3.25c-.07-.08-.14-.15-.23-.19-.08-.04-.17-.06-.27-.06h-.3c-.18,0-.33.06-.45.18-.12.12-.17.27-.17.45v4.75c0,.18.06.33.17.45.12.12.27.18.45.18s.33-.06.45-.18c.12-.12.18-.27.18-.45v-2.88ZM10,15h2.88c.18,0,.33-.06.45-.18s.18-.27.18-.45-.06-.33-.18-.45-.27-.18-.45-.18h-1.88v-1.1h1.88c.18,0,.33-.06.45-.17.12-.12.18-.27.18-.45s-.06-.33-.18-.45-.27-.18-.45-.18h-1.88v-1.15h1.88c.18,0,.33-.06.45-.18.12-.12.18-.27.18-.45s-.06-.33-.18-.45c-.12-.12-.27-.18-.45-.18h-2.88c-.13,0-.25.05-.35.15-.1.1-.15.22-.15.35v5c0,.13.05.25.15.35.1.1.22.15.35.15ZM15.5,15h4c.28,0,.52-.1.71-.29s.29-.43.29-.71v-4.38c0-.18-.06-.33-.17-.45-.12-.12-.27-.18-.45-.18s-.33.06-.45.18c-.12.12-.17.27-.17.45v3.88h-1.1v-2.88c0-.18-.06-.33-.17-.45-.12-.12-.27-.18-.45-.18s-.33.06-.45.18c-.12.12-.18.27-.18.45v2.88h-1.15v-3.88c0-.18-.06-.33-.18-.45-.12-.12-.27-.18-.45-.18s-.33.06-.45.18c-.12.12-.18.27-.18.45v4.38c0,.28.1.52.29.71s.43.29.71.29Z"/></svg>