<?xml version="1.0" encoding="UTF-8"?><svg id="Layer_1" xmlns="http://www.w3.org/2000/svg" viewBox="0 0 24 24"><path d="M5,19c-.28,0-.52-.1-.71-.29s-.29-.43-.29-.71.1-.52.29-.71.43-.29.71-.29h1v-7c0-1.38.42-2.61,1.25-3.69s1.92-1.78,3.25-2.11v-.7c0-.42.15-.77.44-1.06.29-.29.65-.44,1.06-.44s.77.15,1.06.44c.29.29.44.65.44,1.06v.7c1.33.33,2.42,1.04,3.25,2.11s1.25,2.3,1.25,3.69v7h1c.28,0,.52.1.71.29s.29.43.29.71-.1.52-.29.71-.43.29-.71.29H5ZM12,22c-.55,0-1.02-.2-1.41-.59-.39-.39-.59-.86-.59-1.41h4c0,.55-.2,1.02-.59,1.41-.39.39-.86.59-1.41.59ZM8,17h8v-7c0-1.1-.39-2.04-1.18-2.82-.78-.78-1.72-1.18-2.82-1.18s-2.04.39-2.82,1.18-1.18,1.72-1.18,2.82v7Z"/></svg>