<?xml version="1.0" encoding="UTF-8"?><svg id="Layer_1" xmlns="http://www.w3.org/2000/svg" viewBox="0 0 24 24"><path d="M5,19c-.28,0-.52-.1-.71-.29-.19-.19-.29-.43-.29-.71s.1-.52.29-.71c.19-.19.43-.29.71-.29h1v-7c0-1.38.42-2.61,1.25-3.69.83-1.07,1.92-1.78,3.25-2.11v-.7c0-.42.15-.77.44-1.06.29-.29.65-.44,1.06-.44s.77.15,1.06.44c.29.29.44.65.44,1.06v.7c1.33.33,2.42,1.04,3.25,2.11.83,1.07,1.25,2.3,1.25,3.69v7h1c.28,0,.52.1.71.29s.29.43.29.71-.1.52-.29.71-.43.29-.71.29H5ZM12,22c-.55,0-1.02-.2-1.41-.59-.39-.39-.59-.86-.59-1.41h4c0,.55-.2,1.02-.59,1.41-.39.39-.86.59-1.41.59ZM8,17h8v-7c0-1.1-.39-2.04-1.18-2.82-.78-.78-1.72-1.18-2.82-1.18s-2.04.39-2.83,1.18-1.17,1.72-1.17,2.82v7ZM3,10c-.28,0-.52-.11-.71-.32-.19-.22-.27-.47-.24-.75.13-1.25.48-2.41,1.05-3.49.57-1.07,1.29-2.01,2.17-2.81.22-.18.46-.27.74-.25s.5.14.66.38c.17.23.23.48.2.75s-.16.5-.38.7c-.65.62-1.18,1.33-1.6,2.15-.42.82-.69,1.7-.82,2.65-.03.28-.15.52-.35.71-.2.19-.44.29-.72.29ZM21,10c-.28,0-.53-.1-.73-.29-.2-.19-.32-.43-.35-.71-.13-.95-.41-1.83-.83-2.65-.42-.82-.95-1.53-1.6-2.15-.22-.2-.34-.43-.38-.7-.03-.27.03-.52.2-.75s.39-.36.66-.38.52.07.74.25c.88.8,1.61,1.74,2.18,2.81s.92,2.24,1.05,3.49c.03.28-.05.53-.24.75s-.43.32-.71.32Z"/></svg>