<?xml version="1.0" encoding="UTF-8"?><svg id="Layer_1" xmlns="http://www.w3.org/2000/svg" viewBox="0 0 24 24"><path d="M12,22c-.55,0-1.02-.2-1.41-.59-.39-.39-.59-.86-.59-1.41h4c0,.55-.2,1.02-.59,1.41-.39.39-.86.59-1.41.59ZM5,19c-.28,0-.52-.1-.71-.29s-.29-.43-.29-.71.1-.52.29-.71.43-.29.71-.29h1v-7c0-1.38.42-2.61,1.25-3.69s1.92-1.78,3.25-2.11v-.7c0-.42.15-.77.44-1.06.29-.29.65-.44,1.06-.44s.77.15,1.06.44c.29.29.44.65.44,1.06v.33c-.18.37-.32.74-.4,1.12-.08.38-.12.78-.1,1.18-.17-.03-.33-.06-.49-.09-.16-.03-.33-.04-.51-.04-1.1,0-2.04.39-2.82,1.18s-1.18,1.72-1.18,2.82v7h8v-6.43c.3.13.62.24.96.31s.69.11,1.04.11v6h1c.28,0,.52.1.71.29s.29.43.29.71-.1.52-.29.71-.43.29-.71.29H5ZM18,9c-.83,0-1.54-.29-2.12-.88s-.88-1.29-.88-2.12.29-1.54.88-2.12c.58-.58,1.29-.88,2.12-.88s1.54.29,2.12.88c.58.58.88,1.29.88,2.12s-.29,1.54-.88,2.12-1.29.88-2.12.88Z"/></svg>