<?xml version="1.0" encoding="UTF-8"?><svg id="Layer_1" xmlns="http://www.w3.org/2000/svg" viewBox="0 0 24 24"><path d="M12,21c-1.95,0-3.6-.68-4.96-2.04-1.36-1.36-2.04-3.01-2.04-4.96,0-1.57.46-2.97,1.39-4.21.92-1.24,2.14-2.08,3.64-2.51-.55-.13-1.03-.37-1.44-.71-.41-.34-.74-.75-.99-1.24-.25-.48-.42-1.01-.53-1.58-.1-.57-.12-1.14-.05-1.72.68-.08,1.33-.04,1.95.12.62.17,1.17.43,1.67.8.5.37.91.81,1.24,1.33.32.52.52,1.1.59,1.75.22-.52.48-1,.79-1.46.31-.46.65-.88,1.04-1.26.18-.18.42-.28.7-.28s.52.09.7.28c.18.18.28.42.28.7s-.09.52-.28.7c-.37.37-.69.77-.97,1.21-.28.44-.49.91-.62,1.41,1.47.47,2.65,1.31,3.55,2.54.9,1.22,1.35,2.6,1.35,4.14,0,1.95-.68,3.6-2.04,4.96-1.36,1.36-3.01,2.04-4.96,2.04Z"/></svg>