<?xml version="1.0" encoding="UTF-8"?><svg id="Layer_1" xmlns="http://www.w3.org/2000/svg" viewBox="0 0 24 24"><path d="M5,21c-.55,0-1.02-.2-1.41-.59-.39-.39-.59-.86-.59-1.41V5c0-.55.2-1.02.59-1.41s.86-.59,1.41-.59h6c.28,0,.52.1.71.29.19.19.29.43.29.71s-.1.52-.29.71-.43.29-.71.29h-6v14h14v-6c0-.28.1-.52.29-.71s.43-.29.71-.29.52.1.71.29.29.43.29.71v6c0,.55-.2,1.02-.59,1.41-.39.39-.86.59-1.41.59H5ZM19,6.4l-8.6,8.6c-.18.18-.42.27-.7.27s-.52-.09-.7-.27-.27-.42-.27-.7.09-.52.27-.7l8.6-8.6h-2.6c-.28,0-.52-.1-.71-.29s-.29-.43-.29-.71.1-.52.29-.71c.19-.19.43-.29.71-.29h5c.28,0,.52.1.71.29.19.19.29.43.29.71v5c0,.28-.1.52-.29.71-.19.19-.43.29-.71.29s-.52-.1-.71-.29c-.19-.19-.29-.43-.29-.71v-2.6Z"/></svg>