<?xml version="1.0" encoding="UTF-8"?><svg id="Layer_1" xmlns="http://www.w3.org/2000/svg" viewBox="0 0 24 24"><path d="M5.88,17.36c.55.2.8.28,1,.43.19.15.34.38.7.86.28.37.74.98,1.48,1.23.26.09.51.11.75.11l-1.76,2.78c-.18.28-.59.31-.81.05l-1.19-1.39c-.08-.09-.19-.15-.31-.17l-1.82-.27c-.35-.05-.53-.43-.35-.71l1.94-3.06c.13.06.26.11.36.15ZM20.43,20.28c.18.29,0,.66-.35.71l-1.82.27c-.12.02-.23.08-.31.17l-1.19,1.39c-.22.25-.63.23-.81-.05l-1.76-2.78c.24,0,.5-.02.75-.11.74-.25,1.2-.86,1.48-1.23.35-.48.5-.71.7-.86.19-.15.45-.22,1-.43.11-.04.23-.09.36-.15l1.95,3.06Z"/><path d="M12,2.47c.87,0,1.84-.68,2.63-.41.82.28,1.21,1.43,1.89,1.94.69.52,1.86.56,2.36,1.28.49.71.17,1.88.44,2.73.26.82,1.18,1.57,1.18,2.48,0,.91-.93,1.66-1.18,2.48-.26.85.05,2.02-.44,2.73-.5.72-1.67.76-2.36,1.28-.68.52-1.08,1.67-1.89,1.94-.79.27-1.75-.41-2.63-.41-.87,0-1.84.68-2.63.41-.82-.28-1.21-1.43-1.89-1.94-.69-.52-1.86-.56-2.36-1.28-.49-.71-.18-1.88-.44-2.73-.26-.82-1.18-1.57-1.18-2.48,0-.91.93-1.66,1.18-2.48.27-.85-.05-2.02.44-2.73.5-.72,1.67-.76,2.36-1.28.68-.52,1.08-1.67,1.89-1.94.79-.27,1.75.41,2.63.41ZM12.1,5.59c-.26,0-.48.09-.67.28-.19.19-.28.41-.28.67,0,.18.04.34.13.49.09.14.21.26.36.34l-.3.54c-.17.3-.4.54-.69.71-.3.17-.62.26-.96.26-.2,0-.38-.03-.56-.1-.18-.07-.35-.15-.53-.25.06-.08.11-.17.14-.26.03-.09.05-.2.05-.31,0-.26-.09-.48-.28-.67-.19-.19-.41-.28-.67-.28-.26,0-.48.09-.67.28-.19.19-.28.41-.28.67,0,.3.11.54.34.73.22.19.48.26.78.2l.91,4.92c.04.23.15.42.32.56.17.15.38.22.6.22h4.52c.23,0,.43-.07.6-.22.17-.15.28-.33.32-.56l.91-4.92c.29.06.55-.01.78-.2.22-.19.34-.43.34-.73,0-.26-.09-.48-.28-.67-.19-.19-.41-.28-.67-.28-.26,0-.48.09-.67.28-.19.19-.28.41-.28.67,0,.11.02.22.05.31.03.1.08.19.14.27-.17.1-.35.18-.53.25-.18.06-.37.09-.56.09-.35,0-.67-.09-.97-.26-.3-.17-.53-.41-.69-.71l-.3-.54c.15-.09.27-.2.36-.34.09-.14.13-.3.13-.49,0-.26-.09-.48-.28-.67-.19-.19-.41-.28-.67-.28Z"/></svg>