<?xml version="1.0" encoding="UTF-8"?><svg id="Layer_1" xmlns="http://www.w3.org/2000/svg" viewBox="0 0 24 24"><path d="M5.88,17.36c.55.2.8.28,1,.43.19.15.34.38.7.86.28.37.74.98,1.48,1.23.26.09.51.11.75.11l-1.76,2.78c-.18.28-.59.31-.81.05l-1.19-1.39c-.08-.09-.19-.15-.31-.17l-1.82-.27c-.35-.05-.53-.43-.35-.71l1.94-3.06c.13.06.26.11.36.15ZM20.43,20.28c.18.29,0,.66-.35.71l-1.82.27c-.12.02-.23.08-.31.17l-1.19,1.39c-.22.25-.63.23-.81-.05l-1.76-2.78c.24,0,.5-.02.75-.11.74-.25,1.2-.86,1.48-1.23.35-.48.5-.71.7-.86.19-.15.45-.22,1-.43.11-.04.23-.09.36-.15l1.95,3.06Z"/><path d="M12,2.47c.87,0,1.84-.68,2.63-.41.82.28,1.21,1.43,1.89,1.94.69.52,1.86.56,2.36,1.28.49.71.17,1.88.44,2.73.26.82,1.18,1.57,1.18,2.48,0,.91-.93,1.66-1.18,2.48-.26.85.05,2.02-.44,2.73-.5.72-1.67.76-2.36,1.28-.68.52-1.08,1.67-1.89,1.94-.79.27-1.75-.41-2.63-.41-.87,0-1.84.68-2.63.41-.82-.28-1.21-1.43-1.89-1.94-.69-.52-1.86-.56-2.36-1.28-.49-.71-.18-1.88-.44-2.73-.26-.82-1.18-1.57-1.18-2.48,0-.91.93-1.66,1.18-2.48.27-.85-.05-2.02.44-2.73.5-.72,1.67-.76,2.36-1.28.68-.52,1.08-1.67,1.89-1.94.79-.27,1.75.41,2.63.41ZM15.37,7c-.34,0-.64.14-.85.36l-2.52,2.34-2.52-2.34c-.21-.22-.51-.36-.85-.36-.63,0-1.13.47-1.13,1.06v4.1c0,.47.41.84.91.84h7.19c.5,0,.91-.38.91-.84v-4.1c0-.58-.51-1.06-1.13-1.06Z"/></svg>