<?xml version="1.0" encoding="UTF-8"?><svg id="Layer_1" xmlns="http://www.w3.org/2000/svg" viewBox="0 0 24 24"><path d="M17.75,20.25c-1.05,0-1.94-.36-2.66-1.09-.72-.73-1.09-1.61-1.09-2.66s.36-1.94,1.09-2.66c.73-.72,1.61-1.09,2.66-1.09s1.94.36,2.66,1.09c.73.73,1.09,1.61,1.09,2.66s-.36,1.94-1.09,2.66-1.61,1.09-2.66,1.09ZM17.75,18.25c.48,0,.9-.17,1.24-.51.34-.34.51-.75.51-1.24s-.17-.9-.51-1.24c-.34-.34-.75-.51-1.24-.51s-.9.17-1.24.51c-.34.34-.51.75-.51,1.24s.17.9.51,1.24c.34.34.75.51,1.24.51ZM11,17.5h-6c-.28,0-.52-.1-.71-.29s-.29-.43-.29-.71.1-.52.29-.71.43-.29.71-.29h6c.28,0,.52.1.71.29s.29.43.29.71-.1.52-.29.71-.43.29-.71.29ZM6.25,11.25c-1.05,0-1.94-.36-2.66-1.09-.73-.73-1.09-1.61-1.09-2.66s.36-1.94,1.09-2.66c.72-.72,1.61-1.09,2.66-1.09s1.94.36,2.66,1.09c.72.72,1.09,1.61,1.09,2.66s-.36,1.94-1.09,2.66c-.73.72-1.61,1.09-2.66,1.09ZM6.25,9.25c.48,0,.9-.17,1.24-.51s.51-.75.51-1.24-.17-.9-.51-1.24-.75-.51-1.24-.51-.9.17-1.24.51-.51.75-.51,1.24.17.9.51,1.24.75.51,1.24.51ZM19,8.5h-6c-.28,0-.52-.1-.71-.29-.19-.19-.29-.43-.29-.71s.1-.52.29-.71.43-.29.71-.29h6c.28,0,.52.1.71.29s.29.43.29.71-.1.52-.29.71c-.19.19-.43.29-.71.29Z"/></svg>