<?xml version="1.0" encoding="UTF-8"?><svg id="Layer_1" xmlns="http://www.w3.org/2000/svg" viewBox="0 0 24 24"><path d="M12,5c-.28,0-.52-.1-.71-.29s-.29-.43-.29-.71v-2c0-.28.1-.52.29-.71.19-.19.43-.29.71-.29s.52.1.71.29c.19.19.29.43.29.71v2c0,.28-.1.52-.29.71s-.43.29-.71.29ZM16.95,7.05c-.18-.18-.28-.42-.28-.7s.09-.52.28-.7l1.4-1.43c.2-.2.44-.3.71-.3s.51.1.71.3c.18.18.27.42.27.7s-.09.52-.27.7l-1.42,1.43c-.18.18-.42.27-.7.27s-.52-.09-.7-.27ZM20,13c-.28,0-.52-.1-.71-.29s-.29-.43-.29-.71.1-.52.29-.71.43-.29.71-.29h2c.28,0,.52.1.71.29s.29.43.29.71-.1.52-.29.71-.43.29-.71.29h-2ZM18.35,19.77l-1.4-1.42c-.18-.18-.28-.42-.28-.7s.09-.52.28-.7.42-.28.7-.28.52.09.7.28l1.42,1.4c.2.2.3.44.3.71s-.1.51-.3.71c-.2.2-.44.3-.71.3s-.51-.1-.71-.3ZM5.65,7.05l-1.43-1.43c-.18-.18-.27-.42-.27-.7s.09-.52.27-.7c.2-.2.44-.3.71-.3s.51.1.71.3l1.4,1.43c.18.18.27.42.27.7s-.09.52-.27.7c-.18.18-.42.27-.7.27s-.52-.09-.7-.27ZM6,19h4.5c.42,0,.77-.15,1.06-.44.29-.29.44-.65.44-1.06s-.14-.77-.43-1.06c-.28-.29-.63-.44-1.05-.44h-1.27l-.5-1.2c-.23-.55-.6-.99-1.1-1.31-.5-.32-1.05-.49-1.65-.49-.83,0-1.54.29-2.12.88-.58.58-.88,1.29-.88,2.12s.29,1.54.88,2.12c.58.58,1.29.88,2.12.88ZM6,21c-1.38,0-2.56-.49-3.54-1.46-.98-.98-1.46-2.15-1.46-3.54s.49-2.56,1.46-3.54c.97-.97,2.15-1.46,3.54-1.46,1,0,1.91.27,2.74.81.82.54,1.44,1.27,1.84,2.19.97,0,1.78.36,2.44,1.07.66.72.99,1.57.99,2.57-.03.95-.39,1.75-1.06,2.39-.67.64-1.49.96-2.44.96h-4.5ZM14,17.65c-.08-.33-.17-.66-.25-.98s-.17-.64-.25-.97c.75-.32,1.35-.81,1.81-1.47.46-.67.69-1.41.69-2.23,0-1.1-.39-2.04-1.18-2.82-.78-.78-1.72-1.18-2.82-1.18-1,0-1.88.32-2.62.98-.75.65-1.19,1.47-1.32,2.47-.33-.08-.68-.16-1.03-.22s-.69-.14-1.03-.23c.23-1.47.92-2.67,2.06-3.6,1.14-.93,2.45-1.4,3.94-1.4,1.67,0,3.08.58,4.25,1.75s1.75,2.58,1.75,4.25c0,1.28-.37,2.44-1.1,3.46-.73,1.02-1.7,1.75-2.9,2.19Z"/></svg>