<?xml version="1.0" encoding="UTF-8"?><svg id="Layer_1" xmlns="http://www.w3.org/2000/svg" viewBox="0 0 24 24"><path d="M3,17h18c.28,0,.52.1.71.29.19.19.29.43.29.71s-.1.52-.29.71c-.19.19-.43.29-.71.29H3c-.28,0-.52-.1-.71-.29-.19-.19-.29-.43-.29-.71s.1-.52.29-.71c.19-.19.43-.29.71-.29ZM4,11.45l-.47.85c-.1.18-.25.3-.45.35-.2.05-.39.03-.58-.07-.18-.1-.3-.25-.35-.45-.05-.2-.03-.39.07-.57l.48-.85h-.95c-.22,0-.4-.07-.54-.21-.14-.14-.21-.32-.21-.54s.07-.4.21-.54c.14-.14.32-.21.54-.21h.95l-.48-.8c-.1-.18-.12-.38-.07-.57.05-.2.17-.35.35-.45s.38-.12.58-.07c.2.05.35.17.45.35l.47.8.47-.8c.1-.18.25-.3.45-.35.2-.05.39-.03.57.07s.3.25.35.45c.05.2.03.39-.07.57l-.47.8h.95c.22,0,.4.07.54.21.14.14.21.32.21.54s-.07.4-.21.54c-.14.14-.32.21-.54.21h-.95l.47.85c.1.18.12.38.07.57-.05.2-.17.35-.35.45-.18.1-.38.12-.57.07-.2-.05-.35-.17-.45-.35l-.47-.85ZM12,11.45l-.48.85c-.1.18-.25.3-.45.35-.2.05-.39.03-.57-.07-.18-.1-.3-.25-.35-.45-.05-.2-.02-.39.08-.57l.47-.85h-.95c-.22,0-.4-.07-.54-.21-.14-.14-.21-.32-.21-.54s.07-.4.21-.54c.14-.14.32-.21.54-.21h.95l-.47-.8c-.1-.18-.12-.38-.08-.57.05-.2.17-.35.35-.45s.38-.12.57-.07c.2.05.35.17.45.35l.48.8.48-.8c.1-.18.25-.3.45-.35.2-.05.39-.03.57.07s.3.25.35.45c.05.2.02.39-.08.57l-.47.8h.95c.22,0,.4.07.54.21.14.14.21.32.21.54s-.07.4-.21.54c-.14.14-.32.21-.54.21h-.95l.47.85c.1.18.12.38.08.57-.05.2-.17.35-.35.45-.18.1-.38.12-.57.07-.2-.05-.35-.17-.45-.35l-.48-.85ZM20,11.45l-.48.85c-.1.18-.25.3-.45.35-.2.05-.39.03-.58-.07-.18-.1-.3-.25-.35-.45-.05-.2-.02-.39.08-.57l.48-.85h-.95c-.22,0-.4-.07-.54-.21-.14-.14-.21-.32-.21-.54s.07-.4.21-.54c.14-.14.32-.21.54-.21h.95l-.48-.8c-.1-.18-.12-.38-.08-.57.05-.2.17-.35.35-.45s.38-.12.58-.07.35.17.45.35l.48.8.48-.8c.1-.18.25-.3.45-.35s.39-.03.58.07.3.25.35.45c.05.2.02.39-.08.57l-.48.8h.95c.22,0,.4.07.54.21.14.14.21.32.21.54s-.07.4-.21.54c-.14.14-.32.21-.54.21h-.95l.48.85c.1.18.12.38.08.57-.05.2-.17.35-.35.45-.18.1-.38.12-.58.07-.2-.05-.35-.17-.45-.35l-.48-.85Z"/></svg>