<?xml version="1.0" encoding="UTF-8"?><svg id="Layer_1" xmlns="http://www.w3.org/2000/svg" viewBox="0 0 24 24"><path d="M6,20c-.55,0-1.02-.2-1.41-.59-.39-.39-.59-.86-.59-1.41s.2-1.02.59-1.41c.39-.39.86-.59,1.41-.59h.25c.08,0,.17.02.25.05l3.55-3.55c-.08-.35-.08-.7.01-1.04.09-.34.26-.64.51-.89s.55-.42.89-.51c.34-.09.69-.1,1.04-.01l3.55-3.55c-.03-.08-.05-.17-.05-.25v-.25c0-.55.2-1.02.59-1.41.39-.39.86-.59,1.41-.59s1.02.2,1.41.59c.39.39.59.86.59,1.41s-.2,1.02-.59,1.41c-.39.39-.86.59-1.41.59l-.5-.05-3.55,3.53c.08.35.08.7-.01,1.05-.09.35-.26.65-.51.9-.27.27-.57.45-.91.54-.34.09-.69.09-1.04-.01l-3.08,3.05h1.9c.18-.3.43-.54.72-.73.3-.18.62-.27.98-.27s.7.09,1.01.26c.31.17.55.42.74.74h2.5c.18-.32.43-.56.74-.74.31-.18.65-.26,1.01-.26.55,0,1.02.2,1.41.59.39.39.59.86.59,1.41s-.2,1.02-.59,1.41c-.39.39-.86.59-1.41.59-.37,0-.7-.09-1.01-.27s-.55-.43-.74-.73h-2.5c-.18.32-.43.56-.74.74-.31.18-.65.26-1.01.26s-.68-.09-.98-.27c-.3-.18-.54-.43-.72-.73h-2.6c-.18.3-.42.54-.72.73-.3.18-.62.27-.97.27ZM6,14c-.55,0-1.02-.2-1.41-.59-.39-.39-.59-.86-.59-1.41s.2-1.02.59-1.41c.39-.39.86-.59,1.41-.59s1.02.2,1.41.59c.39.39.59.86.59,1.41s-.2,1.02-.59,1.41c-.39.39-.86.59-1.41.59ZM6,8c-.55,0-1.02-.2-1.41-.59-.39-.39-.59-.86-.59-1.41s.2-1.02.59-1.41c.39-.39.86-.59,1.41-.59s1.02.2,1.41.59c.39.39.59.86.59,1.41s-.2,1.02-.59,1.41c-.39.39-.86.59-1.41.59ZM12,8c-.55,0-1.02-.2-1.41-.59-.39-.39-.59-.86-.59-1.41s.2-1.02.59-1.41c.39-.39.86-.59,1.41-.59s1.02.2,1.41.59c.39.39.59.86.59,1.41s-.2,1.02-.59,1.41c-.39.39-.86.59-1.41.59ZM18,14c-.55,0-1.02-.2-1.41-.59-.39-.39-.59-.86-.59-1.41s.2-1.02.59-1.41c.39-.39.86-.59,1.41-.59s1.02.2,1.41.59c.39.39.59.86.59,1.41s-.2,1.02-.59,1.41c-.39.39-.86.59-1.41.59Z"/></svg>