<?xml version="1.0" encoding="UTF-8"?><svg id="Layer_1" xmlns="http://www.w3.org/2000/svg" viewBox="0 0 24 24"><path d="M19.9,2c1.21,0,2.14,1.06,1.98,2.26l-1.73,13c-.09.68-.53,1.27-1.15,1.56l-6.16,2.8c-.53.24-1.13.24-1.66,0l-6.16-2.8c-.63-.29-1.06-.87-1.15-1.56l-1.73-13c-.16-1.2.77-2.26,1.98-2.26h15.79ZM12,5c-.36,0-.7.19-.88.49l-1.42,2.46-2.89.53c-.36.07-.65.31-.76.64-.11.33-.03.69.22.95l2.01,2.05-.37,2.79c-.05.35.11.69.4.89.29.2.68.24,1.01.09l2.67-1.19,2.66,1.19c.14.06.28.09.42.09.21,0,.41-.06.59-.18.29-.2.45-.55.4-.89l-.37-2.79,2.01-2.05c.25-.25.33-.62.22-.95-.11-.33-.4-.58-.76-.64l-2.89-.53-1.42-2.46c-.18-.3-.51-.49-.88-.49Z"/></svg>