<?xml version="1.0" encoding="UTF-8"?><svg id="Layer_1" xmlns="http://www.w3.org/2000/svg" viewBox="0 0 24 24"><path d="M8.94,19.58c.23-.5.83-.72,1.33-.49l1.31.61c.27.12.57.12.84,0l1.31-.61c.5-.23,1.1-.01,1.33.49.23.5.01,1.1-.49,1.33l-1.31.61c-.8.37-1.72.37-2.52,0l-1.31-.61c-.5-.23-.72-.83-.49-1.33ZM19.53,14.22c.55.07.93.57.86,1.12l-.19,1.42c-.13,1.02-.78,1.9-1.71,2.33l-1.31.61c-.5.23-1.1.01-1.33-.49-.23-.5-.01-1.1.49-1.33l1.31-.61c.31-.14.53-.44.57-.78l.19-1.42c.07-.55.57-.93,1.12-.86ZM4.47,14.22c.55-.07,1.05.31,1.12.86l.19,1.42c.04.34.26.63.57.78l1.31.61c.5.23.72.83.49,1.33-.23.5-.83.72-1.33.49l-1.31-.61c-.93-.43-1.58-1.31-1.71-2.33l-.19-1.42c-.07-.55.31-1.05.86-1.12ZM20.28,8.53c.55.07.93.57.86,1.12l-.37,2.84c-.07.55-.57.93-1.12.86-.55-.07-.93-.57-.86-1.12l.37-2.84c.07-.55.57-.93,1.12-.86ZM3.72,8.53c.55-.07,1.05.31,1.12.86l.37,2.84c.07.55-.31,1.05-.86,1.12-.55.07-1.05-.31-1.12-.86l-.37-2.84c-.07-.55.31-1.05.86-1.12ZM18.72,2c1.81,0,3.21,1.59,2.97,3.39l-.19,1.42c-.07.55-.57.93-1.12.86-.55-.07-.93-.57-.86-1.12l.19-1.42c.08-.6-.39-1.13-.99-1.13h-1.68c-.55,0-1-.45-1-1,0-.55.45-1,1-1h1.68ZM6.96,2c.55,0,1,.45,1,1,0,.55-.45,1-1,1h-1.68c-.6,0-1.07.53-.99,1.13l.19,1.42c.07.55-.31,1.05-.86,1.12-.55.07-1.05-.31-1.12-.86l-.19-1.42c-.24-1.8,1.16-3.39,2.97-3.39h1.68ZM13.68,2c.55,0,1,.45,1,1,0,.55-.45,1-1,1h-3.36c-.55,0-1-.45-1-1,0-.55.45-1,1-1h3.36Z"/></svg>