<?xml version="1.0" encoding="UTF-8"?><svg id="Layer_1" xmlns="http://www.w3.org/2000/svg" viewBox="0 0 24 24"><path d="M13,22v-5l-2.1-2-.78,3.45c-.07.27-.21.47-.44.61-.22.14-.47.19-.74.14l-4.95-1c-.28-.05-.5-.19-.65-.43-.15-.23-.2-.49-.15-.77.05-.28.19-.5.43-.66.23-.16.49-.2.77-.14l3.8.8,1.6-8.1-1.8.7v2.4c0,.28-.1.52-.29.71-.19.19-.43.29-.71.29s-.52-.1-.71-.29c-.19-.19-.29-.43-.29-.71v-3.05c0-.2.05-.38.16-.54.11-.16.25-.28.44-.36l3.35-1.45c.58-.25,1.01-.41,1.29-.49.27-.08.53-.11.76-.11.35,0,.68.09.98.28s.54.42.72.72l1,1.6c.35.57.8,1.06,1.36,1.47.56.42,1.2.69,1.94.82.28.05.52.18.71.38.19.2.29.44.29.73s-.1.52-.29.7-.42.26-.69.23c-.9-.13-1.74-.41-2.53-.84-.78-.42-1.45-.95-2-1.59l-.6,3,1.8,1.7c.1.1.18.21.23.34s.07.25.07.39v6.07c0,.28-.1.52-.29.71s-.43.29-.71.29-.52-.1-.71-.29-.29-.43-.29-.71ZM13.5,5.5c-.55,0-1.02-.2-1.41-.59-.39-.39-.59-.86-.59-1.41s.2-1.02.59-1.41c.39-.39.86-.59,1.41-.59s1.02.2,1.41.59c.39.39.59.86.59,1.41s-.2,1.02-.59,1.41c-.39.39-.86.59-1.41.59Z"/></svg>