<?xml version="1.0" encoding="UTF-8"?><svg id="Layer_1" xmlns="http://www.w3.org/2000/svg" viewBox="0 0 24 24"><path d="M10,12c-1.1,0-2.04-.39-2.82-1.18-.78-.78-1.18-1.72-1.18-2.82s.39-2.04,1.18-2.82,1.72-1.18,2.82-1.18,2.04.39,2.82,1.18c.78.78,1.18,1.72,1.18,2.82s-.39,2.04-1.18,2.82c-.78.78-1.72,1.18-2.82,1.18ZM4,20c-.55,0-1.02-.2-1.41-.59-.39-.39-.59-.86-.59-1.41v-.8c0-.55.14-1.07.42-1.55.28-.48.67-.85,1.17-1.1.85-.43,1.81-.8,2.88-1.1s2.24-.45,3.53-.45h.66c.21,0,.42.02.64.05.33.03.55.21.65.52.1.32.03.59-.2.82l-.43.43c-.52.52-.81,1.12-.88,1.82-.07.7.09,1.34.48,1.93.2.32.23.63.09.95s-.38.48-.71.48h-6.3Z"/><path d="M12.29,17.36c.19.19.43.29.71.29s.52-.1.71-.29.29-.43.29-.71-.1-.52-.29-.71-.43-.29-.71-.29-.52.1-.71.29-.29.43-.29.71.1.52.29.71Z"/><path d="M15.29,19.36c.19.19.43.29.71.29s.52-.1.71-.29.29-.43.29-.71-.1-.52-.29-.71-.43-.29-.71-.29-.52.1-.71.29-.29.43-.29.71.1.52.29.71Z"/><path d="M18.11,16.51c.19.19.43.29.71.29s.52-.1.71-.29.29-.43.29-.71-.1-.52-.29-.71-.43-.29-.71-.29-.52.1-.71.29-.29.43-.29.71.1.52.29.71Z"/><path d="M20.94,13.71c.19.19.43.29.71.29s.52-.1.71-.29.29-.43.29-.71-.1-.52-.29-.71-.43-.29-.71-.29-.52.1-.71.29c-.19.19-.29.43-.29.71s.1.52.29.71Z"/></svg>