<?xml version="1.0" encoding="UTF-8"?><svg id="Layer_1" xmlns="http://www.w3.org/2000/svg" viewBox="0 0 24 24"><path d="M5,20c-.55,0-1.02-.2-1.41-.59-.39-.39-.59-.86-.59-1.41v-.8c0-.57.15-1.09.44-1.56.29-.47.68-.84,1.16-1.09,1.03-.52,2.08-.9,3.15-1.16,1.07-.26,2.15-.39,3.25-.39.23,0,.47,0,.7.01s.47.03.7.06c.18.02.33.09.44.21.11.12.16.28.16.46.03.78.23,1.52.57,2.21.35.69.82,1.28,1.4,1.76.12.08.21.19.27.31s.1.26.1.41v.55c0,.28-.1.52-.29.71-.19.19-.43.29-.71.29H5ZM11,12c-1.1,0-2.04-.39-2.82-1.18-.78-.78-1.18-1.72-1.18-2.82s.39-2.04,1.18-2.82,1.72-1.18,2.82-1.18,2.04.39,2.82,1.18c.78.78,1.18,1.72,1.18,2.82s-.39,2.04-1.18,2.82c-.78.78-1.72,1.18-2.82,1.18ZM18.5,14c.28,0,.52-.1.71-.29s.29-.43.29-.71-.1-.52-.29-.71-.43-.29-.71-.29-.52.1-.71.29-.29.43-.29.71.1.52.29.71.43.29.71.29ZM18.65,22.65l-1-1s-.08-.15-.15-.35v-4.45c-.73-.22-1.33-.63-1.8-1.24-.47-.61-.7-1.31-.7-2.11,0-.97.34-1.79,1.02-2.48s1.51-1.02,2.48-1.02,1.79.34,2.48,1.02,1.02,1.51,1.02,2.48c0,.75-.21,1.42-.64,2-.43.58-.96,1-1.61,1.25l.9.9c.1.1.15.22.15.35s-.05.25-.15.35l-.8.8c-.1.1-.15.22-.15.35s.05.25.15.35l.8.8c.1.1.15.22.15.35s-.05.25-.15.35l-1.3,1.3c-.1.1-.22.15-.35.15s-.25-.05-.35-.15Z"/></svg>