<?xml version="1.0" encoding="UTF-8"?><svg id="Layer_1" xmlns="http://www.w3.org/2000/svg" viewBox="0 0 24 24"><path d="M12.3,17.8l-3.02-2.25c-.18-.13-.34-.3-.48-.51-.13-.21-.22-.43-.27-.66l-1.12-4.98-2.2,1.9.6,2.8c.07.28.02.54-.14.77-.16.23-.38.38-.66.43-.28.05-.54,0-.78-.15-.23-.15-.37-.37-.42-.65l-.58-2.77c-.08-.35-.07-.7.05-1.04.12-.34.31-.63.58-.86l3.6-3.2c.38-.33.84-.47,1.36-.41.52.06,1.03.19,1.51.39.53.23,1.09.4,1.66.5s1.15.11,1.74.03c.4-.07.78-.18,1.15-.35.37-.17.72-.37,1.05-.6.23-.17.49-.24.76-.21.27.03.5.15.69.36.18.22.25.46.21.74-.04.28-.18.5-.41.66-.38.27-.77.5-1.18.71-.4.21-.82.38-1.27.51-.55.15-1.1.23-1.66.24-.56,0-1.11-.05-1.66-.19l.7,3.1,2.88-.55c.27-.05.53-.05.79.01.26.06.5.17.74.34l3.67,2.6c.23.17.37.39.41.66.04.27-.03.53-.21.76-.17.22-.38.35-.64.39-.26.04-.5-.01-.74-.16l-3.5-2.45-3.6.7,1.7,1.25c.3.23.52.52.66.88.14.35.18.72.11,1.1l-.7,3.85c-.05.28-.19.5-.43.66-.23.16-.49.21-.77.16-.28-.05-.5-.19-.65-.42-.15-.23-.2-.49-.15-.77l.62-3.3ZM8,5.5c-.55,0-1.02-.2-1.41-.59-.39-.39-.59-.86-.59-1.41s.2-1.02.59-1.41c.39-.39.86-.59,1.41-.59s1.02.2,1.41.59c.39.39.59.86.59,1.41s-.2,1.02-.59,1.41c-.39.39-.86.59-1.41.59Z"/></svg>