<?xml version="1.0" encoding="UTF-8"?><svg id="Layer_1" xmlns="http://www.w3.org/2000/svg" viewBox="0 0 24 24"><path d="M3,23c-.28,0-.52-.1-.71-.29-.19-.19-.29-.43-.29-.71s.1-.52.29-.71c.19-.19.43-.29.71-.29h18c.28,0,.52.1.71.29s.29.43.29.71-.1.52-.29.71-.43.29-.71.29H3ZM5,20c-.28,0-.52-.1-.71-.29s-.29-.43-.29-.71v-5c-.55-.9-.97-1.85-1.28-2.86-.3-1.01-.45-2.04-.45-3.09s.13-2.02.39-3c.26-.98.56-1.95.91-2.9.13-.35.35-.63.65-.84.3-.21.63-.31,1-.31.52,0,.96.17,1.33.52.37.35.52.77.45,1.25l-.28,2.28c-.1.8-.03,1.56.21,2.27.24.72.6,1.35,1.09,1.89.48.54,1.07.98,1.75,1.3.68.32,1.43.49,2.23.49,1,0,2,.1,3.01.31s1.89.5,2.64.89,1.33.87,1.74,1.46c.41.59.61,1.32.61,2.19v3.15c0,.28-.1.52-.29.71s-.43.29-.71.29h-9v-.92c0-.57.19-1.05.57-1.46.38-.41.86-.61,1.43-.61h3c.28,0,.52-.1.71-.29s.29-.43.29-.71-.1-.52-.29-.71-.43-.29-.71-.29h-3c-1.12,0-2.06.4-2.84,1.2-.78.8-1.16,1.76-1.16,2.88v.92h-3ZM12,10c-1.1,0-2.04-.39-2.82-1.18s-1.18-1.72-1.18-2.82.39-2.04,1.18-2.83,1.72-1.17,2.82-1.17,2.04.39,2.82,1.17c.78.78,1.18,1.73,1.18,2.83s-.39,2.04-1.18,2.82c-.78.78-1.72,1.18-2.82,1.18Z"/></svg>