<?xml version="1.0" encoding="UTF-8"?><svg id="Layer_1" xmlns="http://www.w3.org/2000/svg" viewBox="0 0 24 24"><path d="M18,13c.28,0,.52-.1.71-.29s.29-.43.29-.71-.1-.52-.29-.71-.43-.29-.71-.29h-3c-.28,0-.52.1-.71.29s-.29.43-.29.71.1.52.29.71.43.29.71.29h3ZM18,10c.28,0,.52-.1.71-.29.19-.19.29-.43.29-.71s-.1-.52-.29-.71c-.19-.19-.43-.29-.71-.29h-3c-.28,0-.52.1-.71.29-.19.19-.29.43-.29.71s.1.52.29.71c.19.19.43.29.71.29h3ZM9,13c-.6,0-1.14.05-1.62.16-.48.11-.91.28-1.28.51-.35.22-.62.46-.8.74-.18.27-.28.57-.28.89,0,.2.07.37.22.5s.33.2.55.2h6.4c.22,0,.4-.07.55-.21.15-.14.23-.32.23-.54,0-.28-.09-.56-.28-.82s-.45-.52-.8-.75c-.37-.23-.79-.4-1.27-.51-.48-.11-1.02-.16-1.62-.16ZM9,12c.55,0,1.02-.2,1.41-.59.39-.39.59-.86.59-1.41s-.2-1.02-.59-1.41c-.39-.39-.86-.59-1.41-.59s-1.02.2-1.41.59c-.39.39-.59.86-.59,1.41s.2,1.02.59,1.41c.39.39.86.59,1.41.59ZM4,20c-.55,0-1.02-.2-1.41-.59-.39-.39-.59-.86-.59-1.41V6c0-.55.2-1.02.59-1.41.39-.39.86-.59,1.41-.59h16c.55,0,1.02.2,1.41.59.39.39.59.86.59,1.41v12c0,.55-.2,1.02-.59,1.41-.39.39-.86.59-1.41.59H4ZM4,18h16V6H4v12Z"/></svg>