<?xml version="1.0" encoding="UTF-8"?><svg id="Layer_1" xmlns="http://www.w3.org/2000/svg" viewBox="0 0 24 24"><path d="M5,21c-.55,0-1.02-.2-1.41-.59-.39-.39-.59-.86-.59-1.41V5c0-.55.2-1.02.59-1.41s.86-.59,1.41-.59h4.2c.23-.6.6-1.08,1.1-1.45.5-.37,1.07-.55,1.7-.55s1.2.18,1.7.55c.5.37.87.85,1.1,1.45h4.2c.55,0,1.02.2,1.41.59.39.39.59.86.59,1.41v14c0,.55-.2,1.02-.59,1.41-.39.39-.86.59-1.41.59H5ZM12,4.25c.22,0,.4-.07.54-.21.14-.14.21-.32.21-.54s-.07-.4-.21-.54c-.14-.14-.32-.21-.54-.21s-.4.07-.54.21c-.14.14-.21.32-.21.54s.07.4.21.54c.14.14.32.21.54.21ZM5,17.85c.9-.88,1.95-1.58,3.14-2.09,1.19-.51,2.48-.76,3.86-.76s2.67.25,3.86.76c1.19.51,2.24,1.2,3.14,2.09V5H5v12.85ZM12,13c.97,0,1.79-.34,2.48-1.02s1.02-1.51,1.02-2.48-.34-1.79-1.02-2.47-1.51-1.03-2.48-1.03-1.79.34-2.48,1.03c-.68.68-1.02,1.51-1.02,2.47s.34,1.79,1.02,2.48c.68.68,1.51,1.02,2.48,1.02ZM7,19h10v-.25c-.7-.58-1.48-1.02-2.32-1.31-.85-.29-1.74-.44-2.68-.44s-1.82.15-2.68.44c-.85.29-1.62.73-2.32,1.31v.25ZM12,11c-.42,0-.77-.15-1.06-.44-.29-.29-.44-.65-.44-1.06s.15-.77.44-1.06c.29-.29.65-.44,1.06-.44s.77.15,1.06.44c.29.29.44.65.44,1.06s-.15.77-.44,1.06c-.29.29-.65.44-1.06.44Z"/></svg>