<?xml version="1.0" encoding="UTF-8"?><svg id="Layer_1" xmlns="http://www.w3.org/2000/svg" viewBox="0 0 24 24"><path d="M17,16c-.83,0-1.54-.29-2.12-.88s-.88-1.29-.88-2.12.29-1.54.88-2.12,1.29-.88,2.12-.88,1.54.29,2.12.88.88,1.29.88,2.12-.29,1.54-.88,2.12-1.29.88-2.12.88ZM17,14c.28,0,.52-.1.71-.29s.29-.43.29-.71-.1-.52-.29-.71-.43-.29-.71-.29-.52.1-.71.29-.29.43-.29.71.1.52.29.71.43.29.71.29ZM12,23c-.28,0-.52-.1-.71-.29s-.29-.43-.29-.71v-1.9c0-.35.08-.68.25-.99s.4-.55.7-.74c.53-.32.98-.54,1.35-.66s.86-.24,1.47-.34c.2-.03.4-.03.6.01.2.04.37.14.5.29l1.12,1.33,1.1-1.33c.13-.17.3-.27.5-.3.2-.03.4-.03.6,0,.62.1,1.11.21,1.47.34.37.12.82.35,1.35.66.3.18.54.43.71.74.18.31.26.64.26.99v1.9c0,.28-.1.52-.29.71s-.43.29-.71.29h-10ZM12.98,21h3.07l-1.35-1.65c-.3.08-.59.19-.88.32-.28.13-.57.28-.85.43v.9ZM17.95,21h3.05v-.9c-.27-.17-.54-.31-.83-.44-.28-.12-.57-.23-.88-.31l-1.35,1.65ZM5,19V5v3.43-.43,11ZM5,21c-.55,0-1.02-.2-1.41-.59-.39-.39-.59-.86-.59-1.41V5c0-.55.2-1.02.59-1.41s.86-.59,1.41-.59h14c.55,0,1.02.2,1.41.59.39.39.59.86.59,1.41v5c-.27-.33-.56-.65-.88-.95s-.69-.5-1.12-.6v-3.45H5v14h4.15c-.05.18-.09.37-.11.55-.03.18-.04.37-.04.55v.9h-4ZM8,9h6c.43-.33.91-.58,1.43-.75s1.04-.25,1.57-.25c0-.28-.1-.52-.29-.71s-.43-.29-.71-.29h-8c-.28,0-.52.1-.71.29s-.29.43-.29.71.1.52.29.71c.19.19.43.29.71.29ZM8,13h4c0-.35.04-.69.11-1.02.07-.33.18-.66.31-.98h-4.43c-.28,0-.52.1-.71.29s-.29.43-.29.71.1.52.29.71.43.29.71.29ZM8,17h2.45c.18-.15.38-.28.59-.4.21-.12.42-.23.64-.33v-.27c0-.27-.07-.5-.21-.7-.14-.2-.4-.3-.79-.3h-2.68c-.28,0-.52.1-.71.29s-.29.43-.29.71.1.52.29.71.43.29.71.29Z"/></svg>