<?xml version="1.0" encoding="UTF-8"?><svg id="Layer_1" xmlns="http://www.w3.org/2000/svg" viewBox="0 0 24 24"><path d="M9,13c1.1,0,2.18.13,3.25.39s2.12.65,3.15,1.16c.05.03.1.05.15.08-1.21.23-2.35.76-3.25,1.66-1.02,1.02-1.56,2.32-1.73,3.71H3c-.55,0-1.02-.2-1.41-.59s-.59-.86-.59-1.41v-.8c0-.57.15-1.09.44-1.56.29-.47.68-.84,1.16-1.09,1.03-.52,2.08-.9,3.15-1.16,1.07-.26,2.15-.39,3.25-.39ZM9,4c1.1,0,2.04.39,2.83,1.17.78.78,1.17,1.73,1.17,2.83s-.39,2.04-1.17,2.83c-.78.78-1.73,1.17-2.83,1.17s-2.04-.39-2.83-1.17c-.78-.78-1.17-1.73-1.17-2.83s.39-2.04,1.17-2.83c.78-.78,1.73-1.17,2.83-1.17Z"/><path d="M22,16c-.55,0-1,.45-1,1v1.52c-.75-1.26-1.98-2.52-4-2.52-3.04,0-5,1.96-5,5,0,.55.45,1,1,1s1-.45,1-1c0-1.93,1.07-3,3-3,1.05,0,1.85.63,2.52,2h-1.52c-.55,0-1,.45-1,1s.45,1,1,1h3s0,0,0,0c0,0,0,0,0,0h1c.55,0,1-.45,1-1v-4c0-.55-.45-1-1-1Z"/></svg>