<?xml version="1.0" encoding="UTF-8"?><svg id="Layer_1" xmlns="http://www.w3.org/2000/svg" viewBox="0 0 24 24"><path d="M3,23c-.28,0-.52-.1-.71-.29-.19-.19-.29-.43-.29-.71s.1-.52.29-.71c.19-.19.43-.29.71-.29h18c.28,0,.52.1.71.29s.29.43.29.71-.1.52-.29.71-.43.29-.71.29H3ZM5,20c-.28,0-.52-.1-.71-.29s-.29-.43-.29-.71v-5c-.55-.9-.97-1.85-1.28-2.86-.3-1.01-.45-2.04-.45-3.09s.13-2.02.39-3c.26-.98.56-1.95.91-2.9.13-.35.35-.63.65-.84.3-.21.63-.31,1-.31.52,0,.96.17,1.33.52.37.35.52.77.45,1.25l-.28,2.28c-.1.8-.03,1.56.21,2.27.24.72.6,1.35,1.09,1.89.48.54,1.07.98,1.75,1.3.68.32,1.43.49,2.23.49,1,0,2,.1,3.01.31s1.89.5,2.64.89,1.33.87,1.74,1.46c.41.59.61,1.32.61,2.19v3.15c0,.28-.1.52-.29.71s-.43.29-.71.29H5ZM6,18h12v-2.15c0-.4-.1-.75-.3-1.06-.2-.31-.48-.55-.85-.74-.68-.33-1.48-.59-2.38-.78-.9-.18-1.73-.27-2.48-.27-1.1,0-2.12-.23-3.06-.68-.94-.45-1.74-1.05-2.4-1.81-.66-.76-1.15-1.63-1.49-2.62-.33-.99-.43-2.02-.3-3.09-.17.5-.29,1.03-.36,1.6-.08.57-.11,1.12-.11,1.65,0,.97.17,1.9.51,2.79.34.89.75,1.76,1.21,2.61v4.55ZM12,10c-1.1,0-2.04-.39-2.82-1.18s-1.18-1.72-1.18-2.82.39-2.04,1.18-2.83,1.72-1.17,2.82-1.17,2.04.39,2.82,1.17c.78.78,1.18,1.73,1.18,2.83s-.39,2.04-1.18,2.82c-.78.78-1.72,1.18-2.82,1.18ZM12,8c.55,0,1.02-.2,1.41-.59.39-.39.59-.86.59-1.41s-.2-1.02-.59-1.41c-.39-.39-.86-.59-1.41-.59s-1.02.2-1.41.59c-.39.39-.59.86-.59,1.41s.2,1.02.59,1.41c.39.39.86.59,1.41.59ZM8,20v-.92c0-1.12.39-2.08,1.16-2.88.77-.8,1.72-1.2,2.84-1.2h3c.28,0,.52.1.71.29s.29.43.29.71-.1.52-.29.71-.43.29-.71.29h-3c-.57,0-1.04.2-1.43.61-.38.41-.57.9-.57,1.46v.92h-2Z"/></svg>