<?xml version="1.0" encoding="UTF-8"?><svg id="Layer_1" xmlns="http://www.w3.org/2000/svg" viewBox="0 0 24 24"><path d="M1,17.2c0-.57.15-1.09.44-1.56s.68-.84,1.16-1.09c1.03-.52,2.08-.9,3.15-1.16s2.15-.39,3.25-.39,2.18.13,3.25.39,2.12.65,3.15,1.16c.48.25.87.61,1.16,1.09s.44,1,.44,1.56v.8c0,.55-.2,1.02-.59,1.41-.39.39-.86.59-1.41.59H3c-.55,0-1.02-.2-1.41-.59-.39-.39-.59-.86-.59-1.41v-.8ZM18.45,20c.18-.3.32-.62.41-.96.09-.34.14-.69.14-1.04v-1c0-.73-.2-1.44-.61-2.11-.41-.68-.99-1.25-1.74-1.74.85.1,1.65.27,2.4.51.75.24,1.45.54,2.1.89.6.33,1.06.7,1.38,1.11s.48.85.48,1.34v1c0,.55-.2,1.02-.59,1.41-.39.39-.86.59-1.41.59h-2.55ZM9,12c-1.1,0-2.04-.39-2.82-1.18-.78-.78-1.18-1.72-1.18-2.82s.39-2.04,1.18-2.82,1.72-1.18,2.82-1.18,2.04.39,2.82,1.18c.78.78,1.18,1.72,1.18,2.82s-.39,2.04-1.18,2.82c-.78.78-1.72,1.18-2.82,1.18ZM19,8c0,1.1-.39,2.04-1.17,2.82-.78.78-1.73,1.18-2.83,1.18-.18,0-.42-.02-.7-.06-.28-.04-.52-.09-.7-.14.45-.53.8-1.12,1.04-1.78.24-.65.36-1.32.36-2.02s-.12-1.38-.36-2.03-.59-1.24-1.04-1.78c.23-.08.47-.14.7-.16s.47-.04.7-.04c1.1,0,2.04.39,2.83,1.18.78.78,1.17,1.72,1.17,2.82Z"/></svg>