<?xml version="1.0" encoding="UTF-8"?><svg id="Layer_1" xmlns="http://www.w3.org/2000/svg" viewBox="0 0 24 24"><path d="M2,11c-.28,0-.52-.1-.71-.29s-.29-.43-.29-.71.1-.52.29-.71c.19-.19.43-.29.71-.29h6c.28,0,.52.1.71.29.19.19.29.43.29.71s-.1.52-.29.71-.43.29-.71.29H2ZM12.18,10.82c-.78-.78-1.18-1.72-1.18-2.82s.39-2.04,1.18-2.82c.78-.78,1.72-1.18,2.82-1.18s2.04.39,2.82,1.18,1.18,1.72,1.18,2.82-.39,2.04-1.18,2.82c-.78.78-1.72,1.18-2.82,1.18s-2.04-.39-2.82-1.18ZM22.41,19.41c-.39.39-.86.59-1.41.59h-12c-.55,0-1.02-.2-1.41-.59-.39-.39-.59-.86-.59-1.41v-.8c0-.57.15-1.09.44-1.56.29-.47.68-.84,1.16-1.09,1.03-.52,2.08-.9,3.15-1.16s2.15-.39,3.25-.39,2.18.13,3.25.39,2.12.65,3.15,1.16c.48.25.87.61,1.16,1.09.29.47.44,1,.44,1.56v.8c0,.55-.2,1.02-.59,1.41ZM21,17.2c0-.18-.05-.35-.14-.5-.09-.15-.21-.27-.36-.35-.9-.45-1.81-.79-2.72-1.01-.92-.22-1.84-.34-2.78-.34s-1.86.11-2.77.34c-.92.23-1.83.56-2.73,1.01-.15.08-.27.2-.36.35-.09.15-.14.32-.14.5v.8s12,0,12,0v-.8ZM16.41,9.41c.39-.39.59-.86.59-1.41,0-.55-.2-1.02-.59-1.41-.39-.39-.86-.59-1.41-.59s-1.02.2-1.41.59c-.39.39-.59.86-.59,1.41,0,.55.2,1.02.59,1.41.39.39.86.59,1.41.59s1.02-.2,1.41-.59Z"/></svg>