<?xml version="1.0" encoding="UTF-8"?><svg id="Layer_1" xmlns="http://www.w3.org/2000/svg" viewBox="0 0 24 24"><path d="M10,12c-1.1,0-2.04-.39-2.82-1.18-.78-.78-1.18-1.72-1.18-2.82s.39-2.04,1.18-2.82,1.72-1.18,2.82-1.18,2.04.39,2.82,1.18c.78.78,1.18,1.72,1.18,2.82s-.39,2.04-1.18,2.82c-.78.78-1.72,1.18-2.82,1.18ZM4,20c-.55,0-1.02-.2-1.41-.59-.39-.39-.59-.86-.59-1.41v-.8c0-.55.14-1.07.42-1.55.28-.48.67-.85,1.17-1.1.85-.43,1.81-.8,2.88-1.1s2.24-.45,3.53-.45h.66c.21,0,.42.02.64.05.33.03.55.21.65.52.1.32.03.59-.2.82l-.43.43c-.52.52-.81,1.12-.88,1.82-.07.7.09,1.34.48,1.93.2.32.23.63.09.95s-.38.48-.71.48h-6.3ZM15.55,17.6l4.35-4.35c.18-.18.42-.27.7-.27s.52.09.7.27.28.42.28.7-.09.52-.28.7l-5.05,5.05c-.2.2-.43.3-.7.3s-.5-.1-.7-.3l-2.05-2.05c-.18-.18-.28-.42-.28-.7s.09-.52.28-.7.42-.27.7-.27.52.09.7.27l1.35,1.35Z"/></svg>