<?xml version="1.0" encoding="UTF-8"?><svg id="Layer_1" xmlns="http://www.w3.org/2000/svg" viewBox="0 0 24 24"><path d="M9,13c.95,0,1.89.1,2.82.29-1.13,1.24-1.82,2.9-1.82,4.71,0,.7.1,1.37.29,2H3c-.55,0-1.02-.2-1.41-.59s-.59-.86-.59-1.41v-.8c0-.57.15-1.09.44-1.56.29-.47.68-.84,1.16-1.09,1.03-.52,2.08-.9,3.15-1.16,1.07-.26,2.15-.39,3.25-.39ZM9,4c1.1,0,2.04.39,2.83,1.17.78.78,1.17,1.73,1.17,2.83s-.39,2.04-1.17,2.83c-.78.78-1.73,1.17-2.83,1.17s-2.04-.39-2.83-1.17c-.78-.78-1.17-1.73-1.17-2.83s.39-2.04,1.17-2.83c.78-.78,1.73-1.17,2.83-1.17Z"/><path d="M20.5,18c0-1.93-1.57-3.5-3.5-3.5s-3.5,1.57-3.5,3.5,1.57,3.5,3.5,3.5v1.5c-2.76,0-5-2.24-5-5s2.24-5,5-5,5,2.24,5,5-2.24,5-5,5v-1.5c1.93,0,3.5-1.57,3.5-3.5Z"/><path d="M20.45,20.39l-1.06,1.06-5.42-5.42,1.06-1.06,5.42,5.42Z"/></svg>