<?xml version="1.0" encoding="UTF-8"?><svg id="Layer_1" xmlns="http://www.w3.org/2000/svg" viewBox="0 0 24 24"><path d="M12,12c-1.1,0-2.04-.39-2.82-1.18-.78-.78-1.18-1.72-1.18-2.82s.39-2.04,1.18-2.82,1.72-1.18,2.82-1.18,2.04.39,2.82,1.18c.78.78,1.18,1.72,1.18,2.82s-.39,2.04-1.18,2.82c-.78.78-1.72,1.18-2.82,1.18ZM4,18v-.8c0-.57.15-1.09.44-1.56.29-.47.68-.84,1.16-1.09,1.03-.52,2.08-.9,3.15-1.16,1.07-.26,2.15-.39,3.25-.39s2.18.13,3.25.39,2.12.65,3.15,1.16c.48.25.87.61,1.16,1.09.29.47.44,1,.44,1.56v.8c0,.55-.2,1.02-.59,1.41-.39.39-.86.59-1.41.59H6c-.55,0-1.02-.2-1.41-.59-.39-.39-.59-.86-.59-1.41Z"/></svg>