<?xml version="1.0" encoding="UTF-8"?><svg id="Layer_1" xmlns="http://www.w3.org/2000/svg" viewBox="0 0 24 24"><path d="M12.5,11.95c.48-.53.85-1.14,1.11-1.82.26-.68.39-1.39.39-2.12s-.13-1.44-.39-2.12-.63-1.29-1.11-1.82c1,.13,1.83.57,2.5,1.32s1,1.62,1,2.62-.33,1.88-1,2.62-1.5,1.19-2.5,1.32ZM17.45,20c.18-.3.32-.62.41-.96.09-.34.14-.69.14-1.04v-1c0-.6-.13-1.17-.4-1.71-.27-.54-.62-1.02-1.05-1.44.85.3,1.64.69,2.36,1.16.73.48,1.09,1.14,1.09,1.99v1c0,.55-.2,1.02-.59,1.41-.39.39-.86.59-1.41.59h-.55ZM20,11h-1c-.28,0-.52-.1-.71-.29s-.29-.43-.29-.71.1-.52.29-.71c.19-.19.43-.29.71-.29h1v-1c0-.28.1-.52.29-.71s.43-.29.71-.29.52.1.71.29.29.43.29.71v1h1c.28,0,.52.1.71.29.19.19.29.43.29.71s-.1.52-.29.71-.43.29-.71.29h-1v1c0,.28-.1.52-.29.71s-.43.29-.71.29-.52-.1-.71-.29-.29-.43-.29-.71v-1ZM8,12c-1.1,0-2.04-.39-2.82-1.18-.78-.78-1.18-1.72-1.18-2.82s.39-2.04,1.18-2.82,1.72-1.18,2.82-1.18,2.04.39,2.82,1.18c.78.78,1.18,1.72,1.18,2.82s-.39,2.04-1.18,2.82c-.78.78-1.72,1.18-2.82,1.18ZM0,18v-.8c0-.57.15-1.09.44-1.56.29-.47.68-.84,1.16-1.09,1.03-.52,2.08-.9,3.15-1.16s2.15-.39,3.25-.39,2.18.13,3.25.39,2.12.65,3.15,1.16c.48.25.87.61,1.16,1.09s.44,1,.44,1.56v.8c0,.55-.2,1.02-.59,1.41-.39.39-.86.59-1.41.59H2c-.55,0-1.02-.2-1.41-.59-.39-.39-.59-.86-.59-1.41ZM8,10c.55,0,1.02-.2,1.41-.59.39-.39.59-.86.59-1.41s-.2-1.02-.59-1.41c-.39-.39-.86-.59-1.41-.59s-1.02.2-1.41.59c-.39.39-.59.86-.59,1.41s.2,1.02.59,1.41c.39.39.86.59,1.41.59ZM2,18h12v-.8c0-.18-.05-.35-.14-.5-.09-.15-.21-.27-.36-.35-.9-.45-1.81-.79-2.73-1.01-.92-.22-1.84-.34-2.77-.34s-1.86.11-2.78.34c-.92.23-1.82.56-2.72,1.01-.15.08-.27.2-.36.35-.09.15-.14.32-.14.5v.8Z"/></svg>