<?xml version="1.0" encoding="UTF-8"?><svg id="Layer_1" xmlns="http://www.w3.org/2000/svg" viewBox="0 0 24 24"><path d="M10.9,14.9l-1.62,7.3c-.05.23-.17.42-.36.57-.19.15-.41.23-.66.23-.33,0-.6-.12-.8-.38-.2-.25-.27-.53-.2-.85l2.55-12.88-1.8.7v2.4c0,.28-.1.52-.29.71s-.43.29-.71.29-.52-.1-.71-.29-.29-.43-.29-.71v-3.05c0-.2.05-.38.16-.54.11-.16.25-.28.44-.36l4.45-1.9c.23-.1.48-.16.74-.18.26-.02.5.02.74.1.23.08.45.2.66.35.21.15.38.34.51.57l1,1.6c.22.33.47.65.76.95.29.3.62.56.99.77.23.13.49.25.77.36s.57.19.85.24c.27.05.49.17.66.36.18.19.26.43.26.71s-.1.52-.3.7c-.2.18-.44.26-.73.23-.93-.13-1.77-.43-2.51-.88-.74-.45-1.39-.99-1.94-1.62l-.62,3.07,1.8,1.7c.1.1.18.21.23.34s.07.25.07.39v6.07c0,.28-.1.52-.29.71s-.43.29-.71.29-.52-.1-.71-.29-.29-.43-.29-.71v-5.5l-2.1-1.6ZM13.5,5.5c-.55,0-1.02-.2-1.41-.59-.39-.39-.59-.86-.59-1.41s.2-1.02.59-1.41c.39-.39.86-.59,1.41-.59s1.02.2,1.41.59c.39.39.59.86.59,1.41s-.2,1.02-.59,1.41c-.39.39-.86.59-1.41.59Z"/></svg>