<?xml version="1.0" encoding="UTF-8"?><svg id="Layer_1" xmlns="http://www.w3.org/2000/svg" viewBox="0 0 24 24"><path d="M12,6.6c-.58,0-1.08-.2-1.49-.61-.41-.41-.61-.9-.61-1.49s.2-1.08.61-1.49c.41-.41.9-.61,1.49-.61s1.08.2,1.49.61c.41.41.61.9.61,1.49s-.2,1.08-.61,1.49c-.41.41-.9.61-1.49.61ZM9,20.4v-10.67c-.77-.05-1.52-.15-2.26-.3-.74-.15-1.49-.32-2.24-.5-.25-.07-.44-.21-.57-.43-.13-.22-.17-.44-.1-.68.07-.23.22-.4.45-.51.23-.11.47-.13.72-.06,1.15.28,2.31.5,3.48.64,1.17.14,2.34.21,3.52.21s2.36-.07,3.53-.21c1.17-.14,2.32-.35,3.47-.64.25-.07.49-.04.73.07.23.12.38.29.45.53.07.23.03.45-.1.66-.13.21-.33.35-.58.41-.75.18-1.5.35-2.24.5-.74.15-1.5.25-2.26.3v10.67c0,.25-.09.46-.26.64-.18.17-.4.26-.66.26-.23,0-.44-.09-.61-.26-.18-.18-.27-.38-.29-.61l-.2-4.67h-1.93l-.2,4.7c-.02.23-.11.43-.29.6-.18.17-.4.25-.66.25-.25,0-.46-.09-.64-.26-.17-.18-.26-.39-.26-.64Z"/><path d="M2.96,4.16c.33-.33.85-.35,1.2-.06l.07.06,15.6,15.6.06.07c.29.35.27.88-.06,1.2-.33.33-.85.35-1.2.06l-.07-.06L2.96,5.44l-.06-.07c-.29-.35-.27-.88.06-1.2Z"/></svg>