<?xml version="1.0" encoding="UTF-8"?><svg id="Layer_1" xmlns="http://www.w3.org/2000/svg" viewBox="0 0 24 24"><path d="M9,13c.95,0,1.89.1,2.82.29-1.13,1.24-1.82,2.9-1.82,4.71,0,.7.1,1.37.29,2H3c-.55,0-1.02-.2-1.41-.59s-.59-.86-.59-1.41v-.8c0-.57.15-1.09.44-1.56.29-.47.68-.84,1.16-1.09,1.03-.52,2.08-.9,3.15-1.16,1.07-.26,2.15-.39,3.25-.39ZM9,4c1.1,0,2.04.39,2.83,1.17.78.78,1.17,1.73,1.17,2.83s-.39,2.04-1.17,2.83c-.78.78-1.73,1.17-2.83,1.17s-2.04-.39-2.83-1.17c-.78-.78-1.17-1.73-1.17-2.83s.39-2.04,1.17-2.83c.78-.78,1.73-1.17,2.83-1.17Z"/><path d="M17.56,22.21c.41-.05.79.24.84.65.05.41-.24.79-.65.84-.25.03-.5.05-.75.05s-.5-.02-.75-.05c-.41-.05-.7-.43-.65-.84.05-.41.43-.7.84-.65.18.02.37.04.56.04s.37-.01.56-.04ZM12.58,20.45c.33-.25.8-.19,1.05.14.23.29.49.56.79.79.33.25.39.72.14,1.05-.25.33-.72.39-1.05.14-.4-.31-.75-.66-1.06-1.06-.25-.33-.19-.8.14-1.05ZM20.37,20.59c.25-.33.72-.39,1.05-.14.33.25.39.72.14,1.05-.31.4-.66.75-1.06,1.06-.33.25-.8.19-1.05-.14-.25-.33-.19-.8.14-1.05.29-.23.56-.49.79-.79ZM11.25,18c0-.25.02-.5.05-.75.05-.41.43-.7.84-.65.41.05.7.43.65.84-.02.18-.04.37-.04.56s.01.37.04.56c.05.41-.24.79-.65.84-.41.05-.79-.24-.84-.65-.03-.25-.05-.5-.05-.75ZM21.25,18c0-.19-.01-.37-.04-.56-.05-.41.24-.79.65-.84.41-.05.79.24.84.65.03.25.05.5.05.75s-.02.5-.05.75c-.05.41-.43.7-.84.65-.41-.05-.7-.43-.65-.84.02-.18.04-.37.04-.56ZM13.5,13.44c.33-.25.8-.19,1.05.14.25.33.19.8-.14,1.05-.29.23-.56.49-.79.79-.25.33-.72.39-1.05.14-.33-.25-.39-.72-.14-1.05.31-.4.66-.75,1.06-1.06ZM19.45,13.58c.25-.33.72-.39,1.05-.14.4.31.75.66,1.06,1.06.25.33.19.8-.14,1.05-.33.25-.8.19-1.05-.14-.23-.29-.49-.56-.79-.79-.33-.25-.39-.72-.14-1.05ZM17,12.25c.25,0,.5.02.75.05.41.05.7.43.65.84-.05.41-.43.7-.84.65-.18-.02-.37-.04-.56-.04s-.37.01-.56.04c-.41.05-.79-.24-.84-.65-.05-.41.24-.79.65-.84.25-.03.5-.05.75-.05Z"/><path d="M18.47,16.46c.29-.29.77-.29,1.06,0s.29.77,0,1.06l-2.72,2.72c-.14.14-.33.22-.53.22s-.39-.08-.53-.22l-1.28-1.28c-.29-.29-.29-.77,0-1.06.29-.29.77-.29,1.06,0l.75.75,2.19-2.19Z"/></svg>