<?xml version="1.0" encoding="UTF-8"?><svg id="Layer_1" xmlns="http://www.w3.org/2000/svg" viewBox="0 0 24 24"><path d="M12,5.5c.65-.78,1.45-1.4,2.4-1.84.95-.44,1.95-.66,3-.66,1.83,0,3.39.64,4.68,1.93,1.28,1.28,1.92,2.84,1.92,4.68,0,.32-.02.63-.06.94-.04.31-.1.61-.19.91-.08.28-.24.51-.48.68-.23.17-.49.21-.77.12-.27-.07-.47-.22-.61-.45-.14-.23-.17-.48-.09-.75.07-.23.12-.47.15-.71.03-.24.05-.49.05-.74,0-1.28-.45-2.37-1.34-3.26-.89-.89-1.98-1.34-3.26-1.34-.92,0-1.75.25-2.5.76-.75.51-1.42,1.11-2.02,1.81-.23.28-.52.43-.88.43s-.64-.14-.88-.43c-.58-.7-1.25-1.3-2.01-1.81-.76-.51-1.6-.76-2.51-.76-1.28,0-2.37.45-3.26,1.34-.89.89-1.34,1.98-1.34,3.26,0,.25.02.5.05.74.03.24.08.48.15.71.07.25.03.49-.11.71-.14.23-.34.37-.59.44-.28.08-.54.05-.77-.1-.23-.15-.39-.37-.48-.65-.08-.3-.15-.6-.19-.91-.04-.31-.06-.62-.06-.94,0-1.83.64-3.39,1.92-4.68,1.28-1.28,2.84-1.93,4.67-1.93,1.05,0,2.05.22,3,.66.95.44,1.75,1.05,2.4,1.84ZM1,22c-.28,0-.52-.1-.71-.29-.19-.19-.29-.43-.29-.71v-.58c0-.52.19-.97.57-1.35.38-.38.91-.67,1.58-.85.43-.13.82-.21,1.17-.23.35-.02.73,0,1.12.02.17.02.29.1.36.24.08.14.08.29.01.44-.12.27-.2.54-.25.81-.05.27-.07.56-.07.86v.62c0,.28-.1.52-.29.71s-.43.29-.71.29H1ZM6,21v-.62c0-1.08.55-1.96,1.66-2.62,1.11-.67,2.55-1,4.34-1s3.25.33,4.35,1,1.65,1.54,1.65,2.62v.62c0,.28-.1.52-.29.71s-.43.29-.71.29H7c-.28,0-.52-.1-.71-.29s-.29-.43-.29-.71ZM20.5,22c-.28,0-.52-.1-.71-.29s-.29-.43-.29-.71v-.62c0-.3-.02-.59-.08-.86-.05-.28-.13-.55-.25-.81-.07-.15-.06-.3.01-.44.08-.14.2-.22.36-.24.4-.03.78-.04,1.12-.02.35.02.74.09,1.18.23.67.18,1.19.47,1.57.85.38.38.58.83.58,1.35v.58c0,.28-.1.52-.29.71s-.43.29-.71.29h-2.5ZM12,18.75c-.95,0-1.8.12-2.55.38s-1.19.54-1.32.88h7.77c-.15-.33-.6-.62-1.34-.88-.74-.25-1.6-.38-2.56-.38ZM4,17c-.55,0-1.02-.2-1.41-.59-.39-.39-.59-.86-.59-1.41s.2-1.04.59-1.43.86-.57,1.41-.57,1.04.19,1.43.57c.38.38.57.86.57,1.43s-.19,1.02-.57,1.41c-.38.39-.86.59-1.43.59ZM20,17c-.55,0-1.02-.2-1.41-.59-.39-.39-.59-.86-.59-1.41s.2-1.04.59-1.43c.39-.38.86-.57,1.41-.57s1.04.19,1.42.57c.38.38.58.86.58,1.43s-.19,1.02-.58,1.41c-.38.39-.86.59-1.42.59ZM12,16c-.83,0-1.54-.29-2.12-.88-.58-.58-.88-1.29-.88-2.12s.29-1.56.88-2.14c.58-.57,1.29-.86,2.12-.86s1.56.29,2.14.86c.57.57.86,1.29.86,2.14s-.29,1.54-.86,2.12c-.58.58-1.29.88-2.14.88ZM12,12c-.28,0-.52.1-.71.29s-.29.43-.29.71.1.52.29.71.43.29.71.29.52-.1.71-.29.29-.43.29-.71-.1-.52-.29-.71-.43-.29-.71-.29Z"/></svg>