<?xml version="1.0" encoding="UTF-8"?><svg id="Layer_1" xmlns="http://www.w3.org/2000/svg" viewBox="0 0 24 24"><path d="M12,6c-.55,0-1.02-.2-1.41-.59-.39-.39-.59-.86-.59-1.41s.2-1.02.59-1.41c.39-.39.86-.59,1.41-.59s1.02.2,1.41.59.59.86.59,1.41-.2,1.02-.59,1.41c-.39.39-.86.59-1.41.59ZM9,21v-12c-.82-.07-1.64-.16-2.47-.27-.83-.12-1.65-.27-2.45-.45-.28-.07-.51-.22-.69-.47s-.22-.52-.14-.8c.08-.28.26-.49.53-.62.27-.13.55-.17.85-.1,1.17.25,2.38.43,3.64.55,1.26.12,2.5.18,3.74.18s2.48-.06,3.74-.18c1.26-.12,2.47-.3,3.64-.55.3-.07.58-.03.85.1s.44.34.52.62.04.55-.14.8c-.18.25-.4.41-.69.47-.8.18-1.62.33-2.45.45-.83.12-1.66.21-2.48.27v12c0,.28-.1.52-.29.71s-.43.29-.71.29-.52-.1-.71-.29-.29-.43-.29-.71v-5h-2v5c0,.28-.1.52-.29.71s-.43.29-.71.29-.52-.1-.71-.29c-.19-.19-.29-.43-.29-.71Z"/></svg>