<?xml version="1.0" encoding="UTF-8"?><svg id="Layer_1" xmlns="http://www.w3.org/2000/svg" viewBox="0 0 24 24"><path d="M4,19v-1.8c0-.57.15-1.09.44-1.56.29-.47.68-.84,1.16-1.09,1.03-.52,2.08-.9,3.15-1.16,1.07-.26,2.15-.39,3.25-.39.62,0,1.23.04,1.82.11.6.07,1.2.2,1.8.36l-1.68,1.7c-.33-.05-.66-.09-.97-.12-.32-.03-.64-.05-.98-.05-.93,0-1.86.11-2.77.34-.92.23-1.83.56-2.73,1.01-.15.08-.27.2-.36.35-.09.15-.14.32-.14.5v.8h6v2h-7c-.28,0-.52-.1-.71-.29s-.29-.43-.29-.71ZM14,20v-1.25c0-.27.05-.52.16-.76.11-.24.25-.45.44-.64l4.92-4.93c.15-.15.32-.26.5-.32s.37-.1.55-.1c.2,0,.39.04.57.11s.35.19.5.34l.93.93c.13.15.24.32.31.5.07.18.11.37.11.55s-.03.37-.1.56-.17.36-.32.51l-4.93,4.92c-.18.18-.4.33-.64.43-.24.1-.5.15-.76.15h-1.25c-.28,0-.52-.1-.71-.29s-.29-.43-.29-.71ZM15.5,19.5h.95l3.02-3.05-.45-.48-.48-.45-3.05,3.02v.95ZM19.02,15.98l-.48-.45.93.93-.45-.48ZM12,12c-1.1,0-2.04-.39-2.82-1.18-.78-.78-1.18-1.72-1.18-2.82s.39-2.04,1.18-2.82,1.72-1.18,2.82-1.18,2.04.39,2.82,1.18c.78.78,1.18,1.72,1.18,2.82s-.39,2.04-1.18,2.82c-.78.78-1.72,1.18-2.82,1.18ZM12,10c.55,0,1.02-.2,1.41-.59.39-.39.59-.86.59-1.41s-.2-1.02-.59-1.41c-.39-.39-.86-.59-1.41-.59s-1.02.2-1.41.59c-.39.39-.59.86-.59,1.41s.2,1.02.59,1.41c.39.39.86.59,1.41.59Z"/></svg>