<?xml version="1.0" encoding="UTF-8"?><svg id="Layer_1" xmlns="http://www.w3.org/2000/svg" viewBox="0 0 24 24"><path d="M20,11c-.28,0-.52-.1-.71-.29s-.29-.43-.29-.71.1-.52.29-.71c.19-.19.43-.29.71-.29s.52.1.71.29c.19.19.29.43.29.71s-.1.52-.29.71-.43.29-.71.29ZM20,8c-.28,0-.52-.1-.71-.29s-.29-.43-.29-.71v-3c0-.28.1-.52.29-.71.19-.19.43-.29.71-.29s.52.1.71.29c.19.19.29.43.29.71v3c0,.28-.1.52-.29.71s-.43.29-.71.29ZM9,12c-1.1,0-2.04-.39-2.82-1.18-.78-.78-1.18-1.72-1.18-2.82s.39-2.04,1.18-2.82,1.72-1.18,2.82-1.18,2.04.39,2.82,1.18c.78.78,1.18,1.72,1.18,2.82s-.39,2.04-1.18,2.82c-.78.78-1.72,1.18-2.82,1.18ZM1,18v-.8c0-.57.15-1.09.44-1.56.29-.47.68-.84,1.16-1.09,1.03-.52,2.08-.9,3.15-1.16s2.15-.39,3.25-.39,2.18.13,3.25.39,2.12.65,3.15,1.16c.48.25.87.61,1.16,1.09.29.47.44,1,.44,1.56v.8c0,.55-.2,1.02-.59,1.41-.39.39-.86.59-1.41.59H3c-.55,0-1.02-.2-1.41-.59-.39-.39-.59-.86-.59-1.41ZM3,18h12v-.8c0-.18-.05-.35-.14-.5-.09-.15-.21-.27-.36-.35-.9-.45-1.81-.79-2.73-1.01-.92-.22-1.84-.34-2.77-.34s-1.86.11-2.78.34c-.92.23-1.82.56-2.72,1.01-.15.08-.27.2-.36.35-.09.15-.14.32-.14.5v.8ZM9,10c.55,0,1.02-.2,1.41-.59.39-.39.59-.86.59-1.41s-.2-1.02-.59-1.41c-.39-.39-.86-.59-1.41-.59s-1.02.2-1.41.59c-.39.39-.59.86-.59,1.41s.2,1.02.59,1.41c.39.39.86.59,1.41.59Z"/></svg>