<?xml version="1.0" encoding="UTF-8"?><svg id="Layer_1" xmlns="http://www.w3.org/2000/svg" viewBox="0 0 24 24"><path d="M12.05,13.38l-5.93,5.92c-.2.2-.44.3-.71.3s-.51-.1-.71-.3c-.2-.2-.3-.44-.3-.71s.1-.51.3-.71l8.9-8.88h-2.6v1c0,.28-.1.52-.29.71s-.43.29-.71.29-.52-.1-.71-.29c-.19-.19-.29-.43-.29-.71v-2c0-.28.1-.52.29-.71.19-.19.43-.29.71-.29h4.85c.27,0,.52.05.76.15s.45.24.64.42l3,2.98c.33.33.72.61,1.16.84.44.23.92.39,1.44.49.28.05.53.18.74.39.21.21.31.45.31.74s-.12.52-.35.7c-.23.18-.49.26-.77.23-.75-.1-1.44-.3-2.07-.6-.63-.3-1.22-.71-1.75-1.22l-1-1.05-2.2,2.2,1.33,1.32c.23.23.33.51.29.84-.04.32-.2.57-.49.74l-4.55,2.62c-.23.13-.49.17-.76.1-.27-.07-.48-.22-.61-.45-.13-.23-.16-.49-.09-.76.07-.27.23-.48.46-.61l3.43-1.97-1.7-1.7ZM4,13c-.28,0-.52-.1-.71-.29-.19-.19-.29-.43-.29-.71s.1-.52.29-.71c.19-.19.43-.29.71-.29h3c.28,0,.52.1.71.29s.29.43.29.71-.1.52-.29.71-.43.29-.71.29h-3ZM2,10c-.28,0-.52-.1-.71-.29-.19-.19-.29-.43-.29-.71s.1-.52.29-.71c.19-.19.43-.29.71-.29h3c.28,0,.52.1.71.29.19.19.29.43.29.71s-.1.52-.29.71c-.19.19-.43.29-.71.29h-3ZM19.48,8c-.55,0-1.02-.2-1.43-.59-.4-.39-.6-.86-.6-1.41s.2-1.02.6-1.41c.4-.39.88-.59,1.43-.59s1.02.2,1.42.59c.4.39.6.86.6,1.41s-.2,1.02-.6,1.41c-.4.39-.88.59-1.42.59ZM4,7c-.28,0-.52-.1-.71-.29-.19-.19-.29-.43-.29-.71s.1-.52.29-.71c.19-.19.43-.29.71-.29h3c.28,0,.52.1.71.29s.29.43.29.71-.1.52-.29.71-.43.29-.71.29h-3Z"/></svg>