<?xml version="1.0" encoding="UTF-8"?><svg id="Layer_1" xmlns="http://www.w3.org/2000/svg" viewBox="0 0 24 24"><path d="M7,22c-.55,0-1.02-.2-1.41-.59-.39-.39-.59-.86-.59-1.41v-8c0-1.42.37-2.68,1.11-3.8.74-1.12,1.7-1.95,2.89-2.5v-.7c0-.83.29-1.54.88-2.12.58-.58,1.29-.88,2.12-.88s1.54.29,2.12.88.88,1.29.88,2.12v.7c1.18.55,2.15,1.38,2.89,2.5.74,1.12,1.11,2.38,1.11,3.8v8c0,.55-.2,1.02-.59,1.41-.39.39-.86.59-1.41.59H7ZM7,20h10v-8c0-1.38-.49-2.56-1.46-3.54-.98-.97-2.15-1.46-3.54-1.46s-2.56.49-3.54,1.46c-.97.98-1.46,2.15-1.46,3.54v8ZM15,16c.28,0,.52-.1.71-.29s.29-.43.29-.71v-1c0-.55-.2-1.02-.59-1.41-.39-.39-.86-.59-1.41-.59h-5c-.28,0-.52.1-.71.29-.19.19-.29.43-.29.71s.1.52.29.71c.19.19.43.29.71.29h5v1c0,.28.1.52.29.71s.43.29.71.29ZM11,5.1c.18-.03.35-.06.5-.07.15-.02.32-.03.5-.03s.35,0,.5.03c.15.02.32.04.5.07v-.1c0-.28-.1-.52-.29-.71s-.43-.29-.71-.29-.52.1-.71.29-.29.43-.29.71v.1Z"/></svg>