<?xml version="1.0" encoding="UTF-8"?><svg id="Layer_1" xmlns="http://www.w3.org/2000/svg" viewBox="0 0 24 24"><path d="M12,18c-.93,0-1.82.15-2.68.44-.85.29-1.62.73-2.32,1.31v.25h10v-.25c-.7-.58-1.48-1.02-2.32-1.31-.85-.29-1.74-.44-2.68-.44ZM12,16c1.15,0,2.23.17,3.23.52s1.92.84,2.77,1.48V4H6v14c.85-.63,1.78-1.12,2.77-1.48,1-.35,2.08-.52,3.23-.52ZM12,12c-.42,0-.77-.15-1.06-.44-.29-.29-.44-.65-.44-1.06s.15-.77.44-1.06c.29-.29.65-.44,1.06-.44s.77.15,1.06.44c.29.29.44.65.44,1.06s-.15.77-.44,1.06c-.29.29-.65.44-1.06.44ZM6,22c-.55,0-1.02-.2-1.41-.59-.39-.39-.59-.86-.59-1.41V4c0-.55.2-1.02.59-1.41.39-.39.86-.59,1.41-.59h12c.55,0,1.02.2,1.41.59.39.39.59.86.59,1.41v16c0,.55-.2,1.02-.59,1.41-.39.39-.86.59-1.41.59H6ZM12,14c.97,0,1.79-.34,2.48-1.02s1.02-1.51,1.02-2.48-.34-1.79-1.02-2.48c-.68-.68-1.51-1.02-2.48-1.02s-1.79.34-2.48,1.02c-.68.68-1.02,1.51-1.02,2.48s.34,1.79,1.02,2.48c.68.68,1.51,1.02,2.48,1.02Z"/></svg>