<?xml version="1.0" encoding="UTF-8"?><svg id="Layer_1" xmlns="http://www.w3.org/2000/svg" viewBox="0 0 24 24"><path d="M1,18c-.28,0-.52-.1-.71-.29-.19-.19-.29-.43-.29-.71v-.58c0-.72.37-1.3,1.1-1.75.73-.45,1.7-.68,2.9-.68.22,0,.43,0,.62.01s.39.03.57.06c-.23.35-.41.72-.52,1.1-.12.38-.18.78-.18,1.2v1.62H1ZM7,18c-.28,0-.52-.1-.71-.29s-.29-.43-.29-.71v-.62c0-.53.15-1.02.44-1.46s.7-.83,1.24-1.16,1.17-.58,1.91-.75c.74-.17,1.55-.25,2.41-.25s1.7.08,2.44.25,1.38.42,1.91.75.94.72,1.23,1.16c.28.44.42.93.42,1.46v.62c0,.28-.1.52-.29.71s-.43.29-.71.29H7ZM19.5,18v-1.62c0-.43-.05-.84-.16-1.23-.11-.38-.27-.74-.49-1.07.18-.03.37-.05.56-.06s.39-.01.59-.01c1.2,0,2.17.22,2.9.66.73.44,1.1,1.03,1.1,1.76v.58c0,.28-.1.52-.29.71s-.43.29-.71.29h-3.5ZM4,13c-.55,0-1.02-.2-1.41-.59-.39-.39-.59-.86-.59-1.41s.2-1.04.59-1.43c.39-.38.86-.57,1.41-.57s1.04.19,1.43.57c.38.38.57.86.57,1.43s-.19,1.02-.57,1.41c-.38.39-.86.59-1.43.59ZM20,13c-.55,0-1.02-.2-1.41-.59-.39-.39-.59-.86-.59-1.41s.2-1.04.59-1.43c.39-.38.86-.57,1.41-.57s1.04.19,1.42.57c.38.38.58.86.58,1.43s-.19,1.02-.58,1.41c-.38.39-.86.59-1.42.59ZM12,12c-.83,0-1.54-.29-2.12-.88-.58-.58-.88-1.29-.88-2.12s.29-1.56.88-2.14c.58-.58,1.29-.86,2.12-.86s1.56.29,2.14.86c.57.57.86,1.29.86,2.14s-.29,1.54-.86,2.12-1.29.88-2.14.88Z"/></svg>