<?xml version="1.0" encoding="UTF-8"?><svg id="Layer_1" xmlns="http://www.w3.org/2000/svg" viewBox="0 0 24 24"><path d="M10,10.5h1c.28,0,.52-.1.71-.29s.29-.43.29-.71v-1c0-.28-.1-.52-.29-.71s-.43-.29-.71-.29h-1.5c-.13,0-.25.05-.35.15-.1.1-.15.22-.15.35v4c0,.13.05.25.15.35.1.1.22.15.35.15s.25-.05.35-.15c.1-.1.15-.22.15-.35v-1.5ZM10,9.5v-1h1v1h-1ZM15,12.5c.28,0,.52-.1.71-.29s.29-.43.29-.71v-3c0-.28-.1-.52-.29-.71s-.43-.29-.71-.29h-1.5c-.13,0-.25.05-.35.15-.1.1-.15.22-.15.35v4c0,.13.05.25.15.35.1.1.22.15.35.15h1.5ZM14,11.5v-3h1v3h-1ZM18,10.5h.5c.13,0,.25-.05.35-.15.1-.1.15-.22.15-.35s-.05-.25-.15-.35c-.1-.1-.22-.15-.35-.15h-.5v-1h.5c.13,0,.25-.05.35-.15.1-.1.15-.22.15-.35s-.05-.25-.15-.35-.22-.15-.35-.15h-1c-.13,0-.25.05-.35.15s-.15.22-.15.35v4c0,.13.05.25.15.35.1.1.22.15.35.15s.25-.05.35-.15c.1-.1.15-.22.15-.35v-1.5ZM8,18c-.55,0-1.02-.2-1.41-.59-.39-.39-.59-.86-.59-1.41V4c0-.55.2-1.02.59-1.41.39-.39.86-.59,1.41-.59h12c.55,0,1.02.2,1.41.59.39.39.59.86.59,1.41v12c0,.55-.2,1.02-.59,1.41-.39.39-.86.59-1.41.59h-12ZM8,16h12V4h-12v12ZM4,22c-.55,0-1.02-.2-1.41-.59-.39-.39-.59-.86-.59-1.41V7c0-.28.1-.52.29-.71.19-.19.43-.29.71-.29s.52.1.71.29c.19.19.29.43.29.71v13h13c.28,0,.52.1.71.29s.29.43.29.71-.1.52-.29.71-.43.29-.71.29H4Z"/></svg>