<?xml version="1.0" encoding="UTF-8"?><svg id="Layer_1" xmlns="http://www.w3.org/2000/svg" viewBox="0 0 24 24"><path d="M14.05,15.55l-.7-.7c-.2-.2-.44-.3-.71-.31-.27,0-.51.09-.71.29s-.3.44-.3.71.1.51.3.71l1.43,1.42c.2.2.43.3.7.3s.5-.1.7-.3l3.58-3.57c.2-.2.3-.43.29-.7,0-.27-.11-.5-.31-.7-.2-.18-.43-.28-.7-.29-.27,0-.5.09-.7.29l-2.85,2.85ZM8,15h1c.28,0,.52-.1.71-.29.19-.19.29-.43.29-.71s-.1-.52-.29-.71c-.19-.19-.43-.29-.71-.29h-1c-.28,0-.52.1-.71.29s-.29.43-.29.71.1.52.29.71.43.29.71.29ZM8,12h5c.28,0,.52-.1.71-.29s.29-.43.29-.71-.1-.52-.29-.71-.43-.29-.71-.29h-5c-.28,0-.52.1-.71.29s-.29.43-.29.71.1.52.29.71.43.29.71.29ZM8,9h5c.28,0,.52-.1.71-.29.19-.19.29-.43.29-.71s-.1-.52-.29-.71-.43-.29-.71-.29h-5c-.28,0-.52.1-.71.29s-.29.43-.29.71.1.52.29.71c.19.19.43.29.71.29ZM12,22c-1.38,0-2.68-.26-3.9-.79-1.22-.52-2.28-1.24-3.18-2.14-.9-.9-1.61-1.96-2.14-3.18-.52-1.22-.79-2.52-.79-3.9s.26-2.68.79-3.9c.53-1.22,1.24-2.28,2.14-3.18.9-.9,1.96-1.61,3.18-2.14,1.22-.52,2.52-.79,3.9-.79s2.68.26,3.9.79c1.22.53,2.27,1.24,3.18,2.14.9.9,1.61,1.96,2.14,3.18.52,1.22.79,2.52.79,3.9s-.26,2.68-.79,3.9-1.24,2.27-2.14,3.18c-.9.9-1.96,1.61-3.18,2.14s-2.52.79-3.9.79ZM12,20c2.23,0,4.12-.77,5.67-2.33,1.55-1.55,2.33-3.44,2.33-5.67s-.77-4.12-2.33-5.68c-1.55-1.55-3.44-2.32-5.67-2.32s-4.12.78-5.68,2.32c-1.55,1.55-2.32,3.44-2.32,5.68s.78,4.12,2.32,5.67c1.55,1.55,3.44,2.33,5.68,2.33Z"/></svg>