<?xml version="1.0" encoding="UTF-8"?><svg id="Layer_1" xmlns="http://www.w3.org/2000/svg" viewBox="0 0 24 24"><path d="M12,22c-1.37,0-2.66-.26-3.88-.79s-2.28-1.24-3.19-2.15c-.91-.91-1.62-1.97-2.15-3.19-.52-1.22-.79-2.51-.79-3.88s.26-2.68.79-3.89c.52-1.21,1.24-2.27,2.15-3.18.91-.91,1.97-1.62,3.19-2.15,1.22-.52,2.51-.79,3.88-.79.28,0,.52.1.71.29.19.19.29.43.29.71s-.1.52-.29.71c-.19.19-.43.29-.71.29-2.22,0-4.1.78-5.66,2.34s-2.34,3.45-2.34,5.66.78,4.1,2.34,5.66,3.45,2.34,5.66,2.34,4.1-.78,5.66-2.34,2.34-3.45,2.34-5.66c0-.28.1-.52.29-.71s.43-.29.71-.29.52.1.71.29.29.43.29.71c0,1.37-.26,2.66-.79,3.88-.53,1.22-1.24,2.28-2.15,3.19-.91.91-1.97,1.62-3.17,2.15-1.21.52-2.5.79-3.89.79Z"/></svg>