<?xml version="1.0" encoding="UTF-8"?><svg id="Layer_1" xmlns="http://www.w3.org/2000/svg" viewBox="0 0 24 24"><path d="M8,21c-.55,0-1.02-.2-1.41-.59-.39-.39-.59-.86-.59-1.41v-2h-2c-.55,0-1.02-.2-1.41-.59-.39-.39-.59-.86-.59-1.41v-4c0-.85.29-1.56.88-2.14s1.29-.86,2.12-.86h14c.85,0,1.56.29,2.14.86.57.57.86,1.29.86,2.14v4c0,.55-.2,1.02-.59,1.41-.39.39-.86.59-1.41.59h-2v2c0,.55-.2,1.02-.59,1.41-.39.39-.86.59-1.41.59h-8ZM4,15h2c0-.55.2-1.02.59-1.41.39-.39.86-.59,1.41-.59h8c.55,0,1.02.2,1.41.59.39.39.59.86.59,1.41h2v-4c0-.28-.1-.52-.29-.71s-.43-.29-.71-.29H5c-.28,0-.52.1-.71.29s-.29.43-.29.71v4ZM16,8v-3h-8v3h-2v-3c0-.55.2-1.02.59-1.41.39-.39.86-.59,1.41-.59h8c.55,0,1.02.2,1.41.59.39.39.59.86.59,1.41v3h-2ZM18,12.5c.28,0,.52-.1.71-.29s.29-.43.29-.71-.1-.52-.29-.71-.43-.29-.71-.29-.52.1-.71.29-.29.43-.29.71.1.52.29.71.43.29.71.29ZM16,19v-4h-8v4h8Z"/></svg>