<?xml version="1.0" encoding="UTF-8"?><svg id="Layer_1" xmlns="http://www.w3.org/2000/svg" viewBox="0 0 24 24"><path d="M9,21c-1.67,0-3.08-.58-4.25-1.75-1.17-1.17-1.75-2.58-1.75-4.25v-6c0-1.67.58-3.08,1.75-4.25,1.17-1.17,2.58-1.75,4.25-1.75h6c1.67,0,3.08.58,4.25,1.75,1.17,1.17,1.75,2.58,1.75,4.25v6c0,1.67-.58,3.08-1.75,4.25s-2.58,1.75-4.25,1.75h-6ZM11,13.2l-1.5-1.5c-.18-.18-.42-.27-.7-.27s-.52.09-.7.27c-.18.18-.28.42-.28.7s.09.52.28.7l2.2,2.2c.2.2.43.3.7.3s.5-.1.7-.3l4.6-4.6c.18-.18.28-.42.28-.7s-.09-.52-.28-.7c-.18-.18-.42-.28-.7-.28s-.52.09-.7.28l-3.9,3.9ZM9,19h6c1.1,0,2.04-.39,2.83-1.17.78-.78,1.17-1.73,1.17-2.83v-6c0-1.1-.39-2.04-1.17-2.82-.78-.78-1.73-1.18-2.83-1.18h-6c-1.1,0-2.04.39-2.82,1.18s-1.18,1.72-1.18,2.82v6c0,1.1.39,2.04,1.18,2.83.78.78,1.72,1.17,2.82,1.17Z"/></svg>