<?xml version="1.0" encoding="UTF-8"?><svg id="Layer_1" xmlns="http://www.w3.org/2000/svg" viewBox="0 0 24 24"><path d="M7,22c-.28,0-.52-.1-.71-.29s-.29-.43-.29-.71v-3.3c-.95-.87-1.69-1.88-2.21-3.04-.52-1.16-.79-2.38-.79-3.66,0-2.5.88-4.62,2.62-6.38s3.88-2.62,6.38-2.62c2.08,0,3.93.61,5.54,1.84,1.61,1.22,2.65,2.82,3.14,4.79l1.3,5.12c.08.32.02.6-.18.86-.2.26-.47.39-.8.39h-2v3c0,.55-.2,1.02-.59,1.41-.39.39-.86.59-1.41.59h-2v1c0,.28-.1.52-.29.71s-.43.29-.71.29h-7ZM12,16c.28,0,.52-.1.71-.29s.29-.43.29-.71-.1-.52-.29-.71-.43-.29-.71-.29-.52.1-.71.29-.29.43-.29.71.1.52.29.71.43.29.71.29ZM12.02,12.8c.18,0,.35-.06.51-.19.16-.12.26-.3.31-.51.05-.2.13-.4.24-.59.11-.19.28-.41.51-.66.53-.58.88-1.03,1.05-1.33.17-.3.25-.64.25-1.02,0-.7-.27-1.29-.81-1.78-.54-.48-1.21-.72-2.01-.72-.53,0-1.04.13-1.51.39-.47.26-.85.61-1.14,1.06-.1.17-.1.34-.01.53s.23.32.41.4c.18.08.36.1.54.04.18-.06.33-.18.46-.36.17-.2.36-.35.57-.46.22-.11.44-.16.68-.16.37,0,.67.1.91.3.24.2.36.46.36.78,0,.27-.07.52-.21.76-.14.24-.42.58-.84,1.01-.32.33-.55.63-.69.89-.14.26-.24.55-.29.89-.03.2.02.38.16.52.14.15.32.23.54.23Z"/></svg>