<?xml version="1.0" encoding="UTF-8"?><svg id="Layer_1" xmlns="http://www.w3.org/2000/svg" viewBox="0 0 24 24"><path d="M7,5.78c-.92.73-1.65,1.64-2.19,2.71-.54,1.07-.81,2.25-.81,3.51,0,1.92.58,3.59,1.75,5.01,1.17,1.42,2.64,2.35,4.43,2.76.25.07.45.21.6.44.15.23.23.47.23.74s-.09.49-.27.67-.39.25-.62.2c-2.33-.43-4.27-1.56-5.8-3.39-1.53-1.83-2.3-3.97-2.3-6.44,0-1.52.3-2.92.91-4.2.61-1.28,1.44-2.38,2.49-3.3h-1.4c-.28,0-.52-.1-.71-.29-.19-.19-.29-.43-.29-.71s.1-.52.29-.71c.19-.19.43-.29.71-.29h4c.28,0,.52.1.71.29.19.19.29.43.29.71v4c0,.28-.1.52-.29.71-.19.19-.43.29-.71.29s-.52-.1-.71-.29c-.19-.19-.29-.43-.29-.71v-1.72ZM10.57,13.77l4.98-4.97c.2-.2.43-.3.7-.29.27,0,.5.11.7.31.18.2.28.43.29.7,0,.27-.09.5-.29.7l-5.68,5.67c-.2.2-.43.3-.7.3s-.5-.1-.7-.3l-2.82-2.85c-.18-.18-.28-.41-.29-.69,0-.28.09-.51.29-.71.18-.18.42-.27.7-.27s.52.09.7.27l2.12,2.12ZM18.6,19.5h1.4c.28,0,.52.1.71.29s.29.43.29.71-.1.52-.29.71-.43.29-.71.29h-4c-.28,0-.52-.1-.71-.29s-.29-.43-.29-.71v-4c0-.28.1-.52.29-.71s.43-.29.71-.29.52.1.71.29.29.43.29.71v1.73c.92-.75,1.65-1.66,2.19-2.73.54-1.07.81-2.23.81-3.5,0-1.92-.58-3.59-1.75-5.01-1.17-1.43-2.64-2.35-4.43-2.76-.25-.07-.45-.21-.6-.44-.15-.22-.23-.47-.23-.74s.09-.49.27-.67c.18-.18.39-.25.62-.2,2.33.43,4.27,1.56,5.8,3.39,1.53,1.82,2.3,3.97,2.3,6.44,0,1.52-.3,2.92-.91,4.2-.61,1.28-1.44,2.38-2.49,3.3Z"/></svg>