<?xml version="1.0" encoding="UTF-8"?><svg id="Layer_1" xmlns="http://www.w3.org/2000/svg" viewBox="0 0 24 24"><path d="M11.21.32c1.12-.3,2.27-.09,3.18.49l1.53-.13c.89-.08,1.74.14,2.44.58l1.97.21c2.2.23,3.79,2.2,3.56,4.4l-1.46,13.92c-.23,2.2-2.2,3.79-4.4,3.56l-3.97-.42-3.25.28-1.63.44c-2.13.57-4.33-.69-4.9-2.83L.65,7.29C.08,5.15,1.35,2.96,3.48,2.39L11.21.32ZM11.05,15.37c-.34.09-.59.28-.76.58-.17.3-.21.61-.12.95.09.34.28.59.58.76.3.17.61.21.95.12.34-.09.59-.28.76-.58.17-.3.21-.61.12-.95-.09-.34-.28-.59-.58-.76-.3-.17-.61-.21-.95-.12ZM15.95,2.67c.06.15.12.31.16.47l3.01,11.24-.87-9.9c-.09-1.03-.95-1.81-1.96-1.83h-.2s-.14.02-.14.02ZM20.07,3.44c.09.28.15.57.17.87l.81,9.3.84-7.97c.11-1.03-.59-1.96-1.58-2.17l-.2-.03h-.05ZM8.74,6.16c-.61.16-1.16.45-1.65.86-.49.41-.8.91-.95,1.52-.06.22-.04.44.06.65.1.21.25.34.46.41.26.07.5.05.73-.07.23-.11.39-.3.49-.57.11-.29.28-.53.52-.73.23-.2.49-.34.78-.42.4-.11.79-.07,1.15.11.37.18.6.46.71.85.09.35.07.7-.07,1.03-.14.33-.32.66-.53.97-.28.42-.52.86-.69,1.33-.18.46-.2.93-.07,1.42.06.23.2.39.41.5.21.11.43.13.65.07.24-.06.43-.2.55-.41.13-.21.18-.44.16-.69-.03-.36.04-.7.19-1.02.15-.33.33-.64.52-.96.28-.45.49-.92.64-1.41.15-.49.16-.99.02-1.51-.22-.82-.74-1.4-1.54-1.75-.81-.34-1.66-.4-2.54-.16Z" style="fill-rule:evenodd;"/></svg>