<?xml version="1.0" encoding="UTF-8"?><svg id="Layer_1" xmlns="http://www.w3.org/2000/svg" viewBox="0 0 24 24"><path d="M3.75,22c-.22,0-.4-.07-.54-.21-.14-.14-.21-.32-.21-.54s.07-.4.21-.54c.14-.14.32-.21.54-.21h1.75v-.75h-.75c-.22,0-.4-.07-.54-.21-.14-.14-.21-.32-.21-.54s.07-.4.21-.54c.14-.14.32-.21.54-.21h.75v-.75h-1.75c-.22,0-.4-.07-.54-.21-.14-.14-.21-.32-.21-.54s.07-.4.21-.54c.14-.14.32-.21.54-.21h2.25c.28,0,.52.1.71.29s.29.43.29.71v1c0,.28-.1.52-.29.71s-.43.29-.71.29c.28,0,.52.1.71.29s.29.43.29.71v1c0,.28-.1.52-.29.71s-.43.29-.71.29h-2.25ZM3.75,15c-.22,0-.4-.07-.54-.21-.14-.14-.21-.32-.21-.54v-2c0-.28.1-.52.29-.71.19-.19.43-.29.71-.29h1.5v-.75h-1.75c-.22,0-.4-.07-.54-.21-.14-.14-.21-.32-.21-.54s.07-.4.21-.54c.14-.14.32-.21.54-.21h2.25c.28,0,.52.1.71.29.19.19.29.43.29.71v1.75c0,.28-.1.52-.29.71s-.43.29-.71.29h-1.5v.75h1.75c.22,0,.4.07.54.21.14.14.21.32.21.54s-.07.4-.21.54c-.14.14-.32.21-.54.21h-2.5ZM5.25,8c-.22,0-.4-.07-.54-.21-.14-.14-.21-.32-.21-.54v-3.75h-.75c-.22,0-.4-.07-.54-.21s-.21-.32-.21-.54.07-.4.21-.54.32-.21.54-.21h1.5c.22,0,.4.07.54.21.14.14.21.32.21.54v4.5c0,.22-.07.4-.21.54-.14.14-.32.21-.54.21ZM10,19c-.28,0-.52-.1-.71-.29-.19-.19-.29-.43-.29-.71s.1-.52.29-.71c.19-.19.43-.29.71-.29h10c.28,0,.52.1.71.29s.29.43.29.71-.1.52-.29.71-.43.29-.71.29h-10ZM10,13c-.28,0-.52-.1-.71-.29-.19-.19-.29-.43-.29-.71s.1-.52.29-.71c.19-.19.43-.29.71-.29h10c.28,0,.52.1.71.29s.29.43.29.71-.1.52-.29.71-.43.29-.71.29h-10ZM10,7c-.28,0-.52-.1-.71-.29-.19-.19-.29-.43-.29-.71s.1-.52.29-.71c.19-.19.43-.29.71-.29h10c.28,0,.52.1.71.29s.29.43.29.71-.1.52-.29.71-.43.29-.71.29h-10Z"/></svg>