<?xml version="1.0" encoding="UTF-8"?><svg id="Layer_1" xmlns="http://www.w3.org/2000/svg" viewBox="0 0 24 24"><path d="M20.87,3.22c.29-.29.77-.29,1.06,0,.29.29.29.77,0,1.06l-3.5,3.5c-.29.29-.77.29-1.06,0l-1.4-1.4c-.29-.29-.29-.77,0-1.06.29-.29.77-.29,1.06,0l.87.87,2.97-2.97Z"/><path d="M20.87,16.22c.29-.29.77-.29,1.06,0,.29.29.29.77,0,1.06l-3.5,3.5c-.29.29-.77.29-1.06,0l-1.4-1.4c-.29-.29-.29-.77,0-1.06.29-.29.77-.29,1.06,0l.87.87,2.97-2.97Z"/><path d="M20.87,9.72c.29-.29.77-.29,1.06,0,.29.29.29.77,0,1.06l-3.5,3.5c-.29.29-.77.29-1.06,0l-1.4-1.4c-.29-.29-.29-.77,0-1.06.29-.29.77-.29,1.06,0l.87.87,2.97-2.97Z"/><path d="M3,5h10c.55,0,1,.45,1,1h0c0,.55-.45,1-1,1H3c-.55,0-1-.45-1-1h0c0-.55.45-1,1-1Z"/><path d="M3,11h10c.55,0,1,.45,1,1h0c0,.55-.45,1-1,1H3c-.55,0-1-.45-1-1h0c0-.55.45-1,1-1Z"/><path d="M3,17h10c.55,0,1,.45,1,1h0c0,.55-.45,1-1,1H3c-.55,0-1-.45-1-1h0c0-.55.45-1,1-1Z"/></svg>