<?xml version="1.0" encoding="UTF-8"?><svg id="Layer_1" xmlns="http://www.w3.org/2000/svg" viewBox="0 0 24 24"><path d="M16,1c2.21,0,4,1.79,4,4v14c0,2.21-1.79,4-4,4h-8c-2.21,0-4-1.79-4-4V5c0-2.21,1.79-4,4-4h8ZM11.95,15.5c-.35,0-.65.12-.89.36-.24.24-.36.54-.36.89s.12.65.36.89c.24.24.54.36.89.36s.65-.12.89-.36c.24-.24.36-.54.36-.89s-.12-.65-.36-.89c-.24-.24-.54-.36-.89-.36ZM12.1,6c-.63,0-1.24.13-1.81.4-.57.27-1.01.67-1.31,1.22-.12.2-.15.41-.11.64.04.22.15.4.34.51.23.13.47.17.72.12.25-.05.46-.19.62-.43.18-.25.41-.44.69-.57.27-.13.56-.2.86-.2.42,0,.78.13,1.09.4.31.27.46.6.46,1,0,.37-.11.69-.34.98-.23.28-.48.55-.76.8-.38.33-.72.7-1.01,1.1-.29.4-.44.85-.44,1.35,0,.23.09.43.26.59.18.16.38.24.61.24.25,0,.46-.08.64-.25.17-.17.29-.38.34-.62.07-.35.22-.66.45-.94.23-.28.48-.54.75-.79.38-.37.71-.77.99-1.2.27-.43.41-.92.41-1.45,0-.85-.35-1.55-1.04-2.09-.69-.54-1.5-.81-2.41-.81Z"/></svg>