<?xml version="1.0" encoding="UTF-8"?><svg id="Layer_1" xmlns="http://www.w3.org/2000/svg" viewBox="0 0 24 24"><path d="M9.95,23.8c-1.77,0-3.39-1.18-3.87-2.96L2.46,7.31c-.57-2.13.7-4.33,2.83-4.9L13.02.34c2.13-.58,4.33.7,4.9,2.83l3.62,13.52c.28,1.03.13,2.11-.4,3.04-.53.92-1.4,1.59-2.43,1.86l-7.73,2.07c-.34.09-.69.14-1.03.14ZM14.05,2.2c-.17,0-.34.02-.52.07l-7.73,2.07c-1.07.29-1.7,1.38-1.41,2.45l3.62,13.52c.29,1.07,1.38,1.7,2.45,1.41l7.73-2.07c1.07-.29,1.7-1.38,1.41-2.45l-3.62-13.52c-.24-.89-1.05-1.48-1.93-1.48Z"/><path d="M13.5,17.81c.34-.09.59-.28.76-.58.17-.3.21-.61.12-.95-.09-.34-.28-.59-.58-.76-.3-.17-.61-.21-.95-.12-.34.09-.59.28-.76.58-.17.3-.21.61-.12.95.09.34.28.59.58.76.3.17.61.21.95.12ZM10.98,7.82c.4-.11.79-.07,1.15.1.37.18.6.46.71.85.09.35.07.7-.07,1.03-.14.33-.32.66-.53.97-.28.42-.52.86-.69,1.32-.18.46-.2.93-.07,1.42.06.23.2.39.41.5.21.11.43.13.65.07.24-.06.43-.2.55-.41.13-.21.18-.44.16-.69-.03-.36.04-.7.19-1.02.15-.33.33-.64.52-.95.28-.45.49-.92.64-1.41.15-.49.16-.99.02-1.51-.22-.82-.73-1.4-1.54-1.75-.81-.34-1.66-.4-2.54-.16-.61.16-1.16.45-1.65.86s-.8.91-.95,1.52c-.06.22-.04.44.06.64.1.21.25.34.46.41.26.07.5.05.73-.07.23-.11.39-.3.49-.57.11-.29.28-.53.52-.73.23-.2.49-.34.78-.42Z"/></svg>