<?xml version="1.0" encoding="UTF-8"?><svg id="Layer_1" xmlns="http://www.w3.org/2000/svg" viewBox="0 0 24 24"><path d="M13.02.34c2.13-.57,4.33.69,4.9,2.83l3.62,13.52c.57,2.13-.69,4.33-2.83,4.9l-7.73,2.07c-2.13.57-4.33-.69-4.9-2.83L2.46,7.31c-.57-2.13.69-4.33,2.83-4.9L13.02.34ZM12.86,15.39c-.34.09-.59.28-.76.58s-.21.61-.12.95c.09.34.28.59.58.76.3.17.61.21.95.12.34-.09.59-.28.76-.58.17-.3.21-.61.12-.95-.09-.34-.28-.59-.58-.76-.3-.17-.61-.21-.95-.12ZM10.54,6.18c-.61.16-1.16.45-1.65.85-.49.41-.8.91-.95,1.52-.06.22-.04.44.06.65.1.21.25.34.46.41.26.07.5.05.73-.07.23-.11.39-.3.49-.57.11-.29.28-.53.52-.73.23-.2.49-.34.78-.42.4-.11.79-.07,1.15.1.37.18.6.46.71.85.09.35.07.7-.07,1.03-.14.33-.32.66-.53.97-.28.42-.52.86-.69,1.32s-.2.93-.07,1.42c.06.23.2.39.41.5.21.11.43.13.65.07.24-.06.43-.2.55-.41.13-.21.18-.44.16-.69-.03-.36.04-.7.19-1.02.15-.33.33-.64.52-.95.28-.45.49-.93.64-1.41.15-.49.16-.99.02-1.51-.22-.82-.73-1.4-1.54-1.75-.81-.34-1.65-.4-2.54-.16Z"/></svg>