<?xml version="1.0" encoding="UTF-8"?><svg id="Layer_1" xmlns="http://www.w3.org/2000/svg" viewBox="0 0 24 24"><path d="M12,23c-1.87,0-3.58-.42-5.15-1.27s-2.85-1.98-3.85-3.4v1.67c0,.28-.1.52-.29.71-.19.19-.43.29-.71.29s-.52-.1-.71-.29c-.19-.19-.29-.43-.29-.71v-4c0-.28.1-.52.29-.71.19-.19.43-.29.71-.29h4c.28,0,.52.1.71.29s.29.43.29.71-.1.52-.29.71-.43.29-.71.29h-1.47c.8,1.2,1.85,2.17,3.16,2.9,1.31.73,2.75,1.1,4.31,1.1,2.35,0,4.37-.78,6.06-2.35,1.69-1.57,2.65-3.49,2.89-5.77.03-.27.15-.48.35-.64.2-.16.43-.24.7-.24.28,0,.52.09.73.26.2.18.28.39.25.64-.12,1.42-.48,2.74-1.1,3.96-.62,1.23-1.42,2.29-2.4,3.2-.98.91-2.11,1.62-3.39,2.15-1.28.52-2.64.79-4.09.79ZM12,3c-2.35,0-4.37.78-6.06,2.35-1.69,1.57-2.65,3.49-2.89,5.78-.03.27-.15.48-.35.64-.2.16-.43.24-.7.24-.28,0-.52-.09-.73-.26-.2-.18-.28-.39-.25-.64.12-1.42.48-2.74,1.1-3.96.62-1.22,1.42-2.29,2.4-3.2.98-.91,2.11-1.62,3.39-2.15,1.27-.52,2.64-.79,4.09-.79,1.87,0,3.58.42,5.15,1.28,1.57.85,2.85,1.98,3.85,3.4v-1.68c0-.28.1-.52.29-.71.19-.19.43-.29.71-.29s.52.1.71.29c.19.19.29.43.29.71v4c0,.28-.1.52-.29.71-.19.19-.43.29-.71.29h-4c-.28,0-.52-.1-.71-.29-.19-.19-.29-.43-.29-.71s.1-.52.29-.71.43-.29.71-.29h1.48c-.8-1.2-1.85-2.17-3.16-2.9-1.31-.73-2.75-1.1-4.31-1.1ZM12,18c.35,0,.65-.12.89-.36.24-.24.36-.54.36-.89s-.12-.65-.36-.9-.54-.38-.89-.38-.65.12-.89.36c-.24.24-.36.54-.36.89s.12.65.36.9.54.38.89.38ZM14,11.75c.58-.58.97-1.05,1.16-1.41.19-.36.29-.79.29-1.29,0-.93-.33-1.68-1-2.23-.67-.55-1.48-.82-2.45-.82-.67,0-1.26.14-1.77.41-.52.28-.94.68-1.28,1.21-.13.22-.15.45-.06.7s.25.43.49.53c.23.1.46.09.68-.03.22-.12.41-.27.57-.47.17-.2.37-.36.6-.48.23-.12.49-.18.77-.18.45,0,.83.13,1.14.39.31.26.46.6.46,1.04,0,.28-.07.57-.2.85-.13.28-.42.62-.85,1-.42.37-.73.72-.94,1.07-.21.35-.35.75-.44,1.2-.03.25.03.47.2.66s.38.29.65.29c.25,0,.46-.1.62-.29.17-.19.28-.41.35-.66.07-.28.18-.53.34-.75.16-.22.38-.47.66-.75Z"/></svg>