<?xml version="1.0" encoding="UTF-8"?><svg id="Layer_1" xmlns="http://www.w3.org/2000/svg" viewBox="0 0 24 24"><path d="M14,15c.28,0,.53-.1.74-.31.21-.21.31-.45.31-.74s-.1-.53-.31-.74c-.21-.21-.45-.31-.74-.31s-.53.1-.74.31c-.21.21-.31.45-.31.74s.1.53.31.74c.21.21.45.31.74.31ZM14,11.8c.18,0,.35-.07.51-.2.16-.13.25-.31.29-.53.03-.2.1-.38.21-.55.11-.17.3-.39.59-.67.5-.5.83-.9,1-1.21.17-.31.25-.67.25-1.09,0-.75-.26-1.36-.79-1.84-.52-.47-1.21-.71-2.06-.71-.55,0-1.05.12-1.5.38s-.81.61-1.07,1.07c-.1.17-.11.34-.03.53.08.18.23.32.43.4.18.08.36.09.54.03.18-.07.32-.18.44-.35.15-.22.32-.38.52-.49s.43-.16.68-.16c.4,0,.73.11.98.34.25.22.38.53.38.91,0,.23-.07.45-.2.66-.13.21-.37.47-.7.79-.48.42-.79.74-.93.96-.13.23-.22.55-.25.99-.02.2.05.38.19.52.14.15.32.23.54.23ZM8,18c-.55,0-1.02-.2-1.41-.59-.39-.39-.59-.86-.59-1.41V4c0-.55.2-1.02.59-1.41.39-.39.86-.59,1.41-.59h12c.55,0,1.02.2,1.41.59.39.39.59.86.59,1.41v12c0,.55-.2,1.02-.59,1.41-.39.39-.86.59-1.41.59h-12ZM4,22c-.55,0-1.02-.2-1.41-.59-.39-.39-.59-.86-.59-1.41V7c0-.28.1-.52.29-.71.19-.19.43-.29.71-.29s.52.1.71.29c.19.19.29.43.29.71v13h13c.28,0,.52.1.71.29s.29.43.29.71-.1.52-.29.71-.43.29-.71.29H4Z"/></svg>