<?xml version="1.0" encoding="UTF-8"?><svg id="Layer_1" xmlns="http://www.w3.org/2000/svg" viewBox="0 0 24 24"><path d="M12,3.04c3.54,0,7,6.19,7,10.82,0,4.16-2.94,7.18-7,7.18s-7-3.02-7-7.18c0-4.62,3.46-10.82,7-10.82M12,1.04C7.03,1.04,3,8.34,3,13.86s4.03,9.18,9,9.18,9-3.66,9-9.18S16.97,1.04,12,1.04h0Z"/><path d="M6.68,12.61s-.06,0-.09,0c-.37-.05-.63-.39-.58-.76.33-2.56,1.67-5.26,3.34-6.73.28-.25.71-.22.95.06.25.28.22.71-.06.95-1.42,1.25-2.61,3.67-2.9,5.89-.04.34-.33.59-.67.59Z"/><circle cx="11.33" cy="4.67" r=".67"/><path d="M11.98,18.37c.31,0,.58-.11.79-.32.22-.22.32-.48.32-.79s-.11-.58-.32-.79c-.22-.22-.48-.32-.79-.32s-.58.11-.79.32c-.22.22-.32.48-.32.79s.11.58.32.79c.22.22.48.32.79.32Z"/><path d="M12.11,9.15c.37,0,.7.12.97.36.28.24.41.54.41.89,0,.33-.1.62-.3.87-.2.25-.43.49-.68.72-.34.3-.65.63-.91.98-.26.36-.39.76-.39,1.21,0,.21.08.38.23.53.16.14.34.21.55.21.22,0,.41-.07.57-.22.16-.15.26-.34.3-.56.06-.31.19-.59.4-.84.21-.25.43-.48.67-.7.34-.33.64-.69.88-1.07.25-.39.37-.82.37-1.3,0-.76-.31-1.38-.93-1.87s-1.34-.73-2.16-.73c-.57,0-1.11.12-1.62.36-.51.24-.91.6-1.17,1.1-.1.18-.14.37-.1.57.04.2.14.35.3.46.21.12.43.16.65.11.22-.04.41-.17.56-.38.16-.22.37-.4.62-.51.25-.12.5-.18.77-.18Z"/></svg>