<?xml version="1.0" encoding="UTF-8"?><svg id="Layer_1" xmlns="http://www.w3.org/2000/svg" viewBox="0 0 24 24"><path d="M8.44,12.77s.04,0,.06,0c.25,0,.46-.18.5-.44.25-1.94,1.29-4.06,2.53-5.15.21-.18.23-.5.05-.71-.18-.21-.5-.23-.71-.04-1.43,1.26-2.58,3.58-2.86,5.77-.04.27.16.52.43.56Z"/><circle cx="12.52" cy="6" r=".5"/><path d="M14,16.5h2.84c.02.05.05.1.1.15l1.41,1.41c.1.1.23.15.35.15s.26-.05.35-.15c.2-.2.2-.51,0-.71l-.85-.85h.79c.28,0,.5-.22.5-.5s-.22-.5-.5-.5h-5c-.28,0-.5.22-.5.5s.22.5.5.5Z"/><path d="M7.1,16.74l-1.64-1.15c-.23-.16-.54-.1-.7.12-.16.23-.1.54.12.7l.5.35h-.39c-.28,0-.5.22-.5.5s.22.5.5.5h1.93l-.31.18c-.24.14-.32.44-.18.68.09.16.26.25.43.25.08,0,.17-.02.25-.07l1.73-1s.03-.03.05-.04h1.1c.28,0,.5-.22.5-.5s-.22-.5-.5-.5h-2.88s-.01-.01-.02-.02Z"/><path d="M15,19.19h-1.44s.74-.87.74-.87c.18-.21.15-.53-.06-.7-.21-.18-.53-.15-.7.06l-1.28,1.53h-2.25c-.28.01-.5.24-.5.51,0,.27.23.5.5.5h0l5-.02c.28,0,.5-.23.5-.5s-.23-.5-.5-.5Z"/><path d="M12.5,16.5c.28,0,.5-.22.5-.5s-.22-.5-.5-.5-.5.22-.5.5.22.5.5.5Z"/><circle cx="8.07" cy="19.72" r=".5"/><circle cx="17.62" cy="19.72" r=".5"/><path d="M23.07,15.88c-.19-.2-.51-.2-.71,0l-.37.36v-1.23c0-.83-.5-1.53-1.22-1.84l.48-1.31c.09-.26-.04-.55-.3-.64-.26-.09-.55.04-.64.3l-.54,1.5h-.81c.01-.19.03-.39.03-.59,0-4.29-3.13-9.97-7-9.97s-7,5.68-7,9.97c0,.02,0,.04,0,.06l-.92-.92c-.2-.2-.51-.2-.71,0s-.2.51,0,.71l.74.74h-.12c-1.1,0-2,.9-2,2v2c0,.51.07,1,.19,1.47h-.28c-.28,0-.5.22-.5.5s.22.5.5.5h.63c.1.21.21.42.33.62l-.81.56c-.23.16-.28.47-.13.7.1.14.25.22.41.22.1,0,.2-.03.28-.09l.83-.57c1.1,1.28,2.73,2.1,4.55,2.1h8c3.09,0,5.63-2.33,5.96-5.33l1.1-1.08c.2-.19.2-.51,0-.71ZM12,4.44c2.29,0,5,4.32,5,7.97,0,.2-.02.39-.05.59h-.78l.31-.85c.09-.26-.04-.55-.3-.64-.26-.09-.55.04-.64.3l-.43,1.19h-.79l-1.01-1.01c-.2-.2-.51-.2-.71,0s-.2.51,0,.71l.3.3h-5.87c-.02-.19-.05-.38-.05-.59,0-3.65,2.71-7.97,5-7.97ZM20,17c0,2.21-1.79,4-4,4h-8c-1.28,0-2.41-.62-3.15-1.56.2-.06.35-.25.35-.47,0-.28-.22-.5-.5-.5h-.41c-.18-.46-.29-.95-.29-1.47v-2h2.12l.16.16c.1.1.23.15.35.15s.26-.05.35-.15c.05-.05.08-.1.1-.16h12.91v2Z"/></svg>