<?xml version="1.0" encoding="UTF-8"?><svg id="Layer_1" xmlns="http://www.w3.org/2000/svg" viewBox="0 0 24 24"><path d="M13.06,5.53c-.44.43-.52,1.07-.18,1.43.35.36.99.29,1.43-.14.44-.43.52-1.07.18-1.43-.35-.36-.99-.29-1.43.14Z"/><path d="M18.72,12.62l-.48-2.67c.67-.98,1.03-2.15,1.03-3.36,0-1.6-.62-3.11-1.76-4.24-1.13-1.13-2.64-1.76-4.24-1.76s-3.11.62-4.24,1.76c-1.13,1.13-1.76,2.64-1.76,4.24,0,1.4.48,2.73,1.35,3.8-1.41.88-2.35,2.43-2.35,4.2,0,.56.11,1.09.29,1.6l-.85.23c-.66.18-1.15.67-1.33,1.33-.18.66,0,1.34.49,1.82l1.44,1.44c.36.36.83.55,1.32.55.16,0,.33-.02.5-.07.59-.16,1.03-.58,1.25-1.13v1.64c0,.55.45,1,1,1s1-.45,1-1v-2.42c.22,0,.42-.03.63-.06v2.48c0,.55.45,1,1,1s1-.45,1-1v-3.23c1.36-.89,2.27-2.43,2.27-4.18,0-.91-.26-1.74-.69-2.47.04-.02.08-.03.12-.05l3.02.55ZM10.28,11.77c.08.05.16.11.25.16.22.11.45.19.68.28-.29,1.36-1.49,2.38-2.93,2.38,0-1.31.84-2.41,2.01-2.82ZM7.57,19.44l-1.15-1.15,1.19-.32c.09.1.18.19.28.28l-.32,1.19ZM11.27,17.59c-.92,0-1.73-.42-2.28-1.07,2.09-.31,3.76-1.88,4.18-3.93.03,0,.07,0,.1,0,.07,0,.14,0,.21-.01.49.53.79,1.23.79,2.01,0,1.65-1.35,3-3,3ZM10.44,9.42c-.76-.76-1.17-1.76-1.17-2.83s.42-2.07,1.17-2.83c.76-.76,1.76-1.17,2.83-1.17s2.07.42,2.83,1.17c.76.76,1.17,1.76,1.17,2.83s-.42,2.07-1.17,2.83c-1.51,1.51-4.15,1.51-5.66,0Z"/></svg>