<?xml version="1.0" encoding="UTF-8"?><svg id="Layer_1" xmlns="http://www.w3.org/2000/svg" viewBox="0 0 24 24"><path d="M4,17v2h16v-2H4ZM4,6h2.2c-.08-.15-.14-.31-.16-.47-.03-.17-.04-.34-.04-.53,0-.83.29-1.54.88-2.12s1.29-.88,2.12-.88c.5,0,.96.13,1.39.39.42.26.8.58,1.11.96l.5.65.5-.65c.3-.4.67-.72,1.1-.97s.9-.38,1.4-.38c.83,0,1.54.29,2.12.88s.88,1.29.88,2.12c0,.18-.01.36-.04.53-.03.17-.08.32-.16.47h2.2c.55,0,1.02.2,1.41.59.39.39.59.86.59,1.41v11c0,.55-.2,1.02-.59,1.41-.39.39-.86.59-1.41.59H4c-.55,0-1.02-.2-1.41-.59-.39-.39-.59-.86-.59-1.41v-11c0-.55.2-1.02.59-1.41.39-.39.86-.59,1.41-.59ZM4,14h16v-6h-5.1l1.5,2.05c.17.23.23.48.2.74-.03.26-.17.47-.4.64-.23.17-.48.23-.74.19-.26-.04-.47-.17-.64-.39l-2.82-3.83-2.82,3.83c-.17.22-.38.35-.64.39-.26.04-.5-.02-.74-.19-.23-.17-.37-.38-.41-.64-.04-.26.02-.5.19-.74l1.48-2.05h-5.05v6ZM9,6c.28,0,.52-.1.71-.29.19-.19.29-.43.29-.71s-.1-.52-.29-.71c-.19-.19-.43-.29-.71-.29s-.52.1-.71.29c-.19.19-.29.43-.29.71s.1.52.29.71c.19.19.43.29.71.29ZM15,6c.28,0,.52-.1.71-.29s.29-.43.29-.71-.1-.52-.29-.71-.43-.29-.71-.29-.52.1-.71.29-.29.43-.29.71.1.52.29.71.43.29.71.29Z"/></svg>