<?xml version="1.0" encoding="UTF-8"?><svg id="Layer_1" xmlns="http://www.w3.org/2000/svg" viewBox="0 0 24 24"><path d="M12,20c-2.23,0-4.12-.77-5.68-2.33-1.55-1.55-2.32-3.44-2.32-5.67s.78-4.12,2.32-5.68c1.55-1.55,3.44-2.32,5.68-2.32,1.15,0,2.25.24,3.3.71s1.95,1.15,2.7,2.04v-1.75c0-.28.1-.52.29-.71s.43-.29.71-.29.52.1.71.29.29.43.29.71v5c0,.28-.1.52-.29.71s-.43.29-.71.29h-5c-.28,0-.52-.1-.71-.29s-.29-.43-.29-.71.1-.52.29-.71c.19-.19.43-.29.71-.29h3.2c-.53-.93-1.26-1.67-2.19-2.2-.93-.53-1.93-.8-3.01-.8-1.67,0-3.08.58-4.25,1.75s-1.75,2.58-1.75,4.25.58,3.08,1.75,4.25,2.58,1.75,4.25,1.75c1.13,0,2.17-.29,3.11-.86.94-.58,1.67-1.35,2.19-2.31.13-.23.32-.4.56-.49.24-.09.49-.1.74-.01.27.08.46.26.57.53.12.27.11.52-.02.75-.68,1.33-1.66,2.4-2.92,3.2-1.27.8-2.68,1.2-4.23,1.2Z"/></svg>