<?xml version="1.0" encoding="UTF-8"?><svg id="Layer_1" xmlns="http://www.w3.org/2000/svg" viewBox="0 0 24 24"><path d="M13.02,10.5h-.02v-1.63c1.73-.44,3-2.01,3-3.87,0-2.21-1.79-4-4-4s-4,1.79-4,4c0,1.86,1.27,3.43,3,3.87v1.63h-3c-1.66,0-3,1.34-3,3v1.63c-1.73.44-3,2.01-3,3.87,0,2.21,1.79,4,4,4s4-1.79,4-4c0-1.86-1.27-3.43-3-3.87v-1.63c0-.55.45-1,1-1h5.02c.55,0,1-.45,1-1s-.45-1-1-1ZM8,19c0,1.1-.9,2-2,2s-2-.9-2-2,.9-2,2-2,2,.9,2,2ZM10,5c0-1.1.9-2,2-2s2,.9,2,2-.9,2-2,2-2-.9-2-2Z"/><path d="M21,15h-2.8c-.06-.01-.13-.02-.2-.02s-.14,0-.2.02h-2.8c-.55,0-1,.45-1,1v6c0,.55.45,1,1,1h6c.55,0,1-.45,1-1v-6c0-.55-.45-1-1-1ZM20,21h-4v-4h4v4Z"/><path d="M17,13.52v.1c.06.5.48.9,1,.9s.94-.39,1-.9v-.1s0-.06,0-.06c0-.55-.46-.99-1.01-.99-.55,0-.99.46-.99,1.01v.03Z"/><path d="M14.98,11.5c0,.55.45,1,1,1h.04c.55,0,1-.44,1.01-.99,0-.55-.44-1.01-.99-1.01h-.06c-.55,0-1,.45-1,1Z"/></svg>