<?xml version="1.0" encoding="UTF-8"?><svg id="Layer_1" xmlns="http://www.w3.org/2000/svg" viewBox="0 0 24 24"><path d="M12,1c2.21,0,4,1.79,4,4,0,1.86-1.27,3.43-3,3.87v1.63h3c1.66,0,3,1.34,3,3v1.63c1.73.44,3,2.01,3,3.87,0,2.21-1.79,4-4,4s-4-1.79-4-4c0-1.86,1.27-3.43,3-3.87v-1.63c0-.55-.45-1-1-1h-8c-.55,0-1,.45-1,1v1.63c1.73.44,3,2.01,3,3.87,0,2.21-1.79,4-4,4s-4-1.79-4-4c0-1.86,1.27-3.43,3-3.87v-1.63c0-1.66,1.34-3,3-3h3v-1.63c-1.73-.44-3-2.01-3-3.87,0-2.21,1.79-4,4-4ZM6,17c-1.1,0-2,.9-2,2s.9,2,2,2,2-.9,2-2-.9-2-2-2ZM18,17c-1.1,0-2,.9-2,2s.9,2,2,2,2-.9,2-2-.9-2-2-2ZM12,3c-1.1,0-2,.9-2,2s.9,2,2,2,2-.9,2-2-.9-2-2-2Z" style="fill-rule:evenodd;"/></svg>