<?xml version="1.0" encoding="UTF-8"?><svg id="Layer_1" xmlns="http://www.w3.org/2000/svg" viewBox="0 0 24 24"><path d="M6.8,13l2.9,2.9c.18.18.28.42.28.7s-.09.52-.28.7c-.18.18-.42.28-.7.28s-.52-.09-.7-.28l-4.6-4.6c-.1-.1-.17-.21-.21-.32-.04-.12-.06-.24-.06-.38s.02-.26.06-.38c.04-.12.11-.23.21-.32l4.6-4.6c.18-.18.42-.28.7-.28s.52.09.7.28c.18.18.28.42.28.7s-.09.52-.28.7l-2.9,2.9h12.2v-3c0-.28.1-.52.29-.71s.43-.29.71-.29.52.1.71.29.29.43.29.71v3c0,.55-.2,1.02-.59,1.41-.39.39-.86.59-1.41.59H6.8Z"/></svg>