<?xml version="1.0" encoding="UTF-8"?><svg id="Layer_1" xmlns="http://www.w3.org/2000/svg" viewBox="0 0 24 24"><path d="M14,20c.28,0,.52.1.71.29s.29.43.29.71-.1.52-.29.71-.43.29-.71.29h-4c-.28,0-.52-.1-.71-.29-.19-.19-.29-.43-.29-.71s.1-.52.29-.71c.19-.19.43-.29.71-.29h4Z"/><path d="M12,2c1.95,0,3.6.68,4.96,2.04,1.36,1.36,2.04,3.01,2.04,4.96,0,1.15-.26,2.23-.79,3.24-.52,1.01-1.26,1.85-2.21,2.51v1.25c0,.55-.2,1.02-.59,1.41s-.86.59-1.41.59h-4c-.55,0-1.02-.2-1.41-.59-.39-.39-.59-.86-.59-1.41v-1.25c-.95-.65-1.69-1.48-2.21-2.5-.52-1.02-.79-2.1-.79-3.25,0-1.95.68-3.6,2.04-4.96,1.36-1.36,3.01-2.04,4.96-2.04ZM12.22,6.05c-.11-.03-.2,0-.29.1l-2.5,3.57c-.12.17-.13.34-.04.51.09.17.24.26.44.26h1.55v2.2c0,.13.05.22.16.25.11.03.2,0,.29-.1l2.5-3.57c.12-.17.13-.34.04-.51-.09-.17-.24-.26-.44-.26h-1.55v-2.2c0-.13-.05-.22-.16-.25Z" style="fill-rule:evenodd;"/></svg>