<?xml version="1.0" encoding="UTF-8"?><svg id="Layer_1" xmlns="http://www.w3.org/2000/svg" viewBox="0 0 24 24"><path d="M10,18c-.55,0-1.02-.2-1.41-.59-.39-.39-.59-.86-.59-1.41v-1.25c-.95-.65-1.69-1.48-2.21-2.5-.53-1.02-.79-2.1-.79-3.25,0-1.95.68-3.6,2.04-4.96,1.36-1.36,3.01-2.04,4.96-2.04s3.6.68,4.96,2.04c1.36,1.36,2.04,3.01,2.04,4.96,0,1.15-.26,2.23-.79,3.24-.53,1.01-1.26,1.85-2.21,2.51v1.25c0,.55-.2,1.02-.59,1.41-.39.39-.86.59-1.41.59h-4ZM10,16h4v-1.77c0-.17.04-.33.11-.48.07-.15.18-.27.31-.35l.43-.3c.68-.47,1.21-1.06,1.59-1.79s.56-1.5.56-2.31c0-1.38-.49-2.56-1.46-3.54-.98-.97-2.15-1.46-3.54-1.46s-2.56.49-3.54,1.46c-.97.97-1.46,2.15-1.46,3.54,0,.82.19,1.59.56,2.31s.9,1.32,1.59,1.79l.43.3c.13.08.24.2.31.35.07.15.11.31.11.48v1.77ZM10,22c-.28,0-.52-.1-.71-.29-.19-.19-.29-.43-.29-.71s.1-.52.29-.71c.19-.19.43-.29.71-.29h4c.28,0,.52.1.71.29s.29.43.29.71-.1.52-.29.71-.43.29-.71.29h-4Z"/><path d="M11.39,10.5h-1.55c-.2,0-.35-.09-.44-.26-.09-.18-.08-.35.04-.51l2.5-3.58c.08-.1.18-.13.29-.1.11.03.16.12.16.25v2.2h1.55c.2,0,.35.09.44.26.09.18.08.35-.04.51l-2.5,3.58c-.08.1-.18.13-.29.1-.11-.03-.16-.12-.16-.25v-2.2Z"/></svg>