<?xml version="1.0" encoding="UTF-8"?><svg id="Layer_1" xmlns="http://www.w3.org/2000/svg" viewBox="0 0 24 24"><path d="M7.1,11.35c.23-.47.47-.92.72-1.35.25-.43.53-.87.83-1.3l-1.4-.27-2.1,2.1,1.95.83ZM19.15,4.47c-1.17.03-2.41.38-3.74,1.03-1.32.65-2.53,1.52-3.61,2.6-.7.7-1.32,1.45-1.88,2.25-.55.8-.96,1.55-1.23,2.25l2.85,2.82c.7-.27,1.45-.68,2.25-1.23s1.55-1.18,2.25-1.88c1.08-1.08,1.95-2.28,2.6-3.6.65-1.32.99-2.56,1.03-3.73,0-.07-.01-.13-.04-.2s-.06-.12-.11-.18c-.05-.05-.11-.09-.17-.11-.07-.03-.13-.04-.2-.04ZM13.65,10.48c-.38-.38-.58-.85-.58-1.41s.19-1.03.58-1.41.86-.57,1.42-.57,1.04.19,1.43.57c.38.38.58.85.58,1.41s-.19,1.03-.58,1.41c-.38.38-.86.57-1.43.57s-1.04-.19-1.42-.57ZM12.8,17.02l.82,1.98,2.1-2.1-.28-1.4c-.43.3-.87.57-1.3.81-.43.24-.88.48-1.35.71ZM21.57,3.67c.13,1.83-.17,3.62-.9,5.36-.73,1.74-1.89,3.4-3.48,4.99l.5,2.48c.07.33.05.66-.05.98-.1.32-.27.59-.5.82l-3.15,3.15c-.25.25-.55.35-.9.29-.35-.06-.59-.25-.73-.59l-1.52-3.57-4.28-4.28-3.58-1.53c-.33-.13-.53-.38-.6-.72-.07-.35.02-.65.27-.9l3.15-3.15c.23-.23.51-.4.84-.5.32-.1.65-.12.99-.05l2.47.5c1.58-1.58,3.25-2.74,4.99-3.48s3.53-1.03,5.36-.9c.13.02.27.05.4.11.13.06.25.14.35.24.1.1.18.22.24.35.06.13.1.27.11.4ZM3.92,15.98c.58-.58,1.3-.88,2.14-.89.84,0,1.55.28,2.14.86.58.58.87,1.3.86,2.14,0,.84-.3,1.55-.89,2.14-.8.8-1.75,1.27-2.84,1.42-1.09.15-2.19.3-3.29.45.15-1.1.3-2.2.45-3.29.15-1.09.62-2.04,1.42-2.84ZM5.35,17.38c-.28.28-.48.62-.59,1.02-.11.4-.2.81-.26,1.23.42-.07.82-.15,1.22-.25s.74-.29,1.03-.58c.2-.2.31-.44.32-.72.02-.28-.07-.53-.28-.73-.2-.2-.44-.3-.72-.29-.28,0-.53.11-.72.31Z"/></svg>