<?xml version="1.0" encoding="UTF-8"?><svg id="Layer_1" xmlns="http://www.w3.org/2000/svg" viewBox="0 0 24 24"><path d="M4.25,12.05c-.35,0-.63-.12-.84-.38s-.27-.54-.19-.88c.1-.42.23-.82.4-1.2.17-.38.36-.76.58-1.12.17-.28.41-.44.74-.48.33-.03.61.07.86.3.15.15.24.34.28.56.03.22,0,.43-.12.61-.17.28-.31.58-.44.89-.12.31-.23.62-.31.94-.05.22-.17.4-.36.54-.19.14-.39.21-.59.21ZM10.95,20.75c0,.37-.12.65-.38.85-.25.2-.54.26-.87.17-.4-.12-.79-.25-1.18-.41-.38-.16-.77-.35-1.15-.56-.28-.17-.44-.41-.47-.74s.07-.61.3-.86c.15-.15.34-.24.56-.28.22-.03.43,0,.61.12.28.17.58.31.89.44.31.12.62.23.94.31.22.05.4.17.54.36.14.19.21.39.21.59ZM5.8,17.8c-.25.23-.54.33-.86.3-.32-.03-.57-.19-.74-.48-.22-.38-.4-.77-.56-1.15-.16-.38-.3-.78-.41-1.18-.08-.33-.03-.62.17-.88s.48-.38.85-.38c.22,0,.42.07.6.21.18.14.3.32.35.54.08.32.19.63.31.94.12.31.27.6.44.89.12.18.16.39.12.62-.03.23-.12.42-.28.55ZM14.18,21.75c-.33.08-.62.02-.86-.17-.24-.2-.36-.48-.36-.83,0-.22.07-.42.21-.6.14-.18.32-.3.54-.35,1.53-.4,2.79-1.22,3.78-2.46.98-1.24,1.47-2.67,1.47-4.29,0-1.95-.68-3.6-2.04-4.96-1.36-1.36-3.01-2.04-4.96-2.04h-.2l.9.9c.18.18.28.42.28.7s-.09.52-.28.7c-.18.18-.42.27-.7.27s-.52-.09-.7-.27l-2.6-2.6c-.1-.1-.17-.21-.21-.32-.04-.12-.06-.24-.06-.38s.02-.26.06-.38c.04-.12.11-.23.21-.33l2.57-2.6c.2-.18.44-.27.73-.27s.52.09.7.27c.2.2.3.44.3.73s-.09.52-.27.7l-.88.88h.15c2.5,0,4.62.88,6.37,2.62s2.62,3.88,2.62,6.38c0,2.07-.63,3.9-1.9,5.5-1.27,1.6-2.89,2.67-4.87,3.2Z"/></svg>