<?xml version="1.0" encoding="UTF-8"?><svg id="Layer_1" xmlns="http://www.w3.org/2000/svg" viewBox="0 0 24 24"><path d="M21,18c-.28,0-.52-.1-.71-.29s-.29-.43-.29-.71v-6c0-.28.1-.52.29-.71s.43-.29.71-.29.52.1.71.29.29.43.29.71v6c0,.28-.1.52-.29.71s-.43.29-.71.29ZM21,22c-.28,0-.52-.1-.71-.29s-.29-.43-.29-.71.1-.52.29-.71.43-.29.71-.29.52.1.71.29.29.43.29.71-.1.52-.29.71-.43.29-.71.29ZM12,22c-1.38,0-2.68-.26-3.9-.79-1.22-.52-2.28-1.24-3.18-2.14-.9-.9-1.61-1.96-2.14-3.18-.52-1.22-.79-2.52-.79-3.9s.26-2.68.79-3.9c.52-1.22,1.24-2.28,2.14-3.18.9-.9,1.96-1.61,3.18-2.14,1.22-.52,2.52-.79,3.9-.79,1.25,0,2.48.23,3.69.7,1.21.47,2.26,1.15,3.16,2.05.2.2.3.43.3.7s-.1.5-.3.7l-5.15,5.15c-.32.32-.68.39-1.09.21-.41-.18-.61-.49-.61-.94v-6.57c-2.23,0-4.12.78-5.68,2.32-1.55,1.55-2.32,3.44-2.32,5.68s.78,4.12,2.32,5.67c1.55,1.55,3.44,2.33,5.68,2.33.9,0,1.77-.15,2.6-.46.83-.31,1.6-.73,2.3-1.26.23-.18.48-.25.75-.2.27.05.48.19.65.42.17.23.23.49.19.76-.04.27-.18.5-.41.66-.9.67-1.86,1.18-2.89,1.54-1.02.36-2.09.54-3.19.54Z"/></svg>