<?xml version="1.0" encoding="UTF-8"?><svg id="Layer_1" xmlns="http://www.w3.org/2000/svg" viewBox="0 0 24 24"><path d="M21.98,10.38v-.12l-.75-3c-.11-.44-.51-.76-.97-.76h-2.75v-.5c0-.33-.17-.65-.45-.83l-4.51-3c-.34-.22-.77-.22-1.11,0l-4.5,3c-.28.19-.45.5-.45.83v.5h-2.74c-.46,0-.86.31-.97.76l-.75,3v.12s-.02.08-.02.12v10.5c0,.55.45,1,1,1h18c.55,0,1-.45,1-1v-10.5s-.02-.08-.02-.12h-.01ZM19.47,8.5l.25,1h-2.22v-1h1.97ZM8.5,6.54l3.5-2.33,3.5,2.33v13.46h-2.75v-3.5c0-.41-.34-.75-.75-.75s-.75.34-.75.75v3.5h-2.75V6.53h0ZM4,11.5h2.5v8.5h-2.5v-8.5ZM6.5,8.5v1h-2.22l.25-1h1.97ZM20,20h-2.5v-8.5h2.5v8.5Z"/><path d="M12,10.5c1.24,0,2.25-1.01,2.25-2.25s-1.01-2.25-2.25-2.25-2.25,1.01-2.25,2.25,1.01,2.25,2.25,2.25ZM12,7.5c.41,0,.75.34.75.75s-.34.75-.75.75-.75-.34-.75-.75.34-.75.75-.75Z"/><path d="M5.25,14.5c.55,0,1-.45,1-1s-.45-1-1-1-1,.45-1,1,.45,1,1,1Z"/><path d="M5.25,17.5c.55,0,1-.45,1-1s-.45-1-1-1-1,.45-1,1,.45,1,1,1Z"/><path d="M18.75,14.5c.55,0,1-.45,1-1s-.45-1-1-1-1,.45-1,1,.45,1,1,1Z"/><path d="M18.75,17.5c.55,0,1-.45,1-1s-.45-1-1-1-1,.45-1,1,.45,1,1,1Z"/></svg>