<?xml version="1.0" encoding="UTF-8"?><svg id="Layer_1" xmlns="http://www.w3.org/2000/svg" viewBox="0 0 24 24"><path d="M10.6,13.4l-2.15-2.15c-.18-.18-.42-.27-.7-.27s-.52.09-.7.27c-.18.18-.28.42-.28.7s.09.52.28.7l2.85,2.85c.2.2.43.3.7.3s.5-.1.7-.3l5.65-5.65c.18-.18.27-.42.27-.7s-.09-.52-.27-.7c-.18-.18-.42-.27-.7-.27s-.52.09-.7.27l-4.95,4.95ZM5,21c-.55,0-1.02-.2-1.41-.59-.39-.39-.59-.86-.59-1.41V5c0-.55.2-1.02.59-1.41s.86-.59,1.41-.59h14c.55,0,1.02.2,1.41.59.39.39.59.86.59,1.41v14c0,.55-.2,1.02-.59,1.41-.39.39-.86.59-1.41.59H5ZM5,19h14V5H5v14Z"/></svg>