<?xml version="1.0" encoding="UTF-8"?><svg id="Layer_1" xmlns="http://www.w3.org/2000/svg" viewBox="0 0 24 24"><path d="M12,17.5c.88,0,1.72-.19,2.51-.58.79-.38,1.43-.94,1.91-1.67.18-.28.21-.56.08-.84-.13-.28-.35-.41-.65-.41-.13,0-.25.03-.36.09s-.2.15-.26.26c-.38.52-.86.92-1.43,1.21s-1.17.44-1.8.44-1.23-.15-1.8-.44c-.57-.29-1.04-.7-1.43-1.21-.08-.12-.18-.2-.29-.26s-.23-.09-.36-.09c-.3,0-.52.13-.65.4-.13.27-.11.53.08.8.48.75,1.12,1.32,1.91,1.71.79.39,1.64.59,2.54.59ZM15.5,11c.42,0,.77-.15,1.06-.44.29-.29.44-.65.44-1.06s-.15-.77-.44-1.06c-.29-.29-.65-.44-1.06-.44s-.77.15-1.06.44c-.29.29-.44.65-.44,1.06s.15.77.44,1.06c.29.29.65.44,1.06.44ZM8.5,11c.42,0,.77-.15,1.06-.44.29-.29.44-.65.44-1.06s-.15-.77-.44-1.06c-.29-.29-.65-.44-1.06-.44s-.77.15-1.06.44c-.29.29-.44.65-.44,1.06s.15.77.44,1.06c.29.29.65.44,1.06.44ZM12,22c-1.38,0-2.68-.26-3.9-.79-1.22-.52-2.28-1.24-3.18-2.14-.9-.9-1.61-1.96-2.14-3.18-.52-1.22-.79-2.52-.79-3.9s.26-2.68.79-3.9c.52-1.22,1.24-2.28,2.14-3.18.9-.9,1.96-1.61,3.18-2.14,1.22-.52,2.52-.79,3.9-.79s2.68.26,3.9.79c1.22.53,2.27,1.24,3.18,2.14.9.9,1.61,1.96,2.14,3.18.52,1.22.79,2.52.79,3.9s-.26,2.68-.79,3.9c-.53,1.22-1.24,2.27-2.14,3.18-.9.9-1.96,1.61-3.18,2.14s-2.52.79-3.9.79ZM12,20c2.23,0,4.12-.77,5.67-2.33,1.55-1.55,2.33-3.44,2.33-5.67s-.77-4.12-2.33-5.68c-1.55-1.55-3.44-2.32-5.67-2.32s-4.12.78-5.68,2.32c-1.55,1.55-2.32,3.44-2.32,5.68s.78,4.12,2.32,5.67c1.55,1.55,3.44,2.33,5.68,2.33Z"/></svg>