<?xml version="1.0" encoding="UTF-8"?><svg id="Layer_1" xmlns="http://www.w3.org/2000/svg" viewBox="0 0 24 24"><path d="M15.5,11c.42,0,.77-.15,1.06-.44.29-.29.44-.65.44-1.06s-.15-.77-.44-1.06c-.29-.29-.65-.44-1.06-.44s-.77.15-1.06.44c-.29.29-.44.65-.44,1.06s.15.77.44,1.06c.29.29.65.44,1.06.44ZM8.5,11c.42,0,.77-.15,1.06-.44.29-.29.44-.65.44-1.06s-.15-.77-.44-1.06c-.29-.29-.65-.44-1.06-.44s-.77.15-1.06.44c-.29.29-.44.65-.44,1.06s.15.77.44,1.06c.29.29.65.44,1.06.44ZM9.75,15.5h4.5c.22,0,.4-.07.54-.21.14-.14.21-.32.21-.54s-.07-.4-.21-.54c-.14-.14-.32-.21-.54-.21h-4.5c-.22,0-.4.07-.54.21-.14.14-.21.32-.21.54s.07.4.21.54c.14.14.32.21.54.21ZM12,22c-1.38,0-2.68-.26-3.9-.79-1.22-.52-2.28-1.24-3.18-2.14-.9-.9-1.61-1.96-2.14-3.18-.52-1.22-.79-2.52-.79-3.9s.26-2.68.79-3.9c.52-1.22,1.24-2.28,2.14-3.18.9-.9,1.96-1.61,3.18-2.14,1.22-.52,2.52-.79,3.9-.79s2.68.26,3.9.79c1.22.53,2.27,1.24,3.18,2.14.9.9,1.61,1.96,2.14,3.18.52,1.22.79,2.52.79,3.9s-.26,2.68-.79,3.9c-.53,1.22-1.24,2.27-2.14,3.18-.9.9-1.96,1.61-3.18,2.14s-2.52.79-3.9.79Z"/></svg>