<?xml version="1.0" encoding="UTF-8"?><svg id="Layer_1" xmlns="http://www.w3.org/2000/svg" viewBox="0 0 24 24"><path d="M12,13.5c-.9,0-1.75.2-2.54.59-.79.39-1.43.96-1.91,1.71-.18.27-.21.53-.08.8.13.27.35.4.65.4.13,0,.25-.03.36-.09s.2-.15.29-.26c.38-.52.86-.92,1.43-1.21.57-.29,1.17-.44,1.8-.44s1.23.15,1.8.44,1.04.7,1.43,1.21c.07.12.15.2.26.26s.23.09.36.09c.3,0,.52-.14.65-.41s.11-.55-.08-.84c-.48-.73-1.12-1.29-1.91-1.68-.79-.38-1.63-.57-2.51-.57ZM15.5,11c.42,0,.77-.15,1.06-.44s.44-.65.44-1.06-.15-.77-.44-1.06-.65-.44-1.06-.44-.77.15-1.06.44-.44.65-.44,1.06.15.77.44,1.06.65.44,1.06.44ZM8.5,11c.42,0,.77-.15,1.06-.44s.44-.65.44-1.06-.15-.77-.44-1.06-.65-.44-1.06-.44-.77.15-1.06.44-.44.65-.44,1.06.15.77.44,1.06.65.44,1.06.44ZM12,22c-1.38,0-2.68-.26-3.9-.79-1.22-.52-2.28-1.24-3.18-2.14-.9-.9-1.61-1.96-2.14-3.18-.52-1.22-.79-2.52-.79-3.9s.26-2.68.79-3.9c.53-1.22,1.24-2.28,2.14-3.18.9-.9,1.96-1.61,3.18-2.14,1.22-.52,2.52-.79,3.9-.79s2.68.26,3.9.79c1.22.53,2.27,1.24,3.18,2.14.9.9,1.61,1.96,2.14,3.18.52,1.22.79,2.52.79,3.9s-.26,2.68-.79,3.9-1.24,2.27-2.14,3.18c-.9.9-1.96,1.61-3.18,2.14s-2.52.79-3.9.79Z"/></svg>