<?xml version="1.0" encoding="UTF-8"?><svg id="Layer_1" xmlns="http://www.w3.org/2000/svg" viewBox="0 0 24 24"><path d="M12,22c-1.38,0-2.68-.26-3.9-.79-1.22-.52-2.28-1.24-3.18-2.14-.9-.9-1.61-1.96-2.14-3.18-.52-1.22-.79-2.52-.79-3.9s.26-2.68.79-3.9c.53-1.22,1.24-2.28,2.14-3.18.9-.9,1.96-1.61,3.18-2.14,1.22-.52,2.52-.79,3.9-.79s2.68.26,3.9.79c1.22.53,2.27,1.24,3.18,2.14.9.9,1.61,1.96,2.14,3.18.52,1.22.79,2.52.79,3.9s-.26,2.68-.79,3.9c-.53,1.22-1.24,2.27-2.14,3.18-.9.9-1.96,1.61-3.18,2.14s-2.52.79-3.9.79ZM15.5,12c.42,0,.77-.15,1.06-.44.29-.29.44-.65.44-1.06,0-.25-.06-.49-.17-.71-.12-.23-.28-.4-.48-.54l.23-.12c.13-.08.22-.19.25-.31.03-.12,0-.25-.08-.39-.08-.13-.18-.22-.3-.25-.12-.03-.24,0-.38.07l-2.65,1.5c-.13.07-.21.16-.24.29-.02.12,0,.25.06.39.08.13.19.22.31.26s.25.02.39-.06l.05-.02c.03.4.19.73.48,1,.28.27.62.4,1.02.4ZM8.5,12c.4,0,.74-.13,1.02-.4.28-.27.44-.6.48-1l.05.02c.13.08.26.11.39.07.12-.03.23-.12.31-.25.07-.13.08-.26.05-.39-.03-.12-.12-.23-.25-.31l-2.62-1.5c-.13-.07-.26-.08-.38-.05-.12.03-.22.12-.3.25-.08.13-.11.26-.07.38.03.12.12.22.25.3l.22.12c-.2.13-.36.31-.47.54-.12.22-.18.46-.18.71,0,.42.15.77.44,1.06.29.29.65.44,1.06.44ZM12,13c-1.18,0-2.23.38-3.12,1.14-.9.76-1.53,1.71-1.9,2.86h10.05c-.37-1.15-1-2.1-1.9-2.86s-1.94-1.14-3.12-1.14Z"/></svg>