<?xml version="1.0" encoding="UTF-8"?><svg id="Layer_1" xmlns="http://www.w3.org/2000/svg" viewBox="0 0 24 24"><path d="M12,18c1.1,0,2.04-.39,2.82-1.17.78-.78,1.18-1.73,1.18-2.83v-1c0-.28-.1-.52-.29-.71s-.43-.29-.71-.29h-6c-.28,0-.52.1-.71.29-.19.19-.29.43-.29.71v1c0,1.1.39,2.04,1.18,2.83.78.78,1.72,1.17,2.82,1.17ZM12,16.5c-.7,0-1.29-.24-1.77-.73-.48-.48-.73-1.07-.73-1.77v-.5h5v.5c0,.7-.24,1.29-.73,1.77-.48.48-1.07.73-1.77.73ZM8.5,7c-.57,0-1.07.18-1.5.55-.43.37-.77.82-1,1.35-.08.18-.07.36.04.53.11.17.26.27.46.32.18.05.37.03.55-.06.18-.09.32-.23.4-.41.12-.22.26-.4.44-.55.18-.15.38-.23.61-.23s.44.08.61.24.32.35.44.56c.08.18.22.32.4.4.18.08.37.1.55.05.2-.05.35-.16.46-.32.11-.17.12-.34.04-.53-.23-.53-.57-.98-1-1.35-.43-.37-.93-.55-1.5-.55ZM15.5,7c-.57,0-1.07.18-1.5.55-.43.37-.77.82-1,1.35-.08.18-.07.36.04.53.11.17.26.27.46.32.18.05.37.03.55-.06s.32-.23.4-.41c.12-.22.26-.4.44-.55.18-.15.38-.23.61-.23s.44.08.61.24c.18.16.32.35.44.56.08.18.22.32.4.4s.37.1.55.05c.2-.05.35-.16.46-.32.11-.17.12-.34.04-.53-.23-.53-.57-.98-1-1.35-.43-.37-.93-.55-1.5-.55ZM12,22c-1.38,0-2.68-.26-3.9-.79-1.22-.52-2.28-1.24-3.18-2.14-.9-.9-1.61-1.96-2.14-3.18-.52-1.22-.79-2.52-.79-3.9s.26-2.68.79-3.9c.53-1.22,1.24-2.28,2.14-3.18.9-.9,1.96-1.61,3.18-2.14,1.22-.52,2.52-.79,3.9-.79s2.68.26,3.9.79c1.22.53,2.27,1.24,3.18,2.14.9.9,1.61,1.96,2.14,3.18.52,1.22.79,2.52.79,3.9s-.26,2.68-.79,3.9-1.24,2.27-2.14,3.18c-.9.9-1.96,1.61-3.18,2.14s-2.52.79-3.9.79ZM12,20c2.23,0,4.12-.77,5.67-2.33,1.55-1.55,2.33-3.44,2.33-5.67s-.77-4.12-2.33-5.68c-1.55-1.55-3.44-2.32-5.67-2.32s-4.12.78-5.68,2.32c-1.55,1.55-2.32,3.44-2.32,5.68s.78,4.12,2.32,5.67c1.55,1.55,3.44,2.33,5.68,2.33Z"/></svg>