<?xml version="1.0" encoding="UTF-8"?><svg id="Layer_1" xmlns="http://www.w3.org/2000/svg" viewBox="0 0 24 24"><path d="M5.55,10.5c-.2-.08-.39-.17-.56-.26-.17-.09-.35-.2-.54-.34l-.72.23c-.22.07-.43.06-.64-.02-.21-.08-.37-.22-.49-.4l-.2-.35c-.12-.2-.16-.42-.12-.65.03-.23.14-.43.33-.57l.55-.47c-.03-.22-.05-.43-.05-.65s.02-.43.05-.65l-.55-.47c-.18-.15-.29-.34-.33-.56-.03-.22,0-.44.12-.64l.22-.38c.12-.18.28-.32.48-.4.2-.08.41-.09.62-.03l.72.22c.18-.13.36-.25.54-.34.18-.09.36-.18.56-.26l.15-.72c.05-.23.16-.42.34-.56.17-.14.38-.21.61-.21h.4c.23,0,.44.08.61.22.17.15.29.34.34.58l.15.7c.2.08.39.17.56.26s.35.2.54.34l.73-.22c.22-.07.43-.06.64.03.21.08.37.22.49.4l.2.35c.12.2.16.42.12.65-.03.23-.14.42-.32.57l-.55.47c.03.22.05.43.05.65s-.02.43-.05.65l.55.47c.18.15.29.34.32.56.03.23,0,.44-.12.64l-.23.38c-.12.18-.27.32-.47.4-.2.08-.41.09-.63.02l-.73-.23c-.18.13-.36.25-.54.34-.18.09-.36.18-.56.26l-.15.73c-.05.23-.16.42-.34.56-.18.14-.38.21-.61.21h-.4c-.23,0-.44-.07-.61-.23-.18-.15-.29-.34-.34-.57l-.15-.7ZM6.85,9c.55,0,1.02-.2,1.41-.59.39-.39.59-.86.59-1.41s-.2-1.02-.59-1.41c-.39-.39-.86-.59-1.41-.59s-1.02.2-1.41.59c-.39.39-.59.86-.59,1.41s.2,1.02.59,1.41c.39.39.86.59,1.41.59ZM14.35,20.9c-.28-.1-.55-.22-.79-.36-.24-.14-.48-.3-.71-.49l-.95.3c-.3.1-.6.1-.9-.01-.3-.11-.53-.3-.7-.59l-.27-.48c-.17-.28-.23-.59-.18-.91.05-.32.2-.6.45-.81l.75-.65c-.03-.3-.05-.6-.05-.9s.02-.6.05-.9l-.75-.68c-.25-.22-.4-.48-.45-.8s0-.62.18-.9l.27-.48c.17-.28.4-.48.7-.59.3-.11.6-.11.9-.01l.95.3c.23-.18.47-.35.71-.49.24-.14.5-.26.79-.36l.22-1.03c.07-.32.22-.57.46-.77s.53-.3.86-.3h.6c.33,0,.62.1.86.3.24.2.4.46.46.77l.23,1.03c.28.1.55.22.79.36.24.14.48.3.71.49l.95-.3c.3-.1.6-.1.9.01.3.11.53.3.7.59l.27.48c.17.28.23.59.18.91-.05.32-.2.6-.45.81l-.75.65c.03.3.05.6.05.9s-.02.6-.05.9l.75.68c.25.22.4.48.45.8.05.32,0,.62-.18.9l-.27.48c-.17.28-.4.48-.7.59-.3.11-.6.11-.9.01l-.95-.3c-.23.18-.47.35-.71.49-.24.14-.5.26-.79.36l-.23,1.02c-.07.32-.22.58-.46.78-.24.2-.53.3-.86.3h-.6c-.33,0-.62-.1-.86-.3-.24-.2-.4-.46-.46-.78l-.22-1.02ZM16.2,19c.83,0,1.54-.29,2.12-.88s.88-1.29.88-2.12-.29-1.54-.88-2.12-1.29-.88-2.12-.88-1.54.29-2.13.88c-.58.58-.88,1.29-.88,2.12s.29,1.54.88,2.12c.58.58,1.29.88,2.13.88Z"/></svg>