<?xml version="1.0" encoding="UTF-8"?><svg id="Layer_1" xmlns="http://www.w3.org/2000/svg" viewBox="0 0 24 24"><path d="M10.82,22c-.45,0-.84-.15-1.16-.45-.33-.3-.52-.67-.59-1.1l-.22-1.65c-.22-.08-.42-.18-.61-.3-.19-.12-.38-.24-.56-.38l-1.55.65c-.42.18-.83.2-1.25.05-.42-.15-.74-.42-.97-.8l-1.17-2.05c-.23-.38-.3-.79-.2-1.23.1-.43.33-.79.67-1.07l1.33-1c-.02-.12-.03-.23-.03-.34v-.67c0-.11,0-.22.03-.34l-1.33-1c-.35-.28-.58-.64-.67-1.07-.1-.43-.03-.84.2-1.23l1.17-2.05c.23-.38.56-.65.97-.8.42-.15.83-.13,1.25.05l1.55.65c.18-.13.38-.26.57-.38s.4-.22.6-.3l.22-1.65c.07-.43.26-.8.59-1.1.32-.3.71-.45,1.16-.45h2.35c.45,0,.84.15,1.16.45.33.3.52.67.59,1.1l.22,1.65c.22.08.42.18.61.3.19.12.38.24.56.38l1.55-.65c.42-.18.83-.2,1.25-.05.42.15.74.42.98.8l1.17,2.05c.23.38.3.79.2,1.23s-.33.79-.68,1.07l-1.32,1c.02.12.02.23.02.34v.67c0,.11-.02.22-.05.34l1.32,1c.35.28.58.64.68,1.07.1.43.03.84-.2,1.23l-1.2,2.05c-.23.38-.56.65-.97.8-.42.15-.83.13-1.25-.05l-1.5-.65c-.18.13-.38.26-.58.38s-.4.22-.6.3l-.22,1.65c-.07.43-.26.8-.59,1.1-.32.3-.71.45-1.16.45h-2.35ZM11,20h1.98l.35-2.65c.52-.13,1-.33,1.44-.59.44-.26.85-.57,1.21-.94l2.48,1.03.97-1.7-2.15-1.62c.08-.23.14-.48.18-.74.03-.26.05-.52.05-.79s-.02-.53-.05-.79c-.03-.26-.09-.5-.18-.74l2.15-1.62-.97-1.7-2.48,1.05c-.37-.38-.77-.7-1.21-.96-.44-.26-.92-.45-1.44-.59l-.32-2.65h-1.98l-.35,2.65c-.52.13-1,.33-1.44.59-.44.26-.85.57-1.21.94l-2.47-1.03-.98,1.7,2.15,1.6c-.08.25-.14.5-.17.75s-.05.52-.05.8c0,.27.02.52.05.77s.09.5.17.75l-2.15,1.62.98,1.7,2.47-1.05c.37.38.77.7,1.21.96.44.26.92.45,1.44.59l.32,2.65ZM12.05,15.5c.97,0,1.79-.34,2.47-1.02.68-.68,1.03-1.51,1.03-2.48s-.34-1.79-1.03-2.48c-.68-.68-1.51-1.02-2.47-1.02s-1.81.34-2.49,1.02c-.68.68-1.01,1.51-1.01,2.48s.34,1.79,1.01,2.48c.68.68,1.5,1.02,2.49,1.02Z"/></svg>