<?xml version="1.0" encoding="UTF-8"?><svg id="Layer_1" xmlns="http://www.w3.org/2000/svg" viewBox="0 0 24 24"><path d="M17,22c-.83,0-1.54-.29-2.12-.88s-.88-1.29-.88-2.12c0-.1.02-.33.07-.7l-7.02-4.1c-.27.25-.58.45-.93.59-.35.14-.72.21-1.12.21-.83,0-1.54-.29-2.12-.88s-.88-1.29-.88-2.12.29-1.54.88-2.12c.58-.58,1.29-.88,2.12-.88.4,0,.78.07,1.12.21.35.14.66.34.93.59l7.02-4.1c-.03-.12-.05-.23-.06-.34,0-.11-.01-.23-.01-.36,0-.83.29-1.54.88-2.12s1.29-.88,2.12-.88,1.54.29,2.12.88.88,1.29.88,2.12-.29,1.54-.88,2.12-1.29.88-2.12.88c-.4,0-.77-.07-1.12-.21-.35-.14-.66-.34-.93-.59l-7.02,4.1c.03.12.05.23.06.34,0,.11.01.23.01.36s0,.25-.01.36c0,.11-.03.22-.06.34l7.02,4.1c.27-.25.57-.45.93-.59.35-.14.73-.21,1.12-.21.83,0,1.54.29,2.12.88s.88,1.29.88,2.12-.29,1.54-.88,2.12-1.29.88-2.12.88ZM17,20c.28,0,.52-.1.71-.29s.29-.43.29-.71-.1-.52-.29-.71-.43-.29-.71-.29-.52.1-.71.29-.29.43-.29.71.1.52.29.71.43.29.71.29ZM5,13c.28,0,.52-.1.71-.29s.29-.43.29-.71-.1-.52-.29-.71-.43-.29-.71-.29-.52.1-.71.29-.29.43-.29.71.1.52.29.71.43.29.71.29ZM17,6c.28,0,.52-.1.71-.29s.29-.43.29-.71-.1-.52-.29-.71-.43-.29-.71-.29-.52.1-.71.29-.29.43-.29.71.1.52.29.71.43.29.71.29Z"/></svg>