<?xml version="1.0" encoding="UTF-8"?><svg id="Layer_1" xmlns="http://www.w3.org/2000/svg" viewBox="0 0 24 24"><path d="M6,23c-.55,0-1.02-.2-1.41-.59-.39-.39-.59-.86-.59-1.41v-11c0-.55.2-1.02.59-1.41.39-.39.86-.59,1.41-.59h2c.28,0,.52.1.71.29.19.19.29.43.29.71s-.1.52-.29.71c-.19.19-.43.29-.71.29h-2v11h12v-11h-2c-.28,0-.52-.1-.71-.29-.19-.19-.29-.43-.29-.71s.1-.52.29-.71c.19-.19.43-.29.71-.29h2c.55,0,1.02.2,1.41.59.39.39.59.86.59,1.41v11c0,.55-.2,1.02-.59,1.41-.39.39-.86.59-1.41.59H6ZM11,4.83l-.9.9c-.2.2-.43.3-.7.29-.27,0-.5-.11-.7-.31-.18-.2-.28-.43-.29-.7,0-.27.09-.5.29-.7l2.6-2.6c.2-.2.43-.3.7-.3s.5.1.7.3l2.6,2.6c.18.18.27.41.27.69s-.09.51-.27.71c-.2.2-.44.3-.71.3s-.51-.1-.71-.3l-.88-.88v10.17c0,.28-.1.52-.29.71-.19.19-.43.29-.71.29s-.52-.1-.71-.29c-.19-.19-.29-.43-.29-.71V4.83Z"/></svg>