<?xml version="1.0" encoding="UTF-8"?><svg id="Layer_1" xmlns="http://www.w3.org/2000/svg" viewBox="0 0 24 24"><path d="M10,16h4c.28,0,.52-.1.71-.29.19-.19.29-.43.29-.71v-3c0-.28-.1-.52-.29-.71-.19-.19-.43-.29-.71-.29v-1c0-.55-.2-1.02-.59-1.41-.39-.39-.86-.59-1.41-.59s-1.02.2-1.41.59c-.39.39-.59.86-.59,1.41v1c-.28,0-.52.1-.71.29-.19.19-.29.43-.29.71v3c0,.28.1.52.29.71.19.19.43.29.71.29ZM11,11v-1c0-.28.1-.52.29-.71.19-.19.43-.29.71-.29s.52.1.71.29c.19.19.29.43.29.71v1h-2ZM12,21.9c-.12,0-.23,0-.32-.02-.1-.02-.2-.04-.3-.08-2.25-.75-4.04-2.14-5.38-4.16-1.33-2.03-2-4.2-2-6.54v-4.72c0-.42.12-.79.36-1.12.24-.33.55-.57.94-.72l6-2.25c.23-.08.47-.12.7-.12s.47.04.7.12l6,2.25c.38.15.7.39.94.72.24.33.36.71.36,1.12v4.72c0,2.33-.67,4.51-2,6.54-1.33,2.02-3.12,3.41-5.38,4.16-.1.03-.2.06-.3.08-.1.02-.21.02-.32.02ZM12,19.9c1.73-.55,3.17-1.65,4.3-3.3,1.13-1.65,1.7-3.48,1.7-5.5v-4.72l-6-2.25-6,2.25v4.72c0,2.02.57,3.85,1.7,5.5,1.13,1.65,2.57,2.75,4.3,3.3Z"/></svg>