<?xml version="1.0" encoding="UTF-8"?><svg id="Layer_1" xmlns="http://www.w3.org/2000/svg" viewBox="0 0 24 24"><path d="M12,13c-.98,0-1.81-.34-2.49-1.01-.68-.68-1.01-1.5-1.01-2.49s.34-1.81,1.01-2.49c.67-.67,1.5-1.01,2.49-1.01s1.81.34,2.49,1.01c.68.68,1.01,1.5,1.01,2.49s-.34,1.81-1.01,2.49c-.68.68-1.5,1.01-2.49,1.01ZM12,11c.43,0,.79-.14,1.07-.43.28-.28.43-.64.43-1.07s-.14-.79-.43-1.07c-.28-.28-.64-.43-1.07-.43s-.79.14-1.07.43c-.28.28-.43.64-.43,1.07s.14.79.43,1.07c.28.28.64.43,1.07.43ZM12,4.13l-6,2.25v4.72c0,.9.12,1.77.38,2.62.25.85.59,1.65,1.03,2.4.7-.35,1.43-.62,2.2-.82.77-.2,1.57-.3,2.4-.3s1.63.1,2.4.3c.77.2,1.5.47,2.2.82.43-.75.77-1.55,1.02-2.4.25-.85.38-1.73.38-2.62v-4.72l-6-2.25ZM12,17c-.6,0-1.18.07-1.75.2-.57.13-1.11.32-1.62.55.48.5,1.01.93,1.57,1.3.57.37,1.17.65,1.8.85.63-.2,1.23-.48,1.8-.85.57-.37,1.09-.8,1.57-1.3-.52-.23-1.06-.42-1.62-.55-.57-.13-1.15-.2-1.75-.2ZM12,21.9c-.12,0-.23,0-.32-.02-.1-.02-.2-.04-.3-.08-2.25-.75-4.04-2.14-5.38-4.16-1.33-2.03-2-4.2-2-6.54v-4.72c0-.42.12-.79.36-1.12.24-.33.55-.57.94-.72l6-2.25c.23-.08.47-.12.7-.12s.47.04.7.12l6,2.25c.38.15.7.39.94.72.24.33.36.71.36,1.12v4.72c0,2.33-.67,4.51-2,6.54-1.33,2.02-3.12,3.41-5.38,4.16-.1.03-.2.06-.3.08-.1.02-.21.02-.32.02Z"/></svg>