<?xml version="1.0" encoding="UTF-8"?><svg id="Layer_1" xmlns="http://www.w3.org/2000/svg" viewBox="0 0 24 24"><path d="M7,22c-.55,0-1.02-.2-1.41-.59-.39-.39-.59-.86-.59-1.41s.2-1.02.59-1.41c.39-.39.86-.59,1.41-.59s1.02.2,1.41.59c.39.39.59.86.59,1.41s-.2,1.02-.59,1.41c-.39.39-.86.59-1.41.59ZM17,22c-.55,0-1.02-.2-1.41-.59-.39-.39-.59-.86-.59-1.41s.2-1.02.59-1.41c.39-.39.86-.59,1.41-.59s1.02.2,1.41.59c.39.39.59.86.59,1.41s-.2,1.02-.59,1.41c-.39.39-.86.59-1.41.59ZM6.15,6l2.4,5h7l2.75-5H6.15ZM5.2,4h14.75c.38,0,.67.17.88.51.2.34.21.69.02,1.04l-3.55,6.4c-.18.33-.43.59-.74.78-.31.18-.65.27-1.01.27h-7.45l-1.1,2h11c.28,0,.52.1.71.29s.29.43.29.71-.1.52-.29.71-.43.29-.71.29H7c-.75,0-1.32-.33-1.7-.99-.38-.66-.4-1.31-.05-1.96l1.35-2.45-3.6-7.6h-1c-.28,0-.52-.1-.71-.29-.19-.19-.29-.43-.29-.71s.1-.52.29-.71c.19-.19.43-.29.71-.29h1.62c.18,0,.36.05.53.15.17.1.29.24.38.42l.67,1.42Z"/></svg>