<?xml version="1.0" encoding="UTF-8"?><svg id="Layer_1" xmlns="http://www.w3.org/2000/svg" viewBox="0 0 24 24"><path d="M6,22c-.55,0-1.02-.2-1.41-.59-.39-.39-.59-.86-.59-1.41v-12c0-.55.2-1.02.59-1.41.39-.39.86-.59,1.41-.59h2c0-1.1.39-2.04,1.18-2.83s1.72-1.17,2.82-1.17,2.04.39,2.82,1.17c.78.78,1.18,1.73,1.18,2.83h2c.55,0,1.02.2,1.41.59.39.39.59.86.59,1.41v12c0,.55-.2,1.02-.59,1.41-.39.39-.86.59-1.41.59H6ZM6,20h12v-12h-2v2c0,.28-.1.52-.29.71s-.43.29-.71.29-.52-.1-.71-.29-.29-.43-.29-.71v-2h-4v2c0,.28-.1.52-.29.71-.19.19-.43.29-.71.29s-.52-.1-.71-.29c-.19-.19-.29-.43-.29-.71v-2h-2v12ZM10,6h4c0-.55-.2-1.02-.59-1.41-.39-.39-.86-.59-1.41-.59s-1.02.2-1.41.59c-.39.39-.59.86-.59,1.41Z"/></svg>