<?xml version="1.0" encoding="UTF-8"?><svg id="Layer_1" xmlns="http://www.w3.org/2000/svg" viewBox="0 0 24 24"><path d="M5,22c-.55,0-1.02-.2-1.41-.59-.39-.39-.59-.86-.59-1.41v-12c0-.55.2-1.02.59-1.41.39-.39.86-.59,1.41-.59h2c0-1.38.49-2.56,1.46-3.54.98-.98,2.15-1.46,3.54-1.46s2.56.49,3.54,1.46c.98.97,1.46,2.15,1.46,3.54h2c.55,0,1.02.2,1.41.59.39.39.59.86.59,1.41v12c0,.55-.2,1.02-.59,1.41-.39.39-.86.59-1.41.59H5ZM5,20h14v-12H5v12ZM9,6h6c0-.83-.29-1.54-.88-2.12-.58-.58-1.29-.88-2.12-.88s-1.54.29-2.12.88c-.58.58-.88,1.29-.88,2.12ZM11.98,14c1.23,0,2.35-.41,3.35-1.23,1-.82,1.49-1.73,1.47-2.75,0-.28-.09-.52-.27-.72s-.42-.3-.7-.3c-.23,0-.44.07-.62.23-.18.15-.32.38-.4.67-.18.63-.54,1.14-1.07,1.53-.53.38-1.12.57-1.75.57s-1.22-.19-1.76-.57c-.54-.38-.9-.89-1.06-1.53-.08-.32-.21-.55-.38-.69-.17-.14-.37-.21-.6-.21-.28,0-.52.1-.71.3s-.29.44-.29.72c0,1.02.49,1.93,1.47,2.75.98.82,2.09,1.23,3.33,1.23Z"/></svg>