<?xml version="1.0" encoding="UTF-8"?><svg id="Layer_1" xmlns="http://www.w3.org/2000/svg" viewBox="0 0 24 24"><path d="M18.18,12.52l-3.62,3.62c-.05.05-.1.09-.16.11-.06.02-.12.04-.19.04-.13,0-.25-.05-.35-.14-.1-.09-.15-.21-.15-.36v-7.6c0-.15.05-.27.15-.36.1-.09.22-.14.35-.14.03,0,.15.05.35.15l3.62,3.62c.08.08.14.17.18.25.03.08.05.17.05.27s-.02.19-.05.27c-.03.08-.09.17-.18.25Z" style="isolation:isolate; opacity:.3;"/><path d="M5.23,11.48l3.63-3.63c.05-.05.1-.09.16-.11.06-.02.12-.04.19-.04.13,0,.25.05.35.14.1.09.15.21.15.36v7.6c0,.15-.05.27-.15.36-.1.09-.22.14-.35.14-.03,0-.15-.05-.35-.15l-3.62-3.63c-.08-.08-.14-.17-.18-.25-.03-.08-.05-.18-.05-.27s.02-.19.05-.28c.03-.08.09-.17.18-.25Z"/></svg>