<?xml version="1.0" encoding="UTF-8"?><svg id="Layer_1" xmlns="http://www.w3.org/2000/svg" viewBox="0 0 24 24"><path d="M11.48,18.17l-3.62-3.62c-.05-.05-.09-.1-.11-.16-.03-.06-.04-.12-.04-.19,0-.13.05-.25.14-.35.09-.1.21-.15.36-.15h7.6c.15,0,.27.05.36.15.09.1.14.22.14.35,0,.03-.05.15-.15.35l-3.62,3.62c-.08.08-.17.14-.25.18-.08.03-.18.05-.27.05s-.19-.02-.28-.05c-.08-.03-.17-.09-.25-.18Z" style="isolation:isolate; opacity:.3;"/><path d="M12.53,5.22l3.62,3.62c.05.05.09.1.11.16.02.06.04.12.04.19,0,.13-.05.25-.14.35-.09.1-.21.15-.36.15h-7.6c-.15,0-.27-.05-.36-.15-.09-.1-.14-.22-.14-.35,0-.03.05-.15.15-.35l3.63-3.62c.08-.08.17-.14.25-.17.08-.03.18-.05.28-.05s.19.02.27.05.17.09.25.17Z" style="isolation:isolate; opacity:.3;"/></svg>