<?xml version="1.0" encoding="UTF-8"?><svg id="Layer_1" xmlns="http://www.w3.org/2000/svg" viewBox="0 0 24 24"><path d="M2,12c0-2.4.74-4.5,2.21-6.3,1.47-1.8,3.34-2.95,5.59-3.45.33-.08.62-.05.85.1.23.15.35.38.35.7,0,.33-.11.6-.32.79-.22.19-.49.34-.82.44-1.72.47-3.12,1.4-4.21,2.81-1.09,1.41-1.64,3.05-1.64,4.91,0,.73.09,1.44.28,2.11s.44,1.3.78,1.89c.17.28.25.57.24.85,0,.28-.13.54-.36.77-.22.22-.45.31-.7.27-.25-.03-.46-.18-.62-.45-.52-.8-.91-1.65-1.19-2.56-.27-.91-.41-1.87-.41-2.89ZM12,22c-1.02,0-1.99-.14-2.91-.42-.92-.28-1.79-.68-2.59-1.2-.25-.17-.39-.38-.43-.64-.03-.26.05-.5.25-.71.22-.23.47-.35.75-.35s.57.08.85.25c.6.35,1.24.62,1.93.8.68.18,1.4.27,2.15.27s1.47-.09,2.15-.27c.68-.18,1.33-.45,1.93-.8.28-.17.57-.25.85-.26.28,0,.53.1.75.34.2.22.28.46.25.73-.03.27-.17.48-.42.65-.8.52-1.66.92-2.59,1.2-.93.28-1.9.42-2.91.42ZM22,12c0,1.02-.14,1.98-.41,2.89-.28.91-.67,1.76-1.19,2.56-.17.27-.38.42-.62.45-.25.03-.48-.06-.7-.27-.23-.23-.35-.49-.36-.77,0-.28.07-.57.24-.85.33-.58.59-1.21.77-1.89s.27-1.38.27-2.11c0-1.87-.55-3.5-1.64-4.91-1.09-1.41-2.5-2.35-4.21-2.81-.33-.1-.61-.25-.82-.44-.22-.19-.32-.45-.32-.79s.12-.55.35-.7c.23-.15.52-.18.85-.1,2.25.5,4.11,1.65,5.59,3.45,1.48,1.8,2.21,3.9,2.21,6.3ZM9.5,15.57v-7.15c0-.2.09-.35.26-.45.17-.1.35-.09.51.03l5.58,3.58c.15.1.23.24.23.43s-.08.32-.23.43l-5.58,3.57c-.17.12-.34.12-.51.02-.18-.1-.26-.25-.26-.45Z"/></svg>