<?xml version="1.0" encoding="UTF-8"?><svg id="Layer_1" xmlns="http://www.w3.org/2000/svg" viewBox="0 0 24 24"><path d="M19,15c.2-.2.44-.3.71-.3s.51.1.71.3l1.58,1.6c.2.2.3.43.3.7s-.1.5-.3.7c-.2.2-.43.3-.7.3s-.5-.1-.7-.3l-1.6-1.58c-.2-.2-.3-.44-.3-.71s.1-.51.3-.71ZM20,3c.2.2.3.44.3.71s-.1.51-.3.71l-1.58,1.57c-.2.2-.44.3-.71.3s-.51-.1-.71-.3c-.2-.2-.3-.44-.3-.71s.1-.51.3-.71l1.6-1.58c.2-.2.43-.3.7-.3s.5.1.7.3ZM4,3c.2-.2.44-.3.71-.3s.51.1.71.3l1.57,1.6c.2.2.3.43.3.7s-.1.5-.3.7c-.2.2-.44.3-.71.3s-.51-.1-.71-.3l-1.58-1.57c-.2-.2-.3-.44-.3-.71s.1-.51.3-.71ZM5,15c.2.2.3.44.3.71s-.1.51-.3.71l-1.57,1.58c-.2.2-.44.3-.71.3s-.51-.1-.71-.3-.3-.44-.3-.71.1-.51.3-.71l1.6-1.58c.2-.2.43-.3.7-.3s.5.1.7.3ZM12,17.27l-4.15,2.5c-.18.12-.38.17-.58.15-.2-.02-.38-.08-.53-.2-.15-.12-.27-.26-.35-.44-.08-.18-.1-.37-.05-.59l1.1-4.73-3.68-3.18c-.17-.15-.27-.32-.31-.51-.04-.19-.03-.38.04-.56.07-.18.17-.33.3-.45.13-.12.32-.19.55-.23l4.85-.42,1.88-4.45c.08-.2.21-.35.39-.45.18-.1.35-.15.54-.15s.36.05.54.15c.18.1.3.25.39.45l1.88,4.45,4.85.42c.23.03.42.11.55.23.13.12.23.27.3.45.07.18.08.37.04.56-.04.19-.15.36-.31.51l-3.68,3.18,1.1,4.73c.05.22.03.41-.05.59-.08.17-.2.32-.35.44-.15.12-.33.18-.52.2-.2.02-.39-.03-.58-.15l-4.15-2.5Z"/></svg>