<?xml version="1.0" encoding="UTF-8"?><svg id="Layer_1" xmlns="http://www.w3.org/2000/svg" viewBox="0 0 24 24"><path d="M8.85,16.83l3.15-1.9,3.15,1.93-.82-3.6,2.78-2.4-3.65-.33-1.45-3.4-1.45,3.38-3.65.32,2.77,2.43-.82,3.58ZM12,17.27l-4.15,2.5c-.18.12-.38.17-.58.15-.2-.02-.37-.08-.52-.2-.15-.12-.27-.26-.35-.44-.08-.17-.1-.37-.05-.59l1.1-4.73-3.67-3.18c-.17-.15-.27-.32-.31-.51-.04-.19-.03-.38.04-.56.07-.18.17-.33.3-.45.13-.12.32-.19.55-.23l4.85-.42,1.87-4.45c.08-.2.21-.35.39-.45.18-.1.35-.15.54-.15s.36.05.54.15c.17.1.3.25.39.45l1.88,4.45,4.85.42c.23.03.42.11.55.23.13.12.23.27.3.45.07.18.08.37.04.56-.04.19-.15.36-.31.51l-3.68,3.18,1.1,4.73c.05.22.03.41-.05.59-.08.18-.2.32-.35.44-.15.12-.33.18-.52.2-.2.02-.39-.03-.58-.15l-4.15-2.5Z"/></svg>