<?xml version="1.0" encoding="UTF-8"?><svg id="Layer_1" xmlns="http://www.w3.org/2000/svg" viewBox="0 0 24 24"><path d="M12,14.95l2.77,2.1c.2.13.4.14.6.01s.26-.3.18-.54l-1.05-3.47,2.73-1.95c.2-.15.26-.34.17-.56-.08-.23-.24-.34-.48-.34h-3.32l-1.12-3.65c-.08-.23-.24-.35-.48-.35s-.39.12-.48.35l-1.12,3.65h-3.32c-.23,0-.39.11-.47.34-.08.22-.03.41.18.56l2.72,1.95-1.05,3.47c-.08.23-.02.41.18.54s.4.12.6-.01l2.77-2.1ZM12,22c-1.38,0-2.68-.26-3.9-.79-1.22-.52-2.28-1.24-3.18-2.14-.9-.9-1.61-1.96-2.14-3.18-.52-1.22-.79-2.52-.79-3.9s.26-2.68.79-3.9c.53-1.22,1.24-2.28,2.14-3.18.9-.9,1.96-1.61,3.18-2.14,1.22-.52,2.52-.79,3.9-.79s2.68.26,3.9.79c1.22.53,2.27,1.24,3.18,2.14.9.9,1.61,1.96,2.14,3.18.52,1.22.79,2.52.79,3.9s-.26,2.68-.79,3.9-1.24,2.27-2.14,3.18c-.9.9-1.96,1.61-3.18,2.14s-2.52.79-3.9.79Z"/></svg>