<?xml version="1.0" encoding="UTF-8"?><svg id="Layer_1" xmlns="http://www.w3.org/2000/svg" viewBox="0 0 24 24"><path d="M5,15c-.83,0-1.54-.29-2.12-.88s-.88-1.29-.88-2.12.29-1.54.88-2.12c.58-.58,1.29-.88,2.12-.88s1.54.29,2.12.88c.58.58.88,1.29.88,2.12s-.29,1.54-.88,2.12-1.29.88-2.12.88ZM5,13c.28,0,.52-.1.71-.29s.29-.43.29-.71-.1-.52-.29-.71-.43-.29-.71-.29-.52.1-.71.29-.29.43-.29.71.1.52.29.71.43.29.71.29ZM12,15c-.83,0-1.54-.29-2.12-.88-.58-.58-.88-1.29-.88-2.12s.29-1.54.88-2.12c.58-.58,1.29-.88,2.12-.88s1.54.29,2.12.88c.58.58.88,1.29.88,2.12s-.29,1.54-.88,2.12-1.29.88-2.12.88ZM12,13c.28,0,.52-.1.71-.29s.29-.43.29-.71-.1-.52-.29-.71-.43-.29-.71-.29-.52.1-.71.29-.29.43-.29.71.1.52.29.71.43.29.71.29ZM19,15c-.83,0-1.54-.29-2.12-.88s-.88-1.29-.88-2.12.29-1.54.88-2.12c.58-.58,1.29-.88,2.12-.88s1.54.29,2.12.88c.58.58.88,1.29.88,2.12s-.29,1.54-.88,2.12-1.29.88-2.12.88Z"/></svg>