<?xml version="1.0" encoding="UTF-8"?><svg id="Layer_1" xmlns="http://www.w3.org/2000/svg" viewBox="0 0 24 24"><path d="M13.5,22c-1.8,0-3.33-.63-4.6-1.9-1.27-1.27-1.9-2.8-1.9-4.6v-.57c-1.43-.23-2.62-.9-3.58-2.01-.95-1.11-1.42-2.41-1.42-3.91v-5c0-.28.1-.52.29-.71.19-.19.43-.29.71-.29h2c0-.28.1-.52.29-.71.19-.19.43-.29.71-.29s.52.1.71.29c.19.19.29.43.29.71v2c0,.28-.1.52-.29.71s-.43.29-.71.29-.52-.1-.71-.29-.29-.43-.29-.71h-1v4c0,1.1.39,2.04,1.18,2.82.78.78,1.72,1.18,2.82,1.18s2.04-.39,2.82-1.18c.78-.78,1.18-1.72,1.18-2.82v-4h-1c0,.28-.1.52-.29.71s-.43.29-.71.29-.52-.1-.71-.29c-.19-.19-.29-.43-.29-.71v-2c0-.28.1-.52.29-.71.19-.19.43-.29.71-.29s.52.1.71.29c.19.19.29.43.29.71h2c.28,0,.52.1.71.29.19.19.29.43.29.71v5c0,1.5-.48,2.8-1.43,3.91-.95,1.11-2.14,1.78-3.57,2.01v.57c0,1.25.44,2.31,1.31,3.19s1.94,1.31,3.19,1.31,2.31-.44,3.19-1.31,1.31-1.94,1.31-3.19v-1.68c-.58-.22-1.06-.58-1.44-1.09s-.56-1.09-.56-1.74c0-.83.29-1.54.88-2.12s1.29-.88,2.12-.88,1.54.29,2.12.88.88,1.29.88,2.12c0,.65-.19,1.23-.56,1.74s-.85.87-1.44,1.09v1.68c0,1.8-.63,3.33-1.9,4.6-1.27,1.27-2.8,1.9-4.6,1.9ZM19,12c.28,0,.52-.1.71-.29s.29-.43.29-.71-.1-.52-.29-.71-.43-.29-.71-.29-.52.1-.71.29-.29.43-.29.71.1.52.29.71.43.29.71.29Z"/></svg>