<?xml version="1.0" encoding="UTF-8"?><svg id="Layer_1" xmlns="http://www.w3.org/2000/svg" viewBox="0 0 24 24"><path d="M5.02,21c-.55,0-1.02-.2-1.41-.59-.39-.39-.59-.86-.59-1.41v-7.95c-.38-.35-.68-.8-.89-1.35-.21-.55-.21-1.15-.01-1.8l1.05-3.4c.13-.43.37-.79.71-1.08.34-.28.74-.42,1.19-.42h13.9c.45,0,.84.14,1.17.41.33.28.58.64.73,1.09l1.05,3.4c.2.65.2,1.24-.01,1.78-.21.53-.5.99-.89,1.38v7.95c0,.55-.2,1.02-.59,1.41-.39.39-.86.59-1.41.59H5.02ZM14.23,10c.45,0,.79-.15,1.02-.46.23-.31.32-.65.27-1.04l-.55-3.5h-1.95v3.7c0,.35.12.65.35.91.23.26.52.39.85.39ZM9.72,10c.38,0,.7-.13.94-.39.24-.26.36-.56.36-.91v-3.7h-1.95l-.55,3.5c-.07.4.02.75.26,1.05.24.3.55.45.94.45ZM5.27,10c.3,0,.56-.11.79-.32s.36-.49.41-.82l.55-3.85h-1.95l-1,3.35c-.1.33-.05.69.16,1.07.21.38.55.57,1.04.57ZM18.77,10c.48,0,.83-.19,1.05-.57.22-.38.27-.74.15-1.07l-1.05-3.35h-1.9l.55,3.85c.05.33.19.61.41.82.23.22.49.32.79.32ZM5.02,19h14v-7.05c-.08.03-.14.05-.16.05h-.09c-.45,0-.85-.07-1.19-.23-.34-.15-.68-.39-1.01-.72-.3.3-.64.53-1.03.7-.38.17-.79.25-1.23.25s-.87-.08-1.26-.25c-.39-.17-.74-.4-1.04-.7-.28.3-.61.53-.99.7s-.78.25-1.21.25c-.48,0-.92-.08-1.31-.25-.39-.17-.74-.4-1.04-.7-.35.35-.7.6-1.04.74-.34.14-.73.21-1.16.21h-.11s-.09-.02-.14-.05v7.05Z"/></svg>