<?xml version="1.0" encoding="UTF-8"?><svg id="Layer_1" xmlns="http://www.w3.org/2000/svg" viewBox="0 0 24 24"><path d="M5,10.73l-2.5-1.43c-.15-.08-.27-.2-.36-.36s-.14-.33-.14-.51v-2.85c0-.18.05-.35.14-.51s.21-.28.36-.36l2.5-1.42c.15-.08.32-.12.5-.12s.35.04.5.12l2.5,1.42c.15.08.27.2.36.36s.14.33.14.51v2.85c0,.18-.05.35-.14.51s-.21.28-.36.36l-2.5,1.43c-.15.08-.32.12-.5.12s-.35-.04-.5-.12ZM5.5,8.7l1.5-.85v-1.7l-1.5-.85-1.5.85v1.7l1.5.85ZM16.5,11.77v-2.32l2.5,1.48c.32.18.56.43.74.74.18.31.26.64.26.99v4.7c0,.35-.09.68-.26.99-.18.31-.42.55-.74.74l-4,2.32c-.32.18-.65.27-1,.27s-.68-.09-1-.27l-4-2.32c-.32-.18-.56-.43-.74-.74-.18-.31-.26-.64-.26-.99v-4.7c0-.35.09-.68.26-.99.17-.31.42-.55.74-.74l2.5-1.48v2.32l-1.5.88v4.7l4,2.32,4-2.32v-4.7l-1.5-.88ZM15,8v5c0,.28-.1.52-.29.71s-.43.29-.71.29-.52-.1-.71-.29-.29-.43-.29-.71V3c0-.28.1-.52.29-.71.19-.19.43-.29.71-.29h6.12c.4,0,.7.17.9.53.2.35.18.69-.05,1.02l-.6.9c-.12.17-.17.35-.17.55s.06.38.17.55l.6.9c.23.33.25.68.05,1.03-.2.35-.5.53-.9.53h-5.12Z"/></svg>