<?xml version="1.0" encoding="UTF-8"?><svg id="Layer_1" xmlns="http://www.w3.org/2000/svg" viewBox="0 0 24 24"><path d="M11.92,22c-1.38,0-2.68-.26-3.9-.79-1.22-.52-2.28-1.24-3.18-2.14-.9-.9-1.61-1.96-2.14-3.18-.53-1.22-.79-2.52-.79-3.9s.26-2.68.79-3.9c.52-1.22,1.24-2.28,2.14-3.18.9-.9,1.96-1.61,3.18-2.14,1.22-.52,2.52-.79,3.9-.79s2.68.26,3.9.79c1.22.53,2.28,1.24,3.18,2.14.9.9,1.61,1.96,2.14,3.18.52,1.22.79,2.52.79,3.9s-.26,2.68-.79,3.9-1.24,2.27-2.14,3.18c-.9.9-1.96,1.61-3.18,2.14-1.22.52-2.52.79-3.9.79ZM18.87,16h-9.57l-1,1h9.9c.13-.17.25-.33.36-.49.11-.16.21-.33.31-.51ZM19.87,13h-7.55l-1,1h8.35c.03-.17.07-.33.1-.49.03-.16.07-.33.1-.51ZM19.67,10h-4.35l-1,1h5.55c-.03-.18-.07-.35-.1-.51-.03-.16-.07-.32-.1-.49ZM18.25,7.1l-.9.9h1.52c-.08-.17-.18-.32-.29-.46-.11-.14-.22-.29-.34-.44ZM5.6,16.9l11.27-11.22c-.68-.53-1.44-.95-2.27-1.24s-1.73-.44-2.68-.44c-2.23,0-4.12.78-5.67,2.32-1.55,1.55-2.33,3.44-2.33,5.68,0,.93.15,1.81.44,2.64.29.82.7,1.58,1.24,2.26ZM11.92,20c.72,0,1.4-.08,2.05-.25.65-.17,1.27-.42,1.85-.75h-7.8c.58.33,1.2.58,1.85.75.65.17,1.33.25,2.05.25Z"/></svg>