<?xml version="1.0" encoding="UTF-8"?><svg id="Layer_1" xmlns="http://www.w3.org/2000/svg" viewBox="0 0 24 24"><path d="M11.92,22c-1.38,0-2.68-.26-3.9-.79-1.22-.52-2.28-1.24-3.18-2.14-.9-.9-1.61-1.96-2.14-3.18-.53-1.22-.79-2.52-.79-3.9s.26-2.68.79-3.9c.52-1.22,1.24-2.28,2.14-3.18.9-.9,1.96-1.61,3.18-2.14,1.22-.52,2.52-.79,3.9-.79s2.68.26,3.9.79c1.22.53,2.28,1.24,3.18,2.14.9.9,1.61,1.96,2.14,3.18.52,1.22.79,2.52.79,3.9s-.26,2.68-.79,3.9-1.24,2.27-2.14,3.18c-.9.9-1.96,1.61-3.18,2.14-1.22.52-2.52.79-3.9.79ZM14.2,19.67c1.3-.38,2.43-1.05,3.39-2.01.96-.96,1.63-2.09,2.01-3.39l-5.4,5.4ZM4.27,9.65l5.3-5.3c-1.28.38-2.39,1.04-3.32,1.97-.93.93-1.59,2.04-1.98,3.32ZM4.17,14.05L13.97,4.28c-.2-.05-.4-.09-.6-.12s-.41-.07-.62-.1L3.97,12.82c.03.22.06.43.09.62.02.2.06.4.11.6ZM5.6,16.9l11.23-11.25c-.13-.1-.27-.2-.41-.3s-.29-.19-.44-.28l-10.97,10.97c.08.15.17.3.27.44.1.14.21.28.33.41ZM7.87,18.92l10.95-10.97c-.08-.15-.18-.3-.27-.44-.1-.14-.2-.28-.3-.41l-11.22,11.25c.13.1.27.2.41.3.14.1.29.19.44.27ZM11.1,19.95l8.77-8.78c-.03-.22-.07-.43-.1-.62-.03-.2-.07-.4-.12-.6l-9.77,9.78c.2.05.4.09.6.12s.41.07.62.1Z"/></svg>