<?xml version="1.0" encoding="UTF-8"?><svg id="Layer_1" xmlns="http://www.w3.org/2000/svg" viewBox="0 0 24 24"><path d="M10.98,19.81c-.21-.51-.79-.76-1.3-.55l-4.55,1.84c-.51.21-.76.79-.55,1.3.21.51.79.76,1.3.55l4.55-1.84c.51-.21.76-.79.55-1.3Z"/><path d="M13.76,19.68c-.4,0-.77-.24-.93-.62-.21-.51.04-1.09.55-1.3l3.71-1.5c.51-.21,1.1.04,1.3.55.21.51-.04,1.09-.55,1.3l-3.71,1.5c-.12.05-.25.07-.37.07Z"/><path d="M5.5,18.98c-.55,0-1-.45-1-1v-4c0-.55.45-1,1-1s1,.45,1,1v4c0,.55-.45,1-1,1Z"/><path d="M18.5,14.73c-.55,0-1-.45-1-1v-4c0-.55.45-1,1-1s1,.45,1,1v4c0,.55-.45,1-1,1Z"/><path d="M5.5,10.98c-.55,0-1-.45-1-1v-4c0-.55.45-1,1-1s1,.45,1,1v4c0,.55-.45,1-1,1Z"/><path d="M18.5,6.73c-.55,0-1-.45-1-1v-2.73h-3.78c-.55,0-1-.45-1-1s.45-1,1-1h4c.05,0,.11,0,.16.01.05,0,.1-.01.16-.01.81,0,1.47.65,1.47,1.46v3.27c0,.55-.45,1-1,1Z"/><path d="M9.73,1h-3.99c-.55,0-1,.45-1,1s.45,1,1,1h3.99c.55,0,1-.45,1-1s-.45-1-1-1Z"/></svg>