<?xml version="1.0" encoding="UTF-8"?><svg id="Layer_1" xmlns="http://www.w3.org/2000/svg" viewBox="0 0 24 24"><path d="M11.13,18.39h-.08c-.35-.04-.63-.32-.67-.67v-.08s0-5.99,0-5.99c0-.3.18-.58.47-.69l3.31-1.34c.49-.2,1.03.16,1.03.69v7.4c-.04.38-.36.67-.75.67h-3.31ZM11.38,11.82v5.57h2.81v-6.71l-2.81,1.14Z"/><path d="M5.56,18.39h-.08c-.35-.04-.63-.32-.67-.67v-.08s0-3.74,0-3.74c0-.3.18-.58.47-.69l3.31-1.34c.49-.2,1.03.16,1.03.69v5.16c-.04.38-.36.67-.75.67h-3.31ZM5.81,14.06v3.32h2.81v-4.46l-2.81,1.14Z"/><path d="M16.69,18.39c-.41,0-.75-.34-.75-.75v-8.24c0-.3.18-.58.47-.69l6.56-2.65c.49-.2,1.03.16,1.03.69v10.89c0,.41-.34.75-.75.75h-6.56ZM16.94,9.57v7.81h6.06V7.12l-6.06,2.45Z"/><path d="M.75,18.38h-.08c-.35-.04-.63-.32-.67-.67v-.08s0-1.8,0-1.8c0-.3.18-.58.47-.69l2.56-1.04c.49-.2,1.03.16,1.03.69v2.91c-.04.38-.36.67-.75.67H.75ZM1,16.01v1.38h2.06v-2.21l-2.06.83Z"/><path d="M20,10.99c.27,0,.5.15.62.38l.39.74.79.16c.23.04.41.2.51.4l.03.09.02.09c.03.19-.01.38-.12.54l-.06.08-.56.62.1.85c.03.25-.07.51-.28.67h0c-.12.09-.26.14-.42.14-.07,0-.14-.02-.2-.04-.04,0-.08-.02-.12-.04l-.72-.35-.72.35h0c-.24.11-.51.09-.72-.07h0c-.2-.16-.31-.41-.28-.67l.1-.85-.55-.62h0c-.17-.2-.22-.46-.15-.71l.04-.09c.09-.2.28-.36.5-.4l.79-.16.39-.74.05-.08c.13-.18.34-.3.57-.3ZM19.57,12.61c-.05.1-.15.17-.26.19l-.91.18.64.72c.07.08.11.19.09.3l-.12.96.81-.4.08-.03c.08-.02.17,0,.25.03l.83.4-.12-.96c-.01-.11.02-.21.09-.3l.64-.72-.91-.18c-.11-.02-.21-.09-.26-.19l-.43-.82-.43.82ZM18.34,12.96v.02s0,0,0,0v-.02s0,0,0,0Z"/></svg>