<?xml version="1.0" encoding="UTF-8"?><svg id="Layer_1" xmlns="http://www.w3.org/2000/svg" viewBox="0 0 24 24"><path d="M17.5,3v13.15l-11,4.35V3h11M19.03,1H4.97c-.26,0-.47.21-.47.46v20.62c0,.53.44.92.94.92.12,0,.23-.02.35-.07l13.13-5.19c.35-.14.59-.48.59-.85V1.46c0-.25-.21-.46-.47-.46h0Z"/><path d="M12,7.05l.48.88.34.62.69.14,1.02.2-.73.8-.47.51.08.69.13,1.06-.92-.44-.65-.31-.65.31-.89.43.13-1.04.08-.69-.47-.51-.73-.79,1.03-.2.69-.14.34-.62.48-.88M12,4.75c-.29,0-.54.16-.68.41l-1.11,2.05-2.26.44c-.28.05-.51.26-.6.53-.09.28-.02.58.17.79l1.57,1.71-.29,2.33c-.03.29.09.57.32.74.14.1.3.15.46.15.11,0,.22-.02.33-.07l2.08-1,2.08,1h.03c.11.04.22.07.33.07.16,0,.32-.05.46-.15.23-.17.35-.46.32-.74l-.29-2.33,1.57-1.71c.19-.21.26-.52.17-.79-.09-.28-.32-.48-.6-.53l-2.26-.44-1.11-2.05c-.13-.25-.4-.41-.68-.41h0Z"/></svg>