<?xml version="1.0" encoding="UTF-8"?><svg id="Layer_1" xmlns="http://www.w3.org/2000/svg" viewBox="0 0 24 24"><path d="M8.59,11.86c.49-.2,1.03.16,1.03.69v5.08c0,.41-.34.75-.75.75h-3.31c-.41,0-.75-.34-.75-.75v-3.74c0-.3.18-.58.47-.69l3.31-1.34Z"/><path d="M14.16,9.62c.49-.2,1.03.16,1.03.69v7.33c0,.41-.34.75-.75.75h-3.31c-.41,0-.75-.34-.75-.75v-5.99c0-.3.18-.58.47-.69l3.31-1.34Z"/><path d="M22.97,6.06c.49-.2,1.03.16,1.03.69v10.89c0,.41-.34.75-.75.75h-6.56c-.41,0-.75-.34-.75-.75v-8.24c0-.3.18-.58.47-.69l6.56-2.65ZM19.96,10.41c-.18,0-.35.1-.44.26l-.71,1.28-1.45.28c-.18.03-.33.16-.38.33-.06.17-.01.36.11.5l1,1.07-.18,1.45c-.02.18.06.36.2.47.15.1.34.12.51.05l1.33-.62,1.33.62h.02c.07.03.14.05.21.05.1,0,.21-.03.29-.09.15-.1.23-.29.2-.47l-.18-1.45,1-1.07c.12-.13.17-.32.11-.5-.06-.17-.2-.3-.38-.33l-1.45-.28-.71-1.28c-.09-.16-.25-.26-.44-.26Z" style="fill-rule:evenodd;"/><path d="M3.03,14.11c.49-.2,1.03.16,1.03.69v2.83c0,.41-.34.75-.75.75H.75c-.41,0-.75-.34-.75-.75v-1.8c0-.3.18-.58.47-.69l2.56-1.03Z"/></svg>