<?xml version="1.0" encoding="UTF-8"?><svg id="Layer_1" xmlns="http://www.w3.org/2000/svg" viewBox="0 0 24 24"><path d="M19.03,1H4.97c-.26,0-.47.21-.47.46v20.62c0,.65.67,1.09,1.29.85l13.13-5.19c.35-.14.59-.48.59-.85V1.46c0-.25-.21-.46-.47-.46ZM16.48,8.99l-1.57,1.71.29,2.33c.03.29-.09.58-.32.74-.13.1-.29.15-.46.15-.12,0-.23-.03-.33-.08h-.03s-2.08-.99-2.08-.99l-2.08,1c-.26.12-.56.09-.79-.08-.23-.17-.35-.46-.32-.74l.29-2.33-1.57-1.71c-.19-.22-.26-.52-.17-.79.09-.28.32-.48.6-.53l2.26-.44,1.11-2.05c.14-.26.4-.41.68-.41.29,0,.55.16.68.41l1.11,2.05,2.26.44c.28.05.51.26.6.53.09.28.02.58-.17.79Z" style="fill-rule:evenodd;"/></svg>