<?xml version="1.0" encoding="UTF-8"?><svg id="Layer_1" xmlns="http://www.w3.org/2000/svg" viewBox="0 0 24 24"><path d="M14.16,9.62l-3.31,1.34c-.28.12-.47.39-.47.69v5.99c0,.41.34.75.75.75h3.31c.41,0,.75-.34.75-.75v-7.33c0-.53-.54-.9-1.03-.69Z"/><path d="M5.56,18.39h3.31c.41,0,.75-.34.75-.75v-5.08c0-.53-.54-.9-1.03-.69l-3.31,1.34c-.29.12-.47.39-.47.69v3.74c0,.41.34.75.75.75Z"/><path d="M20,11.36c.12,0,.23.07.29.18l.47.9.96.19c.12.02.22.11.25.23.04.12,0,.25-.08.34l-.67.75.12,1.02c.01.13-.04.25-.13.33l-.04.03s-.1.04-.15.04h-.07s-.05-.02-.07-.03h-.01s-.89-.43-.89-.43l-.89.43c-.11.05-.24.04-.34-.03-.1-.08-.15-.2-.13-.33l.12-1.02-.67-.75c-.08-.09-.11-.22-.07-.34.04-.12.13-.21.25-.23l.96-.19.47-.9c.06-.11.17-.18.29-.18Z"/><path d="M22.97,6.06c.49-.2,1.03.16,1.03.69v10.89c0,.41-.34.75-.75.75h-6.56c-.41,0-.75-.34-.75-.75v-8.23c0-.3.18-.58.47-.69l6.56-2.65ZM20,10.61c-.41,0-.77.23-.95.58l-.31.58-.61.12c-.35.07-.63.3-.77.61l-.05.14c-.11.37-.03.77.22,1.06h0s.44.5.44.5l-.08.68c-.05.39.11.77.42,1.01h.01c.32.25.75.29,1.11.12h0s.55-.28.55-.28l.56.27s.1.04.15.05c.1.03.21.06.34.06.24,0,.46-.08.64-.21h0c.32-.25.47-.64.43-1.02l-.08-.68.44-.49c.23-.25.32-.6.27-.93l-.03-.14-.05-.14c-.14-.31-.42-.54-.77-.61l-.61-.12-.31-.58c-.18-.34-.54-.58-.95-.58Z" style="fill-rule:evenodd;"/><path d="M3.03,14.11l-2.56,1.04c-.28.12-.47.39-.47.69v1.8c0,.41.34.75.75.75h2.56c.41,0,.75-.34.75-.75v-2.83c0-.53-.54-.9-1.03-.69Z"/></svg>