<?xml version="1.0" encoding="UTF-8"?><svg id="Layer_1" xmlns="http://www.w3.org/2000/svg" viewBox="0 0 24 24"><path d="M12,7.05l.48.88.34.62.69.14,1.02.2-.73.8-.47.51.08.69.13,1.06-.92-.44-.65-.31-.65.31-.89.43.13-1.04.08-.69-.47-.51-.73-.79,1.03-.2.69-.14.34-.62.48-.88M12,4.75c-.29,0-.54.16-.68.41l-1.11,2.05-2.26.44c-.28.05-.51.26-.6.53-.09.28-.02.58.17.79l1.57,1.71-.29,2.33c-.03.29.09.57.32.74.14.1.3.15.46.15.11,0,.22-.02.33-.07l2.08-1,2.08,1h.03c.11.04.22.07.33.07.16,0,.32-.05.46-.15.23-.17.35-.46.32-.74l-.29-2.33,1.57-1.71c.19-.21.26-.52.17-.79-.09-.28-.32-.48-.6-.53l-2.26-.44-1.11-2.05c-.13-.25-.4-.41-.68-.41h0Z"/><path d="M10.98,19.81c-.21-.51-.79-.76-1.3-.55l-4.55,1.84c-.51.21-.76.79-.55,1.3.21.51.79.76,1.3.55l4.55-1.84c.51-.21.76-.79.55-1.3Z"/><path d="M13.76,19.68c-.4,0-.77-.24-.93-.62-.21-.51.04-1.09.55-1.3l3.71-1.5c.51-.21,1.1.04,1.3.55.21.51-.04,1.09-.55,1.3l-3.71,1.5c-.12.05-.25.07-.37.07Z"/><path d="M5.5,18.98c-.55,0-1-.45-1-1v-4c0-.55.45-1,1-1s1,.45,1,1v4c0,.55-.45,1-1,1Z"/><path d="M18.5,14.73c-.55,0-1-.45-1-1v-4c0-.55.45-1,1-1s1,.45,1,1v4c0,.55-.45,1-1,1Z"/><path d="M5.5,10.98c-.55,0-1-.45-1-1v-4c0-.55.45-1,1-1s1,.45,1,1v4c0,.55-.45,1-1,1Z"/><path d="M18.5,6.73c-.55,0-1-.45-1-1v-2.73h-3.78c-.55,0-1-.45-1-1s.45-1,1-1h4c.05,0,.11,0,.16.01.05,0,.1-.01.16-.01.81,0,1.47.65,1.47,1.46v3.27c0,.55-.45,1-1,1Z"/><path d="M9.73,1h-3.99c-.55,0-1,.45-1,1s.45,1,1,1h3.99c.55,0,1-.45,1-1s-.45-1-1-1Z"/></svg>