<?xml version="1.0" encoding="UTF-8"?><svg id="Layer_1" xmlns="http://www.w3.org/2000/svg" viewBox="0 0 24 24"><path d="M19.05,21.6l-2.92-2.9-1.5,1.5c-.18.18-.42.27-.7.27s-.52-.09-.7-.27c-.38-.38-.58-.86-.58-1.43s.19-1.04.58-1.42l4.23-4.23c.38-.38.86-.57,1.42-.57s1.04.19,1.42.57c.18.18.28.42.28.7s-.09.52-.28.7l-1.5,1.5,2.9,2.93c.2.2.3.43.3.7s-.1.5-.3.7l-1.25,1.25c-.2.2-.43.3-.7.3s-.5-.1-.7-.3ZM21.7,6.2l-11.05,11.05.12.1c.38.38.58.86.58,1.42s-.19,1.04-.58,1.43c-.18.18-.42.27-.7.27s-.52-.09-.7-.27l-1.5-1.5-2.93,2.9c-.2.2-.43.3-.7.3s-.5-.1-.7-.3l-1.25-1.25c-.2-.2-.3-.43-.3-.7s.1-.5.3-.7l2.9-2.93-1.5-1.5c-.18-.18-.28-.42-.28-.7s.09-.52.28-.7c.38-.38.86-.57,1.42-.57s1.04.19,1.43.57l.1.12L17.42,2.48c.18-.18.4-.33.64-.42.24-.1.5-.15.76-.15h2.17c.28,0,.52.1.71.29.19.19.29.43.29.71v2.58c0,.13-.02.26-.08.39-.05.12-.12.24-.22.34ZM6.22,10.12l-3.65-3.65c-.18-.18-.33-.4-.42-.64-.1-.24-.15-.5-.15-.76v-2.17c0-.28.1-.52.29-.71.19-.19.43-.29.71-.29h2.18c.27,0,.52.05.76.15.24.1.45.24.64.42l3.68,3.68c.2.2.3.43.29.7,0,.27-.11.5-.31.7-.2.18-.43.28-.7.29-.27,0-.5-.09-.7-.29l-3.65-3.65h-1.18v1.17l3.65,3.65c.18.18.28.41.28.69s-.09.51-.28.71c-.2.2-.44.3-.71.3s-.51-.1-.71-.3ZM9.25,15.82l10.75-10.75v-1.17h-1.17l-10.75,10.75,1.18,1.18Z"/></svg>