<?xml version="1.0" encoding="UTF-8"?><svg id="Layer_1" xmlns="http://www.w3.org/2000/svg" viewBox="0 0 24 24"><path d="M18,19.42l-.9.9c-.18.18-.41.27-.69.27s-.51-.1-.71-.3c-.18-.18-.27-.42-.27-.7s.09-.52.27-.7l.88-.9-.88-.88c-.18-.18-.27-.41-.27-.69s.09-.51.27-.71c.2-.2.44-.3.71-.3s.51.1.71.3l.88.88.88-.9c.18-.2.41-.3.69-.3s.51.1.71.3c.2.2.3.44.3.71s-.1.51-.3.71l-.88.88.9.9c.2.2.3.43.29.7,0,.27-.11.5-.31.7-.2.18-.43.28-.7.29-.27,0-.5-.09-.7-.29l-.88-.88ZM6,19c.28,0,.52-.1.71-.29.19-.19.29-.43.29-.71s-.1-.52-.29-.71c-.19-.19-.43-.29-.71-.29s-.52.1-.71.29c-.19.19-.29.43-.29.71s.1.52.29.71c.19.19.43.29.71.29ZM6,21c-.83,0-1.54-.29-2.12-.88-.58-.58-.88-1.29-.88-2.12s.29-1.54.88-2.12c.58-.58,1.29-.88,2.12-.88.62,0,1.18.17,1.69.51.51.34.88.8,1.11,1.39.65-.18,1.18-.54,1.59-1.07.41-.53.61-1.14.61-1.82v-4c0-1.38.49-2.56,1.46-3.54.97-.97,2.15-1.46,3.54-1.46h1.15l-.88-.88c-.2-.2-.3-.44-.29-.71,0-.27.11-.51.31-.71.2-.2.44-.3.71-.3s.51.1.71.3l2.57,2.6c.2.2.3.43.3.7s-.1.5-.3.7l-2.6,2.6c-.18.18-.41.28-.69.29-.28,0-.51-.09-.71-.29-.2-.18-.3-.42-.3-.7s.09-.53.27-.73l.88-.88h-1.15c-.83,0-1.54.29-2.12.88-.58.58-.88,1.29-.88,2.12v4c0,1.22-.39,2.29-1.18,3.21-.78.93-1.77,1.5-2.97,1.71-.2.62-.56,1.12-1.09,1.5-.52.38-1.11.58-1.76.58ZM6,7.43l-.9.9c-.18.18-.41.28-.69.28s-.51-.1-.71-.3c-.18-.18-.28-.42-.28-.7s.09-.52.28-.7l.87-.9-.87-.88c-.18-.18-.28-.41-.28-.69s.09-.51.28-.71c.2-.2.44-.3.71-.3s.51.1.71.3l.88.88.88-.9c.18-.2.41-.3.69-.3s.51.1.71.3c.2.2.3.44.3.71s-.1.51-.3.71l-.87.88.9.9c.2.2.3.43.29.7,0,.27-.11.5-.31.7-.2.18-.43.28-.7.29-.27,0-.5-.09-.7-.29l-.88-.88Z"/></svg>