<?xml version="1.0" encoding="UTF-8"?><svg id="Layer_1" xmlns="http://www.w3.org/2000/svg" viewBox="0 0 24 24"><path d="M12,22c-1.38,0-2.68-.26-3.9-.79-1.22-.52-2.28-1.24-3.18-2.14-.9-.9-1.61-1.96-2.14-3.18-.52-1.22-.79-2.52-.79-3.9s.26-2.68.79-3.9c.52-1.22,1.24-2.28,2.14-3.18.9-.9,1.96-1.61,3.18-2.14,1.22-.52,2.52-.79,3.9-.79s2.68.26,3.9.79c1.22.53,2.27,1.24,3.18,2.14.9.9,1.61,1.96,2.14,3.18.52,1.22.79,2.52.79,3.9s-.26,2.68-.79,3.9c-.53,1.22-1.24,2.27-2.14,3.18-.9.9-1.96,1.61-3.18,2.14s-2.52.79-3.9.79ZM12,20c2.23,0,4.12-.77,5.67-2.33,1.55-1.55,2.33-3.44,2.33-5.67s-.77-4.12-2.33-5.68c-1.55-1.55-3.44-2.32-5.67-2.32s-4.12.78-5.68,2.32c-1.55,1.55-2.32,3.44-2.32,5.68s.78,4.12,2.32,5.67c1.55,1.55,3.44,2.33,5.68,2.33ZM12,18c-1.67,0-3.08-.58-4.25-1.75s-1.75-2.58-1.75-4.25.58-3.08,1.75-4.25,2.58-1.75,4.25-1.75,3.08.58,4.25,1.75,1.75,2.58,1.75,4.25-.58,3.08-1.75,4.25-2.58,1.75-4.25,1.75ZM12,16c1.1,0,2.04-.39,2.82-1.18.78-.78,1.18-1.72,1.18-2.82s-.39-2.04-1.18-2.82c-.78-.78-1.72-1.18-2.82-1.18s-2.04.39-2.82,1.18-1.18,1.72-1.18,2.82.39,2.04,1.18,2.82c.78.78,1.72,1.18,2.82,1.18ZM12,14c-.55,0-1.02-.2-1.41-.59-.39-.39-.59-.86-.59-1.41s.2-1.02.59-1.41c.39-.39.86-.59,1.41-.59s1.02.2,1.41.59c.39.39.59.86.59,1.41s-.2,1.02-.59,1.41c-.39.39-.86.59-1.41.59Z"/></svg>