<?xml version="1.0" encoding="UTF-8"?><svg id="Layer_1" xmlns="http://www.w3.org/2000/svg" viewBox="0 0 24 24"><path d="M12,22c-1.38,0-2.68-.26-3.9-.79-1.22-.52-2.28-1.24-3.18-2.14-.9-.9-1.61-1.96-2.14-3.18-.52-1.22-.79-2.52-.79-3.9,0-1.9.5-3.65,1.49-5.26.99-1.61,2.34-2.84,4.04-3.69.02.32.05.64.1.96.05.33.13.7.25,1.14-1.2.73-2.15,1.7-2.84,2.91s-1.04,2.52-1.04,3.94c0,2.23.78,4.12,2.32,5.67,1.55,1.55,3.44,2.33,5.68,2.33s4.12-.77,5.67-2.33c1.55-1.55,2.33-3.44,2.33-5.67,0-1.42-.35-2.73-1.04-3.95s-1.65-2.19-2.86-2.93c.12-.43.2-.81.25-1.14.05-.33.09-.64.12-.94,1.7.85,3.05,2.08,4.04,3.67.99,1.6,1.49,3.36,1.49,5.28,0,1.38-.26,2.68-.79,3.9s-1.24,2.27-2.14,3.18c-.9.9-1.96,1.61-3.18,2.14s-2.52.79-3.9.79ZM12,18c-1.67,0-3.08-.58-4.25-1.75s-1.75-2.58-1.75-4.25c0-.97.21-1.88.64-2.73.43-.85,1.03-1.56,1.81-2.12.08.25.18.54.28.86.1.32.23.73.4,1.21-.37.38-.65.81-.84,1.27-.19.47-.29.97-.29,1.5,0,1.1.39,2.04,1.18,2.82.78.78,1.72,1.18,2.82,1.18s2.04-.39,2.82-1.18c.78-.78,1.18-1.72,1.18-2.82,0-.53-.1-1.03-.29-1.5s-.47-.89-.84-1.27c.13-.4.25-.77.36-1.11s.2-.66.29-.96c.78.57,1.39,1.28,1.83,2.12.43.85.65,1.76.65,2.73,0,1.67-.58,3.08-1.75,4.25s-2.58,1.75-4.25,1.75ZM11.7,8.5c-.22,0-.4-.06-.56-.19-.16-.12-.27-.29-.34-.49l-1-3.25c-.12-.43-.2-.81-.24-1.14s-.06-.64-.06-.94c0-.7.24-1.29.73-1.77.48-.48,1.07-.73,1.77-.73s1.29.24,1.77.73c.48.48.73,1.07.73,1.77,0,.3-.02.61-.06.94s-.12.7-.24,1.14l-1,3.25c-.07.2-.18.36-.34.49-.16.12-.35.19-.56.19h-.6ZM12,14c-.55,0-1.02-.2-1.41-.59-.39-.39-.59-.86-.59-1.41s.2-1.02.59-1.41c.39-.39.86-.59,1.41-.59s1.02.2,1.41.59c.39.39.59.86.59,1.41s-.2,1.02-.59,1.41c-.39.39-.86.59-1.41.59Z"/></svg>