<?xml version="1.0" encoding="UTF-8"?><svg id="Layer_1" xmlns="http://www.w3.org/2000/svg" viewBox="0 0 24 24"><path d="M12,22c-1.38,0-2.68-.26-3.9-.79-1.22-.52-2.28-1.24-3.18-2.14-.9-.9-1.61-1.96-2.14-3.18-.52-1.22-.79-2.52-.79-3.9s.26-2.68.79-3.9c.52-1.22,1.24-2.28,2.14-3.18.9-.9,1.96-1.61,3.18-2.14,1.22-.52,2.52-.79,3.9-.79.8,0,1.58.09,2.34.28.76.18,1.49.45,2.19.8.25.13.41.33.49.6.07.27.03.52-.14.75-.17.23-.39.38-.66.45-.28.07-.55.03-.81-.1-.53-.25-1.09-.44-1.66-.58-.57-.13-1.15-.2-1.74-.2-2.22,0-4.1.78-5.66,2.34s-2.34,3.45-2.34,5.66.78,4.1,2.34,5.66,3.45,2.34,5.66,2.34,4.1-.78,5.66-2.34,2.34-3.45,2.34-5.66c0-.13,0-.26-.01-.39,0-.12-.02-.25-.04-.39-.03-.28.02-.55.16-.81.14-.26.35-.43.64-.51.27-.08.52-.06.75.08.23.13.37.33.4.6.03.23.06.47.08.7.02.23.02.48.02.73,0,1.38-.26,2.68-.79,3.9-.53,1.22-1.24,2.27-2.14,3.18-.9.9-1.96,1.61-3.18,2.14s-2.52.79-3.9.79ZM10.6,13.8l9.3-9.33c.18-.18.41-.28.69-.29.27,0,.51.09.71.29.18.18.28.42.28.7s-.09.52-.28.7l-10,10.02c-.2.2-.43.3-.7.3s-.5-.1-.7-.3l-2.85-2.85c-.18-.18-.28-.42-.28-.7s.09-.52.28-.7c.18-.18.42-.27.7-.27s.52.09.7.27l2.15,2.15Z"/></svg>