<?xml version="1.0" encoding="UTF-8"?><svg id="Layer_1" xmlns="http://www.w3.org/2000/svg" viewBox="0 0 24 24"><path d="M1,19v-3c0-.57.2-1.04.59-1.43s.86-.57,1.41-.57h3.28c.33,0,.65.08.95.25.3.17.54.39.72.68.48.65,1.08,1.16,1.79,1.53.71.37,1.46.55,2.26.55s1.58-.18,2.29-.55c.71-.37,1.3-.88,1.76-1.53.22-.28.47-.51.76-.68.29-.17.6-.25.91-.25h3.27c.57,0,1.04.19,1.42.57.38.38.58.86.58,1.43v3c0,.28-.1.52-.29.71s-.43.29-.71.29h-5c-.28,0-.52-.1-.71-.29s-.29-.43-.29-.71v-1.27c-.58.42-1.21.73-1.89.95-.68.22-1.38.33-2.11.33s-1.42-.11-2.1-.34c-.68-.23-1.32-.55-1.9-.96v1.3c0,.28-.1.52-.29.71s-.43.29-.71.29H2c-.28,0-.52-.1-.71-.29-.19-.19-.29-.43-.29-.71ZM12,16c-.63,0-1.23-.15-1.8-.44-.57-.29-1.04-.7-1.43-1.21-.28-.42-.64-.75-1.06-.99-.43-.24-.89-.36-1.39-.36.37-.62,1.14-1.1,2.32-1.46,1.18-.36,2.3-.54,3.35-.54s2.17.18,3.35.54c1.18.36,1.96.85,2.32,1.46-.48,0-.94.12-1.38.36-.43.24-.79.57-1.07.99-.37.53-.83.94-1.4,1.22-.57.28-1.18.43-1.82.43ZM4,13c-.83,0-1.54-.29-2.12-.88-.58-.58-.88-1.29-.88-2.12s.29-1.56.88-2.14c.58-.58,1.29-.86,2.12-.86s1.56.29,2.14.86c.58.57.86,1.29.86,2.14s-.29,1.54-.86,2.12c-.58.58-1.29.88-2.14.88ZM20,13c-.83,0-1.54-.29-2.12-.88s-.88-1.29-.88-2.12.29-1.56.88-2.14c.58-.58,1.29-.86,2.12-.86s1.56.29,2.14.86c.57.57.86,1.29.86,2.14s-.29,1.54-.86,2.12c-.58.58-1.29.88-2.14.88ZM12,10c-.83,0-1.54-.29-2.12-.88-.58-.58-.88-1.29-.88-2.12s.29-1.56.88-2.14c.58-.58,1.29-.86,2.12-.86s1.56.29,2.14.86c.57.57.86,1.29.86,2.14s-.29,1.54-.86,2.12c-.58.58-1.29.88-2.14.88Z"/></svg>