<?xml version="1.0" encoding="UTF-8"?><svg id="Layer_1" xmlns="http://www.w3.org/2000/svg" viewBox="0 0 24 24"><path d="M18,23c-.97,0-1.84-.25-2.62-.74-.78-.49-1.38-1.14-1.8-1.94-.1-.18-.11-.38-.04-.58.07-.2.2-.34.39-.42.18-.08.37-.1.56-.04s.34.18.44.36c.28.55.7,1,1.24,1.34.54.34,1.15.51,1.84.51.97,0,1.79-.34,2.48-1.02s1.02-1.51,1.02-2.48-.34-1.79-1.02-2.48-1.51-1.02-2.48-1.02c-.48,0-.93.09-1.35.26s-.78.42-1.1.74h.7c.22,0,.4.07.54.21.14.14.21.32.21.54s-.07.4-.21.54c-.14.14-.32.21-.54.21h-2.25c-.28,0-.52-.1-.71-.29s-.29-.43-.29-.71v-2.25c0-.22.07-.4.21-.54.14-.14.32-.21.54-.21s.4.07.54.21c.14.14.21.32.21.54v.68c.45-.43.98-.78,1.58-1.04.6-.26,1.24-.39,1.92-.39,1.38,0,2.56.49,3.54,1.46.98.98,1.46,2.15,1.46,3.54s-.49,2.56-1.46,3.54c-.98.98-2.15,1.46-3.54,1.46ZM8,9h8c.28,0,.52-.1.71-.29.19-.19.29-.43.29-.71s-.1-.52-.29-.71-.43-.29-.71-.29h-8c-.28,0-.52.1-.71.29s-.29.43-.29.71.1.52.29.71c.19.19.43.29.71.29ZM8,13h3.25c.28,0,.52-.1.71-.29s.29-.43.29-.71-.1-.52-.29-.71-.43-.29-.71-.29h-3.25c-.28,0-.52.1-.71.29s-.29.43-.29.71.1.52.29.71.43.29.71.29ZM8,17h1.75c.28,0,.52-.1.71-.29s.29-.43.29-.71-.1-.52-.29-.71-.43-.29-.71-.29h-1.75c-.28,0-.52.1-.71.29s-.29.43-.29.71.1.52.29.71.43.29.71.29ZM5,21c-.55,0-1.02-.2-1.41-.59-.39-.39-.59-.86-.59-1.41V5c0-.55.2-1.02.59-1.41s.86-.59,1.41-.59h14c.55,0,1.02.2,1.41.59.39.39.59.86.59,1.41v4c0,.28-.1.52-.29.71-.19.19-.43.29-.71.29s-.52-.1-.71-.29c-.19-.19-.29-.43-.29-.71v-4H5v14h4c.28,0,.52.1.71.29.19.19.29.43.29.71s-.1.52-.29.71c-.19.19-.43.29-.71.29h-4Z"/></svg>