<?xml version="1.0" encoding="UTF-8"?><svg id="Layer_1" xmlns="http://www.w3.org/2000/svg" viewBox="0 0 24 24"><path d="M18.35,19.77l-1.4-1.42c-.18-.2-.28-.44-.28-.71s.09-.5.28-.69.41-.28.69-.28.51.09.71.28l1.42,1.4c.2.2.3.44.3.71s-.1.51-.3.71c-.2.2-.44.3-.71.3s-.51-.1-.71-.3ZM6,20c-1.1,0-2.04-.39-2.83-1.17-.78-.78-1.17-1.73-1.17-2.83s.39-2.04,1.17-2.82c.78-.78,1.73-1.18,2.83-1.18.8,0,1.54.22,2.21.65.68.43,1.16,1.03,1.46,1.78l.25.57h.6c.7,0,1.29.24,1.76.73.47.48.71,1.07.71,1.77s-.24,1.29-.73,1.77c-.48.48-1.07.73-1.77.73h-4.5ZM14.98,17.2c-.07-1.05-.45-1.96-1.14-2.73-.69-.77-1.56-1.24-2.61-1.43-.52-.9-1.21-1.61-2.09-2.14-.88-.53-1.84-.83-2.89-.91.43-1.22,1.18-2.19,2.23-2.91,1.05-.72,2.22-1.09,3.52-1.09,1.67,0,3.08.58,4.25,1.75s1.75,2.58,1.75,4.25c0,1.08-.27,2.09-.8,3.01-.53.93-1.28,1.65-2.23,2.19ZM20,13c-.28,0-.52-.1-.71-.29s-.29-.43-.29-.71.1-.52.29-.71.43-.29.71-.29h2c.28,0,.52.1.71.29s.29.43.29.71-.1.52-.29.71-.43.29-.71.29h-2ZM5.65,7.05l-1.43-1.43c-.18-.18-.27-.42-.27-.7s.09-.52.27-.7c.2-.2.44-.3.71-.3s.51.1.71.3l1.4,1.43c.18.2.27.44.27.71s-.09.5-.27.69c-.18.18-.42.27-.7.27s-.52-.09-.7-.27ZM16.95,7.05c-.18-.18-.28-.41-.28-.69s.09-.51.28-.71l1.4-1.43c.2-.2.44-.3.71-.3s.51.1.71.3c.18.18.27.42.27.7s-.09.52-.27.7l-1.42,1.43c-.18.18-.42.27-.7.27s-.52-.09-.7-.27ZM12,5c-.28,0-.52-.1-.71-.29s-.29-.43-.29-.71v-2c0-.28.1-.52.29-.71.19-.19.43-.29.71-.29s.52.1.71.29c.19.19.29.43.29.71v2c0,.28-.1.52-.29.71s-.43.29-.71.29Z"/></svg>