<?xml version="1.0" encoding="UTF-8"?><svg id="Layer_1" xmlns="http://www.w3.org/2000/svg" viewBox="0 0 24 24"><path d="M8,19c-.55,0-1.02-.2-1.41-.59-.39-.39-.59-.86-.59-1.41V5c0-.55.2-1.02.59-1.41.39-.39.86-.59,1.41-.59h3.2c.22-.6.58-1.08,1.09-1.45.51-.37,1.08-.55,1.71-.55s1.2.18,1.71.55c.51.37.87.85,1.09,1.45h3.2c.55,0,1.02.2,1.41.59.39.39.59.86.59,1.41v12c0,.55-.2,1.02-.59,1.41-.39.39-.86.59-1.41.59h-12ZM8,17h12V5h-12v12ZM14,4.25c.22,0,.4-.07.54-.21.14-.14.21-.32.21-.54s-.07-.4-.21-.54c-.14-.14-.32-.21-.54-.21s-.4.07-.54.21c-.14.14-.21.32-.21.54s.07.4.21.54c.14.14.32.21.54.21Z"/><path d="M9,5h10v1c0,.55-.45,1-1,1h-8c-.55,0-1-.45-1-1v-1Z"/><path d="M2,8c0-.55.45-1,1-1s1,.45,1,1v15c-1.1,0-2-.9-2-2v-13Z"/><path d="M2,21h15c.55,0,1,.45,1,1s-.45,1-1,1H4c-1.1,0-2-.9-2-2Z"/></svg>