<?xml version="1.0" encoding="UTF-8"?><svg id="Layer_1" xmlns="http://www.w3.org/2000/svg" viewBox="0 0 24 24"><path d="M5,21c-.55,0-1.02-.2-1.41-.59-.39-.39-.59-.86-.59-1.41V5c0-.55.2-1.02.59-1.41s.86-.59,1.41-.59h4.18c.18-.58.54-1.06,1.07-1.44.53-.38,1.12-.56,1.75-.56.67,0,1.26.19,1.79.56.52.38.88.85,1.06,1.44h4.15c.55,0,1.02.2,1.41.59.39.39.59.86.59,1.41v14c0,.55-.2,1.02-.59,1.41-.39.39-.86.59-1.41.59H5ZM5,19h14V5h-2v1c0,.28-.1.52-.29.71s-.43.29-.71.29h-8c-.28,0-.52-.1-.71-.29s-.29-.43-.29-.71v-1h-2v14ZM12,5c.28,0,.52-.1.71-.29s.29-.43.29-.71-.1-.52-.29-.71c-.19-.19-.43-.29-.71-.29s-.52.1-.71.29c-.19.19-.29.43-.29.71s.1.52.29.71.43.29.71.29Z"/></svg>