<?xml version="1.0" encoding="UTF-8"?><svg id="Layer_1" xmlns="http://www.w3.org/2000/svg" viewBox="0 0 24 24"><path d="M14.03,19.78c.48-.27,1.09-.1,1.36.38.27.48.1,1.09-.38,1.36l-1.97,1.1h0c-.64.36-1.43.36-2.07,0h0s-1.97-1.1-1.97-1.1c-.48-.27-.65-.88-.38-1.36.27-.48.88-.65,1.36-.38l1.96,1.1s.09.02.13,0l1.97-1.1ZM2,16.38v-2.19c0-.55.45-1,1-1s1,.45,1,1v2.19s.02.08.06.1l1.97,1.1c.48.27.65.88.38,1.36-.27.48-.88.65-1.36.38l-1.97-1.1h0c-.67-.37-1.08-1.08-1.08-1.85ZM20,16.38v-2.19c0-.55.45-1,1-1s1,.45,1,1v2.19c0,.77-.42,1.47-1.08,1.85h0s-1.97,1.1-1.97,1.1c-.48.27-1.09.1-1.36-.38-.27-.48-.1-1.09.38-1.36l1.97-1.1s.06-.06.06-.1ZM2,9.81v-2.19c0-.77.42-1.47,1.09-1.85l1.97-1.1c.48-.27,1.09-.1,1.36.38.27.48.1,1.09-.38,1.36l-1.97,1.1s-.06.06-.06.1v2.19c0,.55-.45,1-1,1s-1-.45-1-1ZM20,9.81v-2.19s-.02-.08-.06-.1l-1.97-1.1c-.48-.27-.65-.88-.38-1.36.27-.48.88-.65,1.36-.38l1.97,1.1h0c.67.37,1.08,1.08,1.08,1.85v2.19c0,.55-.45,1-1,1s-1-.45-1-1ZM10.96,1.37c.6-.33,1.33-.36,1.95-.06l.12.06h0s1.97,1.1,1.97,1.1c.48.27.65.88.38,1.36-.27.48-.88.65-1.36.38l-1.97-1.1s-.09-.02-.13,0h0s-1.96,1.1-1.96,1.1c-.48.27-1.09.1-1.36-.38-.27-.48-.1-1.09.38-1.36l1.97-1.1h0Z"/><path d="M12,7c1.38,0,2.56.49,3.54,1.46.98.97,1.46,2.15,1.46,3.54s-.49,2.56-1.46,3.54c-.97.98-2.15,1.46-3.54,1.46s-2.56-.49-3.54-1.46c-.98-.98-1.46-2.15-1.46-3.54s.49-2.56,1.46-3.54c.97-.98,2.15-1.46,3.54-1.46ZM12,9c-.13,0-.25.05-.35.15s-.15.22-.15.35v2.3c0,.13.02.26.08.38.05.12.12.23.22.33l1.53,1.52c.1.1.22.15.35.15s.25-.05.35-.15c.1-.1.15-.22.15-.35,0-.13-.05-.25-.15-.35l-1.52-1.53h0v-2.3c0-.13-.05-.25-.15-.35s-.22-.15-.35-.15Z" style="fill-rule:evenodd;"/></svg>