<?xml version="1.0" encoding="UTF-8"?><svg id="Layer_1" xmlns="http://www.w3.org/2000/svg" viewBox="0 0 24 24"><path d="M14.03,19.78c.48-.27,1.09-.1,1.36.38.27.48.1,1.09-.38,1.36l-1.97,1.1h0c-.64.36-1.43.36-2.07,0h0s-1.97-1.1-1.97-1.1c-.48-.27-.65-.88-.38-1.36.27-.48.88-.65,1.36-.38l1.96,1.1s.09.02.13,0l1.97-1.1ZM2,16.38v-2.19c0-.55.45-1,1-1s1,.45,1,1v2.19s.02.08.06.1l1.97,1.1c.48.27.65.88.38,1.36-.27.48-.88.65-1.36.38l-1.97-1.1h0c-.67-.37-1.08-1.08-1.08-1.85ZM20,16.38v-2.19c0-.55.45-1,1-1s1,.45,1,1v2.19c0,.77-.42,1.47-1.08,1.85h0s-1.97,1.1-1.97,1.1c-.48.27-1.09.1-1.36-.38-.27-.48-.1-1.09.38-1.36l1.97-1.1s.06-.06.06-.1ZM2,9.81v-2.19c0-.77.42-1.47,1.09-1.85l1.97-1.1c.48-.27,1.09-.1,1.36.38.27.48.1,1.09-.38,1.36l-1.97,1.1s-.06.06-.06.1v2.19c0,.55-.45,1-1,1s-1-.45-1-1ZM20,9.81v-2.19s-.02-.08-.06-.1l-1.97-1.1c-.48-.27-.65-.88-.38-1.36.27-.48.88-.65,1.36-.38l1.97,1.1h0c.67.37,1.08,1.08,1.08,1.85v2.19c0,.55-.45,1-1,1s-1-.45-1-1ZM10.96,1.37c.6-.33,1.33-.36,1.95-.06l.12.06h0s1.97,1.1,1.97,1.1c.48.27.65.88.38,1.36-.27.48-.88.65-1.36.38l-1.97-1.1s-.09-.02-.13,0h0s-1.96,1.1-1.96,1.1c-.48.27-1.09.1-1.36-.38-.27-.48-.1-1.09.38-1.36l1.97-1.1h0Z"/><path d="M12.67,16.67c1.11,0,2.06-.39,2.83-1.17.78-.78,1.17-1.72,1.17-2.83,0-.12,0-.24-.02-.37s-.03-.24-.05-.37c.06.02.12.04.2.05.08.01.14.02.2.02.47,0,.86-.16,1.18-.48.32-.32.48-.72.48-1.18s-.15-.86-.46-1.18c-.31-.32-.69-.48-1.16-.48-.37,0-.7.1-.99.31-.29.21-.5.47-.63.79-.37-.33-.79-.6-1.26-.8-.47-.2-.97-.3-1.51-.3h-7.33v2.67h3.33v1.33c0,1.11.39,2.06,1.17,2.83.78.78,1.72,1.17,2.83,1.17ZM17,11c-.19,0-.35-.06-.48-.19-.13-.13-.19-.29-.19-.48s.06-.35.19-.48.29-.19.48-.19.35.06.48.19.19.29.19.48-.06.35-.19.48c-.13.13-.29.19-.48.19ZM12.67,15c-.64,0-1.19-.23-1.65-.68-.46-.46-.68-1.01-.68-1.65s.23-1.19.68-1.65c.46-.46,1.01-.68,1.65-.68s1.19.23,1.65.68c.46.46.68,1.01.68,1.65s-.23,1.19-.68,1.65c-.46.46-1.01.68-1.65.68ZM12.67,14c-.37,0-.68-.13-.94-.39-.26-.26-.39-.57-.39-.94s.13-.68.39-.94c.26-.26.57-.39.94-.39s.68.13.94.39c.26.26.39.58.39.94s-.13.68-.39.94c-.26.26-.57.39-.94.39Z"/></svg>