<?xml version="1.0" encoding="UTF-8"?><svg id="Layer_1" xmlns="http://www.w3.org/2000/svg" viewBox="0 0 24 24"><path d="M5,21c-.55,0-1.02-.2-1.41-.59-.39-.39-.59-.86-.59-1.41V5c0-.55.2-1.02.59-1.41s.86-.59,1.41-.59h4.2c.22-.6.58-1.08,1.09-1.45.51-.37,1.08-.55,1.71-.55s1.2.18,1.71.55c.51.37.87.85,1.09,1.45h4.2c.55,0,1.02.2,1.41.59.39.39.59.86.59,1.41v14c0,.55-.2,1.02-.59,1.41-.39.39-.86.59-1.41.59H5ZM5,19h14V5H5v14ZM12,4.25c.22,0,.4-.07.54-.21.14-.14.21-.32.21-.54s-.07-.4-.21-.54c-.14-.14-.32-.21-.54-.21s-.4.07-.54.21c-.14.14-.21.32-.21.54s.07.4.21.54c.14.14.32.21.54.21Z"/><path d="M7,5h10v1c0,.55-.45,1-1,1h-8c-.55,0-1-.45-1-1v-1Z"/><path d="M15.29,8.29c.39-.39,1.02-.39,1.41,0,.39.39.39,1.02,0,1.41l-6,6c-.39.39-1.02.39-1.41,0l-2-2c-.39-.39-.39-1.02,0-1.41.37-.37.95-.39,1.34-.07l.08.07,1.29,1.29,5.29-5.29Z"/></svg>