<?xml version="1.0" encoding="UTF-8"?><svg id="Layer_1" xmlns="http://www.w3.org/2000/svg" viewBox="0 0 24 24"><path d="M3,17.15v-7.15c0-.53.2-.98.59-1.35.39-.37.85-.53,1.39-.5,1.32.2,2.57.59,3.76,1.16,1.19.57,2.28,1.32,3.26,2.24.98-.92,2.07-1.66,3.26-2.24,1.19-.57,2.45-.96,3.76-1.16.53-.03,1,.13,1.39.5.39.37.59.82.59,1.35v7.15c0,.53-.17.99-.52,1.36s-.79.58-1.33.61c-1.07.17-2.1.44-3.1.83-1,.38-1.93.89-2.8,1.52-.18.15-.38.26-.59.34-.21.08-.43.11-.66.11s-.45-.04-.66-.11c-.21-.08-.4-.19-.59-.34-.87-.63-1.8-1.14-2.8-1.52-1-.38-2.03-.66-3.1-.83-.53-.03-.97-.24-1.32-.61-.35-.38-.53-.83-.53-1.36ZM12,9c-1.1,0-2.04-.39-2.82-1.18s-1.18-1.72-1.18-2.82.39-2.04,1.18-2.83,1.72-1.17,2.82-1.17,2.04.39,2.82,1.17c.78.78,1.18,1.73,1.18,2.83s-.39,2.04-1.18,2.82c-.78.78-1.72,1.18-2.82,1.18Z"/></svg>