<?xml version="1.0" encoding="UTF-8"?><svg id="Layer_1" xmlns="http://www.w3.org/2000/svg" viewBox="0 0 24 24"><path d="M12,1c.63,0,1.2.18,1.71.55.51.37.87.85,1.09,1.45h4.2c.55,0,1.02.2,1.41.59s.59.86.59,1.41v14c0,.55-.2,1.02-.59,1.41s-.86.59-1.41.59H5c-.55,0-1.02-.2-1.41-.59s-.59-.86-.59-1.41V5c0-.55.2-1.02.59-1.41s.86-.59,1.41-.59h4.2c.22-.6.58-1.08,1.09-1.45.51-.37,1.08-.55,1.71-.55ZM14.3,9.72c-.28,0-.52.09-.7.28l-1.6,1.6-1.6-1.6c-.18-.18-.42-.28-.7-.28-.28,0-.52.09-.7.28-.18.18-.27.42-.27.7,0,.28.09.52.27.7l1.6,1.6-1.6,1.6c-.18.18-.27.42-.27.7,0,.28.09.52.27.7.18.18.42.28.7.28s.52-.09.7-.28l1.6-1.6,1.6,1.6c.18.18.42.28.7.28.28,0,.52-.09.7-.28s.28-.42.28-.7-.09-.52-.28-.7l-1.6-1.6,1.6-1.6c.18-.18.28-.42.28-.7,0-.28-.09-.52-.28-.7-.18-.18-.42-.28-.7-.28ZM12,2.75c-.22,0-.4.07-.54.21s-.21.32-.21.54.07.4.21.54c.14.14.32.21.54.21s.4-.07.54-.21c.14-.14.21-.32.21-.54s-.07-.4-.21-.54-.32-.21-.54-.21Z"/></svg>