<?xml version="1.0" encoding="UTF-8"?><svg id="Layer_1" xmlns="http://www.w3.org/2000/svg" viewBox="0 0 24 24"><path d="M4.81,2.01c.58,0,1.05.47,1.05,1.05v.53l8.63-.02s.09,0,.13.03c.04.02.08.04.11.08.03.03.06.07.08.11.02.04.03.09.03.14v3.17s5.55-.02,5.55-.02c.06,0,.12.02.18.05.05.03.1.08.13.13.03.05.05.12.05.18,0,.06-.02.12-.05.18l-1.96,3.35,1.98,3.33c.03.05.05.11.05.17,0,.06,0,.12-.04.17-.03.05-.06.1-.11.13-.05.03-.1.06-.16.06-.01,0-.03,0-.04,0l-9.7.03s-.03,0-.04,0c0,0,0,0,0,0-.03,0-.06-.01-.09-.02-.03-.01-.06-.03-.09-.05,0,0,0,0-.01,0,0,0-.01,0-.02-.01-.03-.03-.06-.07-.08-.11,0,0,0-.02,0-.03,0,0,0-.01,0-.02,0-.03-.01-.06-.01-.09v-3.17s-4.5.01-4.5.01v9.51c0,.58-.47,1.05-1.05,1.05-.58,0-1.05-.47-1.05-1.05V3.06c0-.58.47-1.05,1.05-1.05Z"/></svg>