<?xml version="1.0" encoding="UTF-8"?><svg id="Layer_1" xmlns="http://www.w3.org/2000/svg" viewBox="0 0 24 24"><path d="M21,16v-5.9l-8.05,4.38c-.3.17-.62.25-.95.25s-.65-.08-.95-.25L2.6,9.88c-.18-.1-.31-.23-.39-.38s-.11-.32-.11-.5.04-.35.11-.5.2-.27.39-.38L11.05,3.53c.15-.08.3-.15.46-.19.16-.04.32-.06.49-.06s.33.02.49.06c.16.04.31.1.46.19l9.52,5.2c.17.08.3.2.39.36.09.16.14.33.14.51v6.4c0,.28-.1.52-.29.71-.19.19-.43.29-.71.29s-.52-.1-.71-.29c-.19-.19-.29-.43-.29-.71ZM11.05,20.48l-5-2.7c-.33-.18-.59-.43-.77-.75-.18-.32-.28-.66-.28-1.02v-3.8l6.05,3.28c.3.17.62.25.95.25s.65-.08.95-.25l6.05-3.28v3.8c0,.37-.09.71-.27,1.02-.18.32-.44.57-.77.75l-5,2.7c-.15.08-.3.15-.46.19-.16.04-.32.06-.49.06s-.33-.02-.49-.06c-.16-.04-.31-.1-.46-.19Z"/></svg>