<?xml version="1.0" encoding="UTF-8"?><svg id="Layer_1" xmlns="http://www.w3.org/2000/svg" viewBox="0 0 24 24"><path d="M6.75,22c-.75,0-1.4-.25-1.94-.76-.54-.51-.81-1.14-.81-1.89V5.4c0-.63.2-1.2.59-1.7.39-.5.9-.82,1.54-.95l7.5-1.48c.62-.13,1.17,0,1.65.4.48.4.73.92.73,1.55v11.93c0,.48-.15.91-.45,1.29s-.68.6-1.15.69l-7.87,1.58c-.15.03-.28.11-.38.24s-.15.26-.15.41c0,.18.07.34.22.46s.33.19.53.19h11.25V5c0-.28.1-.52.29-.71.19-.19.43-.29.71-.29s.52.1.71.29c.19.19.29.43.29.71v15c0,.55-.2,1.02-.59,1.41-.39.39-.86.59-1.41.59H6.75ZM9,16.17l5-.97V3.25l-5,.97v11.95ZM7,16.58V4.62l-.38.07c-.18.03-.33.11-.45.24-.12.12-.18.28-.18.46v11.43c.08-.03.17-.06.26-.09.09-.02.18-.05.26-.06l.47-.1Z"/></svg>