<?xml version="1.0" encoding="UTF-8"?><svg id="Layer_1" xmlns="http://www.w3.org/2000/svg" viewBox="0 0 24 24"><path d="M6.75,22c-.75,0-1.4-.25-1.94-.76-.54-.51-.81-1.14-.81-1.89V5.4c0-.63.2-1.2.59-1.7.39-.5.9-.82,1.54-.95l7.5-1.48c.62-.13,1.17,0,1.65.4.48.4.73.92.73,1.55v11.93c0,.48-.15.91-.45,1.29s-.68.6-1.15.69l-7.87,1.58c-.15.03-.28.11-.38.24s-.15.26-.15.41c0,.18.07.34.22.46s.33.19.53.19h11.25V5c0-.28.1-.52.29-.71.19-.19.43-.29.71-.29s.52.1.71.29c.19.19.29.43.29.71v15c0,.55-.2,1.02-.59,1.41-.39.39-.86.59-1.41.59H6.75ZM8.2,16.35c.23-.05.43-.17.57-.35.15-.18.23-.39.23-.62V5.45c0-.32-.12-.57-.36-.77-.24-.2-.52-.27-.84-.2-.23.05-.43.17-.58.35-.15.18-.22.39-.22.62v9.93c0,.32.12.57.36.77.24.2.52.27.84.2Z"/></svg>