<?xml version="1.0" encoding="UTF-8"?><svg id="Layer_1" xmlns="http://www.w3.org/2000/svg" viewBox="0 0 24 24"><path d="M21,15c.28,0,.52.1.71.3.19.2.29.44.29.73v.25c0,.23-.07.43-.21.6s-.32.29-.54.38c-.23.12-.42.29-.55.51-.11.18-.17.38-.19.58,0,.05,0,.1,0,.15,0,.27.07.51.2.74.13.22.32.4.55.51.22.08.4.21.54.38s.21.37.21.6v.25c0,.28-.1.53-.29.73-.19.2-.43.3-.71.3H5.5c-.36,0-.71-.05-1.03-.14-.11-.03-.21-.07-.32-.11-.05-.02-.1-.04-.15-.07-.15-.07-.3-.16-.44-.25-.19-.13-.37-.28-.54-.45-.68-.68-1.02-1.51-1.02-2.47,0-.42.07-.82.2-1.19.09-.26.22-.51.38-.75.13-.19.28-.37.45-.54.68-.68,1.51-1.03,2.48-1.03h15.5ZM5.5,17c-.43,0-.79.15-1.08.44-.25.26-.39.56-.42.91,0,.05,0,.1,0,.15,0,.42.14.77.42,1.06.21.22.47.36.76.41.1.02.2.03.31.03h13.33c-.12-.23-.2-.47-.25-.72-.05-.25-.08-.51-.08-.78,0-.05,0-.1,0-.15,0-.21.03-.42.07-.62.05-.25.13-.49.25-.72H5.5Z" style="fill-rule:evenodd;"/><path d="M6,17h2v3h-2v-3Z"/><path d="M12,16c-1.39,0-2.57-.46-3.54-1.39-.97-.93-1.46-2.06-1.46-3.39,0-1.07.33-2.03.99-2.88.66-.85,1.53-1.42,2.6-1.72-.39-.09-.74-.25-1.03-.49-.29-.23-.53-.52-.71-.85-.18-.33-.3-.69-.38-1.08-.07-.39-.08-.78-.04-1.18.49-.06.95-.03,1.39.09.44.11.84.3,1.2.55.36.25.65.55.88.91.23.35.37.75.42,1.2.15-.35.34-.69.56-1,.22-.31.47-.6.74-.86.13-.13.3-.19.5-.19s.37.06.5.19c.13.13.2.28.2.48s-.07.35-.2.48c-.26.25-.49.53-.7.83-.2.3-.35.62-.45.97,1.05.32,1.89.9,2.54,1.73.64.84.96,1.78.96,2.83,0,1.33-.49,2.46-1.46,3.39-.97.93-2.15,1.39-3.54,1.39Z"/></svg>