<?xml version="1.0" encoding="UTF-8"?><svg id="Layer_1" xmlns="http://www.w3.org/2000/svg" viewBox="0 0 24 24"><path d="M6,15.32c.23-.12.47-.2.72-.25s.51-.07.78-.07h.5V4h-.5c-.42,0-.77.15-1.06.44s-.44.65-.44,1.06v9.82ZM10,15h8V4h-8v11ZM7.5,22c-.97,0-1.79-.34-2.47-1.02s-1.03-1.51-1.03-2.48V5.5c0-.97.34-1.79,1.03-2.47.68-.68,1.51-1.03,2.47-1.03h10.5c.55,0,1.02.2,1.41.59.39.39.59.86.59,1.41v12.52c0,.13-.05.25-.16.36s-.3.23-.59.36c-.23.12-.42.28-.55.5-.13.22-.2.47-.2.75s.07.54.2.76c.13.22.32.39.55.49s.42.24.55.41c.13.17.2.36.2.56v.25c0,.28-.1.52-.29.73-.19.2-.43.3-.71.3H7.5ZM7.5,20h9.33c-.1-.23-.18-.47-.24-.71-.06-.24-.09-.5-.09-.79,0-.27.02-.52.08-.77.05-.25.13-.49.25-.73H7.5c-.43,0-.79.15-1.07.44s-.43.65-.43,1.06.14.79.43,1.08c.28.28.64.42,1.07.42Z"/></svg>