<?xml version="1.0" encoding="UTF-8"?><svg id="Layer_1" xmlns="http://www.w3.org/2000/svg" viewBox="0 0 24 24"><path d="M3,20c-.28,0-.52-.1-.71-.29-.19-.19-.29-.43-.29-.71s.1-.52.29-.71c.19-.19.43-.29.71-.29h18c.28,0,.52.1.71.29s.29.43.29.71-.1.52-.29.71-.43.29-.71.29H3ZM5,16c-.28,0-.52-.1-.71-.29s-.29-.43-.29-.71v-6c0-.28.1-.52.29-.71.19-.19.43-.29.71-.29s.52.1.71.29c.19.19.29.43.29.71v6c0,.28-.1.52-.29.71s-.43.29-.71.29ZM9,16c-.28,0-.52-.1-.71-.29-.19-.19-.29-.43-.29-.71V5c0-.28.1-.52.29-.71.19-.19.43-.29.71-.29s.52.1.71.29c.19.19.29.43.29.71v10c0,.28-.1.52-.29.71-.19.19-.43.29-.71.29ZM13,16c-.28,0-.52-.1-.71-.29s-.29-.43-.29-.71V5c0-.28.1-.52.29-.71s.43-.29.71-.29.52.1.71.29.29.43.29.71v10c0,.28-.1.52-.29.71s-.43.29-.71.29ZM19.88,15.5c-.23.13-.49.16-.76.09-.27-.07-.48-.23-.61-.46l-3-5.25c-.13-.23-.16-.49-.09-.76.07-.28.23-.48.46-.61.23-.13.49-.16.76-.09.27.07.48.23.61.46l3,5.25c.13.23.16.49.09.76-.07.28-.23.48-.46.61Z"/></svg>