<?xml version="1.0" encoding="UTF-8"?><svg id="Layer_1" xmlns="http://www.w3.org/2000/svg" viewBox="0 0 24 24"><path d="M2,14c-.55,0-1.02-.2-1.41-.59-.39-.39-.59-.86-.59-1.41v-6c0-.2.04-.39.12-.57.08-.18.19-.34.32-.48L3.6,1.8c.15-.15.32-.26.5-.34.18-.07.37-.11.55-.11.43,0,.81.17,1.12.5.32.33.43.76.35,1.27l-.32,1.88h5.2c.28,0,.52.1.71.29.19.19.29.43.29.71v1.25c0,.1,0,.2-.02.29-.02.09-.04.18-.08.26l-2.25,5.3c-.12.28-.3.5-.56.66-.26.16-.54.24-.84.24H2ZM7.95,12l2.05-4.85v-.15H3.35l.6-2.7-1.95,1.9v5.8h5.95ZM13,19c-.28,0-.52-.1-.71-.29-.19-.19-.29-.43-.29-.71v-1.25c0-.1,0-.2.02-.29.02-.09.04-.18.08-.26l2.25-5.3c.13-.28.32-.5.57-.66.25-.16.52-.24.82-.24h6.25c.55,0,1.02.2,1.41.59.39.39.59.86.59,1.41v6c0,.2-.04.39-.11.56-.08.17-.19.34-.34.49l-3.15,3.15c-.15.15-.32.26-.5.34-.18.07-.37.11-.55.11-.43,0-.81-.17-1.12-.5-.32-.33-.43-.76-.35-1.27l.33-1.88h-5.2ZM16.05,12l-2.05,4.85v.15h6.65l-.6,2.7,1.95-1.9v-5.8h-5.95Z"/></svg>