<?xml version="1.0" encoding="UTF-8"?><svg id="Layer_1" xmlns="http://www.w3.org/2000/svg" viewBox="0 0 24 24"><path d="M3,18v-4c0-.28.1-.52.29-.71.19-.19.43-.29.71-.29h6c.28,0,.52.1.71.29s.29.43.29.71v4c0,.28-.1.52-.29.71s-.43.29-.71.29h-6c-.28,0-.52-.1-.71-.29-.19-.19-.29-.43-.29-.71ZM13,18v-4c0-.28.1-.52.29-.71s.43-.29.71-.29h6c.28,0,.52.1.71.29s.29.43.29.71v4c0,.28-.1.52-.29.71s-.43.29-.71.29h-6c-.28,0-.52-.1-.71-.29s-.29-.43-.29-.71ZM3,10v-4c0-.28.1-.52.29-.71.19-.19.43-.29.71-.29h6c.28,0,.52.1.71.29s.29.43.29.71v4c0,.28-.1.52-.29.71s-.43.29-.71.29h-6c-.28,0-.52-.1-.71-.29-.19-.19-.29-.43-.29-.71ZM13,10v-4c0-.28.1-.52.29-.71s.43-.29.71-.29h6c.28,0,.52.1.71.29s.29.43.29.71v4c0,.28-.1.52-.29.71s-.43.29-.71.29h-6c-.28,0-.52-.1-.71-.29s-.29-.43-.29-.71ZM5,17h4v-2h-4v2ZM15,17h4v-2h-4v2ZM5,9h4v-2h-4v2Z"/></svg>