<?xml version="1.0" encoding="UTF-8"?><svg id="Layer_1" xmlns="http://www.w3.org/2000/svg" viewBox="0 0 24 24"><path d="M12,4c1,0,1.98.17,2.94.5.96.33,1.86.82,2.71,1.45l.7-.7c.18-.18.42-.28.7-.28s.52.09.7.28.27.42.27.7-.09.52-.27.7l-.7.7c.63.85,1.12,1.75,1.45,2.71.33.96.5,1.94.5,2.94,0,.43-.03.86-.1,1.29-.07.42-.17.85-.3,1.29-.12.37-.3.61-.56.72-.26.12-.5.13-.74.05-.23-.08-.43-.23-.59-.45s-.19-.47-.09-.75c.13-.37.23-.73.29-1.09s.09-.71.09-1.06c0-1.93-.68-3.58-2.05-4.95-1.37-1.37-3.02-2.05-4.95-2.05-.33,0-.69.03-1.07.09-.38.06-.77.15-1.15.29-.28.08-.52.05-.72-.1-.2-.15-.34-.34-.43-.58-.08-.23-.07-.48.04-.74.11-.26.33-.45.66-.56.43-.13.88-.23,1.32-.3s.9-.1,1.35-.1ZM13,10.2v-1.2c0-.28-.1-.52-.29-.71-.19-.19-.43-.29-.71-.29-.17,0-.32.03-.46.1-.14.07-.25.17-.34.3l1.8,1.8ZM12,22c-1.23,0-2.4-.24-3.49-.71-1.09-.48-2.05-1.12-2.86-1.94-.82-.82-1.46-1.77-1.94-2.86-.47-1.09-.71-2.25-.71-3.49,0-1,.15-1.96.46-2.89.31-.93.75-1.76,1.34-2.51l-2.7-2.7c-.18-.18-.27-.42-.27-.7s.09-.52.27-.7c.18-.18.42-.28.7-.28s.52.09.7.28l17,17c.18.18.27.42.27.7s-.09.52-.27.7-.42.27-.7.27-.52-.09-.7-.27l-1.7-1.7c-.8.58-1.66,1.03-2.59,1.34s-1.86.46-2.81.46ZM12,20c.7,0,1.38-.11,2.05-.33.67-.22,1.29-.52,1.88-.92L6.2,9.02c-.4.58-.7,1.21-.9,1.88-.2.67-.3,1.37-.3,2.1,0,1.93.68,3.58,2.05,4.95,1.37,1.37,3.02,2.05,4.95,2.05ZM10,3c-.28,0-.52-.1-.71-.29-.19-.19-.29-.43-.29-.71s.1-.52.29-.71c.19-.19.43-.29.71-.29h4c.28,0,.52.1.71.29.19.19.29.43.29.71s-.1.52-.29.71c-.19.19-.43.29-.71.29h-4Z"/></svg>