<?xml version="1.0" encoding="UTF-8"?><svg id="Layer_1" xmlns="http://www.w3.org/2000/svg" viewBox="0 0 24 24"><path d="M13,11.6v-3.6c0-.28-.1-.52-.29-.71s-.43-.29-.71-.29-.52.1-.71.29-.29.43-.29.71v3.98c0,.13.02.26.07.39s.12.24.23.34l3.3,3.3c.18.18.42.27.7.27s.52-.09.7-.27.27-.42.27-.7-.09-.52-.27-.7l-3-3ZM12,22c-1.38,0-2.68-.26-3.9-.79-1.22-.52-2.28-1.24-3.18-2.14-.9-.9-1.61-1.96-2.14-3.18-.52-1.22-.79-2.52-.79-3.9s.26-2.68.79-3.9c.53-1.22,1.24-2.28,2.14-3.18.9-.9,1.96-1.61,3.18-2.14,1.22-.52,2.52-.79,3.9-.79s2.68.26,3.9.79c1.22.53,2.27,1.24,3.18,2.14.9.9,1.61,1.96,2.14,3.18.52,1.22.79,2.52.79,3.9s-.26,2.68-.79,3.9-1.24,2.27-2.14,3.18c-.9.9-1.96,1.61-3.18,2.14s-2.52.79-3.9.79ZM12,20c2.22,0,4.1-.78,5.66-2.34s2.34-3.45,2.34-5.66-.78-4.1-2.34-5.66-3.45-2.34-5.66-2.34-4.1.78-5.66,2.34-2.34,3.45-2.34,5.66.78,4.1,2.34,5.66,3.45,2.34,5.66,2.34Z"/></svg>