<?xml version="1.0" encoding="UTF-8"?><svg id="Layer_1" xmlns="http://www.w3.org/2000/svg" viewBox="0 0 24 24"><path d="M12,21c-2.1,0-3.96-.64-5.57-1.91-1.62-1.27-2.67-2.9-3.15-4.89-.07-.25-.02-.48.15-.69.17-.21.39-.33.67-.36.27-.03.51.02.72.15s.37.33.45.6c.4,1.5,1.22,2.73,2.47,3.68,1.25.95,2.67,1.42,4.25,1.42,1.95,0,3.6-.68,4.96-2.04,1.36-1.36,2.04-3.01,2.04-4.96s-.68-3.6-2.04-4.96c-1.36-1.36-3.01-2.04-4.96-2.04-1.15,0-2.23.27-3.23.8-1,.53-1.84,1.27-2.52,2.2h1.75c.28,0,.52.1.71.29.19.19.29.43.29.71s-.1.52-.29.71c-.19.19-.43.29-.71.29h-4c-.28,0-.52-.1-.71-.29-.19-.19-.29-.43-.29-.71v-4c0-.28.1-.52.29-.71.19-.19.43-.29.71-.29s.52.1.71.29.29.43.29.71v1.35c.85-1.07,1.89-1.89,3.11-2.47,1.22-.58,2.52-.88,3.89-.88,1.25,0,2.42.24,3.51.71,1.09.47,2.04,1.12,2.85,1.92.81.81,1.45,1.76,1.93,2.85.48,1.09.71,2.26.71,3.51s-.24,2.42-.71,3.51c-.48,1.09-1.12,2.04-1.93,2.85s-1.76,1.45-2.85,1.93c-1.09.48-2.26.71-3.51.71ZM13,11.6l2.5,2.5c.18.18.27.42.27.7s-.09.52-.27.7-.42.27-.7.27-.52-.09-.7-.27l-2.8-2.8c-.1-.1-.18-.21-.23-.34s-.07-.25-.07-.39v-3.98c0-.28.1-.52.29-.71s.43-.29.71-.29.52.1.71.29.29.43.29.71v3.6Z"/></svg>