<?xml version="1.0" encoding="UTF-8"?><svg id="Layer_1" xmlns="http://www.w3.org/2000/svg" viewBox="0 0 24 24"><path d="M10,3c-.28,0-.52-.1-.71-.29-.19-.19-.29-.43-.29-.71s.1-.52.29-.71c.19-.19.43-.29.71-.29h4c.28,0,.52.1.71.29.19.19.29.43.29.71s-.1.52-.29.71c-.19.19-.43.29-.71.29h-4ZM12,14c.28,0,.52-.1.71-.29s.29-.43.29-.71v-4c0-.28-.1-.52-.29-.71-.19-.19-.43-.29-.71-.29s-.52.1-.71.29c-.19.19-.29.43-.29.71v4c0,.28.1.52.29.71s.43.29.71.29ZM12,22c-1.23,0-2.4-.24-3.49-.71s-2.05-1.12-2.86-1.94-1.46-1.77-1.94-2.86c-.48-1.09-.71-2.25-.71-3.49s.24-2.4.71-3.49c.47-1.09,1.12-2.05,1.94-2.86s1.77-1.46,2.86-1.94,2.25-.71,3.49-.71c1.03,0,2.02.17,2.98.5.95.33,1.84.82,2.67,1.45l.7-.7c.18-.18.42-.28.7-.28s.52.09.7.28.27.42.27.7-.09.52-.27.7l-.7.7c.63.83,1.12,1.72,1.45,2.67.33.95.5,1.94.5,2.98,0,1.23-.24,2.4-.71,3.49-.48,1.09-1.12,2.05-1.94,2.86s-1.77,1.46-2.86,1.94-2.25.71-3.49.71ZM12,20c1.93,0,3.58-.68,4.95-2.05,1.37-1.37,2.05-3.02,2.05-4.95s-.68-3.58-2.05-4.95c-1.37-1.37-3.02-2.05-4.95-2.05s-3.58.68-4.95,2.05c-1.37,1.37-2.05,3.02-2.05,4.95s.68,3.58,2.05,4.95c1.37,1.37,3.02,2.05,4.95,2.05Z"/></svg>