<?xml version="1.0" encoding="UTF-8"?><svg id="Layer_1" xmlns="http://www.w3.org/2000/svg" viewBox="0 0 24 24"><path d="M12,11.6l2.5,2.5c.18.18.27.42.27.7s-.09.52-.27.7-.42.27-.7.27-.52-.09-.7-.27l-2.8-2.8c-.1-.1-.18-.21-.23-.34s-.07-.25-.07-.39v-3.98c0-.28.1-.52.29-.71s.43-.29.71-.29.52.1.71.29.29.43.29.71v3.6ZM18,6h-2c-.28,0-.52-.1-.71-.29s-.29-.43-.29-.71.1-.52.29-.71.43-.29.71-.29h2v-2c0-.28.1-.52.29-.71.19-.19.43-.29.71-.29s.52.1.71.29c.19.19.29.43.29.71v2h2c.28,0,.52.1.71.29s.29.43.29.71-.1.52-.29.71-.43.29-.71.29h-2v2c0,.28-.1.52-.29.71-.19.19-.43.29-.71.29s-.52-.1-.71-.29c-.19-.19-.29-.43-.29-.71v-2ZM11,21c-1.25,0-2.42-.23-3.51-.7-1.09-.47-2.05-1.11-2.86-1.92s-1.46-1.77-1.92-2.86c-.47-1.09-.7-2.26-.7-3.51s.23-2.42.7-3.51,1.11-2.05,1.92-2.86,1.77-1.46,2.86-1.92c1.09-.47,2.26-.7,3.51-.7.18,0,.35,0,.51.01.16,0,.33.03.51.06.28,0,.52.1.71.29s.29.43.29.71-.1.52-.29.71-.43.29-.71.29c-.18,0-.35-.01-.51-.04-.16-.03-.33-.04-.51-.04-1.97,0-3.62.68-4.97,2.03s-2.03,3.01-2.03,4.97.68,3.62,2.03,4.98,3.01,2.02,4.97,2.02,3.62-.67,4.98-2.02,2.02-3.01,2.02-4.98c0-.28.1-.52.29-.71s.43-.29.71-.29.52.1.71.29.29.43.29.71c0,1.25-.23,2.42-.7,3.51-.47,1.09-1.11,2.05-1.92,2.86s-1.77,1.46-2.86,1.92c-1.09.47-2.26.7-3.51.7Z"/></svg>