<?xml version="1.0" encoding="UTF-8"?><svg id="Layer_1" xmlns="http://www.w3.org/2000/svg" viewBox="0 0 24 24"><path d="M13,12.6v-3.6c0-.28-.1-.52-.29-.71-.19-.19-.43-.29-.71-.29s-.52.1-.71.29c-.19.19-.29.43-.29.71v3.97c0,.13.03.26.07.39.05.12.12.24.23.34l2.8,2.8c.18.18.42.27.7.27s.52-.09.7-.27c.18-.18.28-.42.28-.7s-.09-.52-.28-.7l-2.5-2.5ZM12,22c-1.25,0-2.42-.24-3.51-.71-1.09-.48-2.04-1.12-2.85-1.93-.81-.81-1.45-1.76-1.93-2.85-.47-1.09-.71-2.26-.71-3.51s.24-2.42.71-3.51c.47-1.09,1.12-2.04,1.93-2.85.81-.81,1.76-1.45,2.85-1.92,1.09-.47,2.26-.71,3.51-.71s2.42.24,3.51.71,2.04,1.12,2.85,1.92c.81.81,1.45,1.76,1.92,2.85.48,1.09.71,2.26.71,3.51s-.24,2.42-.71,3.51c-.47,1.09-1.12,2.04-1.92,2.85-.81.81-1.76,1.45-2.85,1.93s-2.26.71-3.51.71ZM2.05,7.3c-.18-.18-.28-.42-.28-.7s.09-.52.28-.7l2.85-2.85c.18-.18.42-.28.7-.28s.52.09.7.28.28.42.28.7-.09.52-.28.7l-2.85,2.85c-.18.18-.42.27-.7.27s-.52-.09-.7-.27ZM21.95,7.3c-.18.18-.42.27-.7.27s-.52-.09-.7-.27l-2.85-2.85c-.18-.18-.27-.42-.27-.7s.09-.52.27-.7c.18-.18.42-.28.7-.28s.52.09.7.28l2.85,2.85c.18.18.27.42.27.7s-.09.52-.27.7ZM12,20c1.95,0,3.6-.68,4.96-2.04,1.36-1.36,2.04-3.01,2.04-4.96s-.68-3.6-2.04-4.96c-1.36-1.36-3.01-2.04-4.96-2.04s-3.6.68-4.96,2.04c-1.36,1.36-2.04,3.01-2.04,4.96s.68,3.6,2.04,4.96c1.36,1.36,3.01,2.04,4.96,2.04Z"/></svg>