<?xml version="1.0" encoding="UTF-8"?><svg id="Layer_1" xmlns="http://www.w3.org/2000/svg" viewBox="0 0 24 24"><path d="M12,22c-1.38,0-2.68-.26-3.9-.79-1.22-.52-2.28-1.24-3.18-2.14-.9-.9-1.61-1.96-2.14-3.18-.52-1.22-.79-2.52-.79-3.9s.26-2.68.79-3.9c.52-1.22,1.24-2.28,2.14-3.18.9-.9,1.96-1.61,3.18-2.14,1.22-.52,2.52-.79,3.9-.79s2.68.26,3.9.79c1.22.53,2.27,1.24,3.18,2.14.9.9,1.61,1.96,2.14,3.18.52,1.22.79,2.52.79,3.9s-.26,2.68-.79,3.9c-.53,1.22-1.24,2.27-2.14,3.18-.9.9-1.96,1.61-3.18,2.14s-2.52.79-3.9.79ZM13,4.05v15.9c2.02-.25,3.69-1.13,5.01-2.65,1.32-1.52,1.99-3.28,1.99-5.3s-.66-3.78-1.99-5.3c-1.33-1.52-3-2.4-5.01-2.65ZM11,5v-.95c-.5.08-.99.2-1.48.34-.48.14-.94.35-1.38.61h2.85ZM11,8v-1h-5.25c-.13.15-.25.31-.35.47-.1.17-.2.34-.3.53h5.9ZM11,11v-1h-6.75l-.2,1h6.95ZM11,14v-1h-6.95l.2,1h6.75ZM11,17v-1h-5.9c.1.18.2.36.3.52s.22.33.35.48h5.25ZM11,19.95v-.95h-2.85c.43.27.89.47,1.38.61.48.14.98.25,1.48.34Z"/></svg>