<?xml version="1.0" encoding="UTF-8"?><svg id="Layer_1" xmlns="http://www.w3.org/2000/svg" viewBox="0 0 24 24"><path d="M5.95,21c-.32,0-.57-.13-.75-.39-.18-.26-.23-.54-.15-.84L9.5,3.7c.07-.22.18-.39.35-.51.17-.12.36-.19.57-.19.33,0,.59.13.77.39.18.26.23.54.15.84l-.5,1.78h5.62l.62-2.3c.07-.22.19-.39.36-.51.18-.12.37-.19.59-.19.32,0,.57.13.75.39.18.26.23.54.15.84l-4.45,16.07c-.07.22-.18.39-.35.51-.17.12-.36.19-.58.19-.33,0-.59-.13-.77-.39-.18-.26-.23-.54-.15-.84l.5-1.77h-5.63l-.62,2.3c-.07.22-.19.39-.36.51-.18.12-.37.19-.59.19ZM9.47,11h5.6l.83-3h-5.6l-.82,3ZM8.1,16h5.6l.83-3h-5.6l-.82,3Z"/></svg>