<?xml version="1.0" encoding="UTF-8"?><svg id="Layer_1" xmlns="http://www.w3.org/2000/svg" viewBox="0 0 24 24"><path d="M11.39,1.16c.38-.21.84-.21,1.22,0l8.75,4.89c.39.22.64.63.64,1.08v9.73c0,.45-.24.86-.64,1.08l-8.75,4.89c-.38.21-.84.21-1.22,0l-8.75-4.89c-.39-.22-.64-.63-.64-1.08V7.14c0-.45.24-.86.64-1.08L11.39,1.16ZM16.49,8c-.45,0-.86.18-1.13.48l-3.36,3.13-3.35-3.13c-.28-.29-.68-.48-1.13-.48-.83,0-1.51.63-1.51,1.41v5.46c0,.62.54,1.13,1.21,1.13h9.58c.67,0,1.21-.51,1.21-1.13v-5.46c0-.78-.68-1.41-1.51-1.41Z"/></svg>