<?xml version="1.0" encoding="UTF-8"?><svg id="Layer_1" xmlns="http://www.w3.org/2000/svg" viewBox="0 0 24 24"><path d="M11.39,1.16c.38-.21.84-.21,1.22,0l8.75,4.89c.39.22.64.63.64,1.08v9.73c0,.45-.24.86-.64,1.08l-8.75,4.89c-.38.21-.84.21-1.22,0l-8.75-4.89c-.39-.22-.64-.63-.64-1.08V7.14c0-.45.24-.86.64-1.08L11.39,1.16ZM12,7c-1.39,0-2.57.48-3.54,1.46-.97.98-1.46,2.15-1.46,3.54s.48,2.56,1.46,3.54c.98.97,2.15,1.46,3.54,1.46s2.57-.48,3.54-1.46c.97-.98,1.46-2.15,1.46-3.54s-.48-2.57-1.46-3.54c-.98-.97-2.16-1.46-3.54-1.46ZM12,9c.13,0,.25.05.35.15s.15.22.15.35v2.3h0l1.52,1.53c.1.1.15.22.15.35,0,.13-.05.25-.15.35-.1.1-.22.15-.35.15-.13,0-.25-.05-.35-.15l-1.53-1.52c-.1-.1-.17-.21-.22-.33-.06-.12-.08-.25-.08-.38v-2.3c0-.13.05-.25.15-.35s.22-.15.35-.15Z"/></svg>