<?xml version="1.0" encoding="UTF-8"?><svg id="Layer_1" xmlns="http://www.w3.org/2000/svg" viewBox="0 0 24 24"><path d="M11.39,1.16c.38-.21.84-.21,1.22,0l8.75,4.89c.39.22.64.63.64,1.08v9.73c0,.45-.24.86-.64,1.08l-8.75,4.89c-.38.21-.84.21-1.22,0l-8.75-4.89c-.39-.22-.64-.63-.64-1.08V7.14c0-.45.24-.86.64-1.08L11.39,1.16ZM11.89,6c-.29,0-.55.1-.76.31-.21.21-.31.46-.31.76,0,.21.05.39.15.55.1.16.23.29.4.39l-.34.62c-.19.34-.45.61-.78.8-.33.2-.7.29-1.09.29-.22,0-.44-.04-.64-.11-.2-.08-.4-.17-.6-.29.07-.09.13-.19.16-.29.04-.11.05-.22.05-.35,0-.29-.1-.55-.31-.76-.21-.21-.46-.32-.76-.32-.29,0-.55.11-.76.32-.21.21-.31.46-.31.76,0,.34.13.62.38.83.25.21.55.29.88.23l1.03,5.56c.04.26.17.47.36.64.2.17.42.25.68.25h5.12c.26,0,.49-.08.68-.25.2-.17.32-.38.36-.64l1.03-5.56c.33.06.62-.01.88-.23.25-.21.38-.49.38-.83,0-.29-.1-.55-.31-.76-.21-.21-.46-.32-.76-.32-.29,0-.55.11-.76.32-.21.21-.32.46-.32.76,0,.12.02.24.05.35.04.11.09.21.16.3-.2.12-.4.21-.6.28-.2.07-.41.11-.64.11-.39,0-.76-.1-1.09-.29-.33-.2-.6-.46-.78-.8l-.34-.62c.17-.1.3-.23.4-.39.1-.16.15-.34.15-.55,0-.29-.11-.55-.32-.76-.21-.21-.46-.31-.76-.31Z"/></svg>