<?xml version="1.0" encoding="UTF-8"?><svg id="Layer_1" xmlns="http://www.w3.org/2000/svg" viewBox="0 0 24 24"><path d="M11.39,1.16c.38-.21.84-.21,1.22,0l8.75,4.89c.39.22.64.63.64,1.08v9.73c0,.45-.24.86-.64,1.08l-8.75,4.89c-.38.21-.84.21-1.22,0l-8.75-4.89c-.39-.22-.64-.63-.64-1.08V7.14c0-.45.24-.86.64-1.08L11.39,1.16ZM12,6c-.36,0-.7.19-.88.49l-1.42,2.46-2.89.53c-.36.07-.65.31-.76.64-.11.33-.03.69.22.95l2.01,2.05-.37,2.79c-.05.35.11.69.41.89.29.2.68.24,1.01.09l2.67-1.19,2.67,1.19c.13.06.28.09.42.09.21,0,.41-.06.59-.18.29-.2.45-.55.4-.89l-.37-2.79,2.01-2.05c.25-.25.33-.62.22-.95-.11-.33-.4-.58-.76-.64l-2.89-.53-1.42-2.46c-.18-.3-.51-.49-.88-.49Z"/></svg>