<?xml version="1.0" encoding="UTF-8"?><svg id="Layer_1" xmlns="http://www.w3.org/2000/svg" viewBox="0 0 24 24"><path d="M11.39,1.16c.38-.21.84-.21,1.22,0l8.75,4.89c.39.22.64.63.64,1.08v9.73c0,.45-.24.86-.64,1.08l-8.75,4.89c-.38.21-.84.21-1.22,0l-8.75-4.89c-.39-.22-.64-.63-.64-1.08V7.14c0-.45.24-.86.64-1.08L11.39,1.16ZM8,15c-.28,0-.52.1-.71.29-.19.19-.29.43-.29.71s.1.52.29.71c.19.19.43.29.71.29s.52-.1.71-.29c.19-.19.29-.43.29-.71s-.1-.52-.29-.71c-.19-.19-.43-.29-.71-.29ZM12,15c-.28,0-.52.1-.71.29-.19.19-.29.43-.29.71s.1.52.29.71c.19.19.43.29.71.29h4c.28,0,.52-.1.71-.29.19-.19.29-.43.29-.71s-.1-.52-.29-.71c-.19-.19-.43-.29-.71-.29h-4ZM8,11c-.28,0-.52.1-.71.29-.19.19-.29.43-.29.71s.1.52.29.71c.19.19.43.29.71.29s.52-.1.71-.29c.19-.19.29-.43.29-.71s-.1-.52-.29-.71c-.19-.19-.43-.29-.71-.29ZM12,11c-.28,0-.52.1-.71.29-.19.19-.29.43-.29.71s.1.52.29.71c.19.19.43.29.71.29h4c.28,0,.52-.1.71-.29.19-.19.29-.43.29-.71s-.1-.52-.29-.71c-.19-.19-.43-.29-.71-.29h-4ZM8,7c-.28,0-.52.1-.71.29-.19.19-.29.43-.29.71s.1.52.29.71c.19.19.43.29.71.29s.52-.1.71-.29.29-.43.29-.71-.1-.52-.29-.71c-.19-.19-.43-.29-.71-.29ZM12,7c-.28,0-.52.1-.71.29-.19.19-.29.43-.29.71s.1.52.29.71c.19.19.43.29.71.29h4c.28,0,.52-.1.71-.29.19-.19.29-.43.29-.71s-.1-.52-.29-.71c-.19-.19-.43-.29-.71-.29h-4Z" style="fill-rule:evenodd;"/></svg>