<?xml version="1.0" encoding="UTF-8"?><svg id="Layer_1" xmlns="http://www.w3.org/2000/svg" viewBox="0 0 24 24"><path d="M14.03,19.78c.48-.27,1.09-.1,1.36.38.27.48.1,1.09-.38,1.36l-1.97,1.1h0c-.64.36-1.43.36-2.07,0h0s-1.97-1.1-1.97-1.1c-.48-.27-.65-.88-.38-1.36.27-.48.88-.65,1.36-.38l1.96,1.1s.09.02.13,0l1.97-1.1ZM2,16.38v-2.19c0-.55.45-1,1-1s1,.45,1,1v2.19s.02.08.06.1l1.97,1.1c.48.27.65.88.38,1.36-.27.48-.88.65-1.36.38l-1.97-1.1h0c-.67-.37-1.08-1.08-1.08-1.85ZM20,16.38v-2.19c0-.55.45-1,1-1s1,.45,1,1v2.19c0,.77-.42,1.47-1.08,1.85h0s-1.97,1.1-1.97,1.1c-.48.27-1.09.1-1.36-.38-.27-.48-.1-1.09.38-1.36l1.97-1.1s.06-.06.06-.1ZM2,9.81v-2.19c0-.77.42-1.47,1.09-1.85l1.97-1.1c.48-.27,1.09-.1,1.36.38.27.48.1,1.09-.38,1.36l-1.97,1.1s-.06.06-.06.1v2.19c0,.55-.45,1-1,1s-1-.45-1-1ZM20,9.81v-2.19s-.02-.08-.06-.1l-1.97-1.1c-.48-.27-.65-.88-.38-1.36.27-.48.88-.65,1.36-.38l1.97,1.1h0c.67.37,1.08,1.08,1.08,1.85v2.19c0,.55-.45,1-1,1s-1-.45-1-1ZM10.96,1.37c.6-.33,1.33-.36,1.95-.06l.12.06h0s1.97,1.1,1.97,1.1c.48.27.65.88.38,1.36-.27.48-.88.65-1.36.38l-1.97-1.1s-.09-.02-.13,0h0s-1.96,1.1-1.96,1.1c-.48.27-1.09.1-1.36-.38-.27-.48-.1-1.09.38-1.36l1.97-1.1h0Z"/><path d="M12,17c-1.38,0-2.56-.49-3.54-1.46-.97-.97-1.46-2.15-1.46-3.54s.49-2.56,1.46-3.54c.97-.97,2.15-1.46,3.54-1.46s2.56.49,3.54,1.46c.98.98,1.46,2.15,1.46,3.54s-.49,2.56-1.46,3.54c-.98.98-2.15,1.46-3.54,1.46ZM11.98,13.55l2.25-2.23c.15-.15.22-.32.22-.52s-.07-.38-.22-.53c-.15-.15-.33-.22-.53-.21-.2,0-.38.08-.52.21l-1.9,1.85-.45-.45c-.15-.15-.32-.22-.52-.21-.2,0-.38.09-.53.24-.13.15-.2.32-.21.52,0,.2.06.38.21.53l.8.8c.2.2.43.3.7.3s.5-.1.7-.3Z"/></svg>