<?xml version="1.0" encoding="UTF-8"?><svg id="Layer_1" xmlns="http://www.w3.org/2000/svg" viewBox="0 0 24 24"><path d="M11.39,1.16c.38-.21.84-.21,1.22,0l8.75,4.89c.39.22.64.63.64,1.08v9.73c0,.45-.24.86-.64,1.08l-8.75,4.89c-.38.21-.84.21-1.22,0l-8.75-4.89c-.39-.22-.64-.63-.64-1.08V7.14c0-.45.24-.86.64-1.08L11.39,1.16ZM12,7c-1.38,0-2.56.49-3.54,1.46-.97.98-1.46,2.15-1.46,3.54s.49,2.56,1.46,3.54c.98.98,2.15,1.46,3.54,1.46s2.56-.49,3.54-1.46c.98-.97,1.46-2.15,1.46-3.54s-.49-2.56-1.46-3.54c-.97-.97-2.15-1.46-3.54-1.46ZM13.7,10.06c.2,0,.37.06.52.21.15.15.23.32.23.52,0,.2-.08.38-.23.53l-2.25,2.22c-.2.2-.43.3-.7.3-.27,0-.5-.1-.7-.3l-.8-.8c-.15-.15-.22-.33-.21-.53,0-.2.08-.37.21-.52.15-.15.32-.23.52-.24.2,0,.38.06.53.21l.45.45,1.9-1.85c.15-.13.33-.2.53-.21Z"/></svg>