<?xml version="1.0" encoding="UTF-8"?><svg id="Layer_1" xmlns="http://www.w3.org/2000/svg" viewBox="0 0 24 24"><path d="M8,17c-.28,0-.52-.1-.71-.29s-.29-.43-.29-.71.1-.52.29-.71.43-.29.71-.29h4c-.23-.28-.42-.59-.56-.93-.14-.33-.25-.69-.34-1.07h-5.1c-.28,0-.52-.1-.71-.29s-.29-.43-.29-.71.1-.52.29-.71.43-.29.71-.29h5.1c.08-.38.2-.74.34-1.07.14-.33.33-.64.56-.93h-4c-.28,0-.52-.1-.71-.29-.19-.19-.29-.43-.29-.71s.1-.52.29-.71.43-.29.71-.29h8c1.38,0,2.56.49,3.54,1.46.98.98,1.46,2.15,1.46,3.54s-.49,2.56-1.46,3.54c-.98.98-2.15,1.46-3.54,1.46h-8ZM16,15c.83,0,1.54-.29,2.12-.88s.88-1.29.88-2.12-.29-1.54-.88-2.12c-.58-.58-1.29-.88-2.12-.88s-1.54.29-2.12.88c-.58.58-.88,1.29-.88,2.12s.29,1.54.88,2.12,1.29.88,2.12.88ZM4,17c-.28,0-.52-.1-.71-.29-.19-.19-.29-.43-.29-.71s.1-.52.29-.71c.19-.19.43-.29.71-.29h1c.28,0,.52.1.71.29s.29.43.29.71-.1.52-.29.71-.43.29-.71.29h-1Z"/></svg>