<?xml version="1.0" encoding="UTF-8"?><svg id="Layer_1" xmlns="http://www.w3.org/2000/svg" viewBox="0 0 24 24"><path d="M5.5,20c-.42,0-.77-.15-1.06-.44-.29-.29-.44-.65-.44-1.06s.15-.77.44-1.06c.29-.29.65-.44,1.06-.44s.77.15,1.06.44c.29.29.44.65.44,1.06s-.15.77-.44,1.06c-.29.29-.65.44-1.06.44ZM9.82,20c-.42,0-.77-.15-1.06-.44s-.44-.65-.44-1.06.15-.77.44-1.06.65-.44,1.06-.44.77.15,1.06.44c.29.29.44.65.44,1.06s-.15.77-.44,1.06c-.29.29-.65.44-1.06.44ZM14.18,20c-.42,0-.77-.15-1.06-.44-.29-.29-.44-.65-.44-1.06s.15-.77.44-1.06c.29-.29.65-.44,1.06-.44s.77.15,1.06.44c.29.29.44.65.44,1.06s-.15.77-.44,1.06c-.29.29-.65.44-1.06.44ZM18.5,20c-.42,0-.77-.15-1.06-.44-.29-.29-.44-.65-.44-1.06s.15-.77.44-1.06c.29-.29.65-.44,1.06-.44s.77.15,1.06.44c.29.29.44.65.44,1.06s-.15.77-.44,1.06c-.29.29-.65.44-1.06.44ZM5.5,15.68c-.42,0-.77-.15-1.06-.44-.29-.29-.44-.65-.44-1.06s.15-.77.44-1.06c.29-.29.65-.44,1.06-.44s.77.15,1.06.44c.29.29.44.65.44,1.06s-.15.77-.44,1.06c-.29.29-.65.44-1.06.44ZM9.82,15.68c-.42,0-.77-.15-1.06-.44-.29-.29-.44-.65-.44-1.06s.15-.77.44-1.06c.29-.29.65-.44,1.06-.44s.77.15,1.06.44c.29.29.44.65.44,1.06s-.15.77-.44,1.06-.65.44-1.06.44ZM14.18,15.68c-.42,0-.77-.15-1.06-.44s-.44-.65-.44-1.06.15-.77.44-1.06c.29-.29.65-.44,1.06-.44s.77.15,1.06.44.44.65.44,1.06-.15.77-.44,1.06c-.29.29-.65.44-1.06.44ZM18.5,15.68c-.42,0-.77-.15-1.06-.44-.29-.29-.44-.65-.44-1.06s.15-.77.44-1.06c.29-.29.65-.44,1.06-.44s.77.15,1.06.44c.29.29.44.65.44,1.06s-.15.77-.44,1.06c-.29.29-.65.44-1.06.44ZM5.5,11.32c-.42,0-.77-.15-1.06-.44-.29-.29-.44-.65-.44-1.06s.15-.77.44-1.06c.29-.29.65-.44,1.06-.44s.77.15,1.06.44c.29.29.44.65.44,1.06s-.15.77-.44,1.06c-.29.29-.65.44-1.06.44ZM9.82,11.32c-.42,0-.77-.15-1.06-.44-.29-.29-.44-.65-.44-1.06s.15-.77.44-1.06.65-.44,1.06-.44.77.15,1.06.44c.29.29.44.65.44,1.06s-.15.77-.44,1.06c-.29.29-.65.44-1.06.44ZM14.18,11.32c-.42,0-.77-.15-1.06-.44-.29-.29-.44-.65-.44-1.06s.15-.77.44-1.06c.29-.29.65-.44,1.06-.44s.77.15,1.06.44c.29.29.44.65.44,1.06s-.15.77-.44,1.06-.65.44-1.06.44ZM18.5,11.32c-.42,0-.77-.15-1.06-.44-.29-.29-.44-.65-.44-1.06s.15-.77.44-1.06c.29-.29.65-.44,1.06-.44s.77.15,1.06.44c.29.29.44.65.44,1.06s-.15.77-.44,1.06c-.29.29-.65.44-1.06.44ZM5.5,7c-.42,0-.77-.15-1.06-.44-.29-.29-.44-.65-.44-1.06s.15-.77.44-1.06c.29-.29.65-.44,1.06-.44s.77.15,1.06.44c.29.29.44.65.44,1.06s-.15.77-.44,1.06c-.29.29-.65.44-1.06.44ZM9.82,7c-.42,0-.77-.15-1.06-.44s-.44-.65-.44-1.06.15-.77.44-1.06.65-.44,1.06-.44.77.15,1.06.44c.29.29.44.65.44,1.06s-.15.77-.44,1.06c-.29.29-.65.44-1.06.44ZM14.18,7c-.42,0-.77-.15-1.06-.44-.29-.29-.44-.65-.44-1.06s.15-.77.44-1.06c.29-.29.65-.44,1.06-.44s.77.15,1.06.44c.29.29.44.65.44,1.06s-.15.77-.44,1.06c-.29.29-.65.44-1.06.44ZM18.5,7c-.42,0-.77-.15-1.06-.44-.29-.29-.44-.65-.44-1.06s.15-.77.44-1.06c.29-.29.65-.44,1.06-.44s.77.15,1.06.44c.29.29.44.65.44,1.06s-.15.77-.44,1.06c-.29.29-.65.44-1.06.44Z"/></svg>