<?xml version="1.0" encoding="UTF-8"?><svg id="Layer_1" xmlns="http://www.w3.org/2000/svg" viewBox="0 0 24 24"><path d="M18.6,16l-5.2-5.15-2.57,2.57c-.38.38-.86.57-1.42.57s-1.04-.19-1.43-.57l-5.28-5.32c-.18-.18-.28-.41-.29-.69,0-.28.09-.51.29-.71.18-.18.42-.28.7-.28s.52.09.7.28l5.3,5.3,2.57-2.57c.38-.38.86-.57,1.43-.57s1.04.19,1.43.57l5.17,5.17v-1.6c0-.28.1-.52.29-.71.19-.19.43-.29.71-.29s.52.1.71.29c.19.19.29.43.29.71v4c0,.28-.1.52-.29.71-.19.19-.43.29-.71.29h-4c-.28,0-.52-.1-.71-.29-.19-.19-.29-.43-.29-.71s.1-.52.29-.71c.19-.19.43-.29.71-.29h1.6Z"/></svg>