<?xml version="1.0" encoding="UTF-8"?><svg id="Layer_1" xmlns="http://www.w3.org/2000/svg" viewBox="0 0 24 24"><path d="M2.7,17.62c-.2-.2-.3-.44-.29-.71,0-.27.1-.5.29-.69l5.28-5.35c.38-.38.86-.57,1.43-.57s1.04.19,1.42.57l2.57,2.6,5.2-5.15h-1.6c-.28,0-.52-.1-.71-.29-.19-.19-.29-.43-.29-.71s.1-.52.29-.71.43-.29.71-.29h4c.28,0,.52.1.71.29s.29.43.29.71v4c0,.28-.1.52-.29.71-.19.19-.43.29-.71.29s-.52-.1-.71-.29c-.19-.19-.29-.43-.29-.71v-1.6l-5.17,5.18c-.38.38-.86.58-1.43.58s-1.04-.19-1.43-.58l-2.57-2.57-5.3,5.3c-.18.18-.42.27-.7.27s-.52-.09-.7-.27Z"/></svg>