<?xml version="1.0" encoding="UTF-8"?><svg id="Layer_1" xmlns="http://www.w3.org/2000/svg" viewBox="0 0 24 24"><path d="M4,24c-.55,0-1.02-.2-1.41-.59-.39-.39-.59-.86-.59-1.41s.2-1.02.59-1.41c.39-.39.86-.59,1.41-.59h16c.55,0,1.02.2,1.41.59.39.39.59.86.59,1.41s-.2,1.02-.59,1.41c-.39.39-.86.59-1.41.59H4ZM6,16h1.4l7.8-7.77-1.43-1.43-7.77,7.8v1.4ZM4,17v-2.82c0-.13.03-.26.07-.39.05-.12.12-.24.23-.34L15.2,2.58c.18-.18.4-.33.64-.42.24-.1.5-.15.76-.15s.52.05.77.15c.25.1.48.25.67.45l1.38,1.4c.2.18.35.4.44.65.09.25.14.51.14.78,0,.25-.05.5-.14.74-.09.24-.24.46-.44.66l-10.87,10.88c-.1.1-.21.17-.34.22-.12.05-.25.08-.39.08h-2.82c-.28,0-.52-.1-.71-.29s-.29-.43-.29-.71Z"/></svg>