<?xml version="1.0" encoding="UTF-8"?><svg id="Layer_1" xmlns="http://www.w3.org/2000/svg" viewBox="0 0 24 24"><path d="M12,18.1l2.32-2.33c.2-.2.44-.3.73-.3s.52.1.73.3c.2.2.3.44.3.73s-.1.52-.3.73l-3.08,3.07c-.1.1-.21.17-.32.21-.12.04-.24.06-.38.06s-.26-.02-.38-.06c-.12-.04-.22-.11-.32-.21l-3.07-3.07c-.2-.2-.3-.44-.3-.73s.1-.52.3-.73c.2-.2.44-.3.72-.3s.53.1.73.3l2.32,2.33ZM12,6l-2.32,2.32c-.2.2-.44.3-.73.3s-.52-.1-.72-.3-.3-.44-.3-.72.1-.53.3-.72l3.07-3.08c.1-.1.21-.17.32-.21.12-.04.24-.06.38-.06s.26.02.38.06c.12.04.23.11.32.21l3.08,3.08c.2.2.3.44.3.72s-.1.53-.3.72c-.2.2-.44.3-.73.3s-.52-.1-.73-.3l-2.32-2.32Z"/></svg>