<?xml version="1.0" encoding="UTF-8"?><svg id="Layer_1" xmlns="http://www.w3.org/2000/svg" viewBox="0 0 24 24"><path d="M10.95,12.7l-1.45-1.43c-.18-.18-.41-.27-.69-.27s-.51.1-.71.3c-.18.18-.27.42-.27.7s.09.52.27.7l2.15,2.15c.2.2.43.3.7.3s.5-.1.7-.3l4.25-4.25c.2-.2.3-.43.29-.7,0-.27-.1-.5-.29-.7-.2-.2-.44-.3-.71-.31-.28,0-.51.09-.71.29l-3.52,3.52ZM8.15,21.75l-1.45-2.45-2.75-.6c-.25-.05-.45-.18-.6-.39-.15-.21-.21-.44-.17-.69l.28-2.82-1.88-2.15c-.17-.18-.25-.4-.25-.65s.08-.47.25-.65l1.88-2.15-.28-2.82c-.03-.25.03-.48.17-.69.15-.21.35-.34.6-.39l2.75-.6,1.45-2.45c.13-.22.32-.36.55-.44.23-.08.47-.06.7.04l2.6,1.1,2.6-1.1c.23-.1.47-.11.7-.04.23.08.42.22.55.44l1.45,2.45,2.75.6c.25.05.45.18.6.39.15.21.21.44.17.69l-.27,2.82,1.88,2.15c.17.18.25.4.25.65s-.08.47-.25.65l-1.88,2.15.27,2.82c.03.25-.02.48-.17.69s-.35.34-.6.39l-2.75.6-1.45,2.45c-.13.22-.32.36-.55.44-.23.08-.47.06-.7-.04l-2.6-1.1-2.6,1.1c-.23.1-.47.11-.7.04-.23-.08-.42-.22-.55-.44ZM9.45,19.95l2.55-1.1,2.6,1.1,1.4-2.4,2.75-.65-.25-2.8,1.85-2.1-1.85-2.15.25-2.8-2.75-.6-1.45-2.4-2.55,1.1-2.6-1.1-1.4,2.4-2.75.6.25,2.8-1.85,2.15,1.85,2.1-.25,2.85,2.75.6,1.45,2.4Z"/></svg>