<?xml version="1.0" encoding="UTF-8"?><svg id="Layer_1" xmlns="http://www.w3.org/2000/svg" viewBox="0 0 24 24"><path d="M8,10h-4c-.55,0-1.02-.2-1.41-.59-.39-.39-.59-.86-.59-1.41v-4c0-.55.2-1.02.59-1.41s.86-.59,1.41-.59h4c.55,0,1.02.2,1.41.59.39.39.59.86.59,1.41v4c0,.55-.2,1.02-.59,1.41-.39.39-.86.59-1.41.59ZM8,22h-4c-.55,0-1.02-.2-1.41-.59-.39-.39-.59-.86-.59-1.41v-4c0-.55.2-1.02.59-1.41.39-.39.86-.59,1.41-.59h4c.55,0,1.02.2,1.41.59.39.39.59.86.59,1.41v4c0,.55-.2,1.02-.59,1.41-.39.39-.86.59-1.41.59ZM20,10h-4c-.55,0-1.02-.2-1.41-.59-.39-.39-.59-.86-.59-1.41v-4c0-.55.2-1.02.59-1.41.39-.39.86-.59,1.41-.59h4c.55,0,1.02.2,1.41.59.39.39.59.86.59,1.41v4c0,.55-.2,1.02-.59,1.41-.39.39-.86.59-1.41.59ZM20,22h-4c-.55,0-1.02-.2-1.41-.59-.39-.39-.59-.86-.59-1.41v-4c0-.55.2-1.02.59-1.41.39-.39.86-.59,1.41-.59h4c.55,0,1.02.2,1.41.59.39.39.59.86.59,1.41v4c0,.55-.2,1.02-.59,1.41-.39.39-.86.59-1.41.59Z"/></svg>