<?xml version="1.0" encoding="UTF-8"?><svg id="Layer_1" xmlns="http://www.w3.org/2000/svg" viewBox="0 0 24 24"><path d="M12,16c1.25,0,2.31-.44,3.19-1.31.88-.88,1.31-1.94,1.31-3.19s-.44-2.31-1.31-3.19c-.88-.88-1.94-1.31-3.19-1.31s-2.31.44-3.19,1.31-1.31,1.94-1.31,3.19.44,2.31,1.31,3.19,1.94,1.31,3.19,1.31ZM12,14.2c-.75,0-1.39-.26-1.91-.79s-.79-1.16-.79-1.91.26-1.39.79-1.91,1.16-.79,1.91-.79,1.39.26,1.91.79c.52.53.79,1.16.79,1.91s-.26,1.39-.79,1.91c-.53.52-1.16.79-1.91.79ZM12,19c-2.23,0-4.27-.6-6.11-1.8-1.84-1.2-3.3-2.78-4.36-4.75-.08-.15-.15-.3-.19-.46-.04-.16-.06-.32-.06-.49s.02-.33.06-.49c.04-.16.1-.31.19-.46,1.07-1.97,2.52-3.55,4.36-4.75,1.84-1.2,3.88-1.8,6.11-1.8s4.27.6,6.11,1.8c1.84,1.2,3.3,2.78,4.36,4.75.08.15.15.3.19.46.04.16.06.32.06.49s-.02.33-.06.49c-.04.16-.1.31-.19.46-1.07,1.97-2.52,3.55-4.36,4.75-1.84,1.2-3.88,1.8-6.11,1.8Z"/></svg>