<?xml version="1.0" encoding="UTF-8"?><svg id="Layer_1" xmlns="http://www.w3.org/2000/svg" viewBox="0 0 24 24"><path d="M15.18,8.32c.48.48.84,1.03,1.06,1.65.23.62.3,1.25.24,1.9,0,.25-.09.46-.27.64s-.4.26-.65.26-.46-.09-.64-.26c-.18-.18-.26-.39-.26-.64.08-.43.06-.85-.07-1.25s-.34-.74-.62-1.03c-.28-.28-.62-.5-1.02-.65-.4-.15-.82-.18-1.28-.1-.25,0-.46-.09-.64-.28-.18-.18-.26-.4-.26-.65s.09-.46.26-.64c.17-.17.39-.26.64-.26.63-.07,1.26.01,1.88.24.62.23,1.17.58,1.65,1.06ZM12,6c-.32,0-.62.01-.93.04s-.6.07-.9.14c-.28.05-.54,0-.76-.12-.23-.13-.38-.33-.46-.6-.08-.27-.05-.52.09-.77.14-.25.35-.4.61-.45.38-.08.77-.14,1.16-.17.39-.03.79-.05,1.19-.05,2.28,0,4.37.6,6.26,1.8,1.89,1.2,3.34,2.82,4.34,4.85.07.13.12.27.15.41.03.14.05.29.05.44s-.01.3-.04.44c-.03.14-.07.28-.14.41-.3.67-.67,1.29-1.11,1.88-.44.58-.93,1.12-1.46,1.6-.2.18-.43.26-.7.22-.27-.03-.48-.17-.65-.4-.17-.23-.24-.49-.21-.76.03-.27.14-.5.34-.69.4-.38.77-.8,1.1-1.25.33-.45.62-.93.88-1.45-.83-1.68-2.04-3.02-3.61-4.01-1.57-.99-3.3-1.49-5.19-1.49ZM12,19c-2.23,0-4.28-.6-6.12-1.81-1.85-1.21-3.31-2.8-4.38-4.76-.08-.13-.15-.28-.19-.44-.04-.16-.06-.32-.06-.49s.02-.32.05-.48c.03-.15.09-.3.18-.45.33-.67.72-1.3,1.16-1.91.44-.61.95-1.16,1.51-1.66l-2.08-2.1c-.18-.2-.27-.44-.26-.71,0-.27.1-.5.29-.69.18-.18.42-.27.7-.27s.52.09.7.27l17,17c.18.18.28.41.29.69,0,.27-.09.51-.29.71-.18.18-.42.27-.7.27s-.52-.09-.7-.27l-3.5-3.45c-.58.18-1.18.32-1.78.41-.6.09-1.21.14-1.82.14ZM5.55,8.4c-.48.43-.93.91-1.33,1.43-.4.52-.74,1.08-1.02,1.68.83,1.68,2.04,3.02,3.61,4.01,1.58.99,3.3,1.49,5.19,1.49.33,0,.66-.02.98-.06.32-.04.64-.09.97-.14l-.9-.95c-.18.05-.36.09-.53.11-.17.03-.34.04-.52.04-1.25,0-2.31-.44-3.19-1.31s-1.31-1.94-1.31-3.19c0-.18.01-.36.04-.52.02-.17.06-.34.11-.53l-2.1-2.05Z"/></svg>