<?xml version="1.0" encoding="UTF-8"?><svg id="Layer_1" xmlns="http://www.w3.org/2000/svg" viewBox="0 0 24 24"><path d="M19,11.98c0-1.38-.37-2.65-1.1-3.79-.73-1.14-1.72-2-2.95-2.56-.25-.12-.43-.3-.55-.54-.12-.24-.13-.49-.05-.74.1-.27.28-.46.54-.57.26-.12.52-.12.79,0,1.62.72,2.91,1.81,3.87,3.29.97,1.48,1.45,3.11,1.45,4.91s-.48,3.44-1.45,4.91c-.97,1.47-2.26,2.57-3.87,3.29-.27.12-.53.12-.79,0-.26-.12-.44-.31-.54-.57-.08-.25-.07-.5.05-.74.12-.24.3-.42.55-.54,1.23-.57,2.22-1.42,2.95-2.56.73-1.14,1.1-2.4,1.1-3.79ZM7,15h-3c-.28,0-.52-.1-.71-.29-.19-.19-.29-.43-.29-.71v-4c0-.28.1-.52.29-.71.19-.19.43-.29.71-.29h3l3.3-3.3c.32-.32.68-.39,1.09-.21.41.17.61.49.61.94v11.15c0,.45-.2.76-.61.94-.41.17-.77.1-1.09-.21l-3.3-3.3ZM16.5,12c0,.7-.16,1.36-.48,1.99s-.73,1.14-1.25,1.54c-.17.1-.34.1-.51.01-.18-.09-.26-.24-.26-.44v-6.25c0-.2.09-.35.26-.44.17-.09.35-.09.51.01.52.42.93.94,1.25,1.57.32.63.48,1.3.48,2ZM10,8.85l-2.15,2.15h-2.85v2h2.85l2.15,2.15v-6.3Z"/></svg>