<?xml version="1.0" encoding="UTF-8"?><svg id="Layer_1" xmlns="http://www.w3.org/2000/svg" viewBox="0 0 24 24"><path d="M7,18c-1.67,0-3.08-.58-4.25-1.75-1.17-1.17-1.75-2.58-1.75-4.25s.58-3.08,1.75-4.25c1.17-1.17,2.58-1.75,4.25-1.75,1.1,0,2.11.28,3.02.82.92.55,1.64,1.28,2.18,2.18h8.8c.55,0,1.02.2,1.41.59.39.39.59.86.59,1.41v2c0,.55-.2,1.02-.59,1.41-.39.39-.86.59-1.41.59v1c0,.55-.2,1.02-.59,1.41-.39.39-.86.59-1.41.59h-2c-.55,0-1.02-.2-1.41-.59-.39-.39-.59-.86-.59-1.41v-1h-2.8c-.53.9-1.26,1.62-2.18,2.17-.92.55-1.92.83-3.02.83ZM7,16c1.1,0,1.98-.34,2.65-1.01.67-.68,1.07-1.34,1.2-1.99h6.15v3h2v-3h2v-2h-10.15c-.13-.65-.53-1.31-1.2-1.99-.67-.68-1.55-1.01-2.65-1.01s-2.04.39-2.82,1.18c-.78.78-1.18,1.72-1.18,2.82s.39,2.04,1.18,2.82c.78.78,1.72,1.18,2.82,1.18ZM7,14c.55,0,1.02-.2,1.41-.59.39-.39.59-.86.59-1.41s-.2-1.02-.59-1.41c-.39-.39-.86-.59-1.41-.59s-1.02.2-1.41.59c-.39.39-.59.86-.59,1.41s.2,1.02.59,1.41c.39.39.86.59,1.41.59Z"/></svg>