<?xml version="1.0" encoding="UTF-8"?><svg id="Layer_1" xmlns="http://www.w3.org/2000/svg" viewBox="0 0 24 24"><path d="M7,18c-1.67,0-3.08-.58-4.25-1.75-1.17-1.17-1.75-2.58-1.75-4.25s.58-3.08,1.75-4.25c1.17-1.17,2.58-1.75,4.25-1.75,1.35,0,2.53.38,3.54,1.14,1.01.76,1.71,1.71,2.11,2.86h8.35c.55,0,1.02.2,1.41.59.39.39.59.86.59,1.41,0,.6-.21,1.08-.62,1.45s-.88.55-1.38.55v2c0,.55-.2,1.02-.59,1.41-.39.39-.86.59-1.41.59s-1.02-.2-1.41-.59c-.39-.39-.59-.86-.59-1.41v-2h-4.35c-.4,1.15-1.1,2.1-2.11,2.86-1.01.76-2.19,1.14-3.54,1.14ZM7,14c.55,0,1.02-.2,1.41-.59.39-.39.59-.86.59-1.41s-.2-1.02-.59-1.41c-.39-.39-.86-.59-1.41-.59s-1.02.2-1.41.59c-.39.39-.59.86-.59,1.41s.2,1.02.59,1.41c.39.39.86.59,1.41.59Z"/></svg>