<?xml version="1.0" encoding="UTF-8"?><svg id="Layer_1" xmlns="http://www.w3.org/2000/svg" viewBox="0 0 24 24"><path d="M5,21c-.55,0-1.02-.2-1.41-.59-.39-.39-.59-.86-.59-1.41v-5c0-.28.1-.52.29-.71.19-.19.43-.29.71-.29s.52.1.71.29.29.43.29.71v5h5c.28,0,.52.1.71.29s.29.43.29.71-.1.52-.29.71-.43.29-.71.29h-5ZM19,21h-5c-.28,0-.52-.1-.71-.29s-.29-.43-.29-.71.1-.52.29-.71.43-.29.71-.29h5v-5c0-.28.1-.52.29-.71s.43-.29.71-.29.52.1.71.29.29.43.29.71v5c0,.55-.2,1.02-.59,1.41-.39.39-.86.59-1.41.59ZM11.25,16l2.6-3.48c.1-.13.23-.2.4-.2s.3.07.4.2l2.75,3.68c.13.17.15.34.05.52-.1.18-.25.27-.45.27H7c-.2,0-.35-.09-.45-.27-.1-.18-.08-.36.05-.52l2-2.68c.1-.13.23-.2.4-.2s.3.07.4.2l1.85,2.48ZM3,5c0-.55.2-1.02.59-1.41s.86-.59,1.41-.59h5c.28,0,.52.1.71.29.19.19.29.43.29.71s-.1.52-.29.71-.43.29-.71.29h-5v5c0,.28-.1.52-.29.71s-.43.29-.71.29-.52-.1-.71-.29c-.19-.19-.29-.43-.29-.71v-5ZM21,5v5c0,.28-.1.52-.29.71s-.43.29-.71.29-.52-.1-.71-.29-.29-.43-.29-.71v-5h-5c-.28,0-.52-.1-.71-.29s-.29-.43-.29-.71.1-.52.29-.71c.19-.19.43-.29.71-.29h5c.55,0,1.02.2,1.41.59.39.39.59.86.59,1.41ZM15.5,10c-.43,0-.79-.14-1.07-.43-.28-.28-.43-.64-.43-1.07s.14-.79.43-1.07c.28-.28.64-.43,1.07-.43s.79.14,1.08.43c.28.28.42.64.42,1.07s-.14.79-.42,1.07c-.28.28-.64.43-1.08.43Z"/></svg>