<?xml version="1.0" encoding="UTF-8"?><svg id="Layer_1" xmlns="http://www.w3.org/2000/svg" viewBox="0 0 24 24"><path d="M19.8,7.25c.18.18.28.42.28.7s-.09.52-.28.7l-.72.73c-.2.2-.44.3-.71.3s-.51-.1-.71-.3c-.2-.2-.3-.44-.29-.71,0-.28.11-.51.31-.71l.73-.72c.2-.18.44-.27.71-.26.28,0,.5.1.69.29ZM3,20c-.28,0-.52-.1-.71-.29-.19-.19-.29-.43-.29-.71s.1-.52.29-.71c.19-.19.43-.29.71-.29h18c.28,0,.52.1.71.29s.29.43.29.71-.1.52-.29.71-.43.29-.71.29H3ZM12,4c.28,0,.52.1.71.29s.29.43.29.71v1c0,.28-.1.52-.29.71s-.43.29-.71.29-.52-.1-.71-.29-.29-.43-.29-.71v-1c0-.28.1-.52.29-.71s.43-.29.71-.29ZM4.25,7.2c.18-.18.42-.27.7-.27s.52.09.7.27l.72.73c.2.2.3.44.3.71s-.1.51-.3.71c-.2.18-.44.27-.72.27s-.52-.1-.7-.3l-.72-.72c-.18-.2-.27-.44-.26-.71,0-.27.1-.5.29-.69ZM5,16c0-1.95.68-3.6,2.04-4.96,1.36-1.36,3.01-2.04,4.96-2.04s3.6.68,4.96,2.04c1.36,1.36,2.04,3.01,2.04,4.96H5Z"/></svg>