<?xml version="1.0" encoding="UTF-8"?><svg id="Layer_1" xmlns="http://www.w3.org/2000/svg" viewBox="0 0 24 24"><path d="M11,3v-1c0-.28.1-.52.29-.71.19-.19.43-.29.71-.29s.52.1.71.29c.19.19.29.43.29.71v1c0,.28-.1.52-.29.71-.19.19-.43.29-.71.29s-.52-.1-.71-.29c-.19-.19-.29-.43-.29-.71ZM11,22v-1c0-.28.1-.52.29-.71s.43-.29.71-.29.52.1.71.29.29.43.29.71v1c0,.28-.1.52-.29.71s-.43.29-.71.29-.52-.1-.71-.29-.29-.43-.29-.71ZM22,13h-1c-.28,0-.52-.1-.71-.29s-.29-.43-.29-.71.1-.52.29-.71.43-.29.71-.29h1c.28,0,.52.1.71.29s.29.43.29.71-.1.52-.29.71-.43.29-.71.29ZM3,13h-1c-.28,0-.52-.1-.71-.29-.19-.19-.29-.43-.29-.71s.1-.52.29-.71c.19-.19.43-.29.71-.29h1c.28,0,.52.1.71.29.19.19.29.43.29.71s-.1.52-.29.71c-.19.19-.43.29-.71.29ZM19.75,5.68l-.35.35c-.18.18-.41.28-.69.28s-.51-.1-.71-.3c-.18-.18-.28-.41-.29-.69,0-.28.08-.51.26-.71l.38-.38c.18-.2.42-.3.7-.3s.53.1.73.3c.2.2.3.44.29.72,0,.28-.11.53-.31.73ZM6.03,19.4l-.38.38c-.18.2-.42.3-.7.3s-.52-.1-.72-.3c-.2-.2-.3-.44-.29-.73,0-.28.11-.52.31-.72l.35-.35c.18-.18.41-.27.69-.27s.51.1.71.3c.18.18.28.41.29.69s-.08.51-.26.71ZM18.33,19.75l-.35-.35c-.18-.18-.27-.41-.27-.69s.1-.51.3-.71c.18-.18.41-.28.69-.29.28,0,.51.08.71.26l.38.38c.2.18.3.42.3.7s-.1.53-.3.73c-.2.2-.44.3-.73.29-.28,0-.52-.11-.72-.31ZM4.6,6.03l-.38-.38c-.2-.18-.3-.42-.3-.7s.1-.52.3-.72c.2-.2.44-.3.72-.29s.53.11.73.31l.35.35c.18.18.28.41.28.69s-.1.51-.3.71c-.18.18-.41.28-.69.29-.27,0-.51-.08-.71-.26ZM12,18c-1.67,0-3.08-.58-4.25-1.75s-1.75-2.58-1.75-4.25.58-3.08,1.75-4.25,2.58-1.75,4.25-1.75,3.08.58,4.25,1.75,1.75,2.58,1.75,4.25-.58,3.08-1.75,4.25-2.58,1.75-4.25,1.75Z"/></svg>