<?xml version="1.0" encoding="UTF-8"?><svg id="Layer_1" xmlns="http://www.w3.org/2000/svg" viewBox="0 0 24 24"><path d="M6.5,19c-.35,0-.65-.12-.89-.36-.24-.24-.36-.54-.36-.89s.12-.65.36-.89c.24-.24.54-.36.89-.36s.65.12.89.36c.24.24.36.54.36.89s-.12.65-.36.89c-.24.24-.54.36-.89.36ZM9.5,22c-.35,0-.65-.12-.89-.36-.24-.24-.36-.54-.36-.89s.12-.65.36-.89c.24-.24.54-.36.89-.36s.65.12.89.36c.24.24.36.54.36.89s-.12.65-.36.89c-.24.24-.54.36-.89.36ZM12.5,19c-.35,0-.65-.12-.89-.36-.24-.24-.36-.54-.36-.89s.12-.65.36-.89c.24-.24.54-.36.89-.36s.65.12.89.36c.24.24.36.54.36.89s-.12.65-.36.89c-.24.24-.54.36-.89.36ZM18.5,19c-.35,0-.65-.12-.89-.36-.24-.24-.36-.54-.36-.89s.12-.65.36-.89c.24-.24.54-.36.89-.36s.65.12.89.36c.24.24.36.54.36.89s-.12.65-.36.89c-.24.24-.54.36-.89.36ZM15.5,22c-.35,0-.65-.12-.89-.36-.24-.24-.36-.54-.36-.89s.12-.65.36-.89c.24-.24.54-.36.89-.36s.65.12.89.36c.24.24.36.54.36.89s-.12.65-.36.89c-.24.24-.54.36-.89.36ZM7.5,15c-1.52,0-2.81-.54-3.89-1.61-1.08-1.07-1.61-2.37-1.61-3.89,0-1.38.46-2.59,1.38-3.62.92-1.03,2.05-1.64,3.4-1.82.53-.95,1.26-1.7,2.19-2.24.93-.54,1.94-.81,3.04-.81,1.5,0,2.8.48,3.91,1.44,1.11.96,1.78,2.15,2.01,3.59,1.15.1,2.12.57,2.9,1.42.78.85,1.17,1.87,1.17,3.05,0,1.25-.44,2.31-1.31,3.19s-1.94,1.31-3.19,1.31H7.5ZM7.5,13h10c.7,0,1.29-.24,1.77-.73.48-.48.73-1.07.73-1.77s-.24-1.29-.73-1.77c-.48-.48-1.07-.73-1.77-.73h-1.5v-1c0-1.1-.39-2.04-1.18-2.82-.78-.78-1.72-1.18-2.82-1.18-.8,0-1.53.22-2.19.65-.66.43-1.15,1.02-1.49,1.75l-.25.6h-.62c-.95.03-1.76.39-2.44,1.06-.67.68-1.01,1.49-1.01,2.44s.34,1.79,1.03,2.48,1.51,1.02,2.47,1.02Z"/></svg>