<?xml version="1.0" encoding="UTF-8"?><svg id="Layer_1" xmlns="http://www.w3.org/2000/svg" viewBox="0 0 24 24"><path d="M6.5,19c-.35,0-.65-.12-.89-.36-.24-.24-.36-.54-.36-.89s.12-.65.36-.89c.24-.24.54-.36.89-.36s.65.12.89.36c.24.24.36.54.36.89s-.12.65-.36.89c-.24.24-.54.36-.89.36ZM9.5,22c-.35,0-.65-.12-.89-.36-.24-.24-.36-.54-.36-.89s.12-.65.36-.89c.24-.24.54-.36.89-.36s.65.12.89.36c.24.24.36.54.36.89s-.12.65-.36.89c-.24.24-.54.36-.89.36ZM12.5,19c-.35,0-.65-.12-.89-.36-.24-.24-.36-.54-.36-.89s.12-.65.36-.89c.24-.24.54-.36.89-.36s.65.12.89.36c.24.24.36.54.36.89s-.12.65-.36.89c-.24.24-.54.36-.89.36ZM18.5,19c-.35,0-.65-.12-.89-.36-.24-.24-.36-.54-.36-.89s.12-.65.36-.89c.24-.24.54-.36.89-.36s.65.12.89.36c.24.24.36.54.36.89s-.12.65-.36.89c-.24.24-.54.36-.89.36ZM15.5,22c-.35,0-.65-.12-.89-.36-.24-.24-.36-.54-.36-.89s.12-.65.36-.89c.24-.24.54-.36.89-.36s.65.12.89.36c.24.24.36.54.36.89s-.12.65-.36.89c-.24.24-.54.36-.89.36ZM7.5,15c-1.52,0-2.81-.54-3.89-1.61-1.08-1.07-1.61-2.37-1.61-3.89,0-1.38.46-2.59,1.38-3.62.92-1.03,2.05-1.64,3.4-1.82.53-.95,1.26-1.7,2.19-2.24.93-.54,1.94-.81,3.04-.81,1.5,0,2.8.48,3.91,1.44,1.11.96,1.78,2.15,2.01,3.59,1.15.1,2.12.57,2.9,1.42.78.85,1.17,1.87,1.17,3.05,0,1.25-.44,2.31-1.31,3.19s-1.94,1.31-3.19,1.31H7.5Z"/></svg>