<?xml version="1.0" encoding="UTF-8"?><svg id="Layer_1" xmlns="http://www.w3.org/2000/svg" viewBox="0 0 24 24"><path d="M12,11.93l-1.7,1.3c-.1.08-.2.09-.3.01s-.13-.17-.1-.29l.65-2.1-1.75-1.4c-.08-.08-.11-.18-.07-.29.03-.11.11-.16.22-.16h2.15l.65-2.05c.03-.12.12-.17.25-.17s.22.06.25.17l.65,2.05h2.12c.12,0,.2.05.24.16.04.11.02.2-.06.29l-1.77,1.4.65,2.1c.03.12,0,.21-.1.29-.1.07-.2.07-.3-.01l-1.68-1.3ZM12,21l-4.68,1.55c-.33.12-.64.08-.91-.12-.28-.2-.41-.47-.41-.8v-6.35c-.63-.7-1.12-1.5-1.47-2.4s-.53-1.86-.53-2.88c0-2.23.78-4.12,2.32-5.68,1.55-1.55,3.44-2.32,5.68-2.32s4.12.78,5.67,2.32c1.55,1.55,2.33,3.44,2.33,5.68,0,1.02-.17,1.98-.52,2.88s-.84,1.7-1.48,2.4v6.35c0,.33-.14.6-.41.8-.27.2-.58.24-.91.12l-4.67-1.55ZM12,16c1.67,0,3.08-.58,4.25-1.75s1.75-2.58,1.75-4.25-.58-3.08-1.75-4.25-2.58-1.75-4.25-1.75-3.08.58-4.25,1.75-1.75,2.58-1.75,4.25.58,3.08,1.75,4.25,2.58,1.75,4.25,1.75ZM8,20.02l4-1.02,4,1.02v-3.1c-.58.33-1.21.6-1.89.79s-1.38.29-2.11.29-1.44-.1-2.11-.29-1.3-.45-1.89-.79v3.1Z"/></svg>