<?xml version="1.0" encoding="UTF-8"?><svg id="Layer_1" xmlns="http://www.w3.org/2000/svg" viewBox="0 0 24 24"><path d="M14,21v-1.65c0-.13.02-.26.07-.39s.12-.24.23-.34l5.22-5.2c.15-.15.32-.26.5-.32s.37-.1.55-.1c.2,0,.39.04.57.11s.35.19.5.34l.93.93c.13.15.24.32.31.5.07.18.11.37.11.55s-.03.37-.1.56c-.07.19-.17.36-.32.51l-5.2,5.2c-.1.1-.21.17-.34.22-.12.05-.25.08-.39.08h-1.65c-.28,0-.52-.1-.71-.29s-.29-.43-.29-.71ZM15.5,20.5h.95l3.02-3.05-.93-.93-3.05,3.02v.95ZM6,22c-.55,0-1.02-.2-1.41-.59-.39-.39-.59-.86-.59-1.41V4c0-.55.2-1.02.59-1.41.39-.39.86-.59,1.41-.59h7.18c.27,0,.52.05.76.15.24.1.45.24.64.42l4.85,4.85c.18.18.33.4.43.64.1.24.15.5.15.76v1.43c0,.28-.1.52-.29.71s-.43.29-.71.29-.52-.1-.71-.29-.29-.43-.29-.71v-1.25h-4c-.28,0-.52-.1-.71-.29-.19-.19-.29-.43-.29-.71v-4h-7v16h5c.28,0,.52.1.71.29s.29.43.29.71-.1.52-.29.71-.43.29-.71.29h-5ZM19.02,16.98l-.48-.45.93.93-.45-.48Z"/></svg>