<?xml version="1.0" encoding="UTF-8"?><svg id="Layer_1" xmlns="http://www.w3.org/2000/svg" viewBox="0 0 24 24"><path d="M6.4,19h1.6c.28,0,.52.1.71.29.19.19.29.43.29.71s-.1.52-.29.71c-.19.19-.43.29-.71.29h-4c-.28,0-.52-.1-.71-.29-.19-.19-.29-.43-.29-.71v-4c0-.28.1-.52.29-.71.19-.19.43-.29.71-.29s.52.1.71.29.29.43.29.71v1.6l2.4-2.4c.18-.18.42-.27.7-.27s.52.09.7.27c.18.18.27.42.27.7s-.09.52-.27.7l-2.4,2.4ZM17.6,19l-2.4-2.4c-.18-.18-.27-.42-.27-.7s.09-.52.27-.7.42-.27.7-.27.52.09.7.27l2.4,2.4v-1.6c0-.28.1-.52.29-.71s.43-.29.71-.29.52.1.71.29.29.43.29.71v4c0,.28-.1.52-.29.71s-.43.29-.71.29h-4c-.28,0-.52-.1-.71-.29s-.29-.43-.29-.71.1-.52.29-.71.43-.29.71-.29h1.6ZM5,6.4v1.6c0,.28-.1.52-.29.71-.19.19-.43.29-.71.29s-.52-.1-.71-.29c-.19-.19-.29-.43-.29-.71v-4c0-.28.1-.52.29-.71.19-.19.43-.29.71-.29h4c.28,0,.52.1.71.29.19.19.29.43.29.71s-.1.52-.29.71c-.19.19-.43.29-.71.29h-1.6l2.4,2.4c.18.18.27.42.27.7s-.09.52-.27.7c-.18.18-.42.27-.7.27s-.52-.09-.7-.27l-2.4-2.4ZM19,6.4l-2.4,2.4c-.18.18-.42.27-.7.27s-.52-.09-.7-.27c-.18-.18-.27-.42-.27-.7s.09-.52.27-.7l2.4-2.4h-1.6c-.28,0-.52-.1-.71-.29s-.29-.43-.29-.71.1-.52.29-.71c.19-.19.43-.29.71-.29h4c.28,0,.52.1.71.29.19.19.29.43.29.71v4c0,.28-.1.52-.29.71-.19.19-.43.29-.71.29s-.52-.1-.71-.29c-.19-.19-.29-.43-.29-.71v-1.6Z"/></svg>