<?xml version="1.0" encoding="UTF-8"?><svg id="Layer_1" xmlns="http://www.w3.org/2000/svg" viewBox="0 0 24 24"><path d="M8,10.5c-.28,0-.52-.1-.71-.29s-.29-.43-.29-.71.1-.52.29-.71c.19-.19.43-.29.71-.29h3c.28,0,.52.1.71.29.19.19.29.43.29.71s-.1.52-.29.71-.43.29-.71.29h-3ZM9.5,16c-1.82,0-3.35-.63-4.61-1.89-1.26-1.26-1.89-2.8-1.89-4.61s.63-3.35,1.89-4.61c1.26-1.26,2.8-1.89,4.61-1.89s3.35.63,4.61,1.89c1.26,1.26,1.89,2.8,1.89,4.61,0,.73-.12,1.43-.35,2.07-.23.65-.55,1.23-.95,1.73l5.6,5.6c.18.18.28.42.28.7s-.09.52-.28.7-.42.28-.7.28-.52-.09-.7-.28l-5.6-5.6c-.5.4-1.07.72-1.73.95-.65.23-1.34.35-2.07.35ZM9.5,14c1.25,0,2.31-.44,3.19-1.31s1.31-1.94,1.31-3.19-.44-2.31-1.31-3.19-1.94-1.31-3.19-1.31-2.31.44-3.19,1.31-1.31,1.94-1.31,3.19.44,2.31,1.31,3.19,1.94,1.31,3.19,1.31Z"/></svg>