<svg width="26" height="26" viewBox="0 0 26 26" fill="none" xmlns="http://www.w3.org/2000/svg">
<rect x="1" y="1" width="24" height="24" rx="12" fill="white"/>
<rect x="1" y="1" width="24" height="24" rx="12" stroke="#A69BF0" stroke-linecap="round" stroke-linejoin="round" stroke-dasharray="3 3"/>
<path d="M13.4162 12.156C15.1922 12.332 16.6322 13.5 16.6322 15.468C16.6322 17.628 14.9202 18.876 12.9362 18.876C11.3042 18.876 9.91216 18.124 9.36816 16.748L10.0722 16.332C10.4882 17.452 11.5282 18.06 12.9362 18.06C14.5682 18.06 15.7842 17.084 15.7842 15.468C15.7842 13.852 14.5682 12.876 12.9042 12.876H12.6642L12.2962 12.316L15.1282 8.3H9.65616V7.5H16.1042V8.3L13.4162 12.156Z" fill="#5D51AE"/>
</svg>
