<svg width="26" height="26" viewBox="0 0 26 26" fill="none" xmlns="http://www.w3.org/2000/svg">
<path fill-rule="evenodd" clip-rule="evenodd" d="M13 1.66814C14.2328 1.66802 15.5961 0.711075 16.7086 1.08793C17.8615 1.47858 18.4224 3.10262 19.382 3.83157C20.3513 4.56772 22.0024 4.62744 22.708 5.63883C23.4064 6.64029 22.9554 8.29373 23.3295 9.49693C23.6908 10.6579 25 11.7134 25 13C25 14.2867 23.6908 15.3422 23.3295 16.5031C22.9554 17.7063 23.4064 19.3598 22.708 20.3612C22.0024 21.3725 20.3513 21.4323 19.382 22.1685C18.4223 22.8974 17.8615 24.5214 16.7086 24.9121C15.5961 25.289 14.2328 24.332 13 24.3319C11.767 24.3319 10.4028 25.289 9.29028 24.9121C8.13762 24.5211 7.57642 22.8972 6.61685 22.1685C5.64744 21.4324 3.99629 21.3727 3.29086 20.3612C2.5925 19.3597 3.04354 17.7063 2.66932 16.5031C2.30807 15.3421 1.00005 14.2866 1 13C1 11.7134 2.30807 10.6578 2.66932 9.49693C3.04357 8.29377 2.59254 6.6403 3.29086 5.63883C3.99628 4.62735 5.64744 4.56757 6.61685 3.83157C7.57647 3.1028 8.13764 1.47895 9.29028 1.08793C10.4028 0.710952 11.7671 1.66814 13 1.66814Z" fill="white" stroke="#A69BF0" stroke-linecap="round" stroke-dasharray="2 2"/>
<path d="M17.1598 15.548V16.348H15.7198V18.7H14.8718V16.348H8.83984V15.548L13.0958 7.5H14.0238L9.78384 15.548H14.8718V12.028H15.7198V15.548H17.1598Z" fill="#5D51AE"/>
</svg>
