<svg width="26" height="26" viewBox="0 0 26 26" fill="none" xmlns="http://www.w3.org/2000/svg">
<path fill-rule="evenodd" clip-rule="evenodd" d="M13 1.66814C14.2328 1.66802 15.5961 0.711075 16.7086 1.08793C17.8615 1.47858 18.4224 3.10262 19.382 3.83157C20.3513 4.56772 22.0024 4.62744 22.708 5.63883C23.4064 6.64029 22.9554 8.29373 23.3295 9.49693C23.6908 10.6579 25 11.7134 25 13C25 14.2867 23.6908 15.3422 23.3295 16.5031C22.9554 17.7063 23.4064 19.3598 22.708 20.3612C22.0024 21.3725 20.3513 21.4323 19.382 22.1685C18.4223 22.8974 17.8615 24.5214 16.7086 24.9121C15.5961 25.289 14.2328 24.332 13 24.3319C11.767 24.3319 10.4028 25.289 9.29028 24.9121C8.13762 24.5211 7.57642 22.8972 6.61685 22.1685C5.64744 21.4324 3.99629 21.3727 3.29086 20.3612C2.5925 19.3597 3.04354 17.7063 2.66932 16.5031C2.30807 15.3421 1.00005 14.2866 1 13C1 11.7134 2.30807 10.6578 2.66932 9.49693C3.04357 8.29377 2.59254 6.6403 3.29086 5.63883C3.99628 4.62735 5.64744 4.56757 6.61685 3.83157C7.57647 3.1028 8.13764 1.47895 9.29028 1.08793C10.4028 0.710952 11.7671 1.66814 13 1.66814Z" stroke="white" stroke-linecap="round" stroke-dasharray="2 2"/>
<path d="M15.826 18.4095C15.9637 18.4702 16.1113 18.5 16.2584 18.5C16.4699 18.5 16.68 18.4381 16.8572 18.3175C17.1573 18.1128 17.3152 17.7713 17.2691 17.4258L16.8971 14.6342L18.9468 12.5806C19.2006 12.3265 19.2871 11.9631 19.1723 11.632C19.0576 11.3009 18.7602 11.0544 18.3957 10.9887L15.4508 10.4582L14.0029 7.99438C13.8237 7.68956 13.4821 7.5 13.1109 7.5C12.74 7.5 12.3981 7.68956 12.219 7.99438L10.7713 10.458L7.82642 10.9887C7.46195 11.0544 7.16455 11.3009 7.04979 11.632C6.9353 11.9631 7.0215 12.3263 7.27499 12.5806L9.325 14.6339L8.95298 17.4258C8.90692 17.7713 9.06478 18.1128 9.36487 18.3173C9.66496 18.522 10.0602 18.5574 10.3961 18.4095L13.1112 17.2148L15.826 18.4095Z" fill="white"/>
</svg>
